<?xml version="1.0" standalone="no"?>
<!DOCTYPE svg PUBLIC "-//W3C//DTD SVG 1.1//EN" "http://www.w3.org/Graphics/SVG/1.1/DTD/svg11.dtd" >
<svg>
<metadata>
Created by FontForge 20090914 at Mon Apr 15 16:25:37 2013
 By www-data
Copyright \251 2000, francois Bruel. All rights reserved.
</metadata>
<defs>
<font id="LondonTwo" horiz-adv-x="724" >
  <font-face 
    font-family="LondonTwo"
    font-weight="500"
    font-stretch="normal"
    units-per-em="1000"
    panose-1="2 0 6 4 4 0 0 2 0 4"
    ascent="800"
    descent="-200"
    x-height="475"
    cap-height="732"
    bbox="-238 -304.001 1192 995"
    underline-thickness="48"
    underline-position="-84"
    unicode-range="U+0005-U+E005"
  />
<missing-glyph horiz-adv-x="278" 
 />
    <glyph glyph-name=".notdef" horiz-adv-x="278" 
 />
    <glyph glyph-name="breve" horiz-adv-x="420" 
d="M286 712c-10 -28 -20.667 -48.333 -32 -61s-25.666 -19 -42.999 -19c-32 0 -56.333 26.667 -73 80l-116 1c10.667 -26 21.667 -50 33 -72s24.333 -41 39 -57s31.5 -28.5 50.5 -37.5s42.167 -13.5 69.5 -13.5c40.667 0 76.667 15 108 45s56.666 75 75.999 135z" />
    <glyph glyph-name="dotaccent" horiz-adv-x="431" 
d="M218 707c-22.667 0 -42.333 -7.8291 -59 -23.4961s-25 -34.167 -25 -55.5c0 -10.667 2.33301 -20.834 7 -30.501s10.834 -18 18.501 -25s16.5 -12.5 26.5 -16.5s20.667 -6 32 -6c23.333 0 43.166 7.66699 59.499 23s24.5 33.666 24.5 54.999
c0 10.667 -2.16699 20.667 -6.5 30s-10.333 17.666 -18 24.999s-16.5 13.166 -26.5 17.499s-21 6.5 -33 6.5z" />
    <glyph glyph-name="ring" horiz-adv-x="454" 
d="M233 684c12.667 0 23.334 -4.5 32.001 -13.5s13 -20.167 13 -33.5c0 -12 -4.33301 -22.333 -13 -31s-19.334 -13 -32.001 -13s-23.334 4.33301 -32.001 13s-13 19 -13 31c0 13.333 4.33301 24.5 13 33.5s19.334 13.5 32.001 13.5zM232 759
c-17.333 0 -33.499 -3.16699 -48.499 -9.5s-28.167 -14.833 -39.5 -25.5s-20.333 -23.167 -27 -37.5s-10 -29.833 -10 -46.5c0 -18 4 -34.5 12 -49.5s18.333 -27.833 31 -38.5s26.167 -18.834 40.5 -24.501s28.166 -8.5 41.499 -8.5c17.333 0 33.5 3.16699 48.5 9.5
s28 15 39 26s19.667 23.833 26 38.5s9.5 30.334 9.5 47.001s-3.16699 32.167 -9.5 46.5s-15 26.833 -26 37.5s-24 19.167 -39 25.5s-31.167 9.5 -48.5 9.5z" />
    <glyph glyph-name="hungarumlaut" unicode="&#xa;" horiz-adv-x="508" 
d="M508 741h-126l-150 -219h62zM308 741h-117l-146 -219h59z" />
    <glyph glyph-name="ogonek" horiz-adv-x="462" 
d="M303 -67c-9.33301 -4.66699 -18.502 -7.66797 -27.502 -9.00098s-17.167 -1.5 -24.5 -0.5s-13.333 3 -18 6s-7 6.5 -7 10.5c0 20.667 8.16699 39.834 24.5 57.501s41.5 39.167 75.5 64.5h-116c-6.66699 -2 -15.667 -6 -27 -12s-22.666 -14.333 -33.999 -25
s-21.166 -24 -29.499 -40s-12.5 -35.333 -12.5 -58c0 -12 2.16699 -24.333 6.5 -37s11 -24.167 20 -34.5s20.667 -18.833 35 -25.5s31.833 -10 52.5 -10c11.333 0 23.833 1 37.5 3s28.5 5.66699 44.5 11v99z" />
    <glyph glyph-name="caron" horiz-adv-x="455" 
d="M285 519l146 227h-128l-73 -80l-74 80h-128l149 -227h108z" />
    <glyph glyph-name="dotlessi" unicode="&#xd;" horiz-adv-x="281" 
d="M202 516l-131 -54v-475h131v529z" />
    <glyph glyph-name="fraction" horiz-adv-x="188" 
d="M445 698h-137l-546 -745h137z" />
    <glyph glyph-name="fi" horiz-adv-x="542" 
d="M317 474l-97.999 0.00195312v22c0 29.333 5.16699 53.666 15.5 72.999s26.833 29 49.5 29c16 0 29.167 -7.16699 39.5 -21.5s16.166 -35.5 17.499 -63.5l129 24c-5.33301 108 -65 162 -179 162c-66.667 0 -117 -17.833 -151 -53.5s-51 -83.834 -51 -144.501v-27h-50
l-27 -112h77v-400l130 36v364h70zM469.001 496.002l-130 -26v-483h130v509z" />
    <glyph glyph-name="fl" horiz-adv-x="603" 
d="M366 669c-17.333 10 -36.332 18.5 -56.999 25.5s-38.667 10.5 -54 10.5c-54.667 0 -96.834 -15.333 -126.501 -46s-44.5 -80 -44.5 -148v-49h-37l-25 -109h62v-366h131v366h76l26 109h-102v16c0 32 2.66699 58.833 8 80.5s16 32.5 32 32.5
c10.667 0 21.667 -3.33301 33 -10s22 -15.667 32 -27zM494.001 715l-131.001 -40.999v-555c0 -24 5.16699 -45 15.5 -63s23.5 -33.167 39.5 -45.5s33.333 -21.5 52 -27.5s36.334 -9 53.001 -9c12.667 0 26.334 1.5 41.001 4.5s26 7.83301 34 14.5l12 128
c-12 -8.66699 -24.833 -16.334 -38.5 -23.001s-26.167 -10 -37.5 -10c-4.66699 0 -9.33398 0.5 -14.001 1.5s-9 3.33301 -13 7s-7.16699 8.66699 -9.5 15s-3.5 14.833 -3.5 25.5v578z" />
    <glyph glyph-name="Lslash" horiz-adv-x="548" 
d="M223 696h-136v-365l-112 -93v-149l112 93v-195h464l-38 114h-290v188l156 128v149l-156 -128v258z" />
    <glyph glyph-name="lslash" horiz-adv-x="270" 
d="M198 722l-131 -46v-320l-92 -78v-151l92 79v-219h131v328l93 78v151l-93 -81v259z" />
    <glyph glyph-name="Zcaron" horiz-adv-x="716" 
d="M665 622l20 75h-621l-45 -116h449l-426 -512l-30 -82h656l39 114h-470zM419 737l147 227h-129l-72 -80l-75 80h-128l149 -227h108z" />
    <glyph glyph-name="zcaron" horiz-adv-x="487" 
d="M448 415l20 70h-421l-35 -113h249l-233 -304l-16 -71h436l33 113h-264zM308 529l147 227h-129l-72 -80l-74 80h-128l149 -227h107z" />
    <glyph glyph-name="space" unicode=" " horiz-adv-x="339" 
 />
    <glyph glyph-name="exclam" unicode="!" horiz-adv-x="286" 
d="M268 50l-117 116l-121 -123l118 -116zM220 709h-145l8 -533h129z" />
    <glyph glyph-name="quotedbl" unicode="&#x22;" horiz-adv-x="366" 
d="M210 740l16 -293h88l15 293h-119zM39 740l14 -293h85l13 293h-112z" />
    <glyph glyph-name="numbersign" unicode="#" horiz-adv-x="711" 
d="M255 722l-39 -192h-140v-115h116l-22 -106h-94v-116h69l-39 -189h131l39 189h90l-39 -189h130l39 189h139v116h-114l22 106h92v115h-68l41 192h-131l-40 -192h-90l39 192h-131zM322 415h91l-22 -106h-90z" />
    <glyph glyph-name="dollar" unicode="$" horiz-adv-x="582" 
d="M525 600c-21.333 21.333 -47.1689 39.668 -77.502 55.001s-60.833 24.666 -91.5 27.999v92l-108 -86c-39.333 -2 -72.333 -9.5 -99 -22.5s-48 -28.333 -64 -46s-27.5 -36.667 -34.5 -57s-10.5 -39.166 -10.5 -56.499c0 -22 3.33301 -43.167 10 -63.5
s17.334 -39.166 32.001 -56.499s33.667 -33.166 57 -47.499s52 -26.5 86 -36.5v-185c-26 4.66699 -49.167 12.167 -69.5 22.5s-43.166 27.166 -68.499 50.499l-61 -103c30 -27.333 61.167 -48.5 93.5 -63.5s67.5 -25.5 105.5 -31.5v-92l107 88
c40.667 2.66699 74.5 11.667 101.5 27s48.667 33.166 65 53.499s27.833 41.666 34.5 63.999s10 42.166 10 59.499c0 50 -15.833 90.833 -47.5 122.5s-78.834 56.5 -141.501 74.5v169c8 -0.666992 17.5 -2.66699 28.5 -6s21.833 -7.66602 32.5 -12.999
s20.834 -11.5 30.501 -18.5s17.5 -14.167 23.5 -21.5zM223.997 436.002c-22 8.66699 -36.501 18.833 -43.501 30.5s-10.5 22.167 -10.5 31.5c0 14 4.83301 27.5 14.5 40.5s22.834 19.833 39.501 20.5v-123zM355.996 256.001c20.667 -8.66699 35.333 -18.333 44 -29
s13 -24.667 13 -42c0 -18.667 -5.66699 -34.5 -17 -47.5s-25 -20.167 -41 -21.5z" />
    <glyph glyph-name="percent" unicode="%" horiz-adv-x="829" 
d="M795 168c0 26.667 -5 51.5 -15 74.5s-23.667 43.167 -41 60.5s-37.666 31 -60.999 41s-48 15 -74 15s-50.667 -5 -74 -15s-43.5 -23.667 -60.5 -41s-30.5 -37.5 -40.5 -60.5s-15 -47.833 -15 -74.5c0 -26 5 -50.667 15 -74s23.5 -43.5 40.5 -60.5
s37.167 -30.5 60.5 -40.5s48 -15 74 -15s50.667 5 74 15s43.666 23.5 60.999 40.5s31 37.167 41 60.5s15 48 15 74zM698 170c0 -13.333 -2.5 -25.498 -7.5 -36.498s-11.667 -20.833 -20 -29.5s-18.166 -15.334 -29.499 -20.001s-23.333 -7 -36 -7s-24.667 2.33301 -36 7
s-21.166 11.167 -29.499 19.5s-14.833 18.166 -19.5 29.499s-7 23.666 -7 36.999c0 12.667 2.33301 24.5 7 35.5s11.167 20.667 19.5 29s18.166 15 29.499 20s23.333 7.5 36 7.5s24.667 -2.33301 36 -7s21.166 -11.167 29.499 -19.5s15 -18.166 20 -29.499
s7.5 -23.333 7.5 -36zM404 524.002c0 26 -5 50.5 -15 73.5s-23.667 43 -41 60s-37.333 30.5 -60 40.5s-47 15 -73 15s-50.5 -5 -73.5 -15s-43 -23.5 -60 -40.5s-30.5 -37 -40.5 -60s-15 -47.5 -15 -73.5s5 -50.5 15 -73.5s23.5 -43 40.5 -60s37 -30.5 60 -40.5
s47.5 -15 73.5 -15s50.333 5 73 15s42.667 23.5 60 40.5s31 37 41 60s15 47.5 15 73.5zM306 524.002c0 -12.667 -2.5 -24.6699 -7.5 -36.0029s-11.667 -21.166 -20 -29.499s-18 -15 -29 -20s-22.833 -7.5 -35.5 -7.5s-24.667 2.33301 -36 7s-21.166 11.334 -29.499 20.001
s-15 18.5 -20 29.5s-7.5 23.167 -7.5 36.5c0 12.667 2.5 24.5 7.5 35.5s11.667 20.833 20 29.5s18.166 15.5 29.499 20.5s23.333 7.5 36 7.5s24.5 -2.5 35.5 -7.5s20.667 -11.667 29 -20s15 -18.166 20 -29.499s7.5 -23.333 7.5 -36zM743 697.999h-129l-560 -715h135z" />
    <glyph glyph-name="ampersand" unicode="&#x26;" horiz-adv-x="671" 
d="M467 356c-1.33301 -12 -3.99902 -25.5029 -7.99902 -40.5029s-8.66699 -28.167 -14 -39.5l-82 73c38 23.333 65.167 48.333 81.5 75s24.5 59 24.5 97c0 24.667 -5 47.167 -15 67.5s-23.333 38 -40 53s-36 26.667 -58 35s-45.333 12.5 -70 12.5
c-29.333 0 -56 -4.33301 -80 -13s-44.5 -20.667 -61.5 -36s-30.167 -33.5 -39.5 -54.5s-14 -43.833 -14 -68.5c0 -22.667 7 -45.5 21 -68.5s33.667 -46.833 59 -71.5c-45.333 -25.333 -78.333 -53.166 -99 -83.499s-31 -68.166 -31 -113.499c0 -26 6 -50.833 18 -74.5
s28.333 -44.5 49 -62.5s44.667 -32.5 72 -43.5s56.333 -16.5 87 -16.5c49.333 0 90.166 7.83301 122.499 23.5s60.5 36.834 84.5 63.501l109 -105l92 85l-129 127c10 20 17.833 40 23.5 60s10.5 41 14.5 63zM280.001 437.997c-17.333 14 -30.668 27.5 -40.001 40.5
s-14 25.167 -14 36.5c0 18 5.33301 33 16 45s23.667 18 39 18c16.667 0 30.834 -5.5 42.501 -16.5s17.5 -25.5 17.5 -43.5c0 -33.333 -20.333 -60 -61 -80zM382.999 161.997c-12 -17.333 -28 -31.333 -48 -42s-41 -16 -63 -16c-26 0 -48.333 7 -67 21s-28 33.667 -28 59
c0 21.333 5.5 40.5 16.5 57.5s30.5 32.5 58.5 46.5z" />
    <glyph glyph-name="quotesingle" unicode="'" horiz-adv-x="389" 
d="M43 591l153 -151l152 151l-152 152z" />
    <glyph glyph-name="parenleft" unicode="(" horiz-adv-x="394" 
d="M200 238c0 33.333 3.49902 67.666 10.499 102.999s17.667 70.833 32 106.5s32.333 70.5 54 104.5s47.167 66.333 76.5 97l-84 74c-73.333 -74 -128.833 -151.667 -166.5 -233s-56.5 -165.333 -56.5 -252s18.833 -170.667 56.5 -252s92.834 -158.333 165.501 -231l90 68
c-30 30.667 -56.167 63.334 -78.5 98.001s-40.833 70 -55.5 106s-25.667 71.833 -33 107.5s-11 70.167 -11 103.5z" />
    <glyph glyph-name="parenright" unicode=")" horiz-adv-x="392" 
d="M195 240c0 -33.333 -3.66895 -67.834 -11.002 -103.501s-18.166 -71.334 -32.499 -107.001s-32.5 -70.667 -54.5 -105s-48 -66.833 -78 -97.5l88 -71c72.667 72.667 127.834 149.834 165.501 231.501s56.5 165.834 56.5 252.501s-19.333 171.167 -58 253.5
s-95.667 160.833 -171 235.5l-74 -84c28.667 -30 53.5 -61.667 74.5 -95s38.5 -67.5 52.5 -102.5s24.5 -70.167 31.5 -105.5s10.5 -69.333 10.5 -102z" />
    <glyph glyph-name="asterisk" unicode="*" horiz-adv-x="538" 
d="M477 622l-92 93l-53 -61l-2 1l7 78h-136l5 -75l-1 -1l-49 59l-94 -93l67 -58v-2l-92 7v-124l94 7l1 -2l-71 -58l95 -92l50 57h1l-6 -77h135l-6 80l1 1l54 -62l93 93l-68 57l1 2l90 -9v125l-92 -6v2z" />
    <glyph glyph-name="plus" unicode="+" horiz-adv-x="703" 
d="M67 406v-114h224v-250l127 40v210h224v114h-224v245l-128 -40v-205h-223z" />
    <glyph glyph-name="comma" unicode="," horiz-adv-x="266" 
d="M208 149l-141.001 -44c6.66699 -38.667 11.334 -69.5 14.001 -92.5s4 -40.167 4 -51.5c0 -9.33301 -2 -18.333 -6 -27s-9.66699 -18.667 -17 -30l67 -56c27.333 29.333 47.833 58.833 61.5 88.5s20.167 56.5 19.5 80.5z" />
    <glyph glyph-name="hyphen" unicode="-" horiz-adv-x="410" 
d="M374 311h-310l-25 -118h310z" />
    <glyph glyph-name="period" unicode="." horiz-adv-x="287" 
d="M264 54l-122 115l-118 -122l121 -116z" />
    <glyph glyph-name="slash" unicode="/" horiz-adv-x="361" 
d="M230 713l-228 -725l120 -35l227 726z" />
    <glyph glyph-name="zero" unicode="0" horiz-adv-x="631" 
d="M593 339c0 40.667 -5.49707 82.498 -16.4971 125.498s-27.667 82.333 -50 118s-51 65 -86 88s-76.5 34.5 -124.5 34.5s-89.167 -11 -123.5 -33s-62.833 -50.667 -85.5 -86s-39.334 -75.166 -50.001 -119.499s-16 -89.166 -16 -134.499
c0 -53.333 6.83301 -101.666 20.5 -144.999s32.667 -80.5 57 -111.5s53.5 -54.833 87.5 -71.5s71.333 -25 112 -25c37.333 0 72.666 8 105.999 24s62.666 39.5 87.999 70.5s45.333 68.667 60 113s21.667 95.166 21 152.499zM454.003 339.998
c0 -31.333 -2.99512 -61.6699 -8.99512 -91.0029s-14.833 -55.333 -26.5 -78s-26.334 -40.667 -44.001 -54s-37.834 -20 -60.501 -20c-20 0 -38.333 5.83301 -55 17.5s-30.834 28.334 -42.501 50.001s-20.834 47.5 -27.501 77.5s-10 63.333 -10 100
c0 34.667 3.33301 67 10 97s16 55.833 28 77.5s26.333 38.667 43 51s35 18.5 55 18.5c24 0 44.667 -7.16699 62 -21.5s31.666 -33.166 42.999 -56.499s19.833 -49.666 25.5 -78.999s8.5 -59 8.5 -89z" />
    <glyph glyph-name="one" unicode="1" horiz-adv-x="315" 
d="M225 748l-133 -74v-687h133v761z" />
    <glyph glyph-name="two" unicode="2" horiz-adv-x="579" 
d="M114 513c26 28 49.166 47.5 69.499 58.5s42.5 16.5 66.5 16.5c28.667 0 52.667 -9.66699 72 -29s29 -43.666 29 -72.999c0 -20.667 -8 -45.834 -24 -75.501s-38.5 -64.834 -67.5 -105.501s-64 -87.334 -105 -140.001l-135.5 -178h527v117h-281l91.5 123.5
c27 35.667 50 68.334 69 98.001s33.5 57.334 43.5 83.001s15 51.834 15 78.501c0 32.667 -5.66699 62.5 -17 89.5s-27 50.167 -47 69.5s-43.5 34.333 -70.5 45s-55.833 16 -86.5 16c-38 0 -74.167 -7.33301 -108.5 -22s-68.166 -36.334 -101.499 -65.001z" />
    <glyph glyph-name="three" unicode="3" horiz-adv-x="501" 
d="M117 535c17.333 13.333 36.1689 25.667 56.502 37s40.5 17 60.5 17c10.667 0 20.834 -1.16699 30.501 -3.5s18.167 -6.16602 25.5 -11.499s13.333 -12.166 18 -20.499s7 -18.833 7 -31.5c0 -17.333 -4 -32 -12 -44s-19.167 -21.833 -33.5 -29.5s-31 -13 -50 -16
s-39.5 -3.5 -61.5 -1.5l38 -107c40 -2 72.333 -13.167 97 -33.5s37 -49.5 37 -87.5c0 -15.333 -2.83301 -29.333 -8.5 -42s-13.334 -23.667 -23.001 -33s-20.834 -16.5 -33.501 -21.5s-26 -7.5 -40 -7.5c-24 0 -47.667 3.5 -71 10.5s-46.333 16.167 -69 27.5l-58 -102
c32 -18.667 65 -32.167 99 -40.5s68.667 -12.5 104 -12.5c31.333 0 61 6 89 18s52.667 28.167 74 48.5s38.333 44.166 51 71.499s19 56.333 19 87c0 18.667 -3 37.5 -9 56.5s-13.833 36.5 -23.5 52.5s-21 29.667 -34 41s-26.5 18.666 -40.5 21.999
c27.333 12.667 49.333 32 66 58s25 57 25 93c0 30.667 -6.16699 57 -18.5 79s-28.666 40 -48.999 54s-43.333 24.333 -69 31s-51.834 10 -78.501 10c-30 0 -59.333 -6 -88 -18s-56.334 -27.333 -83.001 -46z" />
    <glyph glyph-name="four" unicode="4" horiz-adv-x="563" 
d="M445 745l-92 -49l-330 -482l-12 -65h301v-162h133v162h89v112h-89v484zM312 261h-109l109 166v-166z" />
    <glyph glyph-name="five" unicode="5" horiz-adv-x="520" 
d="M440 689l-323.998 0.00195312l-42 -389c23.333 10.667 47.166 18.5 71.499 23.5s47.5 7.5 69.5 7.5c36 0 66.5 -10 91.5 -30s37.5 -50.333 37.5 -91c0 -35.333 -10.667 -64.333 -32 -87s-48.666 -34 -81.999 -34c-24 0 -48.833 4.5 -74.5 13.5s-54.5 24.167 -86.5 45.5
l-46 -115c37.333 -22 72.333 -38.167 105 -48.5s66 -15.5 100 -15.5c36 0 69.167 5.83301 99.5 17.5s56.666 28.167 78.999 49.5s39.666 46.666 51.999 75.999s18.5 61.666 18.5 96.999c0 36.667 -5.66699 69.5 -17 98.5s-27.333 53.833 -48 74.5s-45.167 36.5 -73.5 47.5
s-59.5 16.5 -93.5 16.5h-23l16 126h202v117z" />
    <glyph glyph-name="six" unicode="6" horiz-adv-x="545" 
d="M319 733c-32 -26 -64.001 -56.833 -96.001 -92.5s-60.833 -75.167 -86.5 -118.5s-46.334 -89.5 -62.001 -138.5s-23.5 -99.833 -23.5 -152.5c0 -40 5.66699 -76 17 -108s27.333 -59.5 48 -82.5s45.667 -40.667 75 -53s62 -18.5 98 -18.5c32.667 0 62.667 5.16699 90 15.5
s51 24.833 71 43.5s35.5 41 46.5 67s16.5 54.333 16.5 85s-5.66699 59.167 -17 85.5s-26.833 49.166 -46.5 68.499s-43 34.5 -70 45.5s-56.167 16.5 -87.5 16.5c-13.333 0 -26.666 -1 -39.999 -3s-25.666 -5.66699 -36.999 -11c4 16 9.66699 33.333 17 52
s17.833 38.834 31.5 60.501s31.167 44.5 52.5 68.5s48 49.333 80 76zM183.999 239c17.333 14 33.999 24.167 49.999 30.5s33 9.5 51 9.5c13.333 0 25.833 -2.66699 37.5 -8s21.667 -12.5 30 -21.5s15 -19.5 20 -31.5s7.5 -25 7.5 -39c0 -12.667 -2.33301 -24.5 -7 -35.5
s-11.334 -20.5 -20.001 -28.5s-18.667 -14.333 -30 -19s-23.666 -7 -36.999 -7c-29.333 0 -53.666 11.667 -72.999 35s-29 56 -29 98v17z" />
    <glyph glyph-name="seven" unicode="7" horiz-adv-x="554" 
d="M551 698h-524v-118h328l-254 -565l118 -51z" />
    <glyph glyph-name="eight" unicode="8" horiz-adv-x="557" 
d="M137 356c-54.667 -38.667 -82.001 -93.0039 -82.001 -163.004c0 -30 5.83301 -58.167 17.5 -84.5s27.667 -49.166 48 -68.499s44.166 -34.666 71.499 -45.999s57 -17 89 -17c31.333 0 60.666 5.66699 87.999 17s51 26.833 71 46.5s35.833 42.834 47.5 69.501
s17.5 55.667 17.5 87c0 68 -28 121 -84 159c23.333 18.667 41 39.667 53 63s18 50 18 80c0 28.667 -5.66699 55.5 -17 80.5s-26.666 46.833 -45.999 65.5s-42 33.334 -68 44.001s-53.667 16 -83 16c-28.667 0 -55.667 -5.16699 -81 -15.5s-47.666 -25 -66.999 -44
s-34.666 -41.5 -45.999 -67.5s-17 -55 -17 -87c0 -54.667 23.333 -99.667 70 -135zM279.999 411.996c-22.667 0 -41.501 8.33203 -56.501 24.999s-22.5 37.334 -22.5 62.001c0 24 7.5 44.5 22.5 61.5s33.167 25.5 54.5 25.5c22.667 0 41.667 -8.33301 57 -25
s23 -36.667 23 -60c0 -25.333 -7.16699 -46.5 -21.5 -63.5s-33.166 -25.5 -56.499 -25.5zM277.998 293.995c26 0 48 -9.16895 66 -27.502s27 -40.833 27 -67.5c0 -30 -8.33301 -55 -25 -75s-38.334 -30 -65.001 -30c-13.333 0 -25.666 2.5 -36.999 7.5s-21 11.833 -29 20.5
s-14.333 18.834 -19 30.501s-7 23.834 -7 36.501c0 14 2.16699 27.5 6.5 40.5s10.5 24.167 18.5 33.5s17.5 16.833 28.5 22.5s22.833 8.5 35.5 8.5z" />
    <glyph glyph-name="nine" unicode="9" horiz-adv-x="559" 
d="M248 -48c32 26 64 56.833 96 92.5s60.667 75.167 86 118.5s45.833 89.5 61.5 138.5s23.5 99.833 23.5 152.5c0 40 -5.66699 76 -17 108s-27.333 59.333 -48 82s-45.667 40.167 -75 52.5s-62 18.5 -98 18.5c-32.667 0 -62.667 -5.33301 -90 -16s-51 -25.667 -71 -45
s-35.5 -42.166 -46.5 -68.499s-16.5 -55.5 -16.5 -87.5c0 -30 5.66699 -57.833 17 -83.5s27 -47.834 47 -66.501s43.5 -33.334 70.5 -44.001s56.167 -16 87.5 -16c13.333 0 26 1.33301 38 4s24.333 6.33398 37 11.001c-6.66699 -16 -14.5 -33.667 -23.5 -53
s-20.5 -40 -34.5 -62s-30.833 -45 -50.5 -69s-43.5 -48.333 -71.5 -73zM383 446c-17.333 -14 -34.001 -23.999 -50.001 -29.999s-33.333 -9 -52 -9c-26.667 0 -49 9.33301 -67 28s-27 42 -27 70c0 26 8.83301 47.833 26.5 65.5s39.834 26.5 66.501 26.5
c29.333 0 54 -11.667 74 -35s30 -56.333 30 -99v-9c0 -2.66699 -0.333008 -5.33398 -1 -8.00098z" />
    <glyph glyph-name="colon" unicode=":" horiz-adv-x="305" 
d="M275 396l-121 118l-119 -120l118 -119zM275 66l-121 119l-119 -121l118 -118z" />
    <glyph glyph-name="semicolon" unicode=";" horiz-adv-x="295" 
d="M269 392l-124 116l-117 -122l120 -116zM210 141l-142.002 -44c7.33301 -38.667 12.333 -69.667 15 -93s4 -40.333 4 -51c0 -9.33301 -2.16699 -18.333 -6.5 -27s-10.166 -19 -17.499 -31l68 -56c26.667 30 46.834 59.833 60.501 89.5s20.5 56.167 20.5 79.5z" />
    <glyph glyph-name="less" unicode="&#x3c;" horiz-adv-x="557" 
d="M42 322l467 -275v135l-271 161l271 159v135l-436 -250z" />
    <glyph glyph-name="equal" unicode="=" horiz-adv-x="670" 
d="M49 512v-114h575v114h-575zM49 287v-114h575v114h-575z" />
    <glyph glyph-name="greater" unicode="&#x3e;" horiz-adv-x="582" 
d="M521 363l-467 274v-135l271 -160l-271 -160v-135l436 250z" />
    <glyph glyph-name="question" unicode="?" horiz-adv-x="377" 
d="M94 595c9.33301 17.333 21.5 29.166 36.5 35.499s28.5 9.5 40.5 9.5c11.333 0 22 -5.66699 32 -17s15 -24.333 15 -39c0 -28 -6.5 -53.667 -19.5 -77s-27.167 -45.5 -42.5 -66.5s-29.5 -42 -42.5 -63s-19.5 -43.167 -19.5 -66.5s4 -48.166 12 -74.499
s25 -52.166 51 -77.499l78 71c-8 11.333 -13.333 22.5 -16 33.5s-4 22.167 -4 33.5c0 15.333 3.33301 29.833 10 43.5s15 27.167 25 40.5s21 27 33 41s23 28.833 33 44.5s18.333 32.667 25 51s10 38.833 10 61.5c0 28 -4.66699 52.833 -14 74.5s-21.833 40 -37.5 55
s-33.667 26.333 -54 34s-41.5 11.5 -63.5 11.5c-20 0 -42.333 -2.83301 -67 -8.5s-48 -14.834 -70 -27.501zM301 60l-117 115l-122 -121l122 -117z" />
    <glyph glyph-name="at" unicode="@" horiz-adv-x="912" 
d="M620 494l-2 -0.000976562c-16.667 27.333 -39.167 46.666 -67.5 57.999s-57.5 17 -87.5 17c-38.667 0 -74.5 -8.33301 -107.5 -25s-61.5 -38.834 -85.5 -66.501s-42.833 -59.167 -56.5 -94.5s-20.5 -71.666 -20.5 -108.999c0 -36 4.83301 -69.333 14.5 -100
s23.167 -57 40.5 -79s37.666 -39.333 60.999 -52s49 -19 77 -19c14 0 29 2.16699 45 6.5s31.333 10 46 17s27.5 15.167 38.5 24.5s18.5 19 22.5 29l2 -2c-2.66699 -16 -1.83398 -30 2.49902 -42s10.833 -21.667 19.5 -29s18.5 -12.833 29.5 -16.5s22.167 -5.5 33.5 -5.5
c28.667 0 57.834 6.16699 87.501 18.5s56.667 32.333 81 60s44.166 63.334 59.499 107.001s23 96.834 23 159.501c0 42.667 -7.5 85.834 -22.5 129.501s-38.333 83.167 -70 118.5s-72.167 64.166 -121.5 86.499s-108 33.5 -176 33.5c-77.333 0 -144.333 -13 -201 -39
s-103.5 -59.667 -140.5 -101s-64.5 -88.166 -82.5 -140.499s-27 -104.833 -27 -157.5c0 -64 11 -122.5 33 -175.5s52.833 -98.333 92.5 -136s87 -66.834 142 -87.501s115.5 -31 181.5 -31c34 0 68 3.16699 102 9.5s66 14.666 96 24.999s56.5 22.166 79.5 35.499
s40.5 27 52.5 41l-70 75c-35.333 -31.333 -75.666 -53.166 -120.999 -65.499s-94 -18.5 -146 -18.5c-47.333 0 -90.666 7.83301 -129.999 23.5s-73 37.834 -101 66.501s-49.833 63 -65.5 103s-23.5 84.333 -23.5 133c0 50.667 8 97.167 24 139.5s38.5 78.666 67.5 108.999
s63.333 54 103 71s83.167 25.5 130.5 25.5c57.333 0 104.5 -9.16699 141.5 -27.5s66.333 -41.166 88 -68.499s36.667 -56.833 45 -88.5s12.5 -60.834 12.5 -87.501c0 -46 -4.33301 -84 -13 -114s-19 -54 -31 -72s-24.167 -30.667 -36.5 -38s-21.833 -11 -28.5 -11
c-9.33301 0 -16 6.33301 -20 19s-3.66699 29.334 1 50.001l74 340zM536 364.999c0 -21.333 -3.16895 -44.668 -9.50195 -70.001s-15.166 -49.166 -26.499 -71.499s-25.333 -41 -42 -56s-35 -22.5 -55 -22.5c-21.333 0 -39 9.66699 -53 29s-21 45 -21 77
c0 18.667 2.66699 40 8 64s13.5 46.667 24.5 68s24.833 39.166 41.5 53.499s36.334 21.5 59.001 21.5c22 0 39.833 -8.66699 53.5 -26s20.5 -39.666 20.5 -66.999z" />
    <glyph glyph-name="A" unicode="A" horiz-adv-x="728" 
d="M393 715l-80 -34l-314 -681l119 -57l118 256h253l116 -254l122 55zM437 313h-149l74 163z" />
    <glyph glyph-name="B" unicode="B" horiz-adv-x="602" 
d="M79 697l0.000976562 -708.001h227c39.333 0 75 4.66699 107 14s59.333 22.5 82 39.5s40.167 37.833 52.5 62.5s18.5 52.334 18.5 83.001c0 48 -11 87 -33 117s-52 50.667 -90 62c21.333 18 38 38.167 50 60.5s18 49.833 18 82.5c0 21.333 -3.83301 43 -11.5 65
s-21.334 42 -41.001 60s-46.667 32.833 -81 44.5s-78.5 17.5 -132.5 17.5h-166zM215.001 580.999l23 0.000976562c18.667 0 36.167 -1.33301 52.5 -4s30.5 -7.33398 42.5 -14.001s21.333 -15.667 28 -27s10 -25.333 10 -42c0 -28 -9.66699 -50.167 -29 -66.5
s-53.333 -24.5 -102 -24.5h-25v178zM215.001 290h67c30 0 54.333 -2.83301 73 -8.5s33.334 -13 44.001 -22s18 -19 22 -30s6 -22.167 6 -33.5c0 -10.667 -2 -21.5 -6 -32.5s-11.333 -21 -22 -30s-24.834 -16.333 -42.501 -22s-40.167 -8.5 -67.5 -8.5h-74v187z" />
    <glyph glyph-name="C" unicode="C" horiz-adv-x="749" 
d="M714 642c-55.333 25.333 -105.334 42.832 -150.001 52.499s-87.334 14.5 -128.001 14.5c-49.333 0 -96.666 -8.83301 -141.999 -26.5s-85.5 -42.5 -120.5 -74.5s-63 -70.333 -84 -115s-31.5 -94.334 -31.5 -149.001c0 -52 9.66699 -100 29 -144s46 -82.333 80 -115
s74.333 -58.167 121 -76.5s97.667 -27.5 153 -27.5c40 0 82.833 4.66699 128.5 14s95.167 28 148.5 56l-43 116c-26.667 -13.333 -51 -24.166 -73 -32.499s-42.5 -15 -61.5 -20s-36.667 -8.5 -53 -10.5s-32.166 -3 -47.499 -3c-35.333 0 -67.833 6 -97.5 18
s-55.167 28.667 -76.5 50s-38 47 -50 77s-18 62.667 -18 98s6 68 18 98s28.5 56 49.5 78s45.833 39.167 74.5 51.5s59.667 18.5 93 18.5c38.667 0 76 -5.66699 112 -17s73.667 -26.666 113 -45.999z" />
    <glyph glyph-name="D" unicode="D" horiz-adv-x="794" 
d="M78 697v-708.001h281c70 0 129 10.833 177 32.5s86.667 49.834 116 84.501s50.5 73.167 63.5 115.5s19.5 84.5 19.5 126.5c0 38.667 -6 78.667 -18 120s-33 79 -63 113s-70 61.833 -120 83.5s-113 32.5 -189 32.5h-267zM214 580.999l134 0.000976562
c36.667 0 70.167 -5.66699 100.5 -17s56.5 -27.166 78.5 -47.499s39 -44.833 51 -73.5s18 -60.334 18 -95.001c0 -40 -6.5 -75.167 -19.5 -105.5s-30.5 -55.833 -52.5 -76.5s-47.5 -36.334 -76.5 -47.001s-59.5 -16 -91.5 -16h-142v478z" />
    <glyph glyph-name="E" unicode="E" horiz-adv-x="556" 
d="M532 697h-453v-708h455l-38 114h-281v185h265v114h-265v179h266z" />
    <glyph glyph-name="F" unicode="F" horiz-adv-x="522" 
d="M512 697h-432v-708h136v310h246v115h-246v167h246z" />
    <glyph glyph-name="G" unicode="G" horiz-adv-x="787" 
d="M713 639c-31.333 14 -59.1709 25.332 -83.5039 33.999s-47 15.334 -68 20.001s-41 7.83398 -60 9.50098s-38.5 2.5 -58.5 2.5c-55.333 0 -106.666 -9.16699 -153.999 -27.5s-88.166 -43.5 -122.499 -75.5s-61.166 -70.167 -80.499 -114.5s-29 -92.5 -29 -144.5
c0 -52.667 9.83301 -101.334 29.5 -146.001s47 -83.334 82 -116.001s76.333 -58.167 124 -76.5s99.5 -27.5 155.5 -27.5c40 0 82.667 5.66699 128 17s92 29 140 53v326l-134 -61v-190c-19.333 -8.66699 -39.5 -15 -60.5 -19s-44.833 -6 -71.5 -6
c-43.333 0 -80.666 6.83301 -111.999 20.5s-57.5 32 -78.5 55s-36.5 49 -46.5 78s-15 59.167 -15 90.5c0 35.333 6 67.833 18 97.5s28.5 55.334 49.5 77.001s46 38.667 75 51s60.5 18.5 94.5 18.5c32 0 66.5 -4.5 103.5 -13.5s80.167 -26.5 129.5 -52.5z" />
    <glyph glyph-name="H" unicode="H" horiz-adv-x="767" 
d="M688 696h-134v-302h-340v302h-136v-744l136 46v282h340v-282l134 -46v744z" />
    <glyph glyph-name="I" unicode="I" horiz-adv-x="298" 
d="M216 732l-136 -51v-692h136v743z" />
    <glyph glyph-name="J" unicode="J" horiz-adv-x="337" 
d="M265 730l-135.995 -51v-490c0 -30 -3.83301 -52.167 -11.5 -66.5s-18.834 -22.5 -33.501 -24.5c-2.66699 0 -9.83398 0.166992 -21.501 0.5s-30.834 6.5 -57.501 18.5l14 -132c14 -1.33301 27.333 -2.66602 40 -3.99902s22 -2 28 -2c28.667 0 52.167 4.33301 70.5 13
s37.166 22.667 56.499 42c19.333 18.667 32.666 42.167 39.999 70.5s11 61.166 11 98.499v527z" />
    <glyph glyph-name="K" unicode="K" horiz-adv-x="606" 
d="M572 646l-91 83l-269 -281v271l-136 -38v-692h136v260l303 -288l91 84l-317 301z" />
    <glyph glyph-name="L" unicode="L" horiz-adv-x="549" 
d="M214 696h-136v-707h469l-50 114h-283v593z" />
    <glyph glyph-name="M" unicode="M" horiz-adv-x="828" 
d="M412 363l-233 316l-103 71v-801l136 49v422h2l198 -273l199 274h1v-423l136 -49v804l-102 -74z" />
    <glyph glyph-name="N" unicode="N" horiz-adv-x="818" 
d="M740 697h-135v-474l-418 468l-108 54v-756h136v477l421 -471l104 -53v755z" />
    <glyph glyph-name="O" unicode="O" horiz-adv-x="864" 
d="M812 341c0 50.667 -9.83301 98.167 -29.5 142.5s-46.667 82.833 -81 115.5s-74.666 58.5 -120.999 77.5s-96.166 28.5 -149.499 28.5s-103.166 -9.5 -149.499 -28.5s-86.5 -44.833 -120.5 -77.5s-60.833 -71.167 -80.5 -115.5s-29.5 -91.833 -29.5 -142.5
c0 -51.333 9.83301 -99 29.5 -143s46.5 -82.5 80.5 -115.5s74.167 -58.833 120.5 -77.5s96.166 -28 149.499 -28s103.166 9.33301 149.499 28s86.666 44.5 120.999 77.5s61.333 71.5 81 115.5s29.5 91.667 29.5 143zM674 341c0 -34.667 -6.16699 -66.834 -18.5 -96.501
s-29.5 -55.5 -51.5 -77.5s-47.667 -39.167 -77 -51.5s-61 -18.5 -95 -18.5s-65.667 6.16699 -95 18.5s-54.833 29.5 -76.5 51.5s-38.834 47.833 -51.501 77.5s-19 61.834 -19 96.501s6.33301 66.834 19 96.501s29.834 55.5 51.501 77.5s47.167 39.167 76.5 51.5
s61 18.5 95 18.5s65.667 -6.16699 95 -18.5s55 -29.5 77 -51.5s39.167 -47.833 51.5 -77.5s18.5 -61.834 18.5 -96.501z" />
    <glyph glyph-name="P" unicode="P" horiz-adv-x="573" 
d="M78 697l-0.000976562 -710.002h136v299h79c49.333 0 90.333 6.16699 123 18.5s58.834 28.333 78.501 48s33.5 41.834 41.5 66.501s12 49.667 12 75c0 28 -4.66699 54.167 -14 78.5s-24 45.833 -44 64.5s-45.5 33.334 -76.5 44.001s-68.167 16 -111.5 16h-224z
M213.999 582.998h80.998c40.667 0 70 -8.83301 88 -26.5s27 -38.834 27 -63.501c0 -12.667 -2.16699 -24.667 -6.5 -36s-11.166 -21.166 -20.499 -29.499s-21.666 -15 -36.999 -20s-34 -7.5 -56 -7.5h-76v183z" />
    <glyph glyph-name="Q" unicode="Q" horiz-adv-x="862" 
d="M428 -25c53.333 0 103.333 9.50488 150 28.5049s87.334 45.167 122.001 78.5s62 72.333 82 117s30 93 30 145c0 51.333 -9.66699 99.166 -29 143.499s-46 82.666 -80 114.999s-74.333 57.833 -121 76.5s-97 28 -151 28s-104.167 -9.33301 -150.5 -28
s-86.5 -44.334 -120.5 -77.001s-60.667 -71.334 -80 -116.001s-29 -92.667 -29 -144c0 -24 2.5 -48 7.5 -72s12.167 -47.167 21.5 -69.5s20.666 -43.333 33.999 -63s28.666 -36.834 45.999 -51.501c2.66699 -62 7 -122.833 13 -182.5s15 -117.834 27 -174.501l124 -30
c-1.33301 10 -3 21.833 -5 35.5s-4.16699 31.834 -6.5 54.501s-4.66602 50.834 -6.99902 84.501s-4.5 75.167 -6.5 124.5c8.66699 -4.66699 18.5 -8.5 29.5 -11.5s22.5 -5.33301 34.5 -7s23.667 -2.83398 35 -3.50098s21.333 -1 30 -1zM674 343.005
c0 -34 -6.50195 -65.999 -19.502 -95.999s-30.667 -56 -53 -78s-48.333 -39.333 -78 -52s-61.167 -19 -94.5 -19s-64.5 6.33301 -93.5 19s-54.333 30.167 -76 52.5s-38.667 48.333 -51 78s-18.5 61.5 -18.5 95.5s6.33301 65.833 19 95.5s29.834 55.5 51.501 77.5
s47.167 39.333 76.5 52s61 19 95 19s65.667 -6.16699 95 -18.5s54.833 -29.5 76.5 -51.5s38.834 -47.833 51.501 -77.5s19 -61.834 19 -96.501z" />
    <glyph glyph-name="R" unicode="R" horiz-adv-x="633" 
d="M79 697v-709.999h135v306h90l229 -338l110 69l-214 305c74 33.333 111 91.666 111 174.999c0 24.667 -4.5 48.667 -13.5 72s-23.5 44 -43.5 62s-46.167 32.333 -78.5 43s-71.833 16 -118.5 16h-207zM214 582.001h61c44 0 76 -8 96 -24s30 -36.667 30 -62
c0 -28 -10.167 -49.833 -30.5 -65.5s-51.5 -23.5 -93.5 -23.5h-63v175z" />
    <glyph glyph-name="S" unicode="S" horiz-adv-x="560" 
d="M477 642c-68 42 -134.997 63.0029 -200.997 63.0029c-31.333 0 -60.833 -5.33301 -88.5 -16s-51.667 -25.334 -72 -44.001s-36.5 -40.5 -48.5 -65.5s-18 -51.833 -18 -80.5c0 -40.667 8 -72.667 24 -96s36 -42.166 60 -56.499s50.167 -25.5 78.5 -33.5
s54.5 -16.833 78.5 -26.5s44 -21.834 60 -36.501s24 -35.667 24 -63c0 -10.667 -2 -21.334 -6 -32.001s-10.5 -20.334 -19.5 -29.001s-20.667 -15.667 -35 -21s-31.5 -8 -51.5 -8c-12.667 0 -25.834 2.5 -39.501 7.5s-27.334 11.333 -41.001 19s-27.5 16.167 -41.5 25.5
l-40 27l-50 -118c40.667 -26 79.5 -46 116.5 -60s74.5 -21 112.5 -21c32.667 0 63.334 5 92.001 15s53.667 24.5 75 43.5s38.166 42.333 50.499 70s18.5 59.167 18.5 94.5c0 40.667 -8 73.167 -24 97.5s-36 44 -60 59s-50.167 26.667 -78.5 35s-54.5 17 -78.5 26
s-44 19.667 -60 32s-24 29.5 -24 51.5c0 24 8.66699 44 26 60s39 24 65 24c23.333 0 45.666 -5.16699 66.999 -15.5s47 -23.5 77 -39.5z" />
    <glyph glyph-name="T" unicode="T" horiz-adv-x="653" 
d="M656 697h-618l-42 -116h256v-594h136v594h226z" />
    <glyph glyph-name="U" unicode="U" horiz-adv-x="753" 
d="M548 682v-375c0 -38.667 -5.33301 -71.5 -16 -98.5s-24.5 -49 -41.5 -66s-36.333 -29.333 -58 -37s-43.5 -11.5 -65.5 -11.5c-22.667 0 -44.167 4 -64.5 12s-38.166 20.5 -53.499 37.5s-27.5 38.5 -36.5 64.5s-13.5 56.667 -13.5 92v382l-135 34v-417
c0 -54 8 -101.333 24 -142s37.667 -74.5 65 -101.5s59.333 -47.333 96 -61s76 -20.5 118 -20.5c31.333 0 63.166 5.33301 95.499 16s61.5 26 87.5 46v-39l132 -41v760z" />
    <glyph glyph-name="V" unicode="V" horiz-adv-x="654" 
d="M656 679l-122 52l-205 -494l-206 494l-123 -52l276 -669l75 -61z" />
    <glyph glyph-name="W" unicode="W" horiz-adv-x="1071" 
d="M534 450l171 -441l74 -70l293 741l-127 47l-186 -480l-197 492l-76 -53l-173 -447l-189 490l-124 -51l263 -671l76 -60z" />
    <glyph glyph-name="X" unicode="X" horiz-adv-x="753" 
d="M377 452l-251 280l-108 -76l271 -304l-288 -322l109 -76l267 301l272 -303l103 77l-286 323l268 305l-105 76z" />
    <glyph glyph-name="Y" unicode="Y" horiz-adv-x="656" 
d="M661 674l-115 56l-219 -257l-219 259l-116 -59l267 -318v-367h136v367z" />
    <glyph glyph-name="Z" unicode="Z" horiz-adv-x="719" 
d="M665 622l20 75h-621l-45 -116h449l-426 -512l-30 -82h656l39 114h-470z" />
    <glyph glyph-name="bracketleft" unicode="[" horiz-adv-x="391" 
d="M200 579h142l38 118h-310v-917h310l-38 118h-142v681z" />
    <glyph glyph-name="backslash" unicode="\" horiz-adv-x="367" 
d="M238 -55l117 39l-226 725l-120 -37z" />
    <glyph glyph-name="bracketright" unicode="]" horiz-adv-x="391" 
d="M189 -110h-144l-35 -118h310v917h-310l38 -117h141v-682z" />
    <glyph glyph-name="asciicircum" unicode="^" horiz-adv-x="744" 
d="M372 734l-261 -312l91 -76l170 203l167 -202l94 75z" />
    <glyph glyph-name="underscore" unicode="_" horiz-adv-x="550" 
d="M-6 -94v-120h565v120h-565z" />
    <glyph glyph-name="grave" unicode="`" horiz-adv-x="381" 
d="M68 729l160 -226l62 45l-141 229z" />
    <glyph glyph-name="a" unicode="a" horiz-adv-x="486" 
d="M425 -37l-0.000976562 382.999c0 29.333 -5.5 53.5 -16.5 72.5s-24.833 34 -41.5 45s-34.5 18.667 -53.5 23s-36.833 6.5 -53.5 6.5c-32 0 -66.167 -3.5 -102.5 -10.5s-73.166 -21.833 -110.499 -44.5l53 -105c23.333 17.333 47.833 29.833 73.5 37.5
s49.5 11.5 71.5 11.5c15.333 0 27.5 -4 36.5 -12s13.5 -18 13.5 -30v-21c-28.667 0 -58.167 -2 -88.5 -6s-57.833 -12.5 -82.5 -25.5s-45 -31.167 -61 -54.5s-24 -54 -24 -92c0 -19.333 4.16699 -38.333 12.5 -57s19.666 -35.667 33.999 -51s31 -27.666 50 -36.999
s39.5 -14 61.5 -14c10.667 0 22.334 0.333008 35.001 1s25.167 1.66699 37.5 3s23.833 2.83301 34.5 4.5s19 3.16699 25 4.5zM294.999 102.999c-3.33301 -1.33301 -8.33301 -2.66699 -15 -4s-13.834 -2.5 -21.501 -3.5s-15.667 -1.83301 -24 -2.5s-15.833 -1 -22.5 -1
c-11.333 0 -20.833 4.83301 -28.5 14.5s-11.5 21.167 -11.5 34.5c0 14.667 3.5 26.667 10.5 36s16.333 16.5 28 21.5s24.834 8.33301 39.501 10s29.667 2.5 45 2.5v-108z" />
    <glyph glyph-name="b" unicode="b" horiz-adv-x="564" 
d="M59 20c36.667 -16 69.499 -27.501 98.499 -34.501s59.833 -10.5 92.5 -10.5c42 0 80.167 6.33301 114.5 19s63.5 30.834 87.5 54.501s42.667 52 56 85s20 69.833 20 110.5c0 35.333 -5.83301 67.833 -17.5 97.5s-27.667 55.167 -48 76.5s-44.666 38 -72.999 50
s-59.5 18 -93.5 18c-24 0 -44 -1.5 -60 -4.5s-31.667 -7.83301 -47 -14.5v258l-130 -38v-667zM188.999 334.999c18.667 14.667 35.5 24.498 50.5 29.498s31.833 7.5 50.5 7.5c30 0 54.833 -12 74.5 -36s29.5 -55.333 29.5 -94c0 -21.333 -3.5 -41.166 -10.5 -59.499
s-16.5 -34.166 -28.5 -47.499s-26.5 -23.833 -43.5 -31.5s-35.5 -11.5 -55.5 -11.5c-10.667 0 -21.5 0.833008 -32.5 2.5s-22.5 4.16699 -34.5 7.5v233z" />
    <glyph glyph-name="c" unicode="c" horiz-adv-x="515" 
d="M489 436c-34.667 15.333 -69.499 27.834 -104.499 37.501s-64.167 14.5 -87.5 14.5c-37.333 0 -72 -6.33301 -104 -19s-59.5 -30.5 -82.5 -53.5s-41 -50.5 -54 -82.5s-19.5 -67.333 -19.5 -106c0 -36.667 6.5 -70.334 19.5 -101.001s31 -57 54 -79
s50.667 -39.167 83 -51.5s67.833 -18.5 106.5 -18.5c12 0 25.833 1 41.5 3s32.334 5.16699 50.001 9.5s35.667 9.5 54 15.5s36.166 13 53.499 21l-52 105c-36.667 -14 -65.5 -23.667 -86.5 -29s-40.167 -8 -57.5 -8c-40.667 0 -72.834 12 -96.501 36s-35.5 57 -35.5 99
s11.667 75.833 35 101.5s54 38.5 92 38.5c8 0 16.167 -0.5 24.5 -1.5s18 -3 29 -6s23.5 -6.83301 37.5 -11.5s30.667 -11 50 -19z" />
    <glyph glyph-name="d" unicode="d" horiz-adv-x="577" 
d="M508 727l-130.999 -37.999v-212c-22 8 -49.667 12 -83 12c-36.667 0 -70.5 -6.33301 -101.5 -19s-57.667 -30.334 -80 -53.001s-39.833 -49.667 -52.5 -81s-19 -66 -19 -104c0 -36 6.5 -69.5 19.5 -100.5s31 -58 54 -81s49.833 -41 80.5 -54s64 -19.5 100 -19.5
c23.333 0 44.166 2.5 62.499 7.5s38.5 10.167 60.5 15.5l90 -35v762zM377.001 118.001c-12.667 -7.33301 -24.3311 -13.5 -34.998 -18.5s-23.334 -7.5 -38.001 -7.5c-19.333 0 -36.833 3.66699 -52.5 11s-29.334 17.5 -41.001 30.5s-20.667 28.167 -27 45.5s-9.5 36 -9.5 56
s3 38.167 9 54.5s14.5 30.5 25.5 42.5s24 21.333 39 28s31.5 10 49.5 10c14 0 27.167 -1.16699 39.5 -3.5s25.833 -7.83301 40.5 -16.5v-232z" />
    <glyph glyph-name="e" unicode="e" horiz-adv-x="520" 
d="M494 204c0 50.667 -6.66895 94 -20.002 130s-30.666 65.5 -51.999 88.5s-45.166 39.667 -71.499 50s-52.5 15.5 -78.5 15.5c-36 0 -69 -6.16699 -99 -18.5s-55.5 -29.5 -76.5 -51.5s-37.333 -48.5 -49 -79.5s-17.5 -64.833 -17.5 -101.5
c0 -38 6.16699 -72.833 18.5 -104.5s29.666 -59 51.999 -82s49.333 -41 81 -54s66.834 -19.5 105.501 -19.5c38 0 73.833 7.16699 107.5 21.5s64.167 32.5 91.5 54.5l-57 100c-22 -19.333 -43.333 -34 -64 -44s-43.334 -15 -68.001 -15c-18.667 0 -36 2.66699 -52 8
s-29.833 13 -41.5 23s-20.667 21.667 -27 35s-9.16602 28 -8.49902 44h326zM175.998 307c6.66699 20 17.666 36.5 32.999 49.5s34 19.5 56 19.5s39.833 -7 53.5 -21s22.834 -30 27.501 -48h-170z" />
    <glyph glyph-name="f" unicode="f" horiz-adv-x="318" 
d="M366 669c-17.333 10 -36.332 18.5 -56.999 25.5s-38.667 10.5 -54 10.5c-54.667 0 -96.834 -15.333 -126.501 -46s-44.5 -80 -44.5 -148v-49h-37l-25 -109h62v-366h131v366h76l26 109h-102v16c0 32 2.66699 58.833 8 80.5s16 32.5 32 32.5
c10.667 0 21.667 -3.33301 33 -10s22 -15.667 32 -27z" />
    <glyph glyph-name="g" unicode="g" horiz-adv-x="493" 
d="M247 492c-36 0 -66.666 -5.49609 -91.999 -16.4961s-46 -25.333 -62 -43s-27.667 -37.5 -35 -59.5s-11 -44 -11 -66c0 -12 1.33301 -24.5 4 -37.5s7.16699 -25.667 13.5 -38s14.333 -23.833 24 -34.5s21.5 -19.334 35.5 -26.001c-17.333 -6 -30.833 -13 -40.5 -21
s-14.5 -20.333 -14.5 -37c0 -14 5.33301 -25.667 16 -35s20.667 -16 30 -20l-11 -10c-26.667 -6 -47.167 -20.833 -61.5 -44.5s-21.5 -49.5 -21.5 -77.5c0 -20 4.66699 -38.667 14 -56s22.333 -32.333 39 -45s36.5 -22.5 59.5 -29.5s48.167 -10.5 75.5 -10.5
c34.667 0 68.334 5 101.001 15s61.5 23.167 86.5 39.5s45 35.5 60 57.5s22.5 45 22.5 69c0 28 -5 50.5 -15 67.5s-22.667 30.167 -38 39.5s-32.166 15.666 -50.499 18.999s-35.833 5.66602 -52.5 6.99902l-44.5 3.5c-13 1 -21.5 3.5 -25.5 7.5c0 3.33301 3 5.83301 9 7.5
l20 5.5c19.333 5.33301 38.666 12.833 57.999 22.5s36.666 22 51.999 37s27.666 32.833 36.999 53.5s14 45 14 73c0 30.667 -6.16699 57.5 -18.5 80.5s-28 42.167 -47 57.5s-40 26.666 -63 33.999s-45.5 11 -67.5 11zM314.001 308.004
c0 -21.333 -6.66797 -39.333 -20.001 -54s-29.666 -22 -48.999 -22c-20 0 -36.5 7.5 -49.5 22.5s-19.5 33.167 -19.5 54.5c0 20.667 6.5 38 19.5 52s29.167 21 48.5 21s35.833 -7.16699 49.5 -21.5s20.5 -31.833 20.5 -52.5zM350 -37.9961c0 -8 -4.16504 -16 -12.498 -24
s-19 -15.167 -32 -21.5s-27.833 -11.666 -44.5 -15.999s-33 -6.5 -49 -6.5c-21.333 0 -37 3.33301 -47 10s-15 15 -15 25c0 11.333 4 21 12 29s17.667 14.667 29 20s23.166 9.16602 35.499 11.499s23.166 3.5 32.499 3.5c26 0 47.667 -1.83301 65 -5.5s26 -12.167 26 -25.5z
" />
    <glyph glyph-name="h" unicode="h" horiz-adv-x="534" 
d="M189 732l-130.001 -54.001v-691h130v358c14.667 8.66699 28.334 15.334 41.001 20.001s28.667 7 48 7c26 0 45.333 -9.66699 58 -29s19 -46 19 -80v-276h130v294c0 34 -5 64 -15 90s-23.833 47.667 -41.5 65s-38.667 30.333 -63 39s-50.833 13 -79.5 13
c-19.333 0 -37 -2 -53 -6s-30.667 -8.33301 -44 -13v263z" />
    <glyph glyph-name="i" unicode="i" horiz-adv-x="228" 
d="M176 515l-131 -54v-474h131v528zM115 755l-119 -120l119 -122l119 122z" />
    <glyph glyph-name="j" unicode="j" horiz-adv-x="276" 
d="M198 519l-128.999 -55.999v-473c0 -22.667 -1.16699 -41.334 -3.5 -56.001s-7 -25.834 -14 -33.501s-17.333 -12.5 -31 -14.5s-31.834 -2 -54.501 0l33 -114c70 -3.33301 120.667 13.834 152 51.501s47 93.167 47 166.5v529zM140.001 750.001l-116 -114l117 -114l113 114
z" />
    <glyph glyph-name="k" unicode="k" horiz-adv-x="510" 
d="M466 404l-74 97l-203 -172v387l-130 -35v-694h130v175l231 -191l86 86l-231 188z" />
    <glyph glyph-name="l" unicode="l" horiz-adv-x="320" 
d="M201 720l-131.003 -40.999v-555c0 -24 5.16699 -45 15.5 -63s23.5 -33.167 39.5 -45.5s33.333 -21.5 52 -27.5s36.334 -9 53.001 -9c12.667 0 26.334 1.5 41.001 4.5s26 7.83301 34 14.5l11 128c-12 -8.66699 -24.667 -16.334 -38 -23.001s-25.666 -10 -36.999 -10
c-9.33301 0 -18.333 2.83301 -27 8.5s-13 19.167 -13 40.5v578z" />
    <glyph glyph-name="m" unicode="m" horiz-adv-x="800" 
d="M148 462l-90.002 49v-524h131v365c10.667 5.33301 22.167 10.166 34.5 14.499s28.5 6.5 48.5 6.5c22.667 0 39.5 -8.5 50.5 -25.5s16.5 -45.167 16.5 -84.5v-276h131v302c0 10 -0.833008 20.333 -2.5 31s-2.83398 17.334 -3.50098 20.001c12.667 10 26 17.667 40 23
s30.667 8 50 8c26 0 43.667 -10.167 53 -30.5s14 -46.5 14 -78.5v-275h130v301c0 60 -14.833 108.333 -44.5 145s-75.5 55 -137.5 55c-36 0 -66.333 -4.33301 -91 -13s-48.667 -18.667 -72 -30c-11.333 10.667 -27.166 20.5 -47.499 29.5s-49.166 13.5 -86.499 13.5
c-26.667 0 -50.167 -2.83301 -70.5 -8.5s-38.166 -11.5 -53.499 -17.5z" />
    <glyph glyph-name="n" unicode="n" horiz-adv-x="543" 
d="M148 462l-89.001 48v-523h130v369c22.667 11.333 54.334 17 95.001 17c24 0 43.333 -9.33301 58 -28s22 -46 22 -82v-276h130v293c0 70.667 -18.5 123.167 -55.5 157.5s-86.167 51.5 -147.5 51.5c-27.333 0 -53 -2.33301 -77 -7s-46 -10.667 -66 -18v-2z" />
    <glyph glyph-name="o" unicode="o" horiz-adv-x="583" 
d="M551 230c0 36.667 -6.66699 70.5 -20 101.5s-31.5 58 -54.5 81s-50.5 41 -82.5 54s-66.333 19.5 -103 19.5s-70.667 -6.5 -102 -19.5s-58.666 -31 -81.999 -54s-41.666 -50 -54.999 -81s-20 -64.833 -20 -101.5c0 -36 6.66699 -69.667 20 -101s31.666 -58.333 54.999 -81
s50.666 -40.5 81.999 -53.5s65.333 -19.5 102 -19.5s71 6.5 103 19.5s59.5 30.833 82.5 53.5s41.167 49.667 54.5 81s20 65 20 101zM416 230c0 -20 -3.16699 -38.501 -9.5 -55.501s-15.166 -31.5 -26.499 -43.5s-24.5 -21.5 -39.5 -28.5s-31.5 -10.5 -49.5 -10.5
c-17.333 0 -33.666 3.5 -48.999 10.5s-28.666 16.5 -39.999 28.5s-20.166 26.5 -26.499 43.5s-9.5 35.5 -9.5 55.5s3.16699 38.5 9.5 55.5s15.166 31.833 26.499 44.5s24.666 22.5 39.999 29.5s31.666 10.5 48.999 10.5c18 0 34.5 -3.66699 49.5 -11
s28.167 -17.166 39.5 -29.499s20.166 -27 26.499 -44s9.5 -35.5 9.5 -55.5z" />
    <glyph glyph-name="p" unicode="p" horiz-adv-x="552" 
d="M54 512l-0.00292969 -743.001h130v216c13.333 -3.33301 26.833 -5.83301 40.5 -7.5s27.5 -2.5 41.5 -2.5c35.333 0 68.333 6.66699 99 20s57.334 31.5 80.001 54.5s40.5 50.167 53.5 81.5s19.5 65 19.5 101c0 36.667 -6.33301 70.5 -19 101.5s-30 57.833 -52 80.5
s-48.333 40.334 -79 53.001s-64 19 -100 19c-21.333 0 -43.166 -1.66699 -65.499 -5s-42.166 -8 -59.499 -14zM183.997 356.999c15.333 4.66699 27.5 7.66602 36.5 8.99902s19.167 2 30.5 2c19.333 0 37 -3.5 53 -10.5s29.833 -16.667 41.5 -29
s20.834 -27.166 27.501 -44.499s10 -36 10 -56c0 -40 -12.167 -72.333 -36.5 -97s-56.5 -37 -96.5 -37c-12 0 -22.833 1 -32.5 3s-20.834 5.66699 -33.501 11v249z" />
    <glyph glyph-name="q" unicode="q" horiz-adv-x="564" 
d="M505 491l-84.999 -28.001c-22.667 9.33301 -44.834 15.666 -66.501 18.999s-44.167 5 -67.5 5c-35.333 0 -68.333 -6.66699 -99 -20s-57.167 -31.666 -79.5 -54.999s-39.833 -51.166 -52.5 -83.499s-19 -67.5 -19 -105.5c0 -36 6 -69.167 18 -99.5s28.667 -56.5 50 -78.5
s47 -39 77 -51s62.667 -18 98 -18c33.333 0 65 4 95 12v-218h131v721zM374.001 107.999c-16 -6.66699 -30.3311 -11 -42.998 -13s-26.667 -3 -42 -3c-36 0 -65 11.5 -87 34.5s-33 54.167 -33 93.5c0 21.333 3.16699 41 9.5 59s15.166 33.667 26.499 47
s24.833 23.833 40.5 31.5s32.5 11.5 50.5 11.5c14 0 26.667 -1 38 -3s24.666 -6.66699 39.999 -14v-244z" />
    <glyph glyph-name="r" unicode="r" horiz-adv-x="365" 
d="M399 447c-16.667 14.667 -36.499 25.668 -59.499 33.001s-48.5 11 -76.5 11c-24 0 -47.5 -3.83301 -70.5 -11.5s-41.5 -16.834 -55.5 -27.501h-4l-81 50v-516h131v339c9.33301 18 21 30 35 36s27.667 9 41 9c12.667 0 25.667 -3 39 -9s25.666 -14.667 36.999 -26z" />
    <glyph glyph-name="s" unicode="s" horiz-adv-x="480" 
d="M430 433c-27.333 19.333 -57.3359 33.168 -90.0029 41.501s-64 12.5 -94 12.5c-27.333 0 -53.5 -4.16699 -78.5 -12.5s-47 -19.666 -66 -33.999s-34 -31 -45 -50s-16.5 -38.833 -16.5 -59.5c0 -29.333 6.66699 -53 20 -71s30.166 -32.5 50.499 -43.5
s42.333 -19.333 66 -25s45.667 -10.667 66 -15s37.166 -9 50.499 -14s20 -11.833 20 -20.5c0 -16 -7.66699 -28.333 -23 -37s-32.666 -13 -51.999 -13c-24.667 0 -49 3.83301 -73 11.5s-52 19.167 -84 34.5l-49 -102c66.667 -40 133.334 -60 200.001 -60
c28 0 54.833 3.5 80.5 10.5s48.334 17.5 68.001 31.5s35.5 31.167 47.5 51.5s18 44.166 18 71.499c0 30 -6.66699 54.167 -20 72.5s-30.166 33 -50.499 44s-42.333 19.167 -66 24.5l-66 14.5c-20.333 4.33301 -37.166 9.16602 -50.499 14.499s-20 13 -20 23
c0 10.667 7.16699 19.667 21.5 27s30.166 11 47.499 11c21.333 0 42.833 -2.66699 64.5 -8s43.834 -16.333 66.501 -33z" />
    <glyph glyph-name="t" unicode="t" horiz-adv-x="366" 
d="M222 646l-130.001 -73.001v-98h-80v-108h80v-261c0 -22 4.16699 -41.167 12.5 -57.5s19 -29.666 32 -39.999s27.833 -18 44.5 -23s33.334 -7.5 50.001 -7.5c8 0 17.833 1.16699 29.5 3.5s24 5.5 37 9.5s26 8.66699 39 14s24.833 10.666 35.5 15.999l-50 102
c-16 -8.66699 -30 -15.5 -42 -20.5s-24.667 -7.5 -38 -7.5c-10 0 -15.833 4.83301 -17.5 14.5s-2.5 25.834 -2.5 48.501v209h118v108h-118v171z" />
    <glyph glyph-name="u" unicode="u" horiz-adv-x="546" 
d="M492 -62v536.999h-132v-362c-12 -7.33301 -25 -12.166 -39 -14.499s-31.667 -3.5 -53 -3.5c-10.667 0 -21.5 1.83301 -32.5 5.5s-20.833 9 -29.5 16s-15.667 16 -21 27s-8 23.833 -8 38.5v293h-131v-294c0 -38 7.16699 -70 21.5 -96s32.333 -47.167 54 -63.5
s45.167 -28 70.5 -35s49.333 -10.5 72 -10.5c23.333 0 47.5 2.16699 72.5 6.5s46.5 9.83301 64.5 16.5z" />
    <glyph glyph-name="v" unicode="v" horiz-adv-x="497" 
d="M504 464l-120 46l-131 -312l-137 312l-119 -47l207 -468l79 -45z" />
    <glyph glyph-name="w" unicode="w" horiz-adv-x="760" 
d="M765 460l-114 54l-127 -300l-116 311l-74 -57l-99 -254l-123 300l-115 -54l193 -458l78 -42l111 281l93 -237l75 -43z" />
    <glyph glyph-name="x" unicode="x" horiz-adv-x="561" 
d="M280 150l181 -195l102 75l-196 207l196 199l-101 76l-182 -187l-185 187l-95 -77l194 -198l-193 -205l95 -78z" />
    <glyph glyph-name="y" unicode="y" horiz-adv-x="499" 
d="M500 452l-109.998 62l-134 -273l-143 273l-110 -62l187 -351c-2 -4.66699 -6 -12.834 -12 -24.501s-12.333 -23.167 -19 -34.5c-12 -23.333 -25.333 -42.5 -40 -57.5s-30 -27.167 -46 -36.5s-32.667 -16.666 -50 -21.999s-35.333 -9.66602 -54 -12.999l50 -103
c12 2 28.667 5.5 50 10.5s44.166 14.5 68.499 28.5s49.166 33.667 74.499 59s48.333 58.666 69 99.999z" />
    <glyph glyph-name="z" unicode="z" horiz-adv-x="483" 
d="M448 405l20 70h-421l-35 -113h249l-233 -304l-16 -71h436l33 113h-264z" />
    <glyph glyph-name="braceleft" unicode="{" horiz-adv-x="407" 
d="M50 160c16.667 -0.666992 30.6689 -3.16602 42.002 -7.49902s20.5 -11.666 27.5 -21.999s12.167 -24 15.5 -41s5 -38.5 5 -64.5v-93c0 -33.333 4.5 -61 13.5 -83s22.667 -39.5 41 -52.5s41.166 -22 68.499 -27s59 -7.5 95 -7.5v124c-15.333 0 -28.333 1 -39 3
s-19.334 5.83301 -26.001 11.5s-11.334 13.334 -14.001 23.001s-4 22.5 -4 38.5v68c0 53.333 -6.16699 95.833 -18.5 127.5s-29.833 54.167 -52.5 67.5c22.667 13.333 40.167 36.166 52.5 68.499s18.5 75.5 18.5 129.5v67c0 16 1.33301 28.833 4 38.5
s7.33398 17.167 14.001 22.5s15.334 9 26.001 11s23.667 3 39 3v125c-32.667 0 -62.334 -1.83301 -89.001 -5.5s-49.5 -11.834 -68.5 -24.501s-33.833 -30.834 -44.5 -54.501s-16 -55.5 -16 -95.5l-1 -92c-0.666992 -46 -7.5 -78.5 -20.5 -97.5s-35.833 -29.167 -68.5 -30.5
v-130z" />
    <glyph glyph-name="bar" unicode="|" horiz-adv-x="302" 
d="M84 689v-936l130 55v935z" />
    <glyph glyph-name="braceright" unicode="}" horiz-adv-x="407" 
d="M356 291c-32 0.666992 -54.501 9.99805 -67.501 27.998s-19.5 48.333 -19.5 91v90c0 38.667 -4.66699 70.5 -14 95.5s-23.166 44.667 -41.499 59s-41.166 24 -68.499 29s-59.333 6.83301 -96 5.5v-123c30.667 0 52.167 -4.16699 64.5 -12.5s18.5 -26.166 18.5 -53.499
v-91c0 -97.333 25 -158 75 -182c-25.333 -12.667 -44.166 -33.834 -56.499 -63.501s-18.5 -69.834 -18.5 -120.501v-90c0 -27.333 -6.16699 -45.166 -18.5 -53.499s-33.833 -12.5 -64.5 -12.5v-124c36.667 -1.33301 68.667 0.5 96 5.5s50.166 14.833 68.499 29.5
s32.166 34.5 41.499 59.5s14 56.833 14 95.5v90c0 42.667 6.5 72.834 19.5 90.501s35.5 26.834 67.5 27.501v130z" />
    <glyph glyph-name="asciitilde" unicode="~" horiz-adv-x="721" 
d="M68 214c22.667 21.333 43.1689 38.833 61.502 52.5s34.833 24.5 49.5 32.5s27.167 13.5 37.5 16.5s18.833 4.5 25.5 4.5c12 0 26.667 -3.83301 44 -11.5l56.5 -25.5c20.333 -9.33301 41.666 -17.833 63.999 -25.5s44.5 -11.5 66.5 -11.5c25.333 0 51 5.66699 77 17
s57.333 30.333 94 57v147c-44 -40 -80 -67.333 -108 -82s-49.667 -22 -65 -22c-10 0 -23.667 3.83301 -41 11.5l-57 25.5c-20.667 9.33301 -42.5 17.833 -65.5 25.5s-45.167 11.5 -66.5 11.5c-48.667 0 -106.334 -25 -173.001 -75v-148z" />
    <glyph glyph-name="exclamdown" unicode="&#xa1;" horiz-adv-x="290" 
d="M25 394l117 -116l121 123l-118 116zM73 -265h145l-8 533h-129z" />
    <glyph glyph-name="cent" unicode="&#xa2;" horiz-adv-x="518" 
d="M489 436c-34.667 15.333 -69.499 27.834 -104.499 37.501s-64.167 14.5 -87.5 14.5c-37.333 0 -72 -6.33301 -104 -19s-59.5 -30.5 -82.5 -53.5s-41 -50.5 -54 -82.5s-19.5 -67.333 -19.5 -106c0 -36.667 6.5 -70.334 19.5 -101.001s31 -57 54 -79
s50.667 -39.167 83 -51.5s67.833 -18.5 106.5 -18.5c12 0 25.833 1 41.5 3s32.334 5.16699 50.001 9.5s35.667 9.5 54 15.5s36.166 13 53.499 21l-52 105c-36.667 -14 -65.5 -23.667 -86.5 -29s-40.167 -8 -57.5 -8c-40.667 0 -72.834 12 -96.501 36s-35.5 57 -35.5 99
s11.667 75.833 35 101.5s54 38.5 92 38.5c8 0 16.167 -0.5 24.5 -1.5s18 -3 29 -6s23.5 -6.83301 37.5 -11.5s30.667 -11 50 -19zM245.001 697.001v-935l130 55v934z" />
    <glyph glyph-name="sterling" unicode="&#xa3;" horiz-adv-x="585" 
d="M505 685c-16.667 8.66699 -34.502 14.499 -53.502 17.499s-36.167 4.5 -51.5 4.5c-30 0 -56.833 -7.16699 -80.5 -21.5s-45.167 -35 -64.5 -62s-37.166 -60 -53.499 -99s-32.5 -83.167 -48.5 -132.5h-100v-117h67l-84 -317c8 2.66699 18 6.33398 30 11.001
s24.833 9.16699 38.5 13.5s27.334 8 41.001 11s26.167 4.5 37.5 4.5c21.333 0 43.666 -1 66.999 -3s45 -4.33301 65 -7l51.5 -7c14.333 -2 23.166 -3 26.499 -3c12 0 25.5 0.833008 40.5 2.5s30.167 4 45.5 7s30.166 7 44.499 12s26.833 11.167 37.5 18.5l-34 117
c-20 -15.333 -41.333 -25.833 -64 -31.5s-45 -8.5 -67 -8.5c-17.333 2 -33 4 -47 6s-27.167 3.66699 -39.5 5s-24.666 2.33301 -36.999 3s-25.166 1 -38.499 1h-24l43 165h122v117h-87c8 28.667 15.833 55.167 23.5 79.5s16.334 45.333 26.001 63s20.834 31.5 33.501 41.5
s27.667 15 45 15s30.666 -3.5 39.999 -10.5l27 -19.5z" />
    <glyph glyph-name="currency" unicode="&#xa4;" horiz-adv-x="653" 
d="M326 584c-22.667 0 -43.834 -2.99902 -63.501 -8.99902s-38.5 -14 -56.5 -24l-65 66l-87 -87l63 -63c-11.333 -18 -19.833 -36.833 -25.5 -56.5s-8.5 -41.5 -8.5 -65.5c0 -46.667 11.333 -87.334 34 -122.001l-63 -63l87 -86l65 64
c15.333 -9.33301 32.833 -16.833 52.5 -22.5s42.167 -8.5 67.5 -8.5c45.333 0 85.666 10.333 120.999 31l66 -64l87 86l-65 63c10.667 16.667 19.334 35.167 26.001 55.5s10 42.5 10 66.5c0 45.333 -12 86 -36 122l65 63l-87 87l-67 -66c-17.333 10 -36.166 18 -56.499 24
s-41.5 9 -63.5 9zM326 465.001c16 0 30.833 -3.16699 44.5 -9.5s25.667 -14.833 36 -25.5s18.5 -23.334 24.5 -38.001s9 -30.334 9 -47.001s-3 -32.167 -9 -46.5s-14.167 -27 -24.5 -38s-22.333 -19.667 -36 -26s-28.5 -9.5 -44.5 -9.5s-30.833 3.16699 -44.5 9.5
s-25.5 15 -35.5 26s-18 23.667 -24 38s-9 29.833 -9 46.5s3 32.334 9 47.001s14 27.334 24 38.001s21.833 19.167 35.5 25.5s28.5 9.5 44.5 9.5z" />
    <glyph glyph-name="yen" unicode="&#xa5;" horiz-adv-x="654" 
d="M-3 725l198 -331h-141v-97h200v-33h-200v-103h200v-174h145v174h199v101h-199v36h199v96h-141l196 331h-161l-164 -286l-167 286h-164z" />
    <glyph glyph-name="brokenbar" unicode="&#xa6;" horiz-adv-x="310" 
d="M90 710v-385h131v385h-131zM90 231v-446h131v446h-131z" />
    <glyph glyph-name="section" unicode="&#xa7;" horiz-adv-x="464" 
d="M408 579c-10.667 40.667 -30.8359 74.0049 -60.5029 100.005s-66.834 39 -111.501 39c-26 0 -49.667 -3.83301 -71 -11.5s-39.833 -18.5 -55.5 -32.5s-27.667 -30.833 -36 -50.5s-12.5 -41.5 -12.5 -65.5c0 -19.333 2.66699 -37.166 8 -53.499s15 -35.833 29 -58.5
c-25.333 -28 -43.333 -56.833 -54 -86.5s-16 -57.167 -16 -82.5c0 -26 6.16699 -50 18.5 -72s27.5 -42.667 45.5 -62s37.833 -37.5 59.5 -54.5s41.5 -33.5 59.5 -49.5s33.167 -31.833 45.5 -47.5s18.5 -31.5 18.5 -47.5c0 -13.333 -4.16699 -24.333 -12.5 -33
s-19.166 -13 -32.499 -13c-27.333 0 -43.666 29.667 -48.999 89l-121 -75c11.333 -42 32.166 -74 62.499 -96s65.5 -33 105.5 -33c52.667 0 95 13.667 127 41s48 63.666 48 108.999c0 22 -2.66699 42.167 -8 60.5s-14.666 38.166 -27.999 59.499
c26 31.333 44.167 61.5 54.5 90.5s15.5 56.167 15.5 81.5s-6 49.166 -18 71.499s-27.167 43.166 -45.5 62.499s-38.166 37.833 -59.499 55.5l-59.5 51c-18.333 16.333 -33.5 32.166 -45.5 47.499s-18 31 -18 47c0 12 4.33301 22.167 13 30.5s18.667 12.5 30 12.5
c13.333 0 24.333 -7.33301 33 -22s14.334 -35.334 17.001 -62.001zM302.998 221.005c0 -12 -1.66602 -25.499 -4.99902 -40.499s-9.66602 -28.5 -18.999 -40.5l-42 32.5c-14 10.333 -26.5 20.833 -37.5 31.5s-20 22 -27 34s-10.5 25.333 -10.5 40c0 13.333 1.66699 27 5 41
s9.66602 27.667 18.999 41c7.33301 -6.66699 17.666 -15 30.999 -25s26.333 -21.333 39 -34s23.667 -25.834 33 -39.501s14 -27.167 14 -40.5z" />
    <glyph glyph-name="dieresis" unicode="&#xa8;" horiz-adv-x="463" 
d="M121 709l-103 -105l103 -102l104 102zM344 708l-106 -104l106 -103l103 103z" />
    <glyph glyph-name="copyright" unicode="&#xa9;" horiz-adv-x="851" 
d="M624 421c-18 56.667 -44.1689 97.166 -78.502 121.499s-73.5 36.5 -117.5 36.5c-32.667 0 -62 -5.83301 -88 -17.5s-48 -27.5 -66 -47.5s-31.833 -43.333 -41.5 -70s-14.5 -54.667 -14.5 -84c0 -32.667 5.16699 -62.834 15.5 -90.501s24.666 -51.667 42.999 -72
s40.333 -36.333 66 -48s53.5 -17.5 83.5 -17.5c24.667 0 47.667 4.33301 69 13s40.333 20.834 57 36.501s30.834 33.834 42.501 54.501s20.167 43 25.5 67l-115 34c-6.66699 -30 -16.167 -53.167 -28.5 -69.5s-30.166 -24.5 -53.499 -24.5s-42.166 11.333 -56.499 34
s-21.5 52.667 -21.5 90c0 32.667 7.83301 58.167 23.5 76.5s35.167 27.5 58.5 27.5c34 0 59.333 -27 76 -81zM424.998 742.999c-54 0 -104.833 -10.167 -152.5 -30.5s-89.334 -48 -125.001 -83s-63.667 -75.833 -84 -122.5s-30.5 -96.667 -30.5 -150
s10.167 -103.166 30.5 -149.499s48.333 -87 84 -122s77.334 -62.5 125.001 -82.5s98.5 -30 152.5 -30s104.667 10 152 30s88.833 47.5 124.5 82.5s63.667 75.667 84 122s30.5 96.166 30.5 149.499s-10.167 103.333 -30.5 150s-48.333 87.5 -84 122.5
s-77.167 62.667 -124.5 83s-98 30.5 -152 30.5zM424.998 625.999c36 0 69.833 -7 101.5 -21s59.334 -33.167 83.001 -57.5s42.334 -52.833 56.001 -85.5s20.5 -67.667 20.5 -105c0 -36.667 -6.83301 -71.167 -20.5 -103.5s-32.334 -60.666 -56.001 -84.999
s-51.334 -43.5 -83.001 -57.5s-65.5 -21 -101.5 -21s-69.833 7 -101.5 21s-59.5 33.167 -83.5 57.5s-42.833 52.666 -56.5 84.999s-20.5 66.833 -20.5 103.5c0 37.333 6.83301 72.333 20.5 105s32.5 61.167 56.5 85.5s51.833 43.5 83.5 57.5s65.5 21 101.5 21z" />
    <glyph glyph-name="ordfeminine" unicode="&#xaa;" horiz-adv-x="354" 
d="M307 343l0.00292969 258.999c0 34 -10.5 61.833 -31.5 83.5s-53.5 32.5 -97.5 32.5c-25.333 0 -50 -3.66699 -74 -11s-50.333 -22.333 -79 -45l37 -70c12 6 22.5 11.667 31.5 17s17.667 9.66602 26 12.999s16.666 6 24.999 8s17.166 3 26.499 3
c7.33301 0 12.833 -3 16.5 -9s5.5 -12 5.5 -18v-12c-54 -3.33301 -95.833 -15 -125.5 -35s-44.5 -47 -44.5 -81c0 -14.667 3.16699 -28.167 9.5 -40.5s15 -23.166 26 -32.499s24 -16.666 39 -21.999s31.167 -8 48.5 -8c12.667 0 25.167 2.33301 37.5 7s25.166 10 38.499 16z
M196.003 517.999l-0.000976562 -45c-8 -6.66699 -15.167 -11.167 -21.5 -13.5s-13.166 -3.5 -20.499 -3.5c-18.667 0 -28 7.33301 -28 22c0 12 6.16699 21.667 18.5 29s29.5 11 51.5 11z" />
    <glyph glyph-name="guillemotleft" unicode="&#xab;" horiz-adv-x="651" 
d="M425 231l206 244h-162l-207 -244l207 -242h162zM184 231l207 244h-162l-208 -244l208 -242h162z" />
    <glyph glyph-name="logicalnot" unicode="&#xac;" horiz-adv-x="709" 
d="M66 513v-116h448v-240l127 43v313h-575z" />
    <glyph glyph-name="registered" unicode="&#xae;" horiz-adv-x="853" 
d="M257 572l-2 -427h127v155h15l105 -171l118 58l-94 137c22 9.33301 38.833 23.5 50.5 42.5s17.5 39.167 17.5 60.5c0 42.667 -14 77.5 -42 104.5s-66.667 40.5 -116 40.5h-179zM382 405l0.000976562 59.999l23 -2c23.333 -1.33301 38.666 -3.66602 45.999 -6.99902
s11 -10 11 -20c0 -11.333 -3.5 -19.333 -10.5 -24s-20.5 -7 -40.5 -7h-29zM427.001 741.999c-54 0 -105 -10.167 -153 -30.5s-89.667 -47.833 -125 -82.5s-63.333 -75.5 -84 -122.5s-31 -96.833 -31 -149.5c0 -53.333 10.333 -103.333 31 -150s48.667 -87.5 84 -122.5
s77 -62.5 125 -82.5s99 -30 153 -30s104.667 10 152 30s88.833 47.5 124.5 82.5s63.667 75.833 84 122.5s30.5 96.667 30.5 150c0 52.667 -10.167 102.5 -30.5 149.5s-48.333 87.833 -84 122.5s-77.167 62.167 -124.5 82.5s-98 30.5 -152 30.5zM427.001 624.999
c36 0 69.833 -7 101.5 -21s59.334 -33.167 83.001 -57.5s42.334 -52.833 56.001 -85.5s20.5 -67.334 20.5 -104.001c0 -37.333 -6.83301 -72.166 -20.5 -104.499s-32.334 -60.666 -56.001 -84.999s-51.334 -43.5 -83.001 -57.5s-65.5 -21 -101.5 -21s-70 7 -102 21
s-59.833 33.167 -83.5 57.5s-42.334 52.666 -56.001 84.999s-20.5 67.166 -20.5 104.499c0 36.667 6.83301 71.334 20.5 104.001s32.334 61.167 56.001 85.5s51.5 43.5 83.5 57.5s66 21 102 21z" />
    <glyph glyph-name="macron" unicode="&#xaf;" horiz-adv-x="399" 
d="M367 694h-335v-121h335v121z" />
    <glyph glyph-name="degree" unicode="&#xb0;" horiz-adv-x="468" 
d="M234 718c-24 0 -46.5 -4.33301 -67.5 -13s-39.167 -20.5 -54.5 -35.5s-27.5 -32.667 -36.5 -53s-13.5 -42.166 -13.5 -65.499s4.5 -45.166 13.5 -65.499s21.167 -38 36.5 -53s33.5 -27 54.5 -36s43.5 -13.5 67.5 -13.5s46.5 4.5 67.5 13.5s39.5 21 55.5 36
s28.5 32.667 37.5 53s13.5 42.166 13.5 65.499s-4.5 45.166 -13.5 65.499s-21.5 38 -37.5 53s-34.5 26.833 -55.5 35.5s-43.5 13 -67.5 13zM234 617c16 0 29.833 -6.33301 41.5 -19s17.5 -28 17.5 -46s-5.83301 -33.333 -17.5 -46s-25.5 -19 -41.5 -19
s-29.333 6.33301 -40 19s-16 28 -16 46s5.33301 33.333 16 46s24 19 40 19z" />
    <glyph glyph-name="plusminus" unicode="&#xb1;" horiz-adv-x="714" 
d="M70 92v-114h575v114h-575zM70 442v-115h224l1 -205h127l-1 205h224v115h-224v225h-127v-225h-224z" />
    <glyph glyph-name="twosuperior" unicode="&#xb2;" horiz-adv-x="422" 
d="M94 582c8.66699 9.33301 16.832 17.5 24.499 24.5s15.334 12.667 23.001 17s15.834 7.66602 24.501 9.99902s19 3.5 31 3.5c10 0 18.333 -4.16699 25 -12.5s10 -17.166 10 -26.499s-5.33301 -23 -16 -41s-25.5 -38.833 -44.5 -62.5s-41.667 -49.5 -68 -77.5
s-55.166 -57 -86.499 -87h377v103h-137c20 22 36.667 42 50 60s23.666 34 30.999 48s12.5 26.167 15.5 36.5s4.5 19.5 4.5 27.5c0 18.667 -4 36.167 -12 52.5s-19.167 30.5 -33.5 42.5s-31.166 21.5 -50.499 28.5s-40.333 10.5 -63 10.5
c-24.667 0 -47.834 -2.83301 -69.501 -8.5s-43.834 -17.167 -66.501 -34.5z" />
    <glyph glyph-name="threesuperior" unicode="&#xb3;" horiz-adv-x="387" 
d="M71 594c12.667 12 23.332 21.167 31.999 27.5s16.667 11.166 24 14.499s15 5.33301 23 6s17.667 1 29 1c9.33301 0 17 -3.66699 23 -11s9 -16.666 9 -27.999c0 -9.33301 -8.33301 -16.666 -25 -21.999s-40 -8 -70 -8v-68c10.667 0 21.834 -0.5 33.501 -1.5
s22.334 -3.16699 32.001 -6.5s17.667 -7.83301 24 -13.5s9.5 -12.834 9.5 -21.501c0 -12 -4.33301 -21.5 -13 -28.5s-20 -10.5 -34 -10.5h-28c-7.33301 0 -14.333 0.833008 -21 2.5s-13.667 4.16699 -21 7.5s-16.333 8.33301 -27 15l-29 -96
c20 -9.33301 41.667 -16.833 65 -22.5s47.333 -8.5 72 -8.5c22.667 0 43.834 3.33301 63.501 10s36.834 15.834 51.501 27.501s26 25.667 34 42s12 34.166 12 53.499c0 41.333 -15.667 69 -47 83v2c14 6.66699 24.5 16.5 31.5 29.5s10.5 27.833 10.5 44.5
c0 18 -3.83301 34.5 -11.5 49.5s-18.334 27.833 -32.001 38.5s-29.834 19 -48.501 25s-39.334 9 -62.001 9c-27.333 0 -51.5 -3.33301 -72.5 -10s-41.833 -17.667 -62.5 -33z" />
    <glyph glyph-name="acute" unicode="&#xb4;" horiz-adv-x="367" 
d="M340 721l-76 56l-141 -237l67 -42z" />
    <glyph glyph-name="mu" unicode="&#xb5;" horiz-adv-x="629" 
d="M100 474v-651.001h131v174c12 -6 24.333 -10.5 37 -13.5s27 -4.5 43 -4.5c30.667 0 57.667 6.33301 81 19v-10h131v486h-131v-260c0 -22.667 -2 -41.5 -6 -56.5s-9.66699 -27.167 -17 -36.5s-15.833 -16 -25.5 -20s-20.167 -6 -31.5 -6c-30 0 -51 11.833 -63 35.5
s-18 55.834 -18 96.501v247h-131z" />
    <glyph glyph-name="paragraph" unicode="&#xb6;" horiz-adv-x="721" 
d="M681 746l-371 0.000976562c-39.333 0 -75.166 -5.33301 -107.499 -16s-60 -26 -83 -46s-40.667 -44 -53 -72s-18.5 -59.333 -18.5 -94c0 -30.667 4.83301 -59.167 14.5 -85.5s23.5 -49.5 41.5 -69.5s39.667 -36.333 65 -49s53.666 -20.334 84.999 -23.001v-444l143 -46
v808h40v-792h143v792h61z" />
    <glyph glyph-name="periodcentered" unicode="&#xb7;" horiz-adv-x="359" 
d="M179 434c-12.667 0 -24.667 -2.16895 -36 -6.50195s-21.166 -10.5 -29.499 -18.5s-15 -17.333 -20 -28s-7.5 -22 -7.5 -34s2.5 -23.333 7.5 -34s11.667 -20 20 -28s18.166 -14.167 29.499 -18.5s23.333 -6.5 36 -6.5c26 0 48 8.33301 66 25s27 37.334 27 62.001
s-9 45.334 -27 62.001s-40 25 -66 25z" />
    <glyph glyph-name="periodcentered" unicode="&#x2219;" horiz-adv-x="359" 
d="M179 434c-12.667 0 -24.667 -2.16895 -36 -6.50195s-21.166 -10.5 -29.499 -18.5s-15 -17.333 -20 -28s-7.5 -22 -7.5 -34s2.5 -23.333 7.5 -34s11.667 -20 20 -28s18.166 -14.167 29.499 -18.5s23.333 -6.5 36 -6.5c26 0 48 8.33301 66 25s27 37.334 27 62.001
s-9 45.334 -27 62.001s-40 25 -66 25z" />
    <glyph glyph-name="cedilla" unicode="&#xb8;" horiz-adv-x="451" 
d="M295 0l-96.001 -0.000976562l-31 -115c17.333 1.33301 33 0.666016 47 -2.00098s21 -8 21 -16c0 -12 -9.33301 -18.333 -28 -19c-9.33301 -0.666992 -20.333 -0.666992 -33 0s-27.667 3 -45 7l-19 -87c9.33301 -1.33301 21.833 -3.66602 37.5 -6.99902
s27.834 -5 36.501 -5c46.667 -0.666992 83.5 7.5 110.5 24.5s40.5 43.167 40.5 78.5c0 22 -4.83301 40.333 -14.5 55s-22.5 24.334 -38.5 29.001z" />
    <glyph glyph-name="onesuperior" unicode="&#xb9;" horiz-adv-x="328" 
d="M192 689h-58v-366h58v366z" />
    <glyph glyph-name="ordmasculine" unicode="&#xba;" horiz-adv-x="424" 
d="M396 547c0 23.333 -4.83301 45.334 -14.5 66.001s-22.834 38.5 -39.501 53.5s-36.334 26.833 -59.001 35.5s-47 13 -73 13c-27.333 0 -52.166 -4.16699 -74.499 -12.5s-41.833 -20 -58.5 -35s-29.5 -32.667 -38.5 -53s-13.5 -42.833 -13.5 -67.5
s4.66699 -47.334 14 -68.001s22.333 -38.5 39 -53.5s36.334 -26.667 59.001 -35s47 -12.5 73 -12.5c28 0 53.333 4 76 12s42.167 19.333 58.5 34s29 32.5 38 53.5s13.5 44.167 13.5 69.5zM275 547.001c0 -21.333 -6 -39 -18 -53s-27.667 -21 -47 -21
s-34.833 6.66699 -46.5 20s-17.5 31.333 -17.5 54c0 21.333 6 39 18 53s27.333 21 46 21c19.333 0 35 -7.16699 47 -21.5s18 -31.833 18 -52.5z" />
    <glyph glyph-name="guillemotright" unicode="&#xbb;" horiz-adv-x="651" 
d="M467 232l-207 -243h163l207 243l-207 243h-163zM226 232l-206 -243h162l208 243l-208 243h-162z" />
    <glyph glyph-name="onequarter" unicode="&#xbc;" horiz-adv-x="768" 
d="M673 397h-83l-212 -243v-62h189v-105h106v105h53v92h-53v213zM570 184h-54l54 63v-63zM219 697h-116v-408h116v408zM699 706h-136l-547 -745h137z" />
    <glyph glyph-name="onehalf" unicode="&#xbd;" horiz-adv-x="852" 
d="M243 697h-125v-399h125v399zM701 698h-135l-536 -736h136zM518 241c16.667 16.667 32.667 29.832 48 39.499s29.333 14.5 42 14.5c10.667 0 20 -3.33301 28 -10s12 -14.667 12 -24c0 -11.333 -3.83301 -24 -11.5 -38s-19.667 -31.5 -36 -52.5
s-37.666 -46.333 -63.999 -76l-95.5 -107.5h365v103h-142c29.333 34 54.333 64.667 75 92s31 54.333 31 81c0 18.667 -3.83301 36.334 -11.5 53.001s-18.334 31.167 -32.001 43.5s-29.834 22 -48.501 29s-39 10.5 -61 10.5c-28 0 -54.167 -5.5 -78.5 -16.5
s-49.166 -26.167 -74.499 -45.5z" />
    <glyph glyph-name="threequarters" unicode="&#xbe;" horiz-adv-x="781" 
d="M52 570c20 12.667 37.3281 21.999 51.9951 27.999s31 9 49 9c10.667 0 19.5 -3 26.5 -9s10.5 -13.333 10.5 -22c0 -15.333 -8.33301 -26.166 -25 -32.499s-39.667 -9.5 -69 -9.5v-49c10.667 0 21.834 -0.5 33.501 -1.5s22.334 -3.5 32.001 -7.5s17.667 -9.83301 24 -17.5
s9.5 -18.5 9.5 -32.5c0 -11.333 -3.83301 -20.333 -11.5 -27s-17.834 -10 -30.501 -10c-18 0 -35.5 1.66699 -52.5 5s-34.5 9.33301 -52.5 18l-25 -88c20 -9.33301 41.5 -16.833 64.5 -22.5s46.5 -8.5 70.5 -8.5c22.667 0 43.834 3.33301 63.501 10
s36.834 15.834 51.501 27.501s26 25.667 34 42s12 34.166 12 53.499c0 21.333 -3.83301 39.166 -11.5 53.499s-19.167 24.833 -34.5 31.5v2c13.333 6 23.5 15.333 30.5 28s10.5 27.334 10.5 44.001c0 36 -14.167 65.333 -42.5 88s-65.166 34 -110.499 34
c-27.333 0 -51.666 -3.33301 -72.999 -10s-42.333 -17.667 -63 -33zM714.995 706.999h-136l-547 -745h137zM688.995 396.999h-81l-215 -223v-61h188v-126h108v126h53v83h-53v201zM585.995 192.999h-62l62 62v-62z" />
    <glyph glyph-name="questiondown" unicode="&#xbf;" horiz-adv-x="359" 
d="M276 -145c-9.33301 -17.333 -21.501 -29.165 -36.501 -35.498s-28.5 -9.5 -40.5 -9.5s-22.833 5.66699 -32.5 17s-14.5 24.333 -14.5 39c0 28 6.5 53.667 19.5 77s27.167 45.5 42.5 66.5s29.5 42 42.5 63s19.5 43.167 19.5 66.5s-4.16699 48.166 -12.5 74.499
s-25.166 52.166 -50.499 77.499l-78 -71c7.33301 -11.333 12.5 -22.5 15.5 -33.5s4.5 -22.167 4.5 -33.5c0 -15.333 -3.33301 -29.833 -10 -43.5s-15 -27.167 -25 -40.5s-21 -27 -33 -41s-23 -28.833 -33 -44.5s-18.333 -32.834 -25 -51.501s-10 -39 -10 -61
c0 -28 4.66699 -52.833 14 -74.5s21.833 -40 37.5 -55s33.5 -26.333 53.5 -34s41 -11.5 63 -11.5c20.667 0 43.167 2.83301 67.5 8.5s47.833 14.834 70.5 27.501zM67.999 390.001l117 -115l122 121l-121 117z" />
    <glyph glyph-name="Agrave" unicode="&#xc0;" horiz-adv-x="726" 
d="M393 715l-80 -34l-314 -681l119 -57l118 256h253l116 -254l122 55zM437 313h-149l74 163zM235 947l160 -226l62 45l-141 229z" />
    <glyph glyph-name="Aacute" unicode="&#xc1;" 
d="M393 715l-80 -34l-314 -681l119 -57l118 256h253l116 -254l122 55zM437 313h-149l74 163zM507 939l-76 56l-141 -237l67 -42z" />
    <glyph glyph-name="Acircumflex" unicode="&#xc2;" horiz-adv-x="726" 
d="M393 715l-80 -34l-314 -681l119 -57l118 256h253l116 -254l122 55zM437 313h-149l74 163zM410 959h-108l-148 -227h127l75 80l72 -80h129z" />
    <glyph glyph-name="Atilde" unicode="&#xc3;" 
d="M393 715l-80 -34l-314 -681l119 -57l118 256h253l116 -254l122 55zM437 313h-149l74 163zM451 933c2.66699 -12 3.16602 -22.667 1.49902 -32s-4.16699 -14 -7.5 -14c-9.33301 0 -19 2.33301 -29 7l-32 15c-15.333 6.66699 -31 12.334 -47 17.001s-32 7 -48 7
c-43.333 0 -74.5 -14 -93.5 -42s-28.5 -68 -28.5 -120h108c-7.33301 11.333 -9.16602 21.666 -5.49902 30.999s7.5 14 11.5 14c10.667 0 22.5 -2.5 35.5 -7.5l41.5 -15.5c14 -5.33301 28 -10.333 42 -15s27.333 -7 40 -7c36.667 0 66 11.667 88 35c6 8 11 15 15 21
s7.33301 13.167 10 21.5s4.66699 19 6 32s2 30.5 2 52.5h-110z" />
    <glyph glyph-name="Adieresis" unicode="&#xc4;" horiz-adv-x="727" 
d="M393 715l-80 -34l-314 -681l119 -57l118 256h253l116 -254l122 55zM437 313h-149l74 163zM252 927l-103 -105l103 -102l104 102zM474 926l-105 -104l105 -103l103 103z" />
    <glyph glyph-name="Aring" unicode="&#xc5;" 
d="M393 715l-80 -34l-314 -681l119 -57l118 256h253l116 -254l122 55zM437 313h-149l74 163zM357 893c13.333 0 24.333 -4.33301 33 -13s13 -19.667 13 -33c0 -12 -4.33301 -22.333 -13 -31s-19.667 -13 -33 -13c-12.667 0 -23.334 4.33301 -32.001 13s-13 19 -13 31
c0 13.333 4.33301 24.333 13 33s19.334 13 32.001 13zM356 969c-17.333 0 -33.499 -3.16797 -48.499 -9.50098s-28.167 -14.833 -39.5 -25.5s-20.333 -23.167 -27 -37.5s-10 -29.833 -10 -46.5c0 -18.667 4 -35.5 12 -50.5s18.333 -27.667 31 -38s26.167 -18.333 40.5 -24
s28.166 -8.5 41.499 -8.5c17.333 0 33.5 3.16699 48.5 9.5s28.167 15 39.5 26s20.166 23.833 26.499 38.5s9.5 30.334 9.5 47.001s-3.16699 32.167 -9.5 46.5s-15.166 26.833 -26.499 37.5s-24.5 19.167 -39.5 25.5s-31.167 9.5 -48.5 9.5z" />
    <glyph glyph-name="AE" unicode="&#xc6;" horiz-adv-x="909" 
d="M853 699h-448l-444 -712h152l172 276h138v-276h439l-38 114h-270v187h261v115h-261v180h264zM420 493h2v-120h-72z" />
    <glyph glyph-name="Ccedilla" unicode="&#xc7;" horiz-adv-x="749" 
d="M714 642c-55.333 25.333 -105.334 42.832 -150.001 52.499s-87.334 14.5 -128.001 14.5c-49.333 0 -96.666 -8.83301 -141.999 -26.5s-85.5 -42.5 -120.5 -74.5s-63 -70.333 -84 -115s-31.5 -94.334 -31.5 -149.001c0 -52 9.66699 -100 29 -144s46 -82.333 80 -115
s74.333 -58.167 121 -76.5s97.667 -27.5 153 -27.5c40 0 82.833 4.66699 128.5 14s95.167 28 148.5 56l-43 116c-26.667 -13.333 -51 -24.166 -73 -32.499s-42.5 -15 -61.5 -20s-36.667 -8.5 -53 -10.5s-32.166 -3 -47.499 -3c-35.333 0 -67.833 6 -97.5 18
s-55.167 28.667 -76.5 50s-38 47 -50 77s-18 62.667 -18 98s6 68 18 98s28.5 56 49.5 78s45.833 39.167 74.5 51.5s59.667 18.5 93 18.5c38.667 0 76 -5.66699 112 -17s73.667 -26.666 113 -45.999zM494.999 16.999l-96.001 -0.000976562l-31 -115
c17.333 1.33301 33 0.666016 47 -2.00098s21 -8 21 -16c0 -12 -9.33301 -18.333 -28 -19c-9.33301 -0.666992 -20.333 -0.666992 -33 0s-27.667 3 -45 7l-19 -87c9.33301 -1.33301 21.833 -3.66602 37.5 -6.99902s27.834 -5 36.501 -5c46.667 -0.666992 83.5 7.5 110.5 24.5
s40.5 43.167 40.5 78.5c0 22 -4.83301 40.333 -14.5 55s-22.5 24.334 -38.5 29.001z" />
    <glyph glyph-name="Egrave" unicode="&#xc8;" horiz-adv-x="566" 
d="M532 697h-453v-708h455l-38 114h-281v185h265v114h-265v179h266zM147 947l160 -226l62 45l-141 229z" />
    <glyph glyph-name="Eacute" unicode="&#xc9;" horiz-adv-x="562" 
d="M532 697h-453v-708h455l-38 114h-281v185h265v114h-265v179h266zM419 939l-76 56l-141 -237l67 -42z" />
    <glyph glyph-name="Ecircumflex" unicode="&#xca;" horiz-adv-x="569" 
d="M532 697h-453v-708h455l-38 114h-281v185h265v114h-265v179h266zM339 959h-108l-149 -227h128l74 80l73 -80h128z" />
    <glyph glyph-name="Edieresis" unicode="&#xcb;" horiz-adv-x="572" 
d="M532 697h-453v-708h455l-38 114h-281v185h265v114h-265v179h266zM184 927l-103 -105l103 -102l104 102zM406 926l-105 -104l105 -103l103 103z" />
    <glyph glyph-name="Igrave" unicode="&#xcc;" horiz-adv-x="297" 
d="M216 732l-136 -51v-692h136v743zM-18 947l160 -226l63 45l-142 229z" />
    <glyph glyph-name="Iacute" unicode="&#xcd;" horiz-adv-x="295" 
d="M216 732l-136 -51v-692h136v743zM278 939l-76 56l-141 -237l67 -42z" />
    <glyph glyph-name="Icircumflex" unicode="&#xce;" horiz-adv-x="297" 
d="M216 732l-136 -51v-692h136v743zM206 976h-108l-149 -228h128l75 80l72 -80h129z" />
    <glyph glyph-name="Idieresis" unicode="&#xcf;" horiz-adv-x="295" 
d="M216 732l-136 -51v-692h136v743zM34 935l-103 -105l103 -102l104 102zM257 935l-106 -105l106 -103l103 103z" />
    <glyph glyph-name="Eth" unicode="&#xd0;" 
d="M31 698v-297h-96v-114h96v-300h256c71.333 0 131.333 11 180 33s88 50.5 118 85.5s51.667 74 65 117s20 85.5 20 127.5c0 38 -6 77.5 -18 118.5s-33 78.5 -63 112.5s-70.167 62 -120.5 84s-113.5 33 -189.5 33h-248zM166 583h114.999
c36.667 0 70.334 -5.66699 101.001 -17s57 -27.333 79 -48s39.167 -45.5 51.5 -74.5s18.5 -60.833 18.5 -95.5c0 -40 -6.66699 -75.333 -20 -106s-31.333 -56.5 -54 -77.5s-49 -36.833 -79 -47.5s-61.333 -16 -94 -16h-118v186h188v114h-188v182z" />
    <glyph glyph-name="Ntilde" unicode="&#xd1;" horiz-adv-x="814" 
d="M740 697h-135v-474l-418 468l-108 54v-756h136v477l421 -471l104 -53v755zM503 933c2.66699 -12 3.16602 -22.667 1.49902 -32s-4.16699 -14 -7.5 -14c-9.33301 0 -19 2.33301 -29 7l-32 15c-15.333 6.66699 -31 12.334 -47 17.001s-32 7 -48 7
c-43.333 0 -74.5 -14 -93.5 -42s-28.5 -68 -28.5 -120h108c-7.33301 11.333 -9.16602 21.666 -5.49902 30.999s7.5 14 11.5 14c10.667 0 22.5 -2.5 35.5 -7.5l41.5 -15.5c14 -5.33301 28 -10.333 42 -15s27.333 -7 40 -7c36.667 0 66 11.667 88 35c6 8 11 15 15 21
s7.33301 13.167 10 21.5s4.66699 19 6 32s2 30.5 2 52.5h-110z" />
    <glyph glyph-name="Ograve" unicode="&#xd2;" horiz-adv-x="864" 
d="M812 341c0 50.667 -9.83301 98.167 -29.5 142.5s-46.667 82.833 -81 115.5s-74.666 58.5 -120.999 77.5s-96.166 28.5 -149.499 28.5s-103.166 -9.5 -149.499 -28.5s-86.5 -44.833 -120.5 -77.5s-60.833 -71.167 -80.5 -115.5s-29.5 -91.833 -29.5 -142.5
c0 -51.333 9.83301 -99 29.5 -143s46.5 -82.5 80.5 -115.5s74.167 -58.833 120.5 -77.5s96.166 -28 149.499 -28s103.166 9.33301 149.499 28s86.666 44.5 120.999 77.5s61.333 71.5 81 115.5s29.5 91.667 29.5 143zM674 341c0 -34.667 -6.16699 -66.834 -18.5 -96.501
s-29.5 -55.5 -51.5 -77.5s-47.667 -39.167 -77 -51.5s-61 -18.5 -95 -18.5s-65.667 6.16699 -95 18.5s-54.833 29.5 -76.5 51.5s-38.834 47.833 -51.501 77.5s-19 61.834 -19 96.501s6.33301 66.834 19 96.501s29.834 55.5 51.501 77.5s47.167 39.167 76.5 51.5
s61 18.5 95 18.5s65.667 -6.16699 95 -18.5s55 -29.5 77 -51.5s39.167 -47.833 51.5 -77.5s18.5 -61.834 18.5 -96.501zM296 947l160 -226l62 45l-141 229z" />
    <glyph glyph-name="Oacute" unicode="&#xd3;" horiz-adv-x="861" 
d="M812 341c0 50.667 -9.83301 98.167 -29.5 142.5s-46.667 82.833 -81 115.5s-74.666 58.5 -120.999 77.5s-96.166 28.5 -149.499 28.5s-103.166 -9.5 -149.499 -28.5s-86.5 -44.833 -120.5 -77.5s-60.833 -71.167 -80.5 -115.5s-29.5 -91.833 -29.5 -142.5
c0 -51.333 9.83301 -99 29.5 -143s46.5 -82.5 80.5 -115.5s74.167 -58.833 120.5 -77.5s96.166 -28 149.499 -28s103.166 9.33301 149.499 28s86.666 44.5 120.999 77.5s61.333 71.5 81 115.5s29.5 91.667 29.5 143zM674 341c0 -34.667 -6.16699 -66.834 -18.5 -96.501
s-29.5 -55.5 -51.5 -77.5s-47.667 -39.167 -77 -51.5s-61 -18.5 -95 -18.5s-65.667 6.16699 -95 18.5s-54.833 29.5 -76.5 51.5s-38.834 47.833 -51.501 77.5s-19 61.834 -19 96.501s6.33301 66.834 19 96.501s29.834 55.5 51.501 77.5s47.167 39.167 76.5 51.5
s61 18.5 95 18.5s65.667 -6.16699 95 -18.5s55 -29.5 77 -51.5s39.167 -47.833 51.5 -77.5s18.5 -61.834 18.5 -96.501zM585 939l-76 56l-141 -237l67 -42z" />
    <glyph glyph-name="Ocircumflex" unicode="&#xd4;" horiz-adv-x="860" 
d="M812 341c0 50.667 -9.83301 98.167 -29.5 142.5s-46.667 82.833 -81 115.5s-74.666 58.5 -120.999 77.5s-96.166 28.5 -149.499 28.5s-103.166 -9.5 -149.499 -28.5s-86.5 -44.833 -120.5 -77.5s-60.833 -71.167 -80.5 -115.5s-29.5 -91.833 -29.5 -142.5
c0 -51.333 9.83301 -99 29.5 -143s46.5 -82.5 80.5 -115.5s74.167 -58.833 120.5 -77.5s96.166 -28 149.499 -28s103.166 9.33301 149.499 28s86.666 44.5 120.999 77.5s61.333 71.5 81 115.5s29.5 91.667 29.5 143zM674 341c0 -34.667 -6.16699 -66.834 -18.5 -96.501
s-29.5 -55.5 -51.5 -77.5s-47.667 -39.167 -77 -51.5s-61 -18.5 -95 -18.5s-65.667 6.16699 -95 18.5s-54.833 29.5 -76.5 51.5s-38.834 47.833 -51.501 77.5s-19 61.834 -19 96.501s6.33301 66.834 19 96.501s29.834 55.5 51.501 77.5s47.167 39.167 76.5 51.5
s61 18.5 95 18.5s65.667 -6.16699 95 -18.5s55 -29.5 77 -51.5s39.167 -47.833 51.5 -77.5s18.5 -61.834 18.5 -96.501zM488 959h-108l-148 -227h127l75 80l72 -80h129z" />
    <glyph glyph-name="Otilde" unicode="&#xd5;" horiz-adv-x="861" 
d="M812 341c0 50.667 -9.83301 98.167 -29.5 142.5s-46.667 82.833 -81 115.5s-74.666 58.5 -120.999 77.5s-96.166 28.5 -149.499 28.5s-103.166 -9.5 -149.499 -28.5s-86.5 -44.833 -120.5 -77.5s-60.833 -71.167 -80.5 -115.5s-29.5 -91.833 -29.5 -142.5
c0 -51.333 9.83301 -99 29.5 -143s46.5 -82.5 80.5 -115.5s74.167 -58.833 120.5 -77.5s96.166 -28 149.499 -28s103.166 9.33301 149.499 28s86.666 44.5 120.999 77.5s61.333 71.5 81 115.5s29.5 91.667 29.5 143zM674 341c0 -34.667 -6.16699 -66.834 -18.5 -96.501
s-29.5 -55.5 -51.5 -77.5s-47.667 -39.167 -77 -51.5s-61 -18.5 -95 -18.5s-65.667 6.16699 -95 18.5s-54.833 29.5 -76.5 51.5s-38.834 47.833 -51.501 77.5s-19 61.834 -19 96.501s6.33301 66.834 19 96.501s29.834 55.5 51.501 77.5s47.167 39.167 76.5 51.5
s61 18.5 95 18.5s65.667 -6.16699 95 -18.5s55 -29.5 77 -51.5s39.167 -47.833 51.5 -77.5s18.5 -61.834 18.5 -96.501zM514 933c2.66699 -12 3.16602 -22.667 1.49902 -32s-4.16699 -14 -7.5 -14c-9.33301 0 -19 2.33301 -29 7l-32 15
c-15.333 6.66699 -31 12.334 -47 17.001s-32 7 -48 7c-43.333 0 -74.5 -14 -93.5 -42s-28.5 -68 -28.5 -120h108c-7.33301 11.333 -9.16602 21.666 -5.49902 30.999s7.5 14 11.5 14c10.667 0 22.5 -2.5 35.5 -7.5l41.5 -15.5c14 -5.33301 28 -10.333 42 -15s27.333 -7 40 -7
c36.667 0 66 11.667 88 35c6 8 11 15 15 21s7.33301 13.167 10 21.5s4.66699 19 6 32s2 30.5 2 52.5h-110z" />
    <glyph glyph-name="Odieresis" unicode="&#xd6;" horiz-adv-x="860" 
d="M812 341c0 50.667 -9.83301 98.167 -29.5 142.5s-46.667 82.833 -81 115.5s-74.666 58.5 -120.999 77.5s-96.166 28.5 -149.499 28.5s-103.166 -9.5 -149.499 -28.5s-86.5 -44.833 -120.5 -77.5s-60.833 -71.167 -80.5 -115.5s-29.5 -91.833 -29.5 -142.5
c0 -51.333 9.83301 -99 29.5 -143s46.5 -82.5 80.5 -115.5s74.167 -58.833 120.5 -77.5s96.166 -28 149.499 -28s103.166 9.33301 149.499 28s86.666 44.5 120.999 77.5s61.333 71.5 81 115.5s29.5 91.667 29.5 143zM674 341c0 -34.667 -6.16699 -66.834 -18.5 -96.501
s-29.5 -55.5 -51.5 -77.5s-47.667 -39.167 -77 -51.5s-61 -18.5 -95 -18.5s-65.667 6.16699 -95 18.5s-54.833 29.5 -76.5 51.5s-38.834 47.833 -51.501 77.5s-19 61.834 -19 96.501s6.33301 66.834 19 96.501s29.834 55.5 51.501 77.5s47.167 39.167 76.5 51.5
s61 18.5 95 18.5s65.667 -6.16699 95 -18.5s55 -29.5 77 -51.5s39.167 -47.833 51.5 -77.5s18.5 -61.834 18.5 -96.501zM325 927l-103 -105l103 -102l104 102zM547 926l-105 -104l105 -103l103 103z" />
    <glyph glyph-name="multiply" unicode="&#xd7;" horiz-adv-x="593" 
d="M50 511l158 -158l-158 -158l87 -86l158 158l158 -158l87 86l-158 158l158 158l-87 87l-158 -158l-158 158z" />
    <glyph glyph-name="Oslash" unicode="&#xd8;" horiz-adv-x="864" 
d="M232 207c-12.667 17.333 -22.5 37.499 -29.5 60.499s-10.5 47.833 -10.5 74.5c0 34.667 6.33301 66.834 19 96.501s30 55.5 52 77.5s48 39.167 78 51.5s62.333 18.5 97 18.5c20 0 40 -2.5 60 -7.5s37 -12.167 51 -21.5zM239 26.999
c27.333 -15.333 56.832 -27.333 88.499 -36s66.834 -13 105.501 -13c53.333 0 103.166 9.33301 149.499 28s86.666 44.334 120.999 77.001s61.333 71.167 81 115.5s29.5 92.166 29.5 143.499c0 46 -7.66699 88.333 -23 127s-36.666 73 -63.999 103l69 76l-102 70l-60 -66
c-27.333 16 -57.5 29 -90.5 39s-69.833 15 -110.5 15c-53.333 0 -103.166 -9.5 -149.499 -28.5s-86.5 -44.667 -120.5 -77s-60.833 -70 -80.5 -113s-29.5 -88.833 -29.5 -137.5c0 -48 7.66699 -92.5 23 -133.5s37.333 -77.833 66 -110.5l-65 -70l101 -77zM637.999 471.999
c12 -18.667 21.167 -38.3311 27.5 -58.998s9.5 -44.334 9.5 -71.001c0 -34.667 -6.16699 -67 -18.5 -97s-29.333 -56 -51 -78s-47.167 -39.167 -76.5 -51.5s-61 -18.5 -95 -18.5c-21.333 0 -41.333 2.66699 -60 8s-34.667 11.666 -48 18.999z" />
    <glyph glyph-name="Ugrave" unicode="&#xd9;" horiz-adv-x="752" 
d="M548 682v-375c0 -38.667 -5.33301 -71.5 -16 -98.5s-24.5 -49 -41.5 -66s-36.333 -29.333 -58 -37s-43.5 -11.5 -65.5 -11.5c-22.667 0 -44.167 4 -64.5 12s-38.166 20.5 -53.499 37.5s-27.5 38.5 -36.5 64.5s-13.5 56.667 -13.5 92v382l-135 34v-417
c0 -54 8 -101.333 24 -142s37.667 -74.5 65 -101.5s59.333 -47.333 96 -61s76 -20.5 118 -20.5c31.333 0 63.166 5.33301 95.499 16s61.5 26 87.5 46v-39l132 -41v760zM251 947l160 -226l62 45l-141 229z" />
    <glyph glyph-name="Uacute" unicode="&#xda;" horiz-adv-x="754" 
d="M548 682v-375c0 -38.667 -5.33301 -71.5 -16 -98.5s-24.5 -49 -41.5 -66s-36.333 -29.333 -58 -37s-43.5 -11.5 -65.5 -11.5c-22.667 0 -44.167 4 -64.5 12s-38.166 20.5 -53.499 37.5s-27.5 38.5 -36.5 64.5s-13.5 56.667 -13.5 92v382l-135 34v-417
c0 -54 8 -101.333 24 -142s37.667 -74.5 65 -101.5s59.333 -47.333 96 -61s76 -20.5 118 -20.5c31.333 0 63.166 5.33301 95.499 16s61.5 26 87.5 46v-39l132 -41v760zM523 939l-76 56l-141 -237l67 -42z" />
    <glyph glyph-name="Ucircumflex" unicode="&#xdb;" horiz-adv-x="752" 
d="M548 682v-375c0 -38.667 -5.33301 -71.5 -16 -98.5s-24.5 -49 -41.5 -66s-36.333 -29.333 -58 -37s-43.5 -11.5 -65.5 -11.5c-22.667 0 -44.167 4 -64.5 12s-38.166 20.5 -53.499 37.5s-27.5 38.5 -36.5 64.5s-13.5 56.667 -13.5 92v382l-135 34v-417
c0 -54 8 -101.333 24 -142s37.667 -74.5 65 -101.5s59.333 -47.333 96 -61s76 -20.5 118 -20.5c31.333 0 63.166 5.33301 95.499 16s61.5 26 87.5 46v-39l132 -41v760zM426 959h-108l-148 -227h127l75 80l72 -80h129z" />
    <glyph glyph-name="Udieresis" unicode="&#xdc;" horiz-adv-x="752" 
d="M548 682v-375c0 -38.667 -5.33301 -71.5 -16 -98.5s-24.5 -49 -41.5 -66s-36.333 -29.333 -58 -37s-43.5 -11.5 -65.5 -11.5c-22.667 0 -44.167 4 -64.5 12s-38.166 20.5 -53.499 37.5s-27.5 38.5 -36.5 64.5s-13.5 56.667 -13.5 92v382l-135 34v-417
c0 -54 8 -101.333 24 -142s37.667 -74.5 65 -101.5s59.333 -47.333 96 -61s76 -20.5 118 -20.5c31.333 0 63.166 5.33301 95.499 16s61.5 26 87.5 46v-39l132 -41v760zM263 927l-103 -105l103 -102l104 102zM485 926l-105 -104l105 -103l103 103z" />
    <glyph glyph-name="Yacute" unicode="&#xdd;" horiz-adv-x="661" 
d="M720 674l-116 56l-219 -257l-219 259l-116 -59l267 -318v-367h136v367zM515 939l-76 56l-141 -237l66 -42z" />
    <glyph glyph-name="Thorn" unicode="&#xde;" horiz-adv-x="560" 
d="M77 699v-712h136v151h60c49.333 0 90.5 6.16699 123.5 18.5s59.333 28.166 79 47.499s33.5 41.333 41.5 66s12 49.667 12 75c0 28 -4.66699 54.333 -14 79s-24 46.334 -44 65.001s-46 33.5 -78 44.5s-70.333 16.5 -115 16.5h-65v149h-136zM213 435l62.9971 -0.000976562
c40.667 0 69.834 -9 87.501 -27s26.5 -39.333 26.5 -64c0 -12.667 -2.16699 -24.667 -6.5 -36s-11.166 -21.166 -20.499 -29.499s-21.666 -15 -36.999 -20s-34 -7.5 -56 -7.5h-57v184z" />
    <glyph glyph-name="germandbls" unicode="&#xdf;" horiz-adv-x="560" 
d="M63 4l129.999 -50v516c0 17.333 1.33301 33.666 4 48.999s7.16699 28.833 13.5 40.5s15 20.834 26 27.501s25.167 10 42.5 10c24 0 43.167 -8 57.5 -24s21.5 -36.667 21.5 -62c0 -21.333 -8.5 -41.166 -25.5 -59.499s-41.167 -29.166 -72.5 -32.499v-97
c40 -2 71 -13.167 93 -33.5s33 -47.833 33 -82.5c0 -34 -7.33301 -61 -22 -81s-33.667 -30 -57 -30c-10 0 -18.333 0.833008 -25 2.5s-16.334 5.16699 -29.001 10.5l-39 -113c21.333 -7.33301 38.166 -12.166 50.499 -14.499s27.166 -3.5 44.499 -3.5
c30.667 0 58.834 5.66699 84.501 17s47.834 27.166 66.501 47.499s33.167 44.666 43.5 72.999s15.5 59.166 15.5 92.499c0 44 -9.16699 80.167 -27.5 108.5s-41.166 50.166 -68.499 65.499c12 6 22.333 14.667 31 26s15.667 23.333 21 36s9.33301 25.334 12 38.001
s4 23.667 4 33c0 28 -5.16699 53.667 -15.5 77s-25 43.5 -44 60.5s-41.5 30.167 -67.5 39.5s-54.333 14 -85 14c-69.333 0 -122.666 -19.667 -159.999 -59s-56 -95.333 -56 -168v-474z" />
    <glyph glyph-name="agrave" unicode="&#xe0;" horiz-adv-x="485" 
d="M425 -37l-0.000976562 382.999c0 29.333 -5.5 53.5 -16.5 72.5s-24.833 34 -41.5 45s-34.5 18.667 -53.5 23s-36.833 6.5 -53.5 6.5c-32 0 -66.167 -3.5 -102.5 -10.5s-73.166 -21.833 -110.499 -44.5l53 -105c23.333 17.333 47.833 29.833 73.5 37.5
s49.5 11.5 71.5 11.5c15.333 0 27.5 -4 36.5 -12s13.5 -18 13.5 -30v-21c-28.667 0 -58.167 -2 -88.5 -6s-57.833 -12.5 -82.5 -25.5s-45 -31.167 -61 -54.5s-24 -54 -24 -92c0 -19.333 4.16699 -38.333 12.5 -57s19.666 -35.667 33.999 -51s31 -27.666 50 -36.999
s39.5 -14 61.5 -14c10.667 0 22.334 0.333008 35.001 1s25.167 1.66699 37.5 3s23.833 2.83301 34.5 4.5s19 3.16699 25 4.5zM294.999 102.999c-3.33301 -1.33301 -8.33301 -2.66699 -15 -4s-13.834 -2.5 -21.501 -3.5s-15.667 -1.83301 -24 -2.5s-15.833 -1 -22.5 -1
c-11.333 0 -20.833 4.83301 -28.5 14.5s-11.5 21.167 -11.5 34.5c0 14.667 3.5 26.667 10.5 36s16.333 16.5 28 21.5s24.834 8.33301 39.501 10s29.667 2.5 45 2.5v-108zM114.999 728.998l160 -226l62 45l-141 229z" />
    <glyph glyph-name="aacute" unicode="&#xe1;" horiz-adv-x="486" 
d="M425 -37l-0.000976562 382.999c0 29.333 -5.5 53.5 -16.5 72.5s-24.833 34 -41.5 45s-34.5 18.667 -53.5 23s-36.833 6.5 -53.5 6.5c-32 0 -66.167 -3.5 -102.5 -10.5s-73.166 -21.833 -110.499 -44.5l53 -105c23.333 17.333 47.833 29.833 73.5 37.5
s49.5 11.5 71.5 11.5c15.333 0 27.5 -4 36.5 -12s13.5 -18 13.5 -30v-21c-28.667 0 -58.167 -2 -88.5 -6s-57.833 -12.5 -82.5 -25.5s-45 -31.167 -61 -54.5s-24 -54 -24 -92c0 -19.333 4.16699 -38.333 12.5 -57s19.666 -35.667 33.999 -51s31 -27.666 50 -36.999
s39.5 -14 61.5 -14c10.667 0 22.334 0.333008 35.001 1s25.167 1.66699 37.5 3s23.833 2.83301 34.5 4.5s19 3.16699 25 4.5zM294.999 102.999c-3.33301 -1.33301 -8.33301 -2.66699 -15 -4s-13.834 -2.5 -21.501 -3.5s-15.667 -1.83301 -24 -2.5s-15.833 -1 -22.5 -1
c-11.333 0 -20.833 4.83301 -28.5 14.5s-11.5 21.167 -11.5 34.5c0 14.667 3.5 26.667 10.5 36s16.333 16.5 28 21.5s24.834 8.33301 39.501 10s29.667 2.5 45 2.5v-108zM395.999 728.998l-76 56l-141 -237l67 -42z" />
    <glyph glyph-name="acircumflex" unicode="&#xe2;" horiz-adv-x="485" 
d="M425 -37l-0.000976562 382.999c0 29.333 -5.5 53.5 -16.5 72.5s-24.833 34 -41.5 45s-34.5 18.667 -53.5 23s-36.833 6.5 -53.5 6.5c-32 0 -66.167 -3.5 -102.5 -10.5s-73.166 -21.833 -110.499 -44.5l53 -105c23.333 17.333 47.833 29.833 73.5 37.5
s49.5 11.5 71.5 11.5c15.333 0 27.5 -4 36.5 -12s13.5 -18 13.5 -30v-21c-28.667 0 -58.167 -2 -88.5 -6s-57.833 -12.5 -82.5 -25.5s-45 -31.167 -61 -54.5s-24 -54 -24 -92c0 -19.333 4.16699 -38.333 12.5 -57s19.666 -35.667 33.999 -51s31 -27.666 50 -36.999
s39.5 -14 61.5 -14c10.667 0 22.334 0.333008 35.001 1s25.167 1.66699 37.5 3s23.833 2.83301 34.5 4.5s19 3.16699 25 4.5zM294.999 102.999c-3.33301 -1.33301 -8.33301 -2.66699 -15 -4s-13.834 -2.5 -21.501 -3.5s-15.667 -1.83301 -24 -2.5s-15.833 -1 -22.5 -1
c-11.333 0 -20.833 4.83301 -28.5 14.5s-11.5 21.167 -11.5 34.5c0 14.667 3.5 26.667 10.5 36s16.333 16.5 28 21.5s24.834 8.33301 39.501 10s29.667 2.5 45 2.5v-108zM289.999 740.998h-108l-148 -227h127l75 80l72 -80h129z" />
    <glyph glyph-name="atilde" unicode="&#xe3;" horiz-adv-x="485" 
d="M425 -37l-0.000976562 382.999c0 29.333 -5.5 53.5 -16.5 72.5s-24.833 34 -41.5 45s-34.5 18.667 -53.5 23s-36.833 6.5 -53.5 6.5c-32 0 -66.167 -3.5 -102.5 -10.5s-73.166 -21.833 -110.499 -44.5l53 -105c23.333 17.333 47.833 29.833 73.5 37.5
s49.5 11.5 71.5 11.5c15.333 0 27.5 -4 36.5 -12s13.5 -18 13.5 -30v-21c-28.667 0 -58.167 -2 -88.5 -6s-57.833 -12.5 -82.5 -25.5s-45 -31.167 -61 -54.5s-24 -54 -24 -92c0 -19.333 4.16699 -38.333 12.5 -57s19.666 -35.667 33.999 -51s31 -27.666 50 -36.999
s39.5 -14 61.5 -14c10.667 0 22.334 0.333008 35.001 1s25.167 1.66699 37.5 3s23.833 2.83301 34.5 4.5s19 3.16699 25 4.5zM294.999 102.999c-3.33301 -1.33301 -8.33301 -2.66699 -15 -4s-13.834 -2.5 -21.501 -3.5s-15.667 -1.83301 -24 -2.5s-15.833 -1 -22.5 -1
c-11.333 0 -20.833 4.83301 -28.5 14.5s-11.5 21.167 -11.5 34.5c0 14.667 3.5 26.667 10.5 36s16.333 16.5 28 21.5s24.834 8.33301 39.501 10s29.667 2.5 45 2.5v-108zM330.999 714.998c2.66699 -12 3.16602 -22.667 1.49902 -32s-4.16699 -14 -7.5 -14
c-9.33301 0 -19 2.33301 -29 7l-32 15c-15.333 6.66699 -31 12.334 -47 17.001s-32 7 -48 7c-43.333 0 -74.5 -14 -93.5 -42s-28.5 -68 -28.5 -120h108c-7.33301 11.333 -9.16602 21.666 -5.49902 30.999s7.5 14 11.5 14c10.667 0 22.5 -2.5 35.5 -7.5l41.5 -15.5
c14 -5.33301 28 -10.333 42 -15s27.333 -7 40 -7c36.667 0 66 11.667 88 35c6 8 11 15 15 21s7.33301 13.167 10 21.5s4.66699 19 6 32s2 30.5 2 52.5h-110z" />
    <glyph glyph-name="adieresis" unicode="&#xe4;" horiz-adv-x="484" 
d="M425 -37l-0.000976562 382.999c0 29.333 -5.5 53.5 -16.5 72.5s-24.833 34 -41.5 45s-34.5 18.667 -53.5 23s-36.833 6.5 -53.5 6.5c-32 0 -66.167 -3.5 -102.5 -10.5s-73.166 -21.833 -110.499 -44.5l53 -105c23.333 17.333 47.833 29.833 73.5 37.5
s49.5 11.5 71.5 11.5c15.333 0 27.5 -4 36.5 -12s13.5 -18 13.5 -30v-21c-28.667 0 -58.167 -2 -88.5 -6s-57.833 -12.5 -82.5 -25.5s-45 -31.167 -61 -54.5s-24 -54 -24 -92c0 -19.333 4.16699 -38.333 12.5 -57s19.666 -35.667 33.999 -51s31 -27.666 50 -36.999
s39.5 -14 61.5 -14c10.667 0 22.334 0.333008 35.001 1s25.167 1.66699 37.5 3s23.833 2.83301 34.5 4.5s19 3.16699 25 4.5zM294.999 102.999c-3.33301 -1.33301 -8.33301 -2.66699 -15 -4s-13.834 -2.5 -21.501 -3.5s-15.667 -1.83301 -24 -2.5s-15.833 -1 -22.5 -1
c-11.333 0 -20.833 4.83301 -28.5 14.5s-11.5 21.167 -11.5 34.5c0 14.667 3.5 26.667 10.5 36s16.333 16.5 28 21.5s24.834 8.33301 39.501 10s29.667 2.5 45 2.5v-108zM136.999 716.998l-103 -105l103 -102l104 102zM358.999 716.998l-105 -105l105 -103l103 103z" />
    <glyph glyph-name="aring" unicode="&#xe5;" horiz-adv-x="484" 
d="M425 -37l-0.000976562 382.999c0 29.333 -5.5 53.5 -16.5 72.5s-24.833 34 -41.5 45s-34.5 18.667 -53.5 23s-36.833 6.5 -53.5 6.5c-32 0 -66.167 -3.5 -102.5 -10.5s-73.166 -21.833 -110.499 -44.5l53 -105c23.333 17.333 47.833 29.833 73.5 37.5
s49.5 11.5 71.5 11.5c15.333 0 27.5 -4 36.5 -12s13.5 -18 13.5 -30v-21c-28.667 0 -58.167 -2 -88.5 -6s-57.833 -12.5 -82.5 -25.5s-45 -31.167 -61 -54.5s-24 -54 -24 -92c0 -19.333 4.16699 -38.333 12.5 -57s19.666 -35.667 33.999 -51s31 -27.666 50 -36.999
s39.5 -14 61.5 -14c10.667 0 22.334 0.333008 35.001 1s25.167 1.66699 37.5 3s23.833 2.83301 34.5 4.5s19 3.16699 25 4.5zM294.999 102.999c-3.33301 -1.33301 -8.33301 -2.66699 -15 -4s-13.834 -2.5 -21.501 -3.5s-15.667 -1.83301 -24 -2.5s-15.833 -1 -22.5 -1
c-11.333 0 -20.833 4.83301 -28.5 14.5s-11.5 21.167 -11.5 34.5c0 14.667 3.5 26.667 10.5 36s16.333 16.5 28 21.5s24.834 8.33301 39.501 10s29.667 2.5 45 2.5v-108zM254.999 683.998c12.667 0 23.334 -4.5 32.001 -13.5s13 -20.167 13 -33.5
c0 -12 -4.33301 -22.333 -13 -31s-19.334 -13 -32.001 -13s-23.334 4.33301 -32.001 13s-13 19 -13 31c0 13.333 4.33301 24.5 13 33.5s19.334 13.5 32.001 13.5zM253.999 758.998c-17.333 0 -33.499 -3.16699 -48.499 -9.5s-28.167 -14.833 -39.5 -25.5
s-20.333 -23.167 -27 -37.5s-10 -29.833 -10 -46.5c0 -18 4 -34.5 12 -49.5s18.333 -27.833 31 -38.5s26.167 -18.834 40.5 -24.501s28.166 -8.5 41.499 -8.5c17.333 0 33.5 3.16699 48.5 9.5s28 15 39 26s19.667 23.833 26 38.5s9.5 30.334 9.5 47.001
s-3.16699 32.167 -9.5 46.5s-15 26.833 -26 37.5s-24 19.167 -39 25.5s-31.167 9.5 -48.5 9.5z" />
    <glyph glyph-name="ae" unicode="&#xe6;" horiz-adv-x="715" 
d="M677 208c0 90.667 -16.5029 159.662 -49.5029 206.995s-84.833 71 -155.5 71c-24 0 -44.667 -3.66699 -62 -11s-35 -19.666 -53 -36.999c-14 17.333 -29.833 29.666 -47.5 36.999s-40.167 11 -67.5 11c-36 0 -72.333 -6.16699 -109 -18.5s-70.334 -30.5 -101.001 -54.5
l58 -99c24 19.333 48.833 33.666 74.5 42.999s49.167 14 70.5 14c13.333 0 23.5 -4.16699 30.5 -12.5s10.5 -20.166 10.5 -35.499v-5c-40.667 -3.33301 -76.167 -9.16602 -106.5 -17.499s-55.666 -20.166 -75.999 -35.499s-35.5 -34.666 -45.5 -57.999s-15 -52 -15 -86
c0 -21.333 3.83301 -40.833 11.5 -58.5s18.5 -33 32.5 -46s30.5 -23.167 49.5 -30.5s39.5 -11 61.5 -11c24.667 0 49.167 4.16699 73.5 12.5s53.5 23.5 87.5 45.5c19.333 -21.333 39.333 -36.333 60 -45s44 -13 70 -13c34.667 0 69.5 5.16699 104.5 15.5
s69.5 27.5 103.5 51.5l-52 105c-25.333 -21.333 -49.166 -36 -71.499 -44s-46.166 -12 -71.499 -12c-9.33301 0 -19 1.83301 -29 5.5s-19.167 9.33398 -27.5 17.001s-15.166 17.834 -20.499 30.501s-8 28 -8 46v18h270zM410.997 305.995
c0.666992 18 6.83301 34.167 18.5 48.5s26.167 21.5 43.5 21.5c16.667 0 32.167 -6.83301 46.5 -20.5s21.833 -30.167 22.5 -49.5h-131zM275.996 120.995c-16 -12 -30.334 -20.667 -43.001 -26s-24.667 -8 -36 -8c-10 0 -18.333 3.83301 -25 11.5s-10 17.167 -10 28.5
c0 24.667 8.33301 44 25 58s46.334 22 89.001 24v-88z" />
    <glyph glyph-name="ccedilla" unicode="&#xe7;" horiz-adv-x="518" 
d="M489 436c-34.667 15.333 -69.499 27.834 -104.499 37.501s-64.167 14.5 -87.5 14.5c-37.333 0 -72 -6.33301 -104 -19s-59.5 -30.5 -82.5 -53.5s-41 -50.5 -54 -82.5s-19.5 -67.333 -19.5 -106c0 -36.667 6.5 -70.334 19.5 -101.001s31 -57 54 -79
s50.667 -39.167 83 -51.5s67.833 -18.5 106.5 -18.5c12 0 25.833 1 41.5 3s32.334 5.16699 50.001 9.5s35.667 9.5 54 15.5s36.166 13 53.499 21l-52 105c-36.667 -14 -65.5 -23.667 -86.5 -29s-40.167 -8 -57.5 -8c-40.667 0 -72.834 12 -96.501 36s-35.5 57 -35.5 99
s11.667 75.833 35 101.5s54 38.5 92 38.5c8 0 16.167 -0.5 24.5 -1.5s18 -3 29 -6s23.5 -6.83301 37.5 -11.5s30.667 -11 50 -19zM342.001 15.001l-96.001 -0.000976562l-31 -115c18 1.33301 34 0.666016 48 -2.00098s21 -8 21 -16c0 -11.333 -9.33301 -17.666 -28 -18.999
c-10 -0.666992 -21.167 -0.666992 -33.5 0s-27.166 2.66699 -44.499 6l-19 -86c4 -0.666992 9.33301 -1.66699 16 -3l21 -4c7.33301 -1.33301 14.333 -2.5 21 -3.5s12 -1.5 16 -1.5c46.667 -0.666992 83.5 7.5 110.5 24.5s40.5 43.167 40.5 78.5c0 22 -5 40.333 -15 55
s-22.667 24.334 -38 29.001z" />
    <glyph glyph-name="egrave" unicode="&#xe8;" horiz-adv-x="538" 
d="M494 204c0 50.667 -6.66895 94 -20.002 130s-30.666 65.5 -51.999 88.5s-45.166 39.667 -71.499 50s-52.5 15.5 -78.5 15.5c-36 0 -69 -6.16699 -99 -18.5s-55.5 -29.5 -76.5 -51.5s-37.333 -48.5 -49 -79.5s-17.5 -64.833 -17.5 -101.5
c0 -38 6.16699 -72.833 18.5 -104.5s29.666 -59 51.999 -82s49.333 -41 81 -54s66.834 -19.5 105.501 -19.5c38 0 73.833 7.16699 107.5 21.5s64.167 32.5 91.5 54.5l-57 100c-22 -19.333 -43.333 -34 -64 -44s-43.334 -15 -68.001 -15c-18.667 0 -36 2.66699 -52 8
s-29.833 13 -41.5 23s-20.667 21.667 -27 35s-9.16602 28 -8.49902 44h326zM175.998 307c6.66699 20 17.666 36.5 32.999 49.5s34 19.5 56 19.5s39.833 -7 53.5 -21s22.834 -30 27.501 -48h-170zM140.997 729l160 -226l62 45l-141 229z" />
    <glyph glyph-name="eacute" unicode="&#xe9;" horiz-adv-x="540" 
d="M494 204c0 50.667 -6.66895 94 -20.002 130s-30.666 65.5 -51.999 88.5s-45.166 39.667 -71.499 50s-52.5 15.5 -78.5 15.5c-36 0 -69 -6.16699 -99 -18.5s-55.5 -29.5 -76.5 -51.5s-37.333 -48.5 -49 -79.5s-17.5 -64.833 -17.5 -101.5
c0 -38 6.16699 -72.833 18.5 -104.5s29.666 -59 51.999 -82s49.333 -41 81 -54s66.834 -19.5 105.501 -19.5c38 0 73.833 7.16699 107.5 21.5s64.167 32.5 91.5 54.5l-57 100c-22 -19.333 -43.333 -34 -64 -44s-43.334 -15 -68.001 -15c-18.667 0 -36 2.66699 -52 8
s-29.833 13 -41.5 23s-20.667 21.667 -27 35s-9.16602 28 -8.49902 44h326zM175.998 307c6.66699 20 17.666 36.5 32.999 49.5s34 19.5 56 19.5s39.833 -7 53.5 -21s22.834 -30 27.501 -48h-170zM412.997 721l-76 56l-141 -237l67 -42z" />
    <glyph glyph-name="ecircumflex" unicode="&#xea;" horiz-adv-x="538" 
d="M494 204c0 50.667 -6.66895 94 -20.002 130s-30.666 65.5 -51.999 88.5s-45.166 39.667 -71.499 50s-52.5 15.5 -78.5 15.5c-36 0 -69 -6.16699 -99 -18.5s-55.5 -29.5 -76.5 -51.5s-37.333 -48.5 -49 -79.5s-17.5 -64.833 -17.5 -101.5
c0 -38 6.16699 -72.833 18.5 -104.5s29.666 -59 51.999 -82s49.333 -41 81 -54s66.834 -19.5 105.501 -19.5c38 0 73.833 7.16699 107.5 21.5s64.167 32.5 91.5 54.5l-57 100c-22 -19.333 -43.333 -34 -64 -44s-43.334 -15 -68.001 -15c-18.667 0 -36 2.66699 -52 8
s-29.833 13 -41.5 23s-20.667 21.667 -27 35s-9.16602 28 -8.49902 44h326zM175.998 307c6.66699 20 17.666 36.5 32.999 49.5s34 19.5 56 19.5s39.833 -7 53.5 -21s22.834 -30 27.501 -48h-170zM323.997 741h-107l-149 -227h128l74 80l72 -80h129z" />
    <glyph glyph-name="edieresis" unicode="&#xeb;" horiz-adv-x="536" 
d="M494 204c0 50.667 -6.66895 94 -20.002 130s-30.666 65.5 -51.999 88.5s-45.166 39.667 -71.499 50s-52.5 15.5 -78.5 15.5c-36 0 -69 -6.16699 -99 -18.5s-55.5 -29.5 -76.5 -51.5s-37.333 -48.5 -49 -79.5s-17.5 -64.833 -17.5 -101.5
c0 -38 6.16699 -72.833 18.5 -104.5s29.666 -59 51.999 -82s49.333 -41 81 -54s66.834 -19.5 105.501 -19.5c38 0 73.833 7.16699 107.5 21.5s64.167 32.5 91.5 54.5l-57 100c-22 -19.333 -43.333 -34 -64 -44s-43.334 -15 -68.001 -15c-18.667 0 -36 2.66699 -52 8
s-29.833 13 -41.5 23s-20.667 21.667 -27 35s-9.16602 28 -8.49902 44h326zM175.998 307c6.66699 20 17.666 36.5 32.999 49.5s34 19.5 56 19.5s39.833 -7 53.5 -21s22.834 -30 27.501 -48h-170zM168.997 709l-103 -105l103 -102l104 102zM391.997 708l-106 -104l106 -103
l103 103z" />
    <glyph glyph-name="igrave" unicode="&#xec;" horiz-adv-x="270" 
d="M202 516l-131 -54v-475h131v529zM-44 729l160 -226l62 45l-141 229z" />
    <glyph glyph-name="iacute" unicode="&#xed;" horiz-adv-x="279" 
d="M202 516l-131 -54v-475h131v529zM268 721l-76 56l-141 -237l67 -42z" />
    <glyph glyph-name="icircumflex" unicode="&#xee;" horiz-adv-x="287" 
d="M207 516l-131 -54v-475h131v529zM193 758h-108l-149 -228h128l74 80l73 -80h128z" />
    <glyph glyph-name="idieresis" unicode="&#xef;" horiz-adv-x="294" 
d="M208 516l-131 -54v-475h131v529zM38 717l-103 -105l103 -102l104 102zM261 717l-106 -105l106 -103l103 103z" />
    <glyph glyph-name="eth" unicode="&#xf0;" horiz-adv-x="603" 
d="M446 224c0 -44 -12.332 -79.333 -36.999 -106s-57.667 -40 -99 -40c-20.667 0 -39.667 3.5 -57 10.5s-32.333 16.833 -45 29.5s-22.5 27.667 -29.5 45s-10.5 36 -10.5 56c0 20.667 3.66699 39.834 11 57.501s17.166 33.167 29.499 46.5s27 23.833 44 31.5
s35.5 11.5 55.5 11.5c20.667 0 39.5 -3.5 56.5 -10.5s31.5 -16.667 43.5 -29s21.333 -27.333 28 -45s10 -36.834 10 -57.501zM542.001 622l-46.001 99.0029l-143 -58c-39.333 24.667 -83 45 -131 61l-57 -107c12 -3.33301 20.667 -5.83301 26 -7.5s13 -4.83398 23 -9.50098
l-88 -37l49 -94l148 60c6.66699 -4 13.167 -8.83301 19.5 -14.5s12 -11.667 17 -18s9.5 -12.666 13.5 -18.999s7 -11.5 9 -15.5h-2c-16.667 7.33301 -37 11 -61 11c-40 0 -77 -6.33301 -111 -19s-63.667 -30.334 -89 -53.001s-45.166 -49.167 -59.499 -79.5
s-21.5 -63.5 -21.5 -99.5s6.83301 -69.333 20.5 -100s32.334 -57.334 56.001 -80.001s51.667 -40.5 84 -53.5s67.166 -19.5 104.499 -19.5c42 0 79.833 6.66699 113.5 20s62.5 32.333 86.5 57s42.5 54.667 55.5 90s19.5 74.666 19.5 117.999c0 64.667 -10 125.167 -30 181.5
s-52.667 105.833 -98 148.5z" />
    <glyph glyph-name="ntilde" unicode="&#xf1;" horiz-adv-x="549" 
d="M148 462l-89.001 48v-523h130v369c22.667 11.333 54.334 17 95.001 17c24 0 43.333 -9.33301 58 -28s22 -46 22 -82v-276h130v293c0 70.667 -18.5 123.167 -55.5 157.5s-86.167 51.5 -147.5 51.5c-27.333 0 -53 -2.33301 -77 -7s-46 -10.667 -66 -18v-2zM362.999 715
c2.66699 -12 3.16602 -22.667 1.49902 -32s-4.16699 -14 -7.5 -14c-9.33301 0 -19 2.33301 -29 7l-32 15c-15.333 6.66699 -31 12.334 -47 17.001s-32 7 -48 7c-43.333 0 -74.5 -14 -93.5 -42s-28.5 -68 -28.5 -120h108c-7.33301 11.333 -9.16602 21.666 -5.49902 30.999
s7.5 14 11.5 14c10.667 0 22.5 -2.5 35.5 -7.5l41.5 -15.5c14 -5.33301 28 -10.333 42 -15s27.333 -7 40 -7c36.667 0 66 11.667 88 35c6 8 11 15 15 21s7.33301 13.167 10 21.5s4.66699 19 6 32s2 30.5 2 52.5h-110z" />
    <glyph glyph-name="ograve" unicode="&#xf2;" horiz-adv-x="586" 
d="M551 230c0 36.667 -6.66699 70.5 -20 101.5s-31.5 58 -54.5 81s-50.5 41 -82.5 54s-66.333 19.5 -103 19.5s-70.667 -6.5 -102 -19.5s-58.666 -31 -81.999 -54s-41.666 -50 -54.999 -81s-20 -64.833 -20 -101.5c0 -36 6.66699 -69.667 20 -101s31.666 -58.333 54.999 -81
s50.666 -40.5 81.999 -53.5s65.333 -19.5 102 -19.5s71 6.5 103 19.5s59.5 30.833 82.5 53.5s41.167 49.667 54.5 81s20 65 20 101zM416 230c0 -20 -3.16699 -38.501 -9.5 -55.501s-15.166 -31.5 -26.499 -43.5s-24.5 -21.5 -39.5 -28.5s-31.5 -10.5 -49.5 -10.5
c-17.333 0 -33.666 3.5 -48.999 10.5s-28.666 16.5 -39.999 28.5s-20.166 26.5 -26.499 43.5s-9.5 35.5 -9.5 55.5s3.16699 38.5 9.5 55.5s15.166 31.833 26.499 44.5s24.666 22.5 39.999 29.5s31.666 10.5 48.999 10.5c18 0 34.5 -3.66699 49.5 -11
s28.167 -17.166 39.5 -29.499s20.166 -27 26.499 -44s9.5 -35.5 9.5 -55.5zM173 728.999l160 -226l62 45l-141 229z" />
    <glyph glyph-name="oacute" unicode="&#xf3;" horiz-adv-x="584" 
d="M551 230c0 36.667 -6.66699 70.5 -20 101.5s-31.5 58 -54.5 81s-50.5 41 -82.5 54s-66.333 19.5 -103 19.5s-70.667 -6.5 -102 -19.5s-58.666 -31 -81.999 -54s-41.666 -50 -54.999 -81s-20 -64.833 -20 -101.5c0 -36 6.66699 -69.667 20 -101s31.666 -58.333 54.999 -81
s50.666 -40.5 81.999 -53.5s65.333 -19.5 102 -19.5s71 6.5 103 19.5s59.5 30.833 82.5 53.5s41.167 49.667 54.5 81s20 65 20 101zM416 230c0 -20 -3.16699 -38.501 -9.5 -55.501s-15.166 -31.5 -26.499 -43.5s-24.5 -21.5 -39.5 -28.5s-31.5 -10.5 -49.5 -10.5
c-17.333 0 -33.666 3.5 -48.999 10.5s-28.666 16.5 -39.999 28.5s-20.166 26.5 -26.499 43.5s-9.5 35.5 -9.5 55.5s3.16699 38.5 9.5 55.5s15.166 31.833 26.499 44.5s24.666 22.5 39.999 29.5s31.666 10.5 48.999 10.5c18 0 34.5 -3.66699 49.5 -11
s28.167 -17.166 39.5 -29.499s20.166 -27 26.499 -44s9.5 -35.5 9.5 -55.5zM445 720.999l-76 56l-141 -237l67 -42z" />
    <glyph glyph-name="ocircumflex" unicode="&#xf4;" horiz-adv-x="584" 
d="M551 230c0 36.667 -6.66699 70.5 -20 101.5s-31.5 58 -54.5 81s-50.5 41 -82.5 54s-66.333 19.5 -103 19.5s-70.667 -6.5 -102 -19.5s-58.666 -31 -81.999 -54s-41.666 -50 -54.999 -81s-20 -64.833 -20 -101.5c0 -36 6.66699 -69.667 20 -101s31.666 -58.333 54.999 -81
s50.666 -40.5 81.999 -53.5s65.333 -19.5 102 -19.5s71 6.5 103 19.5s59.5 30.833 82.5 53.5s41.167 49.667 54.5 81s20 65 20 101zM416 230c0 -20 -3.16699 -38.501 -9.5 -55.501s-15.166 -31.5 -26.499 -43.5s-24.5 -21.5 -39.5 -28.5s-31.5 -10.5 -49.5 -10.5
c-17.333 0 -33.666 3.5 -48.999 10.5s-28.666 16.5 -39.999 28.5s-20.166 26.5 -26.499 43.5s-9.5 35.5 -9.5 55.5s3.16699 38.5 9.5 55.5s15.166 31.833 26.499 44.5s24.666 22.5 39.999 29.5s31.666 10.5 48.999 10.5c18 0 34.5 -3.66699 49.5 -11
s28.167 -17.166 39.5 -29.499s20.166 -27 26.499 -44s9.5 -35.5 9.5 -55.5zM348 740.999h-108l-148 -227h127l75 80l72 -80h129z" />
    <glyph glyph-name="otilde" unicode="&#xf5;" horiz-adv-x="587" 
d="M551 230c0 36.667 -6.66699 70.5 -20 101.5s-31.5 58 -54.5 81s-50.5 41 -82.5 54s-66.333 19.5 -103 19.5s-70.667 -6.5 -102 -19.5s-58.666 -31 -81.999 -54s-41.666 -50 -54.999 -81s-20 -64.833 -20 -101.5c0 -36 6.66699 -69.667 20 -101s31.666 -58.333 54.999 -81
s50.666 -40.5 81.999 -53.5s65.333 -19.5 102 -19.5s71 6.5 103 19.5s59.5 30.833 82.5 53.5s41.167 49.667 54.5 81s20 65 20 101zM416 230c0 -20 -3.16699 -38.501 -9.5 -55.501s-15.166 -31.5 -26.499 -43.5s-24.5 -21.5 -39.5 -28.5s-31.5 -10.5 -49.5 -10.5
c-17.333 0 -33.666 3.5 -48.999 10.5s-28.666 16.5 -39.999 28.5s-20.166 26.5 -26.499 43.5s-9.5 35.5 -9.5 55.5s3.16699 38.5 9.5 55.5s15.166 31.833 26.499 44.5s24.666 22.5 39.999 29.5s31.666 10.5 48.999 10.5c18 0 34.5 -3.66699 49.5 -11
s28.167 -17.166 39.5 -29.499s20.166 -27 26.499 -44s9.5 -35.5 9.5 -55.5zM389 714.999c2.66699 -12 3.16602 -22.667 1.49902 -32s-4.16699 -14 -7.5 -14c-9.33301 0 -19 2.33301 -29 7l-32 15c-15.333 6.66699 -31 12.334 -47 17.001s-32 7 -48 7
c-43.333 0 -74.5 -14 -93.5 -42s-28.5 -68 -28.5 -120h108c-7.33301 11.333 -9.16602 21.666 -5.49902 30.999s7.5 14 11.5 14c10.667 0 22.5 -2.5 35.5 -7.5l41.5 -15.5c14 -5.33301 28 -10.333 42 -15s27.333 -7 40 -7c36.667 0 66 11.667 88 35c6 8 11 15 15 21
s7.33301 13.167 10 21.5s4.66699 19 6 32s2 30.5 2 52.5h-110z" />
    <glyph glyph-name="odieresis" unicode="&#xf6;" horiz-adv-x="583" 
d="M551 230c0 36.667 -6.66699 70.5 -20 101.5s-31.5 58 -54.5 81s-50.5 41 -82.5 54s-66.333 19.5 -103 19.5s-70.667 -6.5 -102 -19.5s-58.666 -31 -81.999 -54s-41.666 -50 -54.999 -81s-20 -64.833 -20 -101.5c0 -36 6.66699 -69.667 20 -101s31.666 -58.333 54.999 -81
s50.666 -40.5 81.999 -53.5s65.333 -19.5 102 -19.5s71 6.5 103 19.5s59.5 30.833 82.5 53.5s41.167 49.667 54.5 81s20 65 20 101zM416 230c0 -20 -3.16699 -38.501 -9.5 -55.501s-15.166 -31.5 -26.499 -43.5s-24.5 -21.5 -39.5 -28.5s-31.5 -10.5 -49.5 -10.5
c-17.333 0 -33.666 3.5 -48.999 10.5s-28.666 16.5 -39.999 28.5s-20.166 26.5 -26.499 43.5s-9.5 35.5 -9.5 55.5s3.16699 38.5 9.5 55.5s15.166 31.833 26.499 44.5s24.666 22.5 39.999 29.5s31.666 10.5 48.999 10.5c18 0 34.5 -3.66699 49.5 -11
s28.167 -17.166 39.5 -29.499s20.166 -27 26.499 -44s9.5 -35.5 9.5 -55.5zM187 708.999l-103 -105l103 -102l104 102zM410 707.999l-106 -104l106 -103l103 103z" />
    <glyph glyph-name="divide" unicode="&#xf7;" horiz-adv-x="683" 
d="M54 420v-114h575v114h-575zM341 448c22.667 0 41.667 7.16699 57 21.5s23 31.833 23 52.5s-7.66699 38 -23 52s-34.333 21 -57 21c-23.333 0 -42.333 -7 -57 -21s-22 -31.333 -22 -52s7.5 -38.167 22.5 -52.5s33.833 -21.5 56.5 -21.5zM341 131c22.667 0 41.667 7 57 21
s23 31.333 23 52s-7.66699 38.167 -23 52.5s-34.333 21.5 -57 21.5c-23.333 0 -42.333 -7.16699 -57 -21.5s-22 -31.833 -22 -52.5s7.5 -38 22.5 -52s33.833 -21 56.5 -21z" />
    <glyph glyph-name="oslash" unicode="&#xf8;" horiz-adv-x="603" 
d="M183 185c-10 12 -14.999 27.334 -14.999 46.001c0 21.333 3.16699 41 9.5 59s15.166 33.667 26.499 47s24.833 23.666 40.5 30.999s32.5 11 50.5 11c17.333 0 33 -4 47 -12zM178.001 2.00098c15.333 -6.66699 33 -12.334 53 -17.001s43 -7 69 -7
c36.667 0 70.667 6.5 102 19.5s58.5 30.833 81.5 53.5s40.833 49.5 53.5 80.5s19 64.5 19 100.5c0 34 -5 64.333 -15 91s-24 51.334 -42 74.001v136l-77 -74c-16.667 9.33301 -35.5 16.666 -56.5 21.999s-42.833 8 -65.5 8c-36.667 0 -70.667 -6.5 -102 -19.5
s-58.333 -31 -81 -54s-40.5 -50.167 -53.5 -81.5s-19.5 -65.333 -19.5 -102c0 -34 4.66699 -64.167 14 -90.5s22.333 -49.166 39 -68.499v-149zM417.001 286.001c6.66699 -6.66699 11.168 -14.5 13.501 -23.5s3.5 -19.167 3.5 -30.5c0 -20.667 -3 -39.667 -9 -57
s-14.333 -32.333 -25 -45s-23.334 -22.5 -38.001 -29.5s-30.667 -10.5 -48 -10.5c-13.333 0 -24 1.16699 -32 3.5s-16.333 5.83301 -25 10.5z" />
    <glyph glyph-name="ugrave" unicode="&#xf9;" horiz-adv-x="552" 
d="M492 -62v536.999h-132v-362c-12 -7.33301 -25 -12.166 -39 -14.499s-31.667 -3.5 -53 -3.5c-10.667 0 -21.5 1.83301 -32.5 5.5s-20.833 9 -29.5 16s-15.667 16 -21 27s-8 23.833 -8 38.5v293h-131v-294c0 -38 7.16699 -70 21.5 -96s32.333 -47.167 54 -63.5
s45.167 -28 70.5 -35s49.333 -10.5 72 -10.5c23.333 0 47.5 2.16699 72.5 6.5s46.5 9.83301 64.5 16.5zM147 728.999l160 -226l62 45l-141 229z" />
    <glyph glyph-name="uacute" unicode="&#xfa;" horiz-adv-x="554" 
d="M492 -62v536.999h-132v-362c-12 -7.33301 -25 -12.166 -39 -14.499s-31.667 -3.5 -53 -3.5c-10.667 0 -21.5 1.83301 -32.5 5.5s-20.833 9 -29.5 16s-15.667 16 -21 27s-8 23.833 -8 38.5v293h-131v-294c0 -38 7.16699 -70 21.5 -96s32.333 -47.167 54 -63.5
s45.167 -28 70.5 -35s49.333 -10.5 72 -10.5c23.333 0 47.5 2.16699 72.5 6.5s46.5 9.83301 64.5 16.5zM419 720.999l-76 56l-141 -237l67 -42z" />
    <glyph glyph-name="ucircumflex" unicode="&#xfb;" horiz-adv-x="556" 
d="M492 -62v536.999h-132v-362c-12 -7.33301 -25 -12.166 -39 -14.499s-31.667 -3.5 -53 -3.5c-10.667 0 -21.5 1.83301 -32.5 5.5s-20.833 9 -29.5 16s-15.667 16 -21 27s-8 23.833 -8 38.5v293h-131v-294c0 -38 7.16699 -70 21.5 -96s32.333 -47.167 54 -63.5
s45.167 -28 70.5 -35s49.333 -10.5 72 -10.5c23.333 0 47.5 2.16699 72.5 6.5s46.5 9.83301 64.5 16.5zM326 740.999h-108l-148 -227h128l74 80l72 -80h129z" />
    <glyph glyph-name="udieresis" unicode="&#xfc;" horiz-adv-x="557" 
d="M492 -62v536.999h-132v-362c-12 -7.33301 -25 -12.166 -39 -14.499s-31.667 -3.5 -53 -3.5c-10.667 0 -21.5 1.83301 -32.5 5.5s-20.833 9 -29.5 16s-15.667 16 -21 27s-8 23.833 -8 38.5v293h-131v-294c0 -38 7.16699 -70 21.5 -96s32.333 -47.167 54 -63.5
s45.167 -28 70.5 -35s49.333 -10.5 72 -10.5c23.333 0 47.5 2.16699 72.5 6.5s46.5 9.83301 64.5 16.5zM167 710.999l-103 -105l103 -102l104 102zM390 710.999l-106 -105l106 -103l103 103z" />
    <glyph glyph-name="yacute" unicode="&#xfd;" horiz-adv-x="500" 
d="M510 454l-109.998 62l-134 -273l-143 273l-110 -62l187 -351c-2 -5.33301 -6 -13.833 -12 -25.5s-12.333 -23.167 -19 -34.5c-12 -22.667 -25.333 -41.5 -40 -56.5s-30 -27.167 -46 -36.5s-32.667 -16.666 -50 -21.999s-35.333 -9.66602 -54 -12.999l50 -103
c12 1.33301 28.667 4.66602 50 9.99902s44.166 15 68.499 29s49.166 33.667 74.499 59s48.333 58.666 69 99.999zM417.002 722l-76 56l-141 -236l66 -42z" />
    <glyph glyph-name="thorn" unicode="&#xfe;" horiz-adv-x="571" 
d="M195 696l-130 -0.000976562v-926h130v219c15.333 -5.33301 29.333 -8.83301 42 -10.5s25.667 -2.5 39 -2.5c35.333 0 68.5 6.66699 99.5 20s57.833 31.5 80.5 54.5s40.5 50.167 53.5 81.5s19.5 65 19.5 101c0 36.667 -6.33301 70.5 -19 101.5s-30.167 57.833 -52.5 80.5
s-48.833 40.334 -79.5 53.001s-64 19 -100 19c-14 0 -27.333 -0.833008 -40 -2.5s-27 -5.16699 -43 -10.5v222zM195 353.999c13.333 5.33301 25 9.16699 35 11.5s20.667 3.5 32 3.5c19.333 0 37 -3.5 53 -10.5s29.833 -16.667 41.5 -29s20.667 -27.166 27 -44.499
s9.5 -36 9.5 -56c0 -40 -11.333 -72.333 -34 -97s-53 -37 -91 -37c-13.333 0 -25.5 1.16699 -36.5 3.5s-23.167 6.16602 -36.5 11.499v244z" />
    <glyph glyph-name="ydieresis" unicode="&#xff;" horiz-adv-x="490" 
d="M500 462l-109.998 62l-134 -273l-143 273l-110 -62l187 -351c-2 -4.66699 -6 -12.834 -12 -24.501s-12.333 -23.167 -19 -34.5c-12 -23.333 -25.333 -42.5 -40 -57.5s-30 -27.167 -46 -36.5s-32.667 -16.666 -50 -21.999s-35.333 -9.66602 -54 -12.999l50 -103
c12 2 28.667 5.5 50 10.5s44.166 14.5 68.499 28.5s49.166 33.667 74.499 59s48.333 58.666 69 99.999zM142.002 744l-103 -104l103 -103l104 103zM364.002 744l-105 -105l105 -103l103 103z" />
    <glyph glyph-name="OE" unicode="&#x152;" horiz-adv-x="934" 
d="M888 697h-467.999c-65.333 0 -122 -10.333 -170 -31s-87.833 -47.834 -119.5 -81.501s-55.334 -71.667 -71.001 -114s-23.5 -85.166 -23.5 -128.499c0 -40.667 7.33301 -82 22 -124s37.667 -80.167 69 -114.5s71 -62.333 119 -84s105.667 -32.5 173 -32.5h470l-23 114
h-288v186h283v114h-283v182h282zM442.001 583l0.000976562 -481.998h-10c-44 0 -82.167 7 -114.5 21s-59 32.5 -80 55.5s-36.667 48.833 -47 77.5s-15.5 57.667 -15.5 87c0 27.333 4.66699 55.166 14 83.499s24.166 54.166 44.499 77.499s46.5 42.5 78.5 57.5
s71 22.5 117 22.5h13z" />
    <glyph glyph-name="oe" unicode="&#x153;" horiz-adv-x="878" 
d="M840 200c0 44 -4.99902 83.8311 -14.999 119.498s-24.5 65.834 -43.5 90.501s-42.667 43.667 -71 57s-60.5 20 -96.5 20c-29.333 0 -57.666 -6 -84.999 -18s-48.333 -29.667 -63 -53c-21.333 25.333 -45.5 43.5 -72.5 54.5s-58.167 16.5 -93.5 16.5
c-38 0 -73 -6.33301 -105 -19s-59.333 -30.167 -82 -52.5s-40.334 -49.166 -53.001 -80.499s-19 -66 -19 -104c0 -40 6.5 -75.833 19.5 -107.5s30.667 -58.5 53 -80.5s48.666 -38.667 78.999 -50s62.833 -17 97.5 -17c36 0 68 6.5 96 19.5s54.667 33.833 80 62.5
c20 -26.667 43.333 -47 70 -61s55 -21 85 -21c34.667 0 69.834 5.5 105.501 16.5s69.5 29.833 101.5 56.5l-49 96c-24.667 -20.667 -50.334 -35.667 -77.001 -45s-51.667 -14 -75 -14c-9.33301 0 -19 2.5 -29 7.5s-19.167 12.333 -27.5 22s-15.5 21.667 -21.5 36
s-9 30.5 -9 48.5h300zM546.001 309.998c0.666992 23.333 9.16895 41.333 25.502 54s33.833 19 52.5 19c21.333 0 39.166 -6.33301 53.499 -19s22.166 -30.667 23.499 -54h-155zM407.003 239.998c0 -43.333 -10.6689 -78.333 -32.002 -105s-49 -40 -83 -40
c-17.333 0 -33.166 3.5 -47.499 10.5s-26.666 16.5 -36.999 28.5s-18.5 26.5 -24.5 43.5s-9 35.5 -9 55.5c0 41.333 11 74.333 33 99s51.333 37 88 37c34 0 61.167 -11.5 81.5 -34.5s30.5 -54.5 30.5 -94.5z" />
    <glyph glyph-name="Scaron" unicode="&#x160;" horiz-adv-x="550" 
d="M477 642c-68 42 -134.997 63.0029 -200.997 63.0029c-31.333 0 -60.833 -5.33301 -88.5 -16s-51.667 -25.334 -72 -44.001s-36.5 -40.5 -48.5 -65.5s-18 -51.833 -18 -80.5c0 -40.667 8 -72.667 24 -96s36 -42.166 60 -56.499s50.167 -25.5 78.5 -33.5
s54.5 -16.833 78.5 -26.5s44 -21.834 60 -36.501s24 -35.667 24 -63c0 -10.667 -2 -21.334 -6 -32.001s-10.5 -20.334 -19.5 -29.001s-20.667 -15.667 -35 -21s-31.5 -8 -51.5 -8c-12.667 0 -25.834 2.5 -39.501 7.5s-27.334 11.333 -41.001 19s-27.5 16.167 -41.5 25.5
l-40 27l-50 -118c40.667 -26 79.5 -46 116.5 -60s74.5 -21 112.5 -21c32.667 0 63.334 5 92.001 15s53.667 24.5 75 43.5s38.166 42.333 50.499 70s18.5 59.167 18.5 94.5c0 40.667 -8 73.167 -24 97.5s-36 44 -60 59s-50.167 26.667 -78.5 35s-54.5 17 -78.5 26
s-44 19.667 -60 32s-24 29.5 -24 51.5c0 24 8.66699 44 26 60s39 24 65 24c23.333 0 45.666 -5.16699 66.999 -15.5s47 -23.5 77 -39.5zM336.003 737.003l147 227h-129l-72 -80l-75 80h-128l149 -227h108z" />
    <glyph glyph-name="scaron" unicode="&#x161;" horiz-adv-x="480" 
d="M480 439c-27.333 19.333 -57.3359 33.001 -90.0029 41.001s-64 12 -94 12c-27.333 0 -53.5 -4.16699 -78.5 -12.5s-47 -19.5 -66 -33.5s-34 -30.5 -45 -49.5s-16.5 -38.833 -16.5 -59.5c0 -29.333 6.66699 -53 20 -71s30.166 -32.5 50.499 -43.5s42.333 -19.5 66 -25.5
s45.667 -11.167 66 -15.5s37.166 -8.83301 50.499 -13.5s20 -11.667 20 -21c0 -15.333 -7.66699 -27.333 -23 -36s-32.666 -13 -51.999 -13c-24.667 0 -49 3.83301 -73 11.5s-52 19.167 -84 34.5l-49 -102c66.667 -40 133.334 -60 200.001 -60c28 0 54.833 3.5 80.5 10.5
s48.334 17.5 68.001 31.5s35.5 31.167 47.5 51.5s18 43.833 18 70.5c0 30 -6.66699 54.333 -20 73s-30.166 33.5 -50.499 44.5s-42.333 19.167 -66 24.5l-66 14.5c-20.333 4.33301 -37.166 9.16602 -50.499 14.499s-20 13 -20 23c0 10.667 7.16699 19.667 21.5 27
s30.166 11 47.499 11c21.333 0 42.833 -2.66699 64.5 -8s43.834 -16.333 66.501 -33zM293.997 524.001l147 228h-129l-72 -80l-75 80h-128l149 -228h108z" />
    <glyph glyph-name="Ydieresis" unicode="&#x178;" horiz-adv-x="646" 
d="M710 674l-115 56l-219 -257l-219 259l-116 -59l267 -318v-367h136v367zM262 927l-103 -105l103 -102l104 102zM485 926l-106 -104l106 -103l103 103z" />
    <glyph glyph-name="florin" unicode="&#x192;" horiz-adv-x="613" 
d="M403 431l29.0068 140.001c4 18 8.16699 31.5 12.5 40.5s11.833 13.5 22.5 13.5c17.333 0 33.666 -2 48.999 -6s32.666 -9.33301 51.999 -16l25 111c-19.333 7.33301 -35.5 13.166 -48.5 17.499s-24.167 7.66602 -33.5 9.99902s-17.833 3.83301 -25.5 4.5
s-15.834 1 -24.501 1c-27.333 0 -50.5 -4 -69.5 -12s-35 -18 -48 -30s-23.167 -25.5 -30.5 -40.5s-12.333 -29.5 -15 -43.5l-41 -190h-77l-22 -117h75l-78 -357c-3.33301 -15.333 -7.5 -26.166 -12.5 -32.499s-12.167 -9.5 -21.5 -9.5c-15.333 0 -29.833 1.83301 -43.5 5.5
s-31.834 9.16699 -54.501 16.5l-26 -115c31.333 -11.333 57.166 -18.833 77.499 -22.5s41.5 -5.5 63.5 -5.5c45.333 0 80.166 11.167 104.499 33.5s42.166 60.833 53.499 115.5l82 371h100l28 117h-103z" />
    <glyph glyph-name="circumflex" unicode="&#x2c6;" horiz-adv-x="374" 
d="M243 741h-108l-148 -227h127l75 80l72 -80h129z" />
    <glyph glyph-name="tilde" unicode="&#x2dc;" horiz-adv-x="395" 
d="M284 715c2.66699 -12 3.16602 -22.667 1.49902 -32s-4.16699 -14 -7.5 -14c-9.33301 0 -19 2.33301 -29 7l-32 15c-15.333 6.66699 -31 12.334 -47 17.001s-32 7 -48 7c-43.333 0 -74.5 -14 -93.5 -42s-28.5 -68 -28.5 -120h108
c-7.33301 11.333 -9.16602 21.666 -5.49902 30.999s7.5 14 11.5 14c10.667 0 22.5 -2.5 35.5 -7.5l41.5 -15.5c14 -5.33301 28 -10.333 42 -15s27.333 -7 40 -7c36.667 0 66 11.667 88 35c6 8 11 15 15 21s7.33301 13.167 10 21.5s4.66699 19 6 32s2 30.5 2 52.5h-110z" />
    <glyph glyph-name="endash" unicode="&#x2013;" horiz-adv-x="557" 
d="M9 308l-27 -103h567l26 103h-566z" />
    <glyph glyph-name="emdash" unicode="&#x2014;" horiz-adv-x="1025" 
d="M5 308l-19 -103h1034l19 103h-1034z" />
    <glyph glyph-name="quoteleft" unicode="&#x2018;" horiz-adv-x="266" 
d="M58 427l155 38.001l-27 120c0 11.333 1.33301 21.666 4 30.999s7.66699 20 15 32v123c-50 -36 -87 -72.667 -111 -110s-36 -70.333 -36 -99v-135z" />
    <glyph glyph-name="quoteright" unicode="&#x2019;" horiz-adv-x="265" 
d="M204 754l-154.001 -37l27 -121c-0.666992 -11.333 -2.16699 -21.5 -4.5 -30.5s-7.16602 -19.5 -14.499 -31.5v-123c50 36.667 86.833 73.5 110.5 110.5s35.5 69.833 35.5 98.5v134z" />
    <glyph glyph-name="quotesinglbase" unicode="&#x201a;" horiz-adv-x="277" 
d="M208 146l-154.001 -23l27 -125c-0.666992 -11.333 -2.16699 -21.333 -4.5 -30s-7.16602 -19 -14.499 -31v-124c50 36 86.833 72.833 110.5 110.5s35.5 70.5 35.5 98.5v124z" />
    <glyph glyph-name="quotedblleft" unicode="&#x201c;" horiz-adv-x="497" 
d="M286 447l154 28l-27 122c1.33301 10.667 5.33301 21.834 12 33.501s15.667 23.167 27 34.5l-44 101c-42 -30.667 -72.833 -62.834 -92.5 -96.501s-29.5 -65.5 -29.5 -95.5v-127zM58 447l154 29.999l-26 122c0.666992 11.333 4.5 22.833 11.5 34.5s16.5 23.167 28.5 34.5
l-47 98c-41.333 -30.667 -71.833 -62.667 -91.5 -96s-29.5 -64.666 -29.5 -93.999v-129z" />
    <glyph glyph-name="quotedblright" unicode="&#x201d;" horiz-adv-x="488" 
d="M432 767l-153 -29.001l25 -119c2 -7.33301 1.5 -15.166 -1.5 -23.499s-7.16699 -16.333 -12.5 -24s-11.333 -14.667 -18 -21s-12.667 -10.833 -18 -13.5l66 -83c18 11.333 34 25 48 41s25.667 33.167 35 51.5s16.5 36.833 21.5 55.5s7.5 36.667 7.5 54v111zM211 766.999
l-154.001 -28.998l25 -118c2 -7.33301 1.5 -15.166 -1.5 -23.499s-7 -16.333 -12 -24s-10.667 -14.834 -17 -21.501s-12.166 -12 -17.499 -16l64 -79c38.667 23.333 67.167 53.166 85.5 89.499s27.5 73.166 27.5 110.499v111z" />
    <glyph glyph-name="quotedblbase" unicode="&#x201e;" horiz-adv-x="511" 
d="M442 134l-153 -23l26 -124c0 -11.333 -1.33301 -21.5 -4 -30.5s-8 -19.5 -16 -31.5v-124c50 36 87 72.833 111 110.5s36 70.5 36 98.5v124zM216 134l-154.001 -23l27 -124c-0.666992 -11.333 -2.16699 -21.5 -4.5 -30.5s-7.16602 -19.5 -14.499 -31.5v-124
c50 36 86.833 72.833 110.5 110.5s35.5 70.5 35.5 98.5v124z" />
    <glyph glyph-name="dagger" unicode="&#x2020;" horiz-adv-x="551" 
d="M351 705h-152l17 -261l-189 12v-132l191 13l-18 -566h149l-17 566l191 -13v132l-189 -12z" />
    <glyph glyph-name="daggerdbl" unicode="&#x2021;" horiz-adv-x="552" 
d="M207 237l9 -130l-184 14v-131l184 12l-17 -233h151l-17 233l184 -12v131l-184 -14l10 130l-10 127l184 -12v132l-184 -14l17 233h-151l17 -233l-184 14v-132l184 12z" />
    <glyph glyph-name="bullet" unicode="&#x2022;" horiz-adv-x="560" 
d="M285 494c-21.333 0 -41.5 -4 -60.5 -12s-35.667 -18.833 -50 -32.5s-25.666 -29.667 -33.999 -48s-12.5 -37.833 -12.5 -58.5s4.16699 -40.167 12.5 -58.5s19.666 -34.333 33.999 -48s31 -24.5 50 -32.5s39.167 -12 60.5 -12c22 0 42.5 4 61.5 12s35.667 18.833 50 32.5
s25.666 29.667 33.999 48s12.5 37.833 12.5 58.5s-4.16699 40.167 -12.5 58.5s-19.666 34.333 -33.999 48s-31 24.5 -50 32.5s-39.5 12 -61.5 12z" />
    <glyph glyph-name="ellipsis" unicode="&#x2026;" horiz-adv-x="989" 
d="M923 54l-122 115l-118 -122l121 -116zM612 54l-122 115l-118 -122l121 -116zM310 54l-122 115l-118 -122l121 -116z" />
    <glyph glyph-name="perthousand" unicode="&#x2030;" horiz-adv-x="1215" 
d="M1192 168c0 26.667 -5 51.5 -15 74.5s-23.667 43.167 -41 60.5s-37.5 31 -60.5 41s-47.5 15 -73.5 15s-50.667 -5 -74 -15s-43.666 -23.667 -60.999 -41s-31 -37.5 -41 -60.5s-15 -47.833 -15 -74.5c0 -26 5 -50.667 15 -74s23.667 -43.5 41 -60.5
s37.666 -30.5 60.999 -40.5s48 -15 74 -15s50.5 5 73.5 15s43.167 23.5 60.5 40.5s31 37.167 41 60.5s15 48 15 74zM1095 169c0 -26 -9 -48.168 -27 -66.501s-40 -27.5 -66 -27.5c-12.667 0 -24.667 2.33301 -36 7s-21.166 11.334 -29.499 20.001s-15 18.667 -20 30
s-7.5 23.666 -7.5 36.999c0 12.667 2.5 24.667 7.5 36s11.667 21.333 20 30s18.166 15.334 29.499 20.001s23.333 7 36 7c26 0 48 -9 66 -27s27 -40 27 -66zM795 167.999c0 26.667 -5 51.5 -15 74.5s-23.667 43.167 -41 60.5s-37.666 31 -60.999 41s-48 15 -74 15
s-50.667 -5 -74 -15s-43.5 -23.667 -60.5 -41s-30.5 -37.5 -40.5 -60.5s-15 -47.833 -15 -74.5c0 -26 5 -50.667 15 -74s23.5 -43.5 40.5 -60.5s37.167 -30.5 60.5 -40.5s48 -15 74 -15s50.667 5 74 15s43.666 23.5 60.999 40.5s31 37.167 41 60.5s15 48 15 74zM698 169.999
c0 -13.333 -2.5 -25.498 -7.5 -36.498s-11.667 -20.833 -20 -29.5s-18.166 -15.334 -29.499 -20.001s-23.333 -7 -36 -7s-24.667 2.33301 -36 7s-21.166 11.167 -29.499 19.5s-14.833 18.166 -19.5 29.499s-7 23.666 -7 36.999c0 12.667 2.33301 24.5 7 35.5
s11.167 20.667 19.5 29s18.166 15 29.499 20s23.333 7.5 36 7.5s24.667 -2.33301 36 -7s21.166 -11.167 29.499 -19.5s15 -18.166 20 -29.499s7.5 -23.333 7.5 -36zM404 524.001c0 26 -5 50.5 -15 73.5s-23.667 43 -41 60s-37.333 30.5 -60 40.5s-47 15 -73 15
s-50.5 -5 -73.5 -15s-43 -23.5 -60 -40.5s-30.5 -37 -40.5 -60s-15 -47.5 -15 -73.5s5 -50.5 15 -73.5s23.5 -43 40.5 -60s37 -30.5 60 -40.5s47.5 -15 73.5 -15s50.333 5 73 15s42.667 23.5 60 40.5s31 37 41 60s15 47.5 15 73.5zM306 524.001
c0 -12.667 -2.5 -24.6699 -7.5 -36.0029s-11.667 -21.166 -20 -29.499s-18 -15 -29 -20s-22.833 -7.5 -35.5 -7.5s-24.667 2.33301 -36 7s-21.166 11.334 -29.499 20.001s-15 18.5 -20 29.5s-7.5 23.167 -7.5 36.5c0 12.667 2.5 24.5 7.5 35.5s11.667 20.833 20 29.5
s18.166 15.5 29.499 20.5s23.333 7.5 36 7.5s24.5 -2.5 35.5 -7.5s20.667 -11.667 29 -20s15 -18.166 20 -29.499s7.5 -23.333 7.5 -36zM743 697.998h-129l-560 -715h135z" />
    <glyph glyph-name="guilsinglleft" unicode="&#x2039;" horiz-adv-x="410" 
d="M184 231l204 244h-161l-205 -244l203 -242h167z" />
    <glyph glyph-name="guilsinglright" unicode="&#x203a;" horiz-adv-x="412" 
d="M226 231l-207 -242h162l207 242l-207 244h-162z" />
    <glyph glyph-name="trademark" unicode="&#x2122;" horiz-adv-x="769" 
d="M359 776v-435l122 38v114l58 -78l59 79v-115l122 -38v435l-93 -54l-88 -113l-86 113zM409 732h-345l-40 -106h126v-265h122v265h104z" />
    <glyph glyph-name="Delta" unicode="&#xe000;" horiz-adv-x="386" 
d="M38 230l153 -151l152 151l-152 153z" />
    <glyph glyph-name="Omega" unicode="&#xe001;" horiz-adv-x="378" 
d="M36 347l152 -151l152 151l-152 152z" />
    <glyph glyph-name="greaterequal" unicode="&#xe002;" horiz-adv-x="566" 
d="M525 382l-467 274v-135l270 -160l-270 -160v-135l435 250zM47 27v-104h477v104h-477z" />
    <glyph glyph-name="lessequal" unicode="&#xe003;" horiz-adv-x="566" 
d="M43 345l467 -275v135l-271 161l271 159v135l-436 -250zM43 26v-101h469v101h-469z" />
    <glyph glyph-name="notequal" unicode="&#xe004;" horiz-adv-x="711" 
d="M68 520v-114h575v114h-575zM68 294v-113h575v113h-575zM410 782l-228 -725l120 -35l226 725z" />
    <glyph glyph-name="minus" unicode="&#xe005;" horiz-adv-x="738" 
d="M69 447v-134h598v134h-598z" />
    </font>
</defs>
</svg>
