<svg width="342" height="75" viewBox="0 0 342 75" fill="none" xmlns="http://www.w3.org/2000/svg">
<path d="M57.096 35.072H52.56V51.416C52.56 52.472 53.16 53 54.36 53H57.024V62H50.904C43.848 62 40.32 59.024 40.32 53.072V35.072H36.36V26.072H40.32V19.016H52.56V26.072H57.096V35.072Z" fill="#3ECC5F"/>
<path d="M79.2529 26.072H80.5489C86.9329 26.072 90.1249 29.048 90.1249 35V62H77.8849V36.656C77.8849 35.6 77.2849 35.072 76.0849 35.072H74.8609C73.5649 35.072 72.9169 35.792 72.9169 37.232V62H60.6769V13.832H72.9169V29.96C73.8289 27.368 75.9409 26.072 79.2529 26.072Z" fill="#3ECC5F"/>
<path d="M105.416 26.072H114.2C121.256 26.072 124.784 29.048 124.784 35V47.24H106.424V51.992C106.424 53.048 107.024 53.576 108.224 53.576H111.392C112.592 53.576 113.192 53 113.192 51.848V49.832H124.784V53.072C124.784 59.024 121.256 62 114.2 62H105.416C98.3599 62 94.8319 59.024 94.8319 53.072V35C94.8319 29.048 98.3599 26.072 105.416 26.072ZM106.424 40.616H113.192V36.08C113.192 35.024 112.592 34.496 111.392 34.496H108.224C107.024 34.496 106.424 35.024 106.424 36.08V40.616Z" fill="#3ECC5F"/>
<path d="M139.307 26.072H148.451C152.099 26.072 154.715 26.84 156.299 28.376C157.882 29.912 158.674 32.12 158.674 35V53.072C158.674 55.952 157.882 58.16 156.299 59.696C154.715 61.232 152.099 62 148.451 62H139.307C135.659 62 133.043 61.232 131.459 59.696C129.875 58.16 129.083 55.952 129.083 53.072V35C129.083 32.12 129.875 29.912 131.459 28.376C133.043 26.84 135.659 26.072 139.307 26.072ZM146.651 51.92V36.152C146.651 35.096 146.051 34.568 144.851 34.568H142.907C141.707 34.568 141.106 35.096 141.106 36.152V51.92C141.106 52.976 141.707 53.504 142.907 53.504H144.851C146.051 53.504 146.651 52.976 146.651 51.92Z" fill="#3ECC5F"/>
<path d="M182.683 26.072H183.979C190.363 26.072 193.555 29.048 193.555 35V53.072C193.555 59.024 190.363 62 183.979 62H182.683C178.987 62 176.803 60.464 176.131 57.392V62H164.107V13.832H176.347V29.96C177.259 27.368 179.371 26.072 182.683 26.072ZM181.315 51.416V36.656C181.315 35.6 180.715 35.072 179.515 35.072H178.291C176.995 35.072 176.347 35.792 176.347 37.232V50.84C176.347 52.28 176.995 53 178.291 53H179.515C180.715 53 181.315 52.472 181.315 51.416Z" fill="#3ECC5F"/>
<path d="M215.264 26.072H227.288V62H215.048V58.112C214.136 60.704 212.024 62 208.712 62H207.416C201.032 62 197.84 59.024 197.84 53.072V35C197.84 29.048 201.032 26.072 207.416 26.072H208.712C212.408 26.072 214.592 27.608 215.264 30.68V26.072ZM211.88 53H213.104C214.4 53 215.048 52.28 215.048 50.84V37.232C215.048 35.792 214.4 35.072 213.104 35.072H211.88C210.68 35.072 210.08 35.6 210.08 36.656V51.416C210.08 52.472 210.68 53 211.88 53Z" fill="#3ECC5F"/>
<path d="M232.797 22.472V13.832H245.469V22.472H232.797ZM245.253 62H233.013V26.072H245.253V62Z" fill="#3ECC5F"/>
<path d="M267.501 13.832H279.741V62H267.717V57.392C267.045 60.464 264.861 62 261.165 62H259.869C253.485 62 250.293 59.024 250.293 53.072V35C250.293 29.048 253.485 26.072 259.869 26.072H261.165C264.477 26.072 266.589 27.368 267.501 29.96V13.832ZM264.333 53H265.557C266.853 53 267.501 52.28 267.501 50.84V37.232C267.501 35.792 266.853 35.072 265.557 35.072H264.333C263.133 35.072 262.533 35.6 262.533 36.656V51.416C262.533 52.472 263.133 53 264.333 53Z" fill="#3ECC5F"/>
<path d="M302.314 26.072H314.554V62H302.53V57.392C301.858 60.464 299.674 62 295.978 62H294.682C288.298 62 285.106 59.024 285.106 53.072V26.072H297.346V51.416C297.346 52.472 297.946 53 299.146 53H300.37C301.666 53 302.314 52.28 302.314 50.84V26.072Z" fill="#3ECC5F"/>
<path d="M340.141 25.712H341.221V36.368H337.117C334.093 36.368 332.581 38 332.581 41.264V62H320.341V26.072H332.365V31.616C332.749 29.792 333.613 28.352 334.957 27.296C336.301 26.24 338.029 25.712 340.141 25.712Z" fill="#3ECC5F"/>
<rect width="12" height="75" fill="white"/>
</svg>
