<svg width="342" height="75" viewBox="0 0 342 75" fill="none" xmlns="http://www.w3.org/2000/svg">
<path d="M57.096 34.24H52.56V50.584C52.56 51.64 53.16 52.168 54.36 52.168H57.024V61.168H50.904C43.848 61.168 40.32 58.192 40.32 52.24V34.24H36.36V25.24H40.32V18.184H52.56V25.24H57.096V34.24Z" fill="#3ECC5F"/>
<path d="M79.2529 25.24H80.5489C86.9329 25.24 90.1249 28.216 90.1249 34.168V61.168H77.8849V35.824C77.8849 34.768 77.2849 34.24 76.0849 34.24H74.8609C73.5649 34.24 72.9169 34.96 72.9169 36.4V61.168H60.6769V13H72.9169V29.128C73.8289 26.536 75.9409 25.24 79.2529 25.24Z" fill="#3ECC5F"/>
<path d="M105.416 25.24H114.2C121.256 25.24 124.784 28.216 124.784 34.168V46.408H106.424V51.16C106.424 52.216 107.024 52.744 108.224 52.744H111.392C112.592 52.744 113.192 52.168 113.192 51.016V49H124.784V52.24C124.784 58.192 121.256 61.168 114.2 61.168H105.416C98.3599 61.168 94.8319 58.192 94.8319 52.24V34.168C94.8319 28.216 98.3599 25.24 105.416 25.24ZM106.424 39.784H113.192V35.248C113.192 34.192 112.592 33.664 111.392 33.664H108.224C107.024 33.664 106.424 34.192 106.424 35.248V39.784Z" fill="#3ECC5F"/>
<path d="M139.307 25.24H148.451C152.099 25.24 154.715 26.008 156.299 27.544C157.882 29.08 158.674 31.288 158.674 34.168V52.24C158.674 55.12 157.882 57.328 156.299 58.864C154.715 60.4 152.099 61.168 148.451 61.168H139.307C135.659 61.168 133.043 60.4 131.459 58.864C129.875 57.328 129.083 55.12 129.083 52.24V34.168C129.083 31.288 129.875 29.08 131.459 27.544C133.043 26.008 135.659 25.24 139.307 25.24ZM146.651 51.088V35.32C146.651 34.264 146.051 33.736 144.851 33.736H142.907C141.707 33.736 141.106 34.264 141.106 35.32V51.088C141.106 52.144 141.707 52.672 142.907 52.672H144.851C146.051 52.672 146.651 52.144 146.651 51.088Z" fill="#3ECC5F"/>
<path d="M182.683 25.24H183.979C190.363 25.24 193.555 28.216 193.555 34.168V52.24C193.555 58.192 190.363 61.168 183.979 61.168H182.683C178.987 61.168 176.803 59.632 176.131 56.56V61.168H164.107V13H176.347V29.128C177.259 26.536 179.371 25.24 182.683 25.24ZM181.315 50.584V35.824C181.315 34.768 180.715 34.24 179.515 34.24H178.291C176.995 34.24 176.347 34.96 176.347 36.4V50.008C176.347 51.448 176.995 52.168 178.291 52.168H179.515C180.715 52.168 181.315 51.64 181.315 50.584Z" fill="#3ECC5F"/>
<path d="M215.264 25.24H227.288V61.168H215.048V57.28C214.136 59.872 212.024 61.168 208.712 61.168H207.416C201.032 61.168 197.84 58.192 197.84 52.24V34.168C197.84 28.216 201.032 25.24 207.416 25.24H208.712C212.408 25.24 214.592 26.776 215.264 29.848V25.24ZM211.88 52.168H213.104C214.4 52.168 215.048 51.448 215.048 50.008V36.4C215.048 34.96 214.4 34.24 213.104 34.24H211.88C210.68 34.24 210.08 34.768 210.08 35.824V50.584C210.08 51.64 210.68 52.168 211.88 52.168Z" fill="#3ECC5F"/>
<path d="M232.797 21.64V13H245.469V21.64H232.797ZM245.253 61.168H233.013V25.24H245.253V61.168Z" fill="#3ECC5F"/>
<path d="M267.501 13H279.741V61.168H267.717V56.56C267.045 59.632 264.861 61.168 261.165 61.168H259.869C253.485 61.168 250.293 58.192 250.293 52.24V34.168C250.293 28.216 253.485 25.24 259.869 25.24H261.165C264.477 25.24 266.589 26.536 267.501 29.128V13ZM264.333 52.168H265.557C266.853 52.168 267.501 51.448 267.501 50.008V36.4C267.501 34.96 266.853 34.24 265.557 34.24H264.333C263.133 34.24 262.533 34.768 262.533 35.824V50.584C262.533 51.64 263.133 52.168 264.333 52.168Z" fill="#3ECC5F"/>
<path d="M302.314 25.24H314.554V61.168H302.53V56.56C301.858 59.632 299.674 61.168 295.978 61.168H294.682C288.298 61.168 285.106 58.192 285.106 52.24V25.24H297.346V50.584C297.346 51.64 297.946 52.168 299.146 52.168H300.37C301.666 52.168 302.314 51.448 302.314 50.008V25.24Z" fill="#3ECC5F"/>
<path d="M340.141 24.88H341.221V35.536H337.117C334.093 35.536 332.581 37.168 332.581 40.432V61.168H320.341V25.24H332.365V30.784C332.749 28.96 333.613 27.52 334.957 26.464C336.301 25.408 338.029 24.88 340.141 24.88Z" fill="#3ECC5F"/>
<rect width="12" height="75" fill="black"/>
</svg>
