<?xml version="1.0" standalone="no"?> <!DOCTYPE svg PUBLIC "-//W3C//DTD SVG 1.0//EN" "http://www.w3.org/TR/2001/REC-SVG-20010904/DTD/svg10.dtd" > <svg xmlns="http://www.w3.org/2000/svg" width="100%" height="100%">
<defs >
<font id="itcavantgardegothicltbold" horiz-adv-x="519" ><font-face
    font-family="AvantGarde LT Medium"
    units-per-em="1000"
    panose-1="2 0 8 3 5 0 0 2 0 4"
    ascent="1017"
    descent="-271"
    alphabetic="0" />
<missing-glyph horiz-adv-x="500" />
<glyph unicode=" " glyph-name="space" horiz-adv-x="309" />
<glyph unicode="!" glyph-name="exclam" horiz-adv-x="333" d="M252 0H81V170H252V0ZM252 244H81V740H252V244Z" />
<glyph unicode="&quot;" glyph-name="quotedbl" horiz-adv-x="463" d="M288 443L255 740H429L395 443H288ZM67 443L34 740H208L174 443H67Z" />
<glyph unicode="#" glyph-name="numbersign" horiz-adv-x="618" d="M348 403H270L260 330H338L348 403ZM411 45H298L322 219H244L220 45H106L130 219H31L46 330H146L156 403H56L71 514H171L193 672H307L285 514H363L385 672H499L477 514H588L573 403H461L451 330H562L547
219H435L411 45Z" />
<glyph unicode="$" glyph-name="dollar" horiz-adv-x="618" d="M381 710Q411 703 436 687T481 647T510 591T520 520H365Q365 526 363 536T356 557T340 575T310 583Q284 583 270 566T256 527Q256 508 264 494T290 469T333 448T391 424Q437 406 466 382T511 330T532
277T538 232Q538 226 536 201T518 144T471 80T381 29V-76H246V25Q234 28 220 31T189 42T156 62T124 93Q105 117 93 149T80 213V224H251Q251 219 253 208T261 184T278 163T310 153Q329 153 348 168T367 212Q367 237 349 258T275 301Q244 312 211 326T150 364T104
421T86 508Q86 554 100 588T137 647T188 687T246 710V811H381V710Z" />
<glyph unicode="%" glyph-name="percent" horiz-adv-x="858" d="M522 740H638L331 0H216L522 740ZM572 166Q572 137 592 117T642 96Q670 96 690 116T711 166Q711 196 691 216T642 236Q612 236 592 216T572 166ZM461 166Q461 203 475 236T514 294T571 333T642 347Q679
347 712 333T769 294T808 236T822 166Q822 128 808 95T769 38T711 -1T642 -15Q605 -15 572 -1T515 37T476 95T461 166ZM147 574Q147 546 167 526T216 505Q243 505 264 525T285 575Q285 604 265 624T216 644Q187 644 167 624T147 574ZM36 574Q36 611 50 644T88 702T146
741T216 755Q253 755 286 741T343 702T382 644T396 574Q396 536 382 504T344 447T286 408T216 394Q179 394 147 408T90 446T51 503T36 574Z" />
<glyph unicode="&amp;" glyph-name="ampersand" horiz-adv-x="758" d="M319 491Q336 508 350 527T365 573Q365 593 354 606T322 620Q305 620 291 608T277 571Q277 545 291 525T319 491ZM288 303Q270 289 251 269T231 217Q231 182 256 163T316 144Q355 144 375
157T406 184L288 303ZM729 435L672 298Q661 272 648 248T616 200L717 96L604 -15L517 75Q506 66 487 51T441 21T377 -4T296 -15Q244 -15 199 1T121 47T68 116T49 200Q49 241 63 273T97 329T142 371T186 403Q147 443 132 483T116 563Q116 603 132 638T175 699T240
739T321 754Q364 754 399 740T460 701T500 643T515 572Q515 536 504 508T476 460T443 425T413 402L500 314L554 435H729Z" />
<glyph unicode="&apos;" glyph-name="quotesingle" horiz-adv-x="242" d="M67 443L34 740H208L174 443H67Z" />
<glyph unicode="(" glyph-name="parenleft" horiz-adv-x="473" d="M430 -264Q330 -227 261 -169T148 -43T85 100T65 245Q65 315 84 389T147 531T260 658T430 754V580Q399 563 367 532T309 458T267 361T250 243Q250 184 265 131T306 35T364 -40T430 -91V-264Z" />
<glyph unicode=")" glyph-name="parenright" horiz-adv-x="473" d="M43 754Q143 716 212 658T325 532T388 389T408 244Q408 174 389 100T326 -42T213 -169T43 -264V-91Q74 -74 106 -43T164 31T206 128T223 246Q223 305 208 358T167 454T109 529T43 580V754Z" />
<glyph unicode="*" glyph-name="asterisk" horiz-adv-x="670" d="M424 498L507 388L414 318L332 433L253 318L160 388L246 498L115 539L151 648L279 600L276 740H395L388 600L517 648L555 539L424 498Z" />
<glyph unicode="+" glyph-name="plus" horiz-adv-x="600" d="M220 506H380V333H552V173H380V0H220V173H48V333H220V506Z" />
<glyph unicode="," glyph-name="comma" horiz-adv-x="314" d="M244 -40Q244 -77 233 -100T206 -137T173 -156T142 -161H71V-72H106Q120 -72 128 -68T141 -57T147 -45T149 -34V0H71V170H244V-40Z" />
<glyph unicode="-" glyph-name="hyphen" horiz-adv-x="281" d="M281 207H0V370H281V207Z" />
<glyph unicode="." glyph-name="period" horiz-adv-x="314" d="M244 0H71V170H244V0Z" />
<glyph unicode="/" glyph-name="slash" horiz-adv-x="593" d="M337 740H521L257 -100H72L337 740Z" />
<glyph unicode="0" glyph-name="zero" horiz-adv-x="618" d="M222 262Q222 245 225 226T238 191T265 163T309 152Q342 152 359 166T385 198T394 235T396 262V478Q396 487 395 505T385 541T360 574T309 588Q281 588 264 577T238 548T225 512T222 478V262ZM33 473Q33
553 61 607T132 693T223 740T312 754Q336 754 365 749T425 730T484 696T535 643T571 570T585 473V267Q585 190 559 137T492 50T404 1T312 -14Q271 -14 223 0T132 48T62 135T33 267V473Z" />
<glyph unicode="1" glyph-name="one" horiz-adv-x="618" d="M414 0H225V581H104V740H414V0Z" />
<glyph unicode="2" glyph-name="two" horiz-adv-x="618" d="M573 159V0H51V147Q86 170 116 190T173 230T225 274T277 327Q286 337 303 357T337 403T366 458T379 516Q379 527 376 540T364 563T343 581T309 588Q281 588 265 576T240 546T228 508T224 471H44Q45 507
51 551T88 641Q112 678 143 700T205 734T266 750T316 754Q378 754 425 735T504 686T552 617T568 539Q568 480 546 428T489 329T410 240T322 159H573Z" />
<glyph unicode="3" glyph-name="three" horiz-adv-x="618" d="M224 221Q225 215 229 204T242 181T267 161T309 152Q351 152 370 176T390 235Q390 261 379 276T351 298T318 308T291 310H224V449H256Q262 449 277 450T309 458T337 480T349 523Q349 547 337 567T297
588Q276 588 265 581T248 563T241 542T239 524H53Q54 590 79 634T142 705T224 743T306 754Q360 754 403 737T476 692T522 628T538 552Q538 514 527 487T499 442T467 414T440 397Q492 379 520 353T562 299T577 250T579 218Q579 170 557 128T498 54T411 4T305 -14Q273
-14 240 -8T175 11T118 43T74 90Q62 108 55 127T43 163T36 196T33 221H224Z" />
<glyph unicode="4" glyph-name="four" horiz-adv-x="618" d="M353 278V510H351L205 278H353ZM15 130V268L346 740H522V278H604V130H522V0H341V130H15Z" />
<glyph unicode="5" glyph-name="five" horiz-adv-x="618" d="M116 740H525V581H261L245 480Q252 484 260 488T280 495T307 500T345 502Q411 502 457 478T534 416T578 336T592 254Q592 212 576 165T525 77T437 11T308 -15Q248 -15 200 2T116 48T57 115T26 198H216Q229
181 242 172T268 158Q280 153 289 153T303 152Q323 152 341 159T373 180T395 212T403 250Q403 268 397 285T377 316T346 338T302 347Q274 347 248 334T205 283L52 321L116 740Z" />
<glyph unicode="6" glyph-name="six" horiz-adv-x="618" d="M207 255Q207 229 216 210T239 178T272 159T307 152Q328 152 347 159T380 180T402 211T411 252Q411 270 405 288T385 320T352 344T307 353Q262 353 235 324T207 255ZM329 517L331 515Q338 518 347 518T367
519Q407 519 448 504T524 457T579 378T600 268Q600 205 577 153T515 64T424 7T313 -14Q243 -14 183 11T84 86Q49 126 35 177T21 272Q21 329 41 378T89 470L273 740H492L329 517Z" />
<glyph unicode="7" glyph-name="seven" horiz-adv-x="618" d="M547 740V595L287 0H79L352 581H65V740H547Z" />
<glyph unicode="8" glyph-name="eight" horiz-adv-x="618" d="M228 237Q228 203 250 178T312 152Q330 152 344 159T369 179T384 206T390 236Q390 251 385 266T369 293T344 313T309 321Q277 321 253 299T228 237ZM241 533Q241 514 248 501T265 480T286 469T308
465Q334 465 355 484T377 535Q377 564 357 582T310 601Q284 601 263 583T241 533ZM463 407Q504 390 527 363T561 308T576 256T579 220Q579 173 559 131T503 56T418 5T310 -14Q252 -14 203 5T117 56T60 130T39 220Q39 230 41 254T55 306T90 361T155 407Q146 414
134 425T110 453T91 493T83 546Q83 586 98 623T142 690T213 736T309 754Q364 754 406 736T477 689T520 622T535 548Q535 517 527 494T508 454T484 426T463 407Z" />
<glyph unicode="9" glyph-name="nine" horiz-adv-x="618" d="M413 486Q413 511 404 530T380 562T347 581T311 588Q291 588 273 581T240 561T218 530T209 489Q209 471 215 453T235 421T267 397T311 388Q334 388 353 396T385 417T406 448T413 486ZM291 224L289 226Q280
222 253 222Q213 222 172 238T97 286T42 364T20 473Q20 536 43 588T105 677T196 734T307 754Q377 754 438 730T540 657Q577 619 589 571T602 473Q601 413 581 364T531 271L347 0H128L291 224Z" />
<glyph unicode=":" glyph-name="colon" horiz-adv-x="314" d="M244 385H71V555H244V385ZM244 0H71V170H244V0Z" />
<glyph unicode=";" glyph-name="semicolon" horiz-adv-x="314" d="M244 385H71V555H244V385ZM244 -40Q244 -77 233 -100T206 -137T173 -156T142 -161H71V-72H106Q120 -72 128 -68T141 -57T147 -45T149 -34V0H71V170H244V-40Z" />
<glyph unicode="&lt;" glyph-name="less" horiz-adv-x="600" d="M554 137V-38L46 176V330L554 544V369L214 254V252L554 137Z" />
<glyph unicode="=" glyph-name="equal" horiz-adv-x="600" d="M552 41H48V201H552V41ZM552 305H48V465H552V305Z" />
<glyph unicode="&gt;" glyph-name="greater" horiz-adv-x="600" d="M386 252V254L46 369V544L554 330V176L46 -38V137L386 252Z" />
<glyph unicode="?" glyph-name="question" horiz-adv-x="592" d="M361 0H187V170H361V0ZM49 487Q48 494 48 497Q48 501 48 505Q48 559 67 604T122 683T205 735T311 754Q369 754 414 735T489 686T535 617T551 542Q551 507 541 480T515 429T479 385T438 346Q414
323 399 308T376 280T365 257T361 235H187Q188 287 214 325T291 411Q329 448 344 473T359 521Q359 548 346 565T301 583Q276 583 262 574T242 550T234 518T232 487H49Z" />
<glyph unicode="@" glyph-name="at" horiz-adv-x="748" d="M450 385Q450 398 447 412T436 439T416 458T384 466Q362 466 344 455T312 427T291 387T283 340Q283 316 290 300T308 273T332 258T358 253Q400 253 425 290T450 385ZM584 548L547 330Q545 321 543 306T540
282Q539 253 567 253Q581 253 595 266T622 303T641 359T649 427Q649 479 630 523T576 598T495 647T393 665Q327 665 273 640T180 572T120 476T99 363Q99 343 103 314T118 253T150 190T203 133T282 91T392 75Q502 75 603 112L624 20Q586 6 549 -1T480 -11T425 -15T392
-16Q319 -16 262 1T160 48T85 116T35 197T6 283T-3 365Q-3 440 24 510T103 635T226 723T389 756Q468 756 533 731T644 661T717 556T743 428Q743 374 727 325T684 239T622 181T547 159Q507 159 484 179T449 231Q423 188 395 174T330 159Q298 159 270 172T221 209T188
265T176 336Q176 375 190 415T229 487T291 539T371 560Q412 560 437 542T470 501H472L480 548H584Z" />
<glyph unicode="A" glyph-name="A" horiz-adv-x="758" d="M303 257H458L382 510H381H379L303 257ZM251 107L212 0H9L306 740H455L749 0H544L508 107H251Z" />
<glyph unicode="B" glyph-name="B" horiz-adv-x="647" d="M248 166H337Q346 166 362 167T393 175T419 196T431 237Q431 261 421 274T395 293T364 300T337 301H248V166ZM248 459H315Q325 459 338 460T364 466T386 484T395 518Q395 539 387 550T366 567T340 573T315
574H248V459ZM67 740H295Q342 740 377 737T440 727T490 705T532 668Q557 642 566 610T576 546Q576 503 556 463T490 397Q535 381 559 357T595 307T609 259T612 225Q612 180 595 136T544 64Q518 43 495 30T445 11T383 2T302 0H67V740Z" />
<glyph unicode="C" glyph-name="C" horiz-adv-x="832" d="M801 277Q785 211 750 158T665 66T555 7T427 -14Q340 -14 268 18T145 103T66 226T37 371Q37 442 63 510T140 633T262 720T425 754Q512 754 579 724T692 650T766 554T801 459H603Q595 480 581 502T544 544T492
575T424 588Q376 588 340 569T278 520T239 450T226 372Q226 330 240 291T279 220T342 171T425 152Q469 152 501 168T554 205T586 246T603 277H801Z" />
<glyph unicode="D" glyph-name="D" horiz-adv-x="742" d="M246 166H327Q380 166 415 183T470 228T499 293T508 369Q508 401 500 437T472 506Q464 518 452 530T423 552T383 568T328 574H246V166ZM57 740H302Q333 740 374 738T460 723T549 682T629 602Q667 549 682
491T697 372Q697 296 677 229T612 110T494 30T316 0H57V740Z" />
<glyph unicode="E" glyph-name="E" horiz-adv-x="528" d="M67 740H478V574H248V459H471V293H248V166H478V0H67V740Z" />
<glyph unicode="F" glyph-name="F" horiz-adv-x="506" d="M67 740H471V574H248V448H463V282H248V0H67V740Z" />
<glyph unicode="G" glyph-name="G" horiz-adv-x="854" d="M822 421Q823 411 823 402Q823 393 823 382Q823 289 790 216T703 91T577 12T428 -15Q344 -15 272 15T148 99T65 222T35 373Q35 456 66 526T151 646T277 725T431 754Q497 754 557 733T667 677T751 594T801
492H589Q567 531 527 559T426 588Q391 588 355 575T290 536T243 469T224 373Q224 315 242 273T290 204T356 164T427 151Q498 151 543 183T604 270H383V421H822Z" />
<glyph unicode="H" glyph-name="H" horiz-adv-x="754" d="M67 740H256V462H498V740H687V0H498V296H256V0H67V740Z" />
<glyph unicode="I" glyph-name="I" horiz-adv-x="323" d="M67 740H256V0H67V740Z" />
<glyph unicode="J" glyph-name="J" horiz-adv-x="578" d="M510 740V293Q510 246 508 213T499 156T485 115T464 83Q426 34 369 10T255 -14Q250 -14 230 -13T183 -5T124 17T67 61T24 132T6 238H207Q208 225 210 210T217 182T234 161T264 152Q285 152 297 162T314
186T320 217T321 246V740H510Z" />
<glyph unicode="K" glyph-name="K" horiz-adv-x="707" d="M87 740H276V407H278L487 740H685L440 371L701 0H480L278 320H276V0H87V740Z" />
<glyph unicode="L" glyph-name="L" horiz-adv-x="487" d="M72 740H261V166H480V0H72V740Z" />
<glyph unicode="M" glyph-name="M" horiz-adv-x="915" d="M67 740H310L457 253H459L604 740H848V0H674L680 554L678 556L520 0H395L237 556L235 554L241 0H67V740Z" />
<glyph unicode="N" glyph-name="N" horiz-adv-x="759" d="M67 740H230L516 275L518 277L510 740H691V0H527L245 450L243 449L248 0H67V740Z" />
<glyph unicode="O" glyph-name="O" horiz-adv-x="851" d="M224 372Q224 329 238 290T278 220T342 171T428 152Q478 152 515 172T577 225T614 295T627 369Q627 405 615 443T578 514T515 567T426 588Q377 588 339 569T276 519T237 450T224 372ZM64 519Q79 555 108
596T181 672T286 731T425 754Q510 754 582 723T706 640T787 517T816 370Q816 293 787 223T706 101T582 17T424 -14Q337 -14 265 18T142 102T63 222T35 361Q35 398 41 438T64 519Z" />
<glyph unicode="P" glyph-name="P" horiz-adv-x="636" d="M248 398H325Q338 398 358 399T397 409T429 435T443 487Q443 520 429 537T396 563T355 572T318 574H248V398ZM67 740H309Q360 740 396 736T459 725T504 708T537 686Q581 650 602 599T624 490Q624 462 619
434T603 380T578 333T546 296Q527 280 507 268T462 248T405 236T330 232H248V0H67V740Z" />
<glyph unicode="Q" glyph-name="Q" horiz-adv-x="866" d="M510 170Q498 184 481 204T439 243T382 275T310 288Q288 288 274 285T244 276Q258 243 279 219T325 180T375 158T424 151Q471 149 510 170ZM605 270Q616 289 622 314T630 376Q630 425 614 464T569 531T504
573T425 588Q349 588 295 539T225 401Q249 411 273 418T330 426Q360 426 393 418T462 392T533 343T605 270ZM855 -13Q844 -14 833 -14T808 -15Q770 -15 741 -9T690 6T655 25T634 43Q602 23 572 12T516 -6T467 -13T426 -15Q336 -15 264 18T141 105T63 227T35 366Q35
439 62 508T139 632T262 720T424 754Q514 754 586 722T711 636T791 515T819 376Q819 330 812 295T796 234T776 191T758 162Q773 148 795 142T839 136Q843 136 846 136Q850 136 855 137V-13Z" />
<glyph unicode="R" glyph-name="R" horiz-adv-x="653" d="M248 368H315Q357 368 381 379T418 407T435 442T439 474Q439 525 406 549T317 574H248V368ZM67 740H301Q350 740 385 737T446 728T491 711T529 687Q575 651 597 597T620 485Q620 453 611 416T581 346T524
287T436 252L637 0H421L250 239H248V0H67V740Z" />
<glyph unicode="S" glyph-name="S" horiz-adv-x="573" d="M357 524Q355 533 353 545T343 569T324 588T289 596Q264 596 244 580T224 538Q224 521 229 510T250 488T297 462T377 425Q429 402 462 378T515 328T542 274T550 213Q550 172 537 132T494 59T415 7T292
-14Q212 -14 160 9T78 68T37 144T25 221V245H213Q213 213 221 193T242 162T268 148T290 144Q324 144 343 166T362 215Q362 233 356 246T333 270T288 293T217 324Q197 332 167 346T107 385T57 447T36 536Q36 588 59 628T119 697T202 739T295 754Q350 754 404 734T495
670Q511 650 520 631T535 593T541 557T544 524H357Z" />
<glyph unicode="T" glyph-name="T" horiz-adv-x="499" d="M156 574H10V740H490V574H345V0H156V574Z" />
<glyph unicode="U" glyph-name="U" horiz-adv-x="698" d="M254 740V293Q254 274 256 250T267 204T295 167T350 152Q385 152 404 165T432 200T442 246T444 293V740H633V293Q633 246 628 212T614 151T591 105T559 66Q523 29 472 8T352 -14Q332 -14 305 -11T248 0T191
24T139 65Q116 90 102 113T79 163T68 220T65 293V740H254Z" />
<glyph unicode="V" glyph-name="V" horiz-adv-x="722" d="M210 740L359 221H361L511 740H706L458 0H263L16 740H210Z" />
<glyph unicode="W" glyph-name="W" horiz-adv-x="981" d="M208 740L307 259H309L418 740H563L670 257H672L773 740H964L768 0H602L491 479H489L378 0H207L16 740H208Z" />
<glyph unicode="X" glyph-name="X" horiz-adv-x="759" d="M718 740L492 390L748 0H534L374 262L222 0H11L270 394L41 740H255L382 529L505 740H718Z" />
<glyph unicode="Y" glyph-name="Y" horiz-adv-x="647" d="M230 269L9 740H214L324 443L435 740H638L419 269V0H230V269Z" />
<glyph unicode="Z" glyph-name="Z" horiz-adv-x="499" d="M16 124L271 574H16V740H483V587L247 166H483V0H16V124Z" />
<glyph unicode="[" glyph-name="bracketleft" horiz-adv-x="473" d="M401 580Q363 578 342 565T309 533T295 491T292 446V44Q292 21 295 -2T309 -44T341 -75T401 -90V-264Q387 -263 367 -262T323 -254T271 -236T215 -204Q174 -176 152 -141T119 -71T106 -4T104
51V439Q104 466 106 498T120 565T153 632T215 694Q243 715 271 726T324 744T369 751T401 754V580Z" />
<glyph unicode="\" glyph-name="backslash" horiz-adv-x="593" d="M336 -100L72 740H256L521 -100H336Z" />
<glyph unicode="]" glyph-name="bracketright" horiz-adv-x="473" d="M72 -90Q110 -88 131 -75T164 -43T178 -1T181 44V446Q181 468 178 491T164 534T131 565T72 580V754Q85 753 105 751T150 743T201 726T258 694Q299 665 321 631T354 561T367 493T369 439V51Q369
24 367 -8T353 -75T320 -142T258 -204Q230 -225 202 -236T149 -254T104 -261T72 -264V-90Z" />
<glyph unicode="^" glyph-name="asciicircum" horiz-adv-x="600" d="M43 375L217 740H383L557 375H377L301 598H299L222 375H43Z" />
<glyph unicode="_" glyph-name="underscore" horiz-adv-x="500" d="M0 -125V-75H500V-125H0Z" />
<glyph unicode="`" glyph-name="grave" horiz-adv-x="555" d="M404 711L358 614L111 722L162 839L404 711Z" />
<glyph unicode="a" glyph-name="a" horiz-adv-x="704" d="M200 276Q200 256 207 232T231 187T274 151T338 136Q377 136 403 150T446 186T470 233T477 278Q477 303 469 328T443 373T399 406T337 419Q301 419 276 406T233 371T208 325T200 276ZM643 0H477V60H475Q464
40 447 25T408 0T362 -14T313 -19Q247 -19 195 5T108 70T53 164T34 278Q34 346 57 401T118 494T206 553T313 574Q347 574 374 567T421 548T454 523T475 496H477V555H643V0Z" />
<glyph unicode="b" glyph-name="b" horiz-adv-x="693" d="M220 279Q220 250 229 224T256 179T299 148T355 136Q387 136 412 148T456 179T484 225T494 278Q494 305 485 330T457 375T414 407T358 419Q325 419 300 407T256 375T229 330T220 279ZM60 740H226V511Q248
535 272 547T319 566T360 573T387 574Q430 574 478 558T567 506T633 416T660 281Q660 206 636 150T573 56T484 0T380 -19Q321 -19 279 5T221 59H219V0H60V740Z" />
<glyph unicode="c" glyph-name="c" horiz-adv-x="652" d="M621 211Q610 164 584 122T521 49T435 0T330 -18Q267 -18 213 5T119 68T56 163T33 279Q33 340 55 394T117 488T210 551T326 574Q381 574 430 557T517 509T582 435T620 341H452Q445 355 435 369T411 394T378
412T332 419Q302 420 278 410T237 380T210 335T200 278Q200 248 209 222T236 177T278 148T332 137Q358 137 377 144T411 161T435 185T452 211H621Z" />
<glyph unicode="d" glyph-name="d" horiz-adv-x="698" d="M200 280Q200 248 210 222T240 176T284 147T339 137Q378 137 405 151T449 186T473 233T481 280Q481 305 472 330T446 374T402 406T341 419Q305 419 279 407T235 374T209 329T200 280ZM638 0H480V60H478Q473
51 462 38T432 13T383 -9T312 -18Q249 -18 198 5T110 68T54 162T34 279Q34 349 57 404T118 497T206 554T309 574Q346 574 373 566T420 548T452 526T472 508V740H638V0Z" />
<glyph unicode="e" glyph-name="e" horiz-adv-x="646" d="M448 339Q445 351 438 367T415 399T377 424T322 434Q290 434 267 424T229 399T207 368T196 339H448ZM595 174Q575 127 546 92T482 32Q412 -18 324 -18Q264 -18 211 4T118 67T54 160T30 276Q30 334 51 388T112
483T204 549T321 574Q384 574 438 551T531 486T592 390T614 271Q614 254 613 246T610 227H194Q202 177 238 150T324 122Q362 122 385 137T425 174H595Z" />
<glyph unicode="f" glyph-name="f" horiz-adv-x="314" d="M66 429H4V555H66V584Q66 642 87 676T141 727T211 749T278 754H302V629H283Q278 629 269 628T252 621T238 605T232 577V555H302V429H232V0H66V429Z" />
<glyph unicode="g" glyph-name="g" horiz-adv-x="693" d="M200 280Q200 247 211 221T240 176T283 147T333 137Q363 137 388 147T431 176T459 219T469 275Q469 308 459 334T430 379T387 408T334 418Q307 418 283 408T241 380T211 336T200 280ZM635 67Q635 5 629
-38T602 -116Q586 -142 560 -166T497 -208T417 -236T321 -247Q249 -247 198 -228T114 -179T65 -116T44 -52H236Q245 -73 259 -84T289 -100T316 -106T333 -107Q341 -107 363 -105T408 -88T450 -43T468 44V61H466Q460 49 448 35T416 10T372 -10T314 -18Q257 -18 207
2T118 61T57 153T34 274Q34 345 57 400T120 494T209 553T314 573Q361 573 402 556T467 503H469V555H635V67Z" />
<glyph unicode="h" glyph-name="h" horiz-adv-x="632" d="M60 740H226V504H228Q249 542 287 558T371 574Q391 574 412 571T453 560T491 541T522 513Q540 492 550 472T565 428T572 376T574 310V0H408V302Q408 312 407 331T397 370T371 403T319 418Q284 418 265
405T238 373T228 337T226 308V0H60V740Z" />
<glyph unicode="i" glyph-name="i" horiz-adv-x="286" d="M226 614H60V740H226V614ZM226 0H60V555H226V0Z" />
<glyph unicode="j" glyph-name="j" horiz-adv-x="321" d="M253 614H87V740H253V614ZM253 12Q253 -36 247 -76T219 -144T156 -188T47 -204H6V-78H28Q50 -78 62 -71T79 -51T86 -24T87 6V555H253V12Z" />
<glyph unicode="k" glyph-name="k" horiz-adv-x="591" d="M66 740H232V354H234L388 555H585L376 311L579 0H391L234 267H232V0H66V740Z" />
<glyph unicode="l" glyph-name="l" horiz-adv-x="286" d="M60 740H226V0H60V740Z" />
<glyph unicode="m" glyph-name="m" horiz-adv-x="969" d="M60 555H215V496H217Q222 505 232 518T259 543T304 565T370 574Q388 574 409 570T452 555T493 525T530 475Q556 516 599 545T706 574Q721 574 739 572T776 564T815 547T852 518Q871 497 883 479T901 436T910
381T912 303V0H746V295Q746 312 745 333T735 373T710 405T661 418Q626 418 608 405T581 372T571 334T569 303V0H403V302Q403 313 402 332T393 371T368 404T320 418Q285 418 266 404T238 369T228 328T226 295V0H60V555Z" />
<glyph unicode="n" glyph-name="n" horiz-adv-x="632" d="M60 555H215V496H217Q223 506 233 519T261 545T305 565T368 574Q408 574 447 560T510 526Q521 516 532 503T553 468T568 418T574 347V0H408V303Q408 318 407 337T397 375T372 405T321 418Q285 418 266
405T238 373T228 335T226 302V0H60V555Z" />
<glyph unicode="o" glyph-name="o" horiz-adv-x="666" d="M200 278Q200 248 210 222T239 178T282 149T333 138Q360 138 384 148T426 177T455 222T466 278Q466 308 456 334T427 378T384 407T333 418Q306 418 282 408T240 379T211 334T200 278ZM34 278Q34 329 52
381T108 476T201 546T333 573Q409 573 465 546T558 477T613 382T632 278Q632 227 614 175T558 80T465 10T333 -17Q257 -17 201 10T108 79T53 174T34 278Z" />
<glyph unicode="p" glyph-name="p" horiz-adv-x="697" d="M358 136Q391 136 416 148T460 180T487 225T497 277Q497 302 488 327T462 372T418 406T358 419Q324 419 298 406T255 373T228 327T219 277Q219 251 228 226T256 180T299 148T358 136ZM60 555H216V494H217H219Q244
526 286 550T392 574Q466 574 517 545T601 472T648 374T663 272Q663 212 643 159T587 67T502 4T393 -19Q355 -19 328 -11T280 8T246 30T226 50V-185H60V555Z" />
<glyph unicode="q" glyph-name="q" horiz-adv-x="698" d="M200 274Q200 252 208 228T234 184T278 150T340 137Q373 137 398 149T441 182T468 227T478 277Q478 299 470 324T445 370T402 405T338 419Q305 419 279 407T236 374T209 328T200 274ZM638 -185H472V57H470Q463
47 451 34T419 10T371 -10T302 -18Q243 -18 194 4T110 64T54 155T34 267Q34 339 56 396T116 492T205 553T313 574Q353 574 382 565T430 542T461 515T477 494H479V555H638V-185Z" />
<glyph unicode="r" glyph-name="r" horiz-adv-x="363" d="M59 555H215V496H217Q222 506 231 519T255 545T295 565T356 574V407Q327 406 303 402T262 387T235 356T225 305V0H59V555Z" />
<glyph unicode="s" glyph-name="s" horiz-adv-x="499" d="M296 399Q296 403 295 410T288 424T273 436T244 441Q218 441 208 428T197 404Q197 381 223 368T282 344Q317 334 352 323T414 292T459 244T476 170Q476 126 458 91T409 32T337 -6T250 -19Q218 -19 181
-11T111 18T54 74T24 165H189Q192 146 201 136T220 121T240 115T252 114Q273 114 291 125T310 157Q310 173 302 183T277 202T231 221T163 246Q136 255 112 268T70 299T42 340T31 391Q31 432 48 466T95 524T164 561T246 574Q273 574 308 567T374 541T430 488T459
399H296Z" />
<glyph unicode="t" glyph-name="t" horiz-adv-x="351" d="M259 555H339V429H259V0H93V429H11V555H93V740H259V555Z" />
<glyph unicode="u" glyph-name="u" horiz-adv-x="634" d="M574 0H417V59H415Q402 32 384 17T346 -6T307 -16T271 -18Q258 -18 238 -16T195 -7T149 15T108 52Q91 73 82 91T67 129T60 171T58 223V555H224V248Q224 234 225 215T235 178T261 149T313 137Q331 137 348
142T378 160T400 195T408 250V555H574V0Z" />
<glyph unicode="v" glyph-name="v" horiz-adv-x="592" d="M375 0H216L17 555H189L295 209H297L403 555H575L375 0Z" />
<glyph unicode="w" glyph-name="w" horiz-adv-x="850" d="M179 555L262 210H264L355 555H495L587 210H589L672 555H843L673 0H519L426 359H424L331 0H177L7 555H179Z" />
<glyph unicode="x" glyph-name="x" horiz-adv-x="630" d="M600 555L413 297L628 0H425L314 172L201 0H1L212 297L25 555H224L314 409L403 555H600Z" />
<glyph unicode="y" glyph-name="y" horiz-adv-x="574" d="M573 555L295 -185H119L207 28L1 555H178L289 233H291L397 555H573Z" />
<glyph unicode="z" glyph-name="z" horiz-adv-x="444" d="M428 126V0H15V114L249 429H15V555H428V429L211 126H428Z" />
<glyph unicode="{" glyph-name="braceleft" horiz-adv-x="554" d="M428 614Q408 614 397 608T379 592T372 571T370 549V340Q370 304 358 284T329 253T294 239T262 235V231Q275 230 293 226T329 212T358 184T370 139V-73Q370 -83 371 -94T379 -115T396 -131T428
-138H483V-264H355Q326 -264 299 -256T250 -231T215 -188T202 -126V86Q202 107 190 119T163 137T131 145T105 147V319Q114 319 130 321T162 330T190 350T202 386V602Q202 638 215 664T249 707T298 732T355 740H483V614H428Z" />
<glyph unicode="|" glyph-name="bar" horiz-adv-x="555" d="M369 740V-100H186V740H369Z" />
<glyph unicode="}" glyph-name="braceright" horiz-adv-x="554" d="M71 614V740H199Q228 740 255 732T304 707T339 664T352 602V386Q352 363 364 350T391 330T423 321T449 319V147Q440 147 424 145T392 137T364 119T352 86V-126Q352 -162 339 -188T305 -231T256
-256T199 -264H71V-138H126Q146 -138 157 -132T175 -116T182 -95T184 -73V139Q184 166 196 183T225 211T260 226T292 231V235Q279 236 261 239T225 252T196 283T184 340V549Q184 559 183 570T175 591T158 607T126 614H71Z" />
<glyph unicode="~" glyph-name="asciitilde" horiz-adv-x="600" d="M533 219Q521 203 509 187T481 159T448 139T406 131Q378 131 354 140T304 164Q280 178 252 188T189 199Q156 199 137 177T103 130L67 286Q76 302 87 318T114 347T149 367T194 375Q220 375 248
366T305 343Q333 331 360 319T407 307Q437 307 457 329T497 377L533 219Z" />
</font>
</defs>
</svg>
