<?xml version="1.0" standalone="no"?> <!DOCTYPE svg PUBLIC "-//W3C//DTD SVG 1.0//EN" "http://www.w3.org/TR/2001/REC-SVG-20010904/DTD/svg10.dtd" > <svg xmlns="http://www.w3.org/2000/svg" width="100%" height="100%">
<defs >
<font id="itcavantgardegothicbook" horiz-adv-x="995" ><font-face
    font-family="ITC Avant Garde Gothic"
    units-per-em="2048"
    panose-1="2 11 6 2 2 2 2 2 2 4"
    ascent="2044"
    descent="-490"
    alphabetic="0" />
<missing-glyph horiz-adv-x="669" d="M0 1274H569V0H0V1274ZM100 1174V100H469V1174H100Z" />
<glyph unicode=" " glyph-name="null" horiz-adv-x="567" />
<glyph unicode="!" glyph-name="null" horiz-adv-x="604" d="M227 391V1511H379V391H227ZM227 258H379V0H227V258Z" />
<glyph unicode="&quot;" glyph-name="null" horiz-adv-x="633" d="M99 911L74 1515H240L215 911H99ZM418 911L393 1515H559L534 911H418Z" />
<glyph unicode="#" glyph-name="null" horiz-adv-x="1135" d="M558 1515L497 1090H751L812 1515H954L893 1089H1066V951H874L818 562H1012V424H799L738 -1H596L657 424H403L342 -1H200L261 425H68V563H280L336 952H122V1090H355L416 1515H558ZM477 952L422 562H677L732
952H477Z" />
<glyph unicode="$" glyph-name="null" horiz-adv-x="1135" d="M830 1114V1114Q816 1239 757 1299T586 1360Q470 1360 405 1299T340 1127Q340 1029 400 971Q459 914 602 875Q801 821 899 719Q996 618 996 467Q996 284 876 167Q784 77 649 57V-143H495V56Q361 78
259 177Q144 290 143 433L145 467V467H295V467Q297 333 368 260T570 187Q700 187 773 260T846 463Q846 571 776 636Q706 700 540 745Q364 793 277 887Q190 981 190 1124Q190 1288 301 1392Q383 1469 495 1488V1661H649V1493Q782 1476 867 1394Q973 1292 981 1114V1114H830Z"
/>
<glyph unicode="%" glyph-name="null" horiz-adv-x="1587" d="M415 805Q255 805 149 909T43 1171Q43 1329 149 1433T415 1538Q575 1538 681 1434T787 1171Q787 1014 681 910T415 805V805ZM415 1424Q309 1424 239 1352T168 1171Q168 1063 238 991T415 919Q521 919
591 991T662 1171Q662 1280 592 1352T415 1424V1424ZM296 4L1155 1510H1293L434 4H296ZM1174 -23Q1014 -23 908 81T802 343Q802 501 908 605T1174 710Q1334 710 1440 606T1546 343Q1546 186 1440 82T1174 -23V-23ZM1174 596Q1068 596 998 524T927 343Q927 235 997
163T1174 91Q1280 91 1350 163T1421 343Q1421 452 1351 524T1174 596V596Z" />
<glyph unicode="&amp;" glyph-name="null" horiz-adv-x="1550" d="M295 1203Q295 1345 401 1443T661 1541Q814 1541 920 1441T1026 1194Q1026 1064 922 963Q842 884 716 842L1025 544L1240 984H1410Q1408 992 1137 436L1507 79L1398 -27L1065 295Q981 145 881
68Q759 -26 594 -26Q402 -26 259 108T115 423Q115 595 229 729Q316 831 452 889Q379 963 346 1016Q295 1098 295 1203ZM585 119Q706 119 802 202Q881 269 954 402L562 780Q448 737 372 658Q269 552 269 416Q269 294 362 206Q455 119 585 119ZM447 1204Q447 1138
490 1077Q522 1031 605 948Q710 978 779 1033Q874 1108 874 1202Q874 1286 812 1343T661 1401Q571 1401 509 1344Q447 1287 447 1204Z" />
<glyph unicode="&apos;" glyph-name="null" horiz-adv-x="406" d="M146 911L121 1515H287L263 911H146Z" />
<glyph unicode="(" glyph-name="null" horiz-adv-x="756" d="M96 565Q96 884 279 1169T727 1550V1398Q516 1278 383 1045T249 565Q249 314 383 81T727 -269V-421Q462 -326 279 -40Q96 246 96 565Z" />
<glyph unicode=")" glyph-name="null" horiz-adv-x="756" d="M660 564Q660 245 477 -40T29 -421V-269Q240 -149 373 84T507 564Q507 815 373 1048T29 1398V1550Q294 1455 477 1169Q660 883 660 564Z" />
<glyph unicode="*" glyph-name="null" horiz-adv-x="870" d="M496 1515L489 1278V1278L711 1358L749 1240L522 1174V1174L667 988L567 915L434 1111V1111L301 915L201 988L346 1175V1175L119 1240L157 1358L380 1278V1278L372 1515H496Z" />
<glyph unicode="+" glyph-name="null" horiz-adv-x="1241" d="M550 445H104V585H550V1031H690V585H1136V445H690V-1H550V445Z" />
<glyph unicode="," glyph-name="null" horiz-adv-x="567" d="M29 -139L209 258H362L182 -139H29Z" />
<glyph unicode="-" glyph-name="null" horiz-adv-x="680" d="M61 645H619V508H61V645Z" />
<glyph unicode="." glyph-name="null" horiz-adv-x="567" d="M209 258H361V0H209V258Z" />
<glyph unicode="/" glyph-name="null" horiz-adv-x="895" d="M825 1515L250 -205H90L665 1515H825Z" />
<glyph unicode="0" glyph-name="null" horiz-adv-x="1135" d="M567 -26Q334 -26 197 126T59 538V976Q59 1236 196 1388T567 1541Q802 1541 939 1389T1076 976V538Q1076 279 939 127T567 -26V-26ZM567 110Q742 110 833 227T925 570V945Q925 1166 832 1285T567 1405Q396
1405 303 1286T210 945V570Q210 345 301 228T567 110V110Z" />
<glyph unicode="1" glyph-name="null" horiz-adv-x="1135" d="M534 0V1378V1378H276V1515H686V1515V1515V0V0H610H534V0Z" />
<glyph unicode="2" glyph-name="null" horiz-adv-x="1135" d="M1053 1083Q1053 934 949 800Q845 666 423 269L282 137V137H1053V0H82V68V137L329 369Q710 727 804 845Q898 963 898 1084Q898 1219 805 1312T576 1405Q425 1405 334 1298T254 1030V1030H101V1030Q97
1257 229 1399T577 1541Q777 1541 915 1408Q1053 1275 1053 1083Z" />
<glyph unicode="3" glyph-name="null" horiz-adv-x="1135" d="M786 1165Q786 1268 718 1336T545 1405Q447 1405 384 1330T318 1138V1138H167V1138Q173 1317 280 1429T553 1541Q720 1541 830 1436T941 1172Q941 1014 830 909Q806 887 780 869V869Q845 839 899 792Q1037
672 1037 490Q1037 268 900 121T553 -26Q346 -26 210 115T70 475V475H221V475Q221 322 316 216T549 110Q694 110 790 207T886 450Q886 597 790 694T549 791H456V927H545Q649 927 718 995Q786 1063 786 1165Z" />
<glyph unicode="4" glyph-name="null" horiz-adv-x="1135" d="M793 276H29V342V408L767 1515H856H945V413V413H1082V276H945V276V0H793V276V276ZM793 413V413V1310V1310V1310L195 413V413H793Z" />
<glyph unicode="5" glyph-name="null" horiz-adv-x="1135" d="M1086 512Q1086 281 939 128T569 -26Q358 -26 213 118T53 483V483H205V483Q236 308 331 209T567 110Q725 110 830 221T935 501Q935 670 830 781T567 893Q478 893 393 846T266 727L145 768L283 1515V1515H963V1378H397V1378L318
953V953Q438 1029 569 1029Q792 1029 939 881Q1086 734 1086 512Z" />
<glyph unicode="6" glyph-name="null" horiz-adv-x="1135" d="M614 1510H777Q566 1200 442 1007V1007Q499 1034 567 1035Q791 1035 938 884T1086 504Q1086 276 939 125T567 -26Q349 -26 199 128T49 505Q49 643 137 799Q224 955 614 1510ZM200 504Q200 335 304
223T567 110Q725 110 830 222T935 504Q935 674 830 786T567 899Q409 899 304 786Q200 674 200 504Z" />
<glyph unicode="7" glyph-name="null" horiz-adv-x="1135" d="M216 0L854 1378V1378H129V1515H1006V1449V1382L384 0H216Z" />
<glyph unicode="8" glyph-name="null" horiz-adv-x="1135" d="M787 846V846Q856 814 912 763Q1051 637 1051 450Q1051 248 912 111T567 -26Q362 -26 223 111T84 450Q84 637 223 764Q278 815 346 845V845Q311 868 281 896Q166 1004 166 1163Q166 1323 281 1432T567
1541Q737 1541 852 1432T968 1163Q968 1004 852 895Q822 866 787 846ZM567 903Q673 903 745 975T817 1153Q817 1260 745 1332T567 1405Q461 1405 389 1333T317 1153Q317 1057 394 980Q471 903 567 903ZM567 767Q426 767 331 673T235 438Q235 299 330 205T567 110Q708
110 804 204T900 438Q900 578 804 673Q708 767 567 767Z" />
<glyph unicode="9" glyph-name="null" horiz-adv-x="1135" d="M521 3H358Q568 312 693 507V507Q635 479 568 479Q344 479 197 630T49 1010Q49 1238 196 1389T568 1540Q786 1540 936 1392T1086 1029Q1086 877 998 717Q911 558 521 3ZM935 1010Q935 1179 831 1291T568
1404Q410 1404 305 1292T200 1010Q200 840 305 728T568 615Q726 615 831 728Q935 840 935 1010Z" />
<glyph unicode=":" glyph-name="null" horiz-adv-x="567" d="M209 258H361V0H209V258ZM209 1121H361V863H209V1121Z" />
<glyph unicode=";" glyph-name="null" horiz-adv-x="567" d="M29 -139L209 258H362L182 -139H29ZM210 1121H362V863H210V1121Z" />
<glyph unicode="&lt;" glyph-name="null" horiz-adv-x="1241" d="M94 454V515V576L1135 1050V912L260 517V517L1135 118V-20L94 454Z" />
<glyph unicode="=" glyph-name="null" horiz-adv-x="1241" d="M104 379H1136V239H104V379ZM104 792H1136V652H104V792Z" />
<glyph unicode="&gt;" glyph-name="null" horiz-adv-x="1241" d="M1147 454L106 -20V118L981 517V517L106 912V1050L1147 576V515V454Z" />
<glyph unicode="?" glyph-name="null" horiz-adv-x="1210" d="M604 1396Q459 1396 376 1307T276 1045V1045H131V1045Q128 1261 264 1401T613 1541Q808 1541 942 1411T1077 1091Q1077 979 1033 904T850 701Q767 625 728 551T689 394H537Q537 507 589 608T752 809Q862
909 893 960T925 1091Q925 1219 832 1308Q739 1396 604 1396ZM537 258H689V0H537V258Z" />
<glyph unicode="@" glyph-name="null" horiz-adv-x="1776" d="M1277 432Q1377 432 1448 558T1520 861Q1520 1120 1361 1272T929 1425Q634 1425 446 1238T258 757Q258 456 446 272T945 88Q1069 88 1203 116T1433 192L1464 89Q1369 37 1227 6T945 -26Q579 -26 356
190T133 759Q133 1081 366 1312T922 1544Q1248 1544 1446 1359T1645 869Q1645 643 1534 481T1268 318Q1175 318 1128 408Q1110 441 1103 481V481L1062 432Q953 318 819 318Q678 318 593 418T509 683Q509 884 618 1017T892 1150Q1046 1150 1127 1028Q1150 993 1163
956V956L1192 1124V1124H1314L1227 628Q1207 520 1218 476T1277 432ZM910 1035Q792 1035 710 933T629 682Q628 563 692 497T872 431Q951 431 1020 518T1112 733Q1134 860 1076 947T910 1035Z" />
<glyph unicode="A" glyph-name="null" horiz-adv-x="1516" d="M25 0L676 1515H759H842L1493 0V0H1410H1327V0L1111 512V512H399V512L185 0V0H105H25V0ZM755 1359L457 649V649H1056V649L755 1359V1359V1359Z" />
<glyph unicode="B" glyph-name="null" horiz-adv-x="1176" d="M152 0V1515V1515H228V1515H549Q774 1515 901 1413T1028 1129Q1028 948 901 846Q879 828 852 813V813Q922 784 975 742Q1115 629 1115 427Q1115 226 984 113T619 0H228V0H152V0ZM304 1379V863V863H571Q713
863 793 931T874 1120Q874 1242 788 1310T549 1379H304V1379ZM304 727V136V136H619Q780 136 870 214T961 431Q961 570 862 648T586 727H304V727Z" />
<glyph unicode="C" glyph-name="null" horiz-adv-x="1665" d="M1579 397V397Q1496 213 1300 94T885 -26Q551 -26 320 201T88 757Q88 1086 319 1313T885 1541Q1099 1541 1290 1424T1564 1126V1126H1400V1126Q1328 1249 1184 1327T885 1405Q615 1405 429 1217T242
757Q242 485 428 298T885 110Q1044 110 1192 190T1415 397V397H1579Z" />
<glyph unicode="D" glyph-name="null" horiz-adv-x="1524" d="M152 0V1515V1515H228V1515H586Q967 1515 1199 1310T1432 769Q1432 423 1203 212T596 0H228V0H152V0ZM304 136V136H596Q910 136 1094 303T1278 757Q1278 1043 1092 1211T586 1379H304V1379V136Z" />
<glyph unicode="E" glyph-name="null" horiz-adv-x="1098" d="M143 0V0V1515V1515H973V1515V1447V1378V1378H295V1378V833V833H952V765V696V696H295V696V137V137H973V137V69V0V0H143Z" />
<glyph unicode="F" glyph-name="null" horiz-adv-x="993" d="M143 0V1515V1515H909V1515V1447V1378V1378H295V1378V833V833H886V765V696V696H295V696V0H219H143Z" />
<glyph unicode="G" glyph-name="null" horiz-adv-x="1786" d="M901 -26Q557 -26 320 201T82 757Q82 1086 322 1313T909 1541Q1132 1541 1331 1421T1615 1114V1114H1438V1114Q1362 1242 1217 1323T917 1405Q631 1405 434 1217T236 757Q236 485 431 298T910 110Q1176
110 1359 298Q1472 415 1515 560V560H670V697H1694Q1675 406 1465 201Q1235 -26 901 -26Z" />
<glyph unicode="H" glyph-name="null" horiz-adv-x="1399" d="M156 0V1515V1515H232H308V1515V848V848H1091V848V1515V1515H1167H1243V1515V0V0H1167H1091V0V711V711H308V711V0V0H232H156V0Z" />
<glyph unicode="I" glyph-name="null" horiz-adv-x="463" d="M156 0V1515V1515H232H308V1515V0V0H232H156V0Z" />
<glyph unicode="J" glyph-name="null" horiz-adv-x="987" d="M671 1515V1515H747H823V1515V396Q823 198 716 86T417 -26Q249 -26 135 83T12 360V360H160V360Q178 247 251 175T422 103Q542 103 606 179T671 396V396V1515Z" />
<glyph unicode="K" glyph-name="null" horiz-adv-x="1210" d="M166 0V1515V1515H242H318V1515V641V641L1020 1515V1515H1115H1210V1515L603 774V774L1210 0V0H1114H1018V0L510 662V662L318 427V427V0V0H242H166V0Z" />
<glyph unicode="L" glyph-name="null" horiz-adv-x="946" d="M168 0V0V1515V1515H244H320V1515V137V137H946V137V69V0V0H168Z" />
<glyph unicode="M" glyph-name="null" horiz-adv-x="1882" d="M308 0V0H232H156V0V1515V1515H271H387V1515L941 205V205V205L1495 1515V1515H1610H1726V1515V0V0H1650H1574V0V1338V1338L1008 0H941H874L308 1338V1338V0Z" />
<glyph unicode="N" glyph-name="null" horiz-adv-x="1516" d="M306 0V0H230H154V0V1515V1515H257H361V1515L1208 263V263V263V1515V1515H1284H1360V1515V0H1284H1207L306 1332V1332V1332V0Z" />
<glyph unicode="O" glyph-name="null" horiz-adv-x="1780" d="M890 -26Q554 -26 321 201T88 757Q88 1086 321 1313T890 1541Q1227 1541 1459 1314T1692 757Q1692 428 1460 201T890 -26V-26ZM890 110Q1163 110 1350 297T1538 757Q1538 1029 1351 1217T890 1405Q618
1405 430 1217T242 757Q242 485 430 298T890 110V110Z" />
<glyph unicode="P" glyph-name="null" horiz-adv-x="1212" d="M154 0V1515V1515H230V1515H604Q863 1515 1009 1395T1155 1061Q1155 848 1009 728T604 608H306V608V0V0H230H154V0ZM306 744V744H604Q791 744 896 828T1001 1061Q1001 1210 896 1294T604 1379H306V1379V744Z" />
<glyph unicode="Q" glyph-name="null" horiz-adv-x="1784" d="M1690 -31H1630Q1560 -31 1452 36L1357 102V102Q1158 -26 900 -26Q557 -26 320 201T82 757Q82 1086 319 1313T900 1541Q1244 1541 1481 1314T1718 757Q1718 428 1481 201L1468 189V189L1507 163Q1601
105 1668 105H1690V-31ZM1564 757Q1564 1029 1372 1217T900 1405Q622 1405 429 1217T236 757Q237 658 261 570V570Q393 622 572 622Q782 622 947 558T1269 352L1352 279V279L1372 298Q1564 485 1564 757ZM559 486Q428 486 337 456L312 447V447Q359 367 429 297Q622
110 900 110Q1089 110 1240 197V197L1177 252Q1037 375 890 431Q744 486 559 486Z" />
<glyph unicode="R" glyph-name="null" horiz-adv-x="1243" d="M143 0V1515V1515H219V1515H605Q871 1515 1021 1388T1171 1033Q1171 807 1021 680Q905 583 720 559V559L1153 0V0H1057H961V0L442 689V689H605Q799 689 908 780T1017 1033Q1017 1196 908 1287T605
1379H295V1379V0V0H219H143V0Z" />
<glyph unicode="S" glyph-name="null" horiz-adv-x="1020" d="M785 1129V1129Q771 1256 697 1330T510 1405Q394 1405 314 1331T234 1150Q234 1046 304 983Q374 920 542 875Q766 814 868 704Q969 594 969 413Q969 229 835 102T507 -26Q301 -26 173 99T45 424V424H195V424Q212
270 291 190T507 110Q639 110 730 195T821 404Q821 532 741 608Q662 683 472 735Q270 790 178 887Q86 983 86 1141Q86 1309 209 1425T510 1541Q691 1541 812 1424T933 1129V1129H785Z" />
<glyph unicode="T" glyph-name="null" horiz-adv-x="872" d="M359 0V1378V1378H12V1378V1446V1515V1515H858V1515V1447V1378V1378H511V1378V0V0H435H359V0Z" />
<glyph unicode="U" glyph-name="null" horiz-adv-x="1341" d="M1185 567Q1185 282 1052 128T670 -26Q433 -26 294 134T154 567V1515V1515H230H306V1515V548Q306 347 404 229T670 111Q844 111 938 224T1033 548V1515V1515H1109H1185V1515V567Z" />
<glyph unicode="V" glyph-name="null" horiz-adv-x="1438" d="M16 1515V1515H98H181V1515L722 179V179V179L1261 1515V1515H1340H1420V1515L795 0H719H642L16 1515Z" />
<glyph unicode="W" glyph-name="null" horiz-adv-x="1966" d="M455 0L23 1515V1515H102H181V1515L555 167V167V167L910 1515H986H1063L1420 169V169V169L1793 1515V1515H1869H1946V1515L1514 0H1417H1320L984 1229V1229V1229L649 0H552H455Z" />
<glyph unicode="X" glyph-name="null" horiz-adv-x="1247" d="M16 0L534 778V778L43 1515V1515H134H226V1515L626 914V914V914L1025 1515V1515H1114H1203V1515L714 780V780L1233 0V0H1142H1050V0L622 644V644V644L194 0V0H105H16V0Z" />
<glyph unicode="Y" glyph-name="null" horiz-adv-x="1212" d="M531 507V507L2 1515V1515H89H177V1515L612 654V654L1043 1515V1515H1127H1212V1515L683 506V506V0H607H531V507Z" />
<glyph unicode="Z" glyph-name="null" horiz-adv-x="983" d="M25 133L769 1378V1378H56V1378V1446V1515V1515H947V1449V1382L204 137V137H963V137V69V0V0H25V66V133Z" />
<glyph unicode="[" glyph-name="null" horiz-adv-x="719" d="M272 969Q272 1180 376 1323T690 1541V1389Q542 1304 484 1213T425 972V222Q425 51 479 -38T690 -214V-366Q481 -291 377 -152T272 193V969Z" />
<glyph unicode="\" glyph-name="null" horiz-adv-x="1239" d="M819 -205L242 1515H400L977 -205H819Z" />
<glyph unicode="]" glyph-name="null" horiz-adv-x="719" d="M447 206Q447 -5 343 -148T29 -366V-214Q177 -129 235 -38T294 203V953Q294 1124 240 1213T29 1389V1541Q238 1466 342 1327T447 982V206Z" />
<glyph unicode="^" glyph-name="null" horiz-adv-x="1241" d="M685 1515L1132 628H992L623 1361V1361L256 628H109L555 1515H620H685Z" />
<glyph unicode="_" glyph-name="null" horiz-adv-x="1024" d="M0 -256V-154H1024V-256H0Z" />
<glyph unicode="`" glyph-name="null" horiz-adv-x="774" d="M547 1267L141 1487L208 1609L612 1386L547 1267Z" />
<glyph unicode="a" glyph-name="null" horiz-adv-x="1399" d="M676 -26Q429 -26 258 144T86 560Q86 807 257 977T676 1147Q926 1147 1091 976L1128 933V933V1121V1121H1272V1121V0V0H1200H1128V0V187V187Q1111 164 1091 144Q926 -26 676 -26ZM682 1020Q492 1020
361 886T230 558Q230 364 361 231T682 97Q872 97 1003 231T1134 559Q1134 753 1003 886T682 1020Z" />
<glyph unicode="b" glyph-name="null" horiz-adv-x="1397" d="M139 1515V1515H211H283V1515V932V932L324 977Q492 1147 746 1147Q990 1147 1157 977T1325 560Q1325 314 1158 144T746 -26Q492 -26 324 145L283 191V191V0V0H139V0V1515ZM729 101Q919 101 1050 234T1181
562Q1181 756 1050 890T729 1024Q540 1024 409 891T278 563V563V563V563Q278 369 409 235Q540 101 729 101Z" />
<glyph unicode="c" glyph-name="null" horiz-adv-x="1325" d="M1243 325V325Q1168 160 1022 67T692 -26Q437 -26 261 144T84 560Q84 807 260 977T692 1147Q874 1147 1020 1051T1243 785V785H1090V785Q1025 895 920 957T692 1020Q497 1020 363 887T228 560Q228
367 362 234T692 101Q817 101 922 160T1090 325V325H1243Z" />
<glyph unicode="d" glyph-name="null" horiz-adv-x="1403" d="M659 -26Q416 -26 248 144T80 560Q80 807 248 977T659 1147Q914 1147 1082 976L1122 931V931V1515V1515H1194H1266V1515V0V0H1194H1122V0V189V189L1082 144Q914 -26 659 -26ZM676 1020Q486 1020 355
886T224 558Q224 364 355 231T676 97Q866 97 997 231T1128 559Q1128 753 997 886T676 1020Z" />
<glyph unicode="e" glyph-name="null" horiz-adv-x="1331" d="M661 -26Q417 -26 248 144T78 560Q78 807 247 977T661 1147Q907 1147 1076 977T1245 560Q1246 533 1242 506V506H225V506Q240 349 351 234Q480 101 666 101Q799 101 899 168T1061 364V364H1210V364Q1150
189 999 82T661 -26ZM1096 635V635Q1075 781 973 887Q846 1020 661 1020Q477 1020 349 886Q250 781 226 635V635H1096Z" />
<glyph unicode="f" glyph-name="null" horiz-adv-x="643" d="M358 992V992V0V0H286H214V0V992V992H39V1121H214V1121V1144Q214 1335 317 1438T610 1541H643V1414V1414Q498 1413 428 1352T358 1161V1121V1121H643V992H358Z" />
<glyph unicode="g" glyph-name="null" horiz-adv-x="1378" d="M683 -310Q886 -310 991 -199T1097 127V189V189L1059 145Q894 -26 643 -26Q405 -26 241 144T76 560Q76 807 241 977T644 1147Q894 1147 1059 977L1097 934V934V1121V1121H1241V144Q1241 -135 1096
-286T682 -437Q468 -437 320 -330T123 -32V-32H276V-32Q325 -163 433 -236T683 -310ZM661 1024Q476 1024 348 890T220 562Q220 368 348 235T661 101Q847 101 975 235T1103 563Q1103 757 975 890T661 1024Z" />
<glyph unicode="h" glyph-name="null" horiz-adv-x="1249" d="M127 0V1515V1515H199H271V1515V977V977V977L293 1004Q411 1150 620 1150Q852 1150 982 1007T1112 609V0V0H1040H968V0V613Q968 804 876 912T620 1020Q452 1020 362 911T271 598V598V0V0H199H127V0Z" />
<glyph unicode="i" glyph-name="null" horiz-adv-x="410" d="M133 0V1121V1121H205H277V1121V0V0H205H133V0ZM134 1515H276V1258H134V1515Z" />
<glyph unicode="j" glyph-name="null" horiz-adv-x="416" d="M137 1121V1121H209H281V1121V81Q281 -160 193 -276T-80 -392H-89V-256V-256Q30 -256 83 -177T137 81V81V1121ZM138 1515H280V1258H138V1515Z" />
<glyph unicode="k" glyph-name="null" horiz-adv-x="1028" d="M143 0V1515V1515H215H287V1515V432V432L815 1121V1121H904H994V1121L553 559V559L1020 0V0H926H832V0L467 450V450L287 221V221V0V0H215H143V0Z" />
<glyph unicode="l" glyph-name="null" horiz-adv-x="410" d="M133 0V1515V1515H205H277V1515V0V0H205H133V0Z" />
<glyph unicode="m" glyph-name="null" horiz-adv-x="1921" d="M135 0V1121V1121H206H278V1121V1006V1006V1006L290 1020Q397 1150 587 1150Q797 1150 915 1020Q949 982 974 936V936Q996 984 1027 1020Q1136 1150 1330 1150Q1545 1150 1665 1017T1786 648V0V0H1714H1642V0V664Q1642
831 1562 925T1338 1020Q1192 1020 1113 926T1033 657V657V0V0H961H889V0V663Q889 831 808 925T584 1020Q438 1020 359 926T279 657V657V0V0H207H135V0Z" />
<glyph unicode="n" glyph-name="null" horiz-adv-x="1249" d="M133 0V1121V1121H204H276V1121V976V976V976L299 1004Q417 1150 626 1150Q858 1150 988 1007T1118 609V0V0H1046H974V0V613Q974 804 882 912T626 1020Q458 1020 368 911T277 598V598V0V0H205H133V0Z" />
<glyph unicode="o" glyph-name="null" horiz-adv-x="1341" d="M671 -26Q426 -26 256 144T86 560Q86 807 256 977T671 1147Q918 1147 1087 977T1257 560Q1257 314 1088 144T671 -26V-26ZM671 101Q857 101 985 234T1113 560Q1113 753 985 886T671 1020Q486 1020
358 887T230 560Q230 367 358 234T671 101V101Z" />
<glyph unicode="p" glyph-name="null" horiz-adv-x="1397" d="M131 1121V1121H203H275V1121V933V933L315 977Q483 1147 738 1147Q982 1147 1149 977T1317 560Q1317 314 1150 144T738 -26Q484 -26 316 145L275 191V191V-394V-394H203H131V-394V1121ZM721 101Q911
101 1042 234T1173 562Q1173 756 1042 890T721 1024Q531 1024 400 891T269 563V563H270V563Q270 369 401 235T721 101Z" />
<glyph unicode="q" glyph-name="null" horiz-adv-x="1397" d="M655 -26Q412 -26 244 144T76 560Q76 807 244 977T655 1147Q910 1147 1078 976L1118 931V931V1121V1121H1262V1121V-394V-394H1190H1118V-394V189V189L1078 144Q910 -26 655 -26ZM672 1020Q482 1020
351 886T220 558Q220 364 351 231T672 97Q862 97 993 231T1124 559Q1124 753 993 886T672 1020Z" />
<glyph unicode="r" glyph-name="null" horiz-adv-x="616" d="M133 0V1121V1121H204H276V1121V960V960V960Q295 1001 318 1030Q407 1143 596 1150V999Q453 988 369 905Q277 812 277 639V639V0V0H205H133V0Z" />
<glyph unicode="s" glyph-name="null" horiz-adv-x="795" d="M561 844V844Q562 921 515 970T393 1020Q316 1020 271 973T226 845Q226 781 272 740Q318 699 431 662Q598 608 672 523Q746 439 746 303Q746 162 647 68T397 -26Q237 -26 143 70T49 331V331H194V331Q192
223 246 162T397 101Q490 101 545 153T600 293Q600 381 547 435Q494 488 365 530Q214 579 147 651Q80 723 80 836Q80 970 169 1058T393 1147Q534 1147 620 1064T706 844V844H561Z" />
<glyph unicode="t" glyph-name="null" horiz-adv-x="694" d="M267 0V992V992H29V1121H267V1121V1513H411V1121V1121H676V992H411V992V0H267Z" />
<glyph unicode="u" glyph-name="null" horiz-adv-x="1245" d="M271 1121V456Q271 289 360 196T607 102Q778 102 871 212T964 526V526V1121V1121H1036H1108V1121V0V0H1041H973V0V180V180V180Q956 149 933 120Q817 -26 611 -26Q383 -26 255 101T127 453V1121V1121H199H271V1121Z"
/>
<glyph unicode="v" glyph-name="null" horiz-adv-x="1135" d="M14 1121V1121H92H171V1121L569 149V149V149L966 1121V1121H1042H1119V1121L647 0H567H486L14 1121Z" />
<glyph unicode="w" glyph-name="null" horiz-adv-x="1702" d="M458 0L27 1121V1121H104H182V1121L536 172V172V172L793 986H855H918L1177 174V174V174L1528 1121V1121H1603H1679V1121L1249 0H1169H1088L853 759V759V759L619 0H539H458Z" />
<glyph unicode="x" glyph-name="null" horiz-adv-x="983" d="M25 0L406 561V561L26 1121V1121H113H201V1121L494 688V688V688L787 1121V1121H872H957V1121L577 562V562L958 0V0H871H783V0L490 435V435V435L195 0V0H110H25V0Z" />
<glyph unicode="y" glyph-name="null" horiz-adv-x="1098" d="M1071 1121L414 -398V-398H344H273V-398L465 51V51L31 1121V1121H109H187V1121L539 225V225V225L919 1121V1121H995H1071V1121Z" />
<glyph unicode="z" glyph-name="null" horiz-adv-x="870" d="M20 126L634 992V992H41V992V1056V1121V1121H812V1058V995L200 129V129H850V129V65V0V0H20V63V126Z" />
<glyph unicode="{" glyph-name="null" horiz-adv-x="719" d="M678 -390Q458 -390 388 -321Q327 -260 327 -92L328 -42V216Q334 345 284 421T143 497V631Q234 631 284 707T328 912V1170L327 1220Q327 1388 388 1449Q458 1518 678 1518V1395Q548 1395 512 1354T482
1170V912L483 878Q483 718 404 631Q366 588 308 564V564Q367 540 404 497Q483 410 483 250L482 216V-42Q475 -184 511 -225T678 -267V-390Z" />
<glyph unicode="|" glyph-name="null" horiz-adv-x="1376" d="M612 -512V1536H764V-512H612Z" />
<glyph unicode="}" glyph-name="null" horiz-adv-x="719" d="M41 -390V-267Q171 -267 207 -226T237 -42V216L236 250Q236 410 315 497Q352 540 411 564V564Q353 588 315 631Q236 718 236 878L237 912V1170Q244 1312 208 1353T41 1395V1518Q261 1518 331 1449Q392
1388 392 1220L391 1170V912Q385 783 435 707T576 631V497Q485 497 435 421T391 216V-42L392 -92Q392 -260 331 -321Q261 -390 41 -390Z" />
<glyph unicode="~" glyph-name="null" horiz-adv-x="1241" d="M147 469Q191 552 258 598T403 645Q455 645 507 629T647 571Q728 531 771 515T839 499Q887 499 926 531T1022 648L1093 547Q1051 475 981 426T852 376Q792 376 747 391T593 461Q516 500 481 511T394
522Q339 522 297 485T218 368L147 469Z" />
</font>
</defs>
</svg>
