<?xml version="1.0" encoding="UTF-8" standalone="no"?>
<svg width="216px" height="45px" viewBox="0 0 216 45" version="1.1" xmlns="http://www.w3.org/2000/svg" xmlns:xlink="http://www.w3.org/1999/xlink">
    <!-- Generator: Sketch 39.1 (31720) - http://www.bohemiancoding.com/sketch -->
    <title>FT2logotype</title>
    <desc>Created with Sketch.</desc>
    <defs>
        <polygon id="path-1" points="30.222 44.2741935 0 44.2741935 0 22.2392177 0 0.204241935 30.222 0.204241935 30.222 44.2741935"></polygon>
        <polygon id="path-3" points="27.43632 27.4296774 27.43632 0.412983871 0.635976 0.412983871 0.635976 27.4296774 27.43632 27.4296774"></polygon>
    </defs>
    <g id="Symbols" stroke="none" stroke-width="1" fill="none" fill-rule="evenodd">
        <g id="FT2logotype">
            <g id="Page-1">
                <g id="Group-3" transform="translate(0.000000, 0.521710)">
                    <mask id="mask-2" fill="white">
                        <use xlink:href="#path-1"></use>
                    </mask>
                    <g id="Clip-2"></g>
                    <path d="M0,44.0821452 L2.2176,36.545371 C5.32224,36.545371 5.95512,35.5241613 6.39936,33.8635161 L9.31392,19.2377903 L6.20928,19.2377903 L7.92,10.4874677 L11.02464,10.4874677 L11.53152,8.06037097 C12.73464,1.80101613 16.85304,0.204241935 23.06232,0.204241935 C25.21656,0.204241935 27.56088,0.395854839 30.222,0.65133871 L28.76472,8.12424194 C27.24408,7.93190323 26.04024,7.93190323 25.34328,7.93190323 C23.44248,7.93190323 22.36536,8.44287097 22.11192,9.59254839 L21.85848,10.7422258 L29.9052,10.7422258 C26.48376,13.1693226 24.77304,15.9796452 23.69592,19.2377903 L20.65464,19.2377903 L17.29656,36.417629 C16.09272,42.6769839 11.97432,44.2744839 5.76576,44.2744839 C4.05504,44.2744839 2.15424,44.2098871 0,44.0821452" id="Fill-1" fill="#F0F0F0" mask="url(#mask-2)"></path>
                </g>
                <path d="M40.549896,27.9344032 L42.323976,19.1840806 C41.943816,19.1202097 41.563656,19.1202097 41.246856,19.1202097 C38.395656,19.1202097 37.065096,22.8247258 37.065096,26.0175484 C37.065096,27.4234355 37.825416,28.3169032 38.902536,28.3169032 C39.409416,28.3169032 39.979656,28.1898871 40.549896,27.9344032 M25.154136,28.2530323 C25.154136,16.5015 31.806216,10.3706129 42.387336,10.3706129 C46.062216,10.3706129 50.370696,11.1363387 54.995256,12.7338387 L50.434056,36.7485968 L41.373576,36.7485968 L40.423176,33.8744032 C38.268936,36.0460161 35.481096,37.1956935 32.819976,37.1956935 C28.764936,37.1956935 25.154136,34.385371 25.154136,28.2530323" id="Fill-4" fill="#F0F0F0"></path>
                <path d="M54.995616,27.6784839 C54.995616,17.9708226 61.204896,10.3701774 71.659296,10.3701774 C75.206736,10.3701774 78.691536,10.8804194 81.669456,11.6475968 C80.275536,13.3082419 77.931216,16.0539677 76.473936,19.566871 C74.699856,19.1205 73.749456,18.9281613 72.038736,18.9281613 C68.174496,18.9281613 66.843936,22.3133226 66.843936,25.9539677 C66.843936,28.3810645 68.174496,28.8281613 70.137936,28.8281613 C71.848656,28.8281613 73.432656,28.5726774 75.903696,28.0617097 L75.270096,36.1733226 C72.418896,36.9397742 69.504336,37.386871 66.463776,37.386871 C60.444576,37.386871 54.995616,35.2152581 54.995616,27.6784839" id="Fill-6" fill="#F0F0F0"></path>
                <path d="M95.228064,18.5456613 C95.228064,17.9708226 94.911264,17.4598548 94.087584,17.4598548 C92.440224,17.4598548 91.109664,19.184371 91.046304,20.9088871 C91.299744,20.9727581 91.553184,20.9727581 91.743264,20.9727581 C94.214304,20.9727581 95.228064,19.9508226 95.228064,18.5456613 M78.501744,26.9759032 C78.501744,18.1624355 84.773664,10.3701774 95.354784,10.3701774 C101.944224,10.3701774 105.302304,13.8830806 105.302304,17.9708226 C105.302304,24.2294516 100.550304,26.7211452 95.418144,26.7211452 C93.834144,26.7211452 92.186784,26.4649355 90.602784,25.9539677 C90.539424,26.1463065 90.539424,26.2733226 90.539424,26.4010645 C90.539424,28.1255806 92.313504,28.7642903 94.594464,28.7642903 C97.445664,28.7642903 100.106784,28.1255806 102.451104,27.2313871 L101.437344,36.1094516 C98.776224,36.7481613 95.101344,37.386871 91.553184,37.386871 C84.520224,37.386871 78.501744,35.4061452 78.501744,26.9759032" id="Fill-8" fill="#F0F0F0"></path>
                <path d="M108.533304,31.2550403 C108.533304,30.4247177 108.596664,29.595121 108.786744,28.5093145 L110.560824,19.2480242 L107.772984,19.1841532 C107.899704,18.0983468 107.963064,14.0744758 105.618744,12.4138306 L105.935544,11.4557661 C108.469944,11.3918952 111.701304,11.2002823 114.615864,10.0506048 C116.833464,8.96479839 118.354104,7.17641129 119.748024,5.1971371 L124.816104,5.1971371 L123.739704,11.0086694 L130.265064,11.0086694 L128.681064,19.2480242 L122.092344,19.2480242 L120.761064,26.2099597 C120.698424,26.4647177 120.635064,26.7209274 120.635064,26.8486694 C120.635064,28.2531048 121.775544,28.7002016 123.169464,28.7002016 C123.993144,28.7002016 125.006184,28.5093145 125.893224,28.3169758 L124.373304,36.5563306 C121.648104,37.1311694 117.657144,37.4505242 115.186104,37.4505242 C112.398264,37.4505242 108.533304,36.6840726 108.533304,31.2550403" id="Fill-10" fill="#F0F0F0"></path>
                <path d="M154.341936,36.8758306 L144.711936,36.8758306 L143.824896,34.5764758 C141.480576,35.7900242 138.566016,37.4506694 135.651456,37.4506694 C130.709376,37.4506694 128.365056,34.3848629 129.315456,29.3390565 L132.863616,11.0088145 L144.395136,11.0088145 L141.227136,27.4236532 C141.037056,28.189379 141.227136,28.8919597 142.240176,28.8919597 C142.747056,28.8919597 143.824896,28.5094597 144.584496,28.0616371 L147.816576,11.0088145 L159.284016,11.0088145 L154.341936,36.8758306 Z" id="Fill-12" fill="#F0F0F0"></path>
                <path d="M162.70524,11.0090323 L172.33524,11.0090323 L173.22228,13.3083871 C175.5666,12.0948387 178.48188,10.4341935 181.39572,10.4341935 C186.3378,10.4341935 188.68212,13.5 187.73172,18.5458065 L184.18356,36.8760484 L172.65204,36.8760484 L175.82004,20.4612097 C176.01012,19.6954839 175.82004,18.9921774 174.807,18.9921774 C174.30012,18.9921774 173.22228,19.3754032 172.46268,19.8232258 L169.23132,36.8760484 L157.76316,36.8760484 L162.70524,11.0090323 Z" id="Fill-14" fill="#F0F0F0"></path>
                <g id="Group-18" transform="translate(187.920000, 9.957194)">
                    <mask id="mask-4" fill="white">
                        <use xlink:href="#path-3"></use>
                    </mask>
                    <g id="Clip-17"></g>
                    <path d="M17.362296,8.58846774 C17.362296,8.01362903 17.046216,7.50266129 16.221816,7.50266129 C14.574456,7.50266129 13.243896,9.22717742 13.180536,10.9516935 C13.433976,11.0155645 13.687416,11.0155645 13.877496,11.0155645 C16.348536,11.0155645 17.362296,9.99362903 17.362296,8.58846774 M0.635976,17.0187097 C0.635976,8.20524194 6.907896,0.412983871 17.489016,0.412983871 C24.078456,0.412983871 27.436536,3.9258871 27.436536,8.01362903 C27.436536,14.2722581 22.684536,16.7639516 17.552376,16.7639516 C15.968376,16.7639516 14.321016,16.5077419 12.737016,15.9967742 C12.673656,16.1891129 12.673656,16.316129 12.673656,16.443871 C12.673656,18.1683871 14.447736,18.8070968 16.728696,18.8070968 C19.579896,18.8070968 22.241016,18.1683871 24.585336,17.2741935 L23.571576,26.1522581 C20.910456,26.7909677 17.235576,27.4296774 13.687416,27.4296774 C6.655176,27.4296774 0.635976,25.4489516 0.635976,17.0187097" id="Fill-16" fill="#F0F0F0" mask="url(#mask-4)"></path>
                </g>
            </g>
        </g>
    </g>
</svg>