<?xml version="1.0" encoding="utf-8"?>
<!-- Generator: Adobe Illustrator 20.1.0, SVG Export Plug-In . SVG Version: 6.00 Build 0)  -->
<svg version="1.1" id="Layer_1" xmlns="http://www.w3.org/2000/svg" xmlns:xlink="http://www.w3.org/1999/xlink" x="0px" y="0px"
	 viewBox="0 0 60 30" style="enable-background:new 0 0 60 30;" xml:space="preserve">
<style type="text/css">
	.st0{fill:#F0F0F0;}
</style>
<g>
	<path class="st0" d="M11.7,12.3l-0.5,1.3h-0.4c-0.3-0.2-0.7-0.3-1-0.3c-0.4,0-0.6,0.7-0.7,1.2h1.1l-0.3,1.4H8.8l-0.8,4H5.9l0.8-4
		H5.8L6,14.4h0.9c0.4-1.9,1.2-2.7,2.5-2.7C10.2,11.7,11,12,11.7,12.3z"/>
	<path class="st0" d="M15.6,14.5l-0.8,4.4h-1.5l-0.1-0.4c-0.5,0.3-1,0.5-1.6,0.5c-0.9,0-1.6-0.7-1.6-2c0-1.7,1.2-3.1,3.1-3.1
		C14,13.9,15,14.2,15.6,14.5z M12.7,17.6c0.2,0,0.3,0,0.4-0.1l0.4-2.1c-0.1,0-0.3-0.1-0.4-0.1c-0.6,0-1,0.9-1,1.6
		C12.2,17.3,12.3,17.6,12.7,17.6z"/>
	<path class="st0" d="M20.3,17.2v1.1c-0.8,0.4-1.6,0.7-2.4,0.7c-1.3,0-2.4-0.4-2.4-2c0-1.7,1.2-3.1,3.2-3.1c0.9,0,1.9,0.5,1.9,1.3
		l-0.9,0.7h-0.4c-0.1-0.3-0.4-0.6-0.7-0.6c-0.4,0-0.8,0.9-0.8,1.6c0,0.4,0.3,0.6,0.8,0.6C19.2,17.6,19.8,17.4,20.3,17.2z"/>
	<path class="st0" d="M25.2,17.2v1.1c-0.8,0.4-1.6,0.7-2.3,0.7c-1.3,0-2.4-0.4-2.4-2c0-1.7,1.2-3.1,3.2-3.1c1,0,1.9,0.5,1.9,1.3
		c0,1.3-1.1,1.6-2.1,1.7c-0.2,0-0.5,0-0.7,0c0,0.1,0,0.1,0,0.2c0,0.2,0.3,0.4,0.8,0.4C24.2,17.6,24.7,17.4,25.2,17.2z M23.9,15.5
		c0-0.2-0.2-0.2-0.3-0.2c-0.4,0-0.7,0.3-0.7,0.7c0.1,0,0.2,0,0.2,0C23.6,16.1,23.9,15.9,23.9,15.5z"/>
	<path class="st0" d="M28.5,15.5c-0.4,1.8-0.4,1.8-0.4,1.9c0,0.1,0.1,0.2,0.3,0.2c0.5,0,0.9-0.2,1.4-0.4v1.1
		c-0.8,0.4-1.8,0.7-2.7,0.7c-0.5,0-1.1-0.1-1.1-1.2c0-0.3,0.1-0.5,0.4-2.4h-0.6l0.3-1.4h0.7l0.4-1.1h1.7L28.7,14h1.5l-0.3,1.4H28.5z
		"/>
	<path class="st0" d="M35.8,14l-0.9,4.9h-1.5l-0.1-0.4c-0.7,0.3-1.4,0.6-2,0.6c-0.5,0-1.1-0.1-1.1-1.2c0-0.4,0.1-0.6,0.7-3.8h2.1
		c-0.4,1.8-0.6,3.2-0.6,3.4c0,0.2,0.1,0.3,0.5,0.3c0.1,0,0.2,0,0.2,0l0.7-3.6H35.8z"/>
	<path class="st0" d="M41.3,15.1c0,0.4-0.1,0.6-0.7,3.8h-2.1c0.4-1.8,0.7-3.2,0.7-3.4c0-0.2-0.1-0.3-0.4-0.3c-0.1,0-0.3,0-0.4,0.1
		l-0.7,3.6h-2l0.9-4.9h1.5l0.1,0.4c0.7-0.3,1.4-0.6,2-0.6C40.7,13.9,41.3,14.1,41.3,15.1z"/>
	<path class="st0" d="M46.2,17.2v1.1c-0.8,0.4-1.6,0.7-2.3,0.7c-1.3,0-2.4-0.4-2.4-2c0-1.7,1.2-3.1,3.2-3.1c1,0,1.9,0.5,1.9,1.3
		c0,1.3-1.1,1.6-2.1,1.7c-0.2,0-0.5,0-0.7,0c0,0.1,0,0.1,0,0.2c0,0.2,0.3,0.4,0.8,0.4C45.2,17.6,45.7,17.4,46.2,17.2z M44.9,15.5
		c0-0.2-0.2-0.2-0.3-0.2c-0.4,0-0.7,0.3-0.7,0.7c0.1,0,0.2,0,0.2,0C44.6,16.1,44.9,15.9,44.9,15.5z"/>
	<path class="st0" d="M52.2,17.5c0.5,0,1.1-0.1,1.6-0.2v1.2C52.9,18.9,51.8,19,51,19c-1.2,0-2-0.3-2-1.1c0-1.6,2.7-2.4,2.7-3.5
		c0-0.3-0.2-0.4-0.4-0.4c-0.6,0-1.1,0.3-1.6,0.4l-0.2,0v-1.1c0.8-0.4,1.6-0.7,2.3-0.7c1.2,0,2.1,0.4,2.1,1.5c0,1.5-1.8,2.1-2.5,3.1
		C51.6,17.4,51.9,17.5,52.2,17.5z"/>
</g>
</svg>
