<?xml version="1.0" encoding="utf-8"?>
<!-- Generator: Adobe Illustrator 18.0.0, SVG Export Plug-In . SVG Version: 6.00 Build 0)  -->
<!DOCTYPE svg PUBLIC "-//W3C//DTD SVG 1.1//EN" "http://www.w3.org/Graphics/SVG/1.1/DTD/svg11.dtd">
<svg version="1.1" id="Layer_1" xmlns="http://www.w3.org/2000/svg" xmlns:xlink="http://www.w3.org/1999/xlink" x="0px" y="0px"
	 viewBox="0 0 693.8 323" enable-background="new 0 0 693.8 323" xml:space="preserve">
<g>
	<path fill="#7DC242" d="M343.5,24.4c121.8,0,236.6,22.3,337.8,66.4C585,35.5,468.7,1,343.5,1S101.9,35.5,5.7,90.8
		C106.9,46.7,221.7,24.4,343.5,24.4"/>
	<path d="M46.3,194.6c-25.2,0-43.2-16.1-43.2-40.7c0-27.8,19.4-46.7,44.3-46.7c11,0,20.4,4.6,25.6,7.7l-0.7,11.2
		c-9-5.8-16-9.2-24.8-9.2c-20.5,0-34,15.8-34,36.9c0,14.6,10,30.9,31.6,30.9c7.3,0,13.6-1.6,21.3-5.4v-20.1H41v-9.1h35.7v35.6
		C71.6,189.2,59.6,194.6,46.3,194.6"/>
	<path d="M100.9,150c1.6,0.1,3.2,0.3,4.8,0.3c10.3,0,29.2-2.1,29.2-17.2c0-9.6-7.4-14.6-20.6-14.6h-13.4V150z M90.4,192.1v-82.5
		h24.8c18.3,0,30,9.3,30,23.8c0,14.3-11.9,20.9-20.2,23l30.9,35.7h-13.5l-28.8-33.9c-2.3,0.1-4.5,0.3-6.7,0.3
		c-1.9,0-3.9-0.2-5.8-0.3v33.9H90.4z"/>
	<polygon points="163.8,192.1 163.8,109.6 211.4,109.6 211.4,119.2 174.4,119.2 174.4,144.4 206.5,144.4 206.5,153.8 174.4,153.8 
		174.4,182.4 211.4,182.4 211.4,192.1 	"/>
	<polygon points="222.9,192.1 222.9,109.6 270.5,109.6 270.5,119.2 233.5,119.2 233.5,144.4 265.6,144.4 265.6,153.8 233.5,153.8 
		233.5,182.4 270.5,182.4 270.5,192.1 	"/>
	<polygon points="282.5,192.1 282.5,105.3 342.2,170.7 342.2,109.6 352.6,109.6 352.6,197.1 292.9,131.7 292.9,192.1 	"/>
	<polygon points="369.6,192.1 369.6,109.6 380.1,109.6 380.1,182.2 420.3,182.2 420.3,192.1 	"/>
	<rect x="430" y="109.6" width="10.5" height="82.5"/>
	<path d="M496.1,194.6c-25.2,0-43.2-16.1-43.2-40.7c0-27.8,19.4-46.7,44.3-46.7c11,0,20.4,4.6,25.6,7.7l-0.7,11.2
		c-9-5.8-16-9.2-24.8-9.2c-20.5,0-34,15.8-34,36.9c0,14.6,10,30.9,31.6,30.9c7.3,0,13.6-1.6,21.3-5.4v-20.1h-25.3v-9.1h35.7v35.6
		C521.4,189.2,509.3,194.6,496.1,194.6"/>
	<polygon points="540.3,192.1 540.3,109.6 550.8,109.6 550.8,143.8 598.7,143.8 598.7,109.6 609.1,109.6 609.1,192.1 598.7,192.1 
		598.7,153.4 550.8,153.4 550.8,192.1 	"/>
	<polygon points="618.7,109.6 689.8,109.6 689.8,119 659.5,119 659.5,192.1 649,192.1 649,119 618.8,119 	"/>
	<g>
		<path d="M512.8,252.8v-32h5.2v27.3h16.1v4.7H512.8z"/>
		<path d="M551.3,253.7c-9.5,0-16.6-7.5-16.6-17.1c0-8.6,7.2-16.8,16.6-16.8c10,0,16.6,6.9,16.6,16.8
			C568,246.2,561.3,253.7,551.3,253.7z M539.8,236.7c0,6.9,4.7,12.4,11.6,12.4s11.6-5.5,11.6-12.4c0-6.6-4-12.2-11.6-12.2
			C544.6,224.5,539.8,230.3,539.8,236.7z"/>
		<path d="M567.6,252.8l17.5-34.3l17.6,34.3H597l-3.9-7.5h-16l-3.8,7.5H567.6z M585.1,229.5l-5.7,11.2h11.4L585.1,229.5z"/>
		<path d="M606.1,252.8v-34.3l24,24.6v-22.3h5.1v34.6l-23.9-24.6v22H606.1z"/>
		<path d="M649.9,253.7c-5,0-8.4-1.8-9.9-2.6l-0.3-5.4c3.1,1.7,6.7,3.5,10.3,3.5c4.2,0,6.8-2.2,6.8-4.6c-0.1-3.3-2.8-4.5-6.7-6.1
			c-4.6-1.8-9.8-4.3-9.8-10.6c0-4.6,4.3-8,10.4-8c4.2,0,7.2,1.3,8.7,2.3l-0.1,5.5c-2.9-1.7-5.4-3.3-8.4-3.3c-3.3,0-5.8,1.4-5.8,4
			c0,1.9,1.8,3.9,5.6,5.2c6.8,2.4,11,5.5,11,11.2C661.7,249.8,657.4,253.7,649.9,253.7z"/>
	</g>
</g>
<g>
	<path d="M117.7,309l-0.3,0.2c-1.5,1.1-2.1,1.3-2.7,1.3c-0.7,0-0.9-0.4-1-1.8c-1.6,1.3-3,1.8-4.6,1.8c-2.2,0-4-1.7-4-3.7
		c0-3.8,4.3-5.2,8.6-5.4v-1.9c0-2-1.1-3-3.3-3c-1.6,0-2.7,0.6-4.5,1.9v-1.6c1.8-1.1,3.1-1.6,4.7-1.6c1.8,0,4.6,0.8,4.6,3.8v9.2
		c0,0.6,0.1,0.8,0.4,0.8c0.4,0,1.3-0.7,2.1-1.3V309z M113.7,302.8c-3.8-0.2-7,1.5-7,4.1c0,1.4,1.2,2.4,2.9,2.4
		c1.4,0,2.6-0.5,4.1-1.9V302.8z"/>
	<path d="M141.7,310.3h-1.6v-1.1c-1.6,1.1-2.7,1.4-4.4,1.4c-4.2,0-7.4-3.3-7.4-7.7c0-4.4,3.1-7.6,7.4-7.6c1.5,0,2.6,0.3,4.4,1.2V288
		h1.6V310.3z M140.1,298.2c-1.6-1-2.7-1.4-4.3-1.4c-3.4,0-5.8,2.5-5.8,6c0,3.6,2.6,6.2,6.2,6.2c1.5,0,2.5-0.3,4-1.3V298.2z"/>
	<path d="M147.5,290.7H146V288h1.6V290.7z M147.5,310.3H146v-14.7h1.6V310.3z"/>
	<path d="M157.5,310.6h-1l-6.7-15h1.6l5.5,12.4l5.3-12.4h1.5L157.5,310.6z"/>
	<path d="M167.6,290.7h-1.6V288h1.6V290.7z M167.6,310.3h-1.6v-14.7h1.6V310.3z"/>
	<path d="M180.1,298.2c-1.6-1.1-2.7-1.5-4-1.5c-1.8,0-3.1,1.1-3.1,2.5c0,3.5,7.6,2.2,7.6,7.3c0,2.3-2.1,4.1-4.8,4.1
		c-1.5,0-2.9-0.4-4.4-1.3v-1.5c1.9,1,3.2,1.3,4.6,1.3c1.8,0,3.1-1,3.1-2.6c0-3.5-7.6-2.5-7.6-7.2c0-2.3,2.1-4,4.7-4
		c1.3,0,2.5,0.4,3.9,1.2V298.2z"/>
	<path d="M185.4,290.7h-1.6V288h1.6V290.7z M185.4,310.3h-1.6v-14.7h1.6V310.3z"/>
	<path d="M196.5,310.6c-4.3,0-7.5-3.3-7.5-7.6c0-4.4,3.2-7.7,7.5-7.7c4.3,0,7.5,3.3,7.5,7.7C204,307.3,200.8,310.6,196.5,310.6z
		 M196.5,296.8c-3.3,0-5.8,2.6-5.8,6.1c0,3.5,2.5,6.1,5.8,6.1c3.3,0,5.8-2.6,5.8-6.1C202.3,299.5,199.8,296.8,196.5,296.8z"/>
	<path d="M209,298.1L209,298.1c1.4-2.1,2.8-2.8,4.9-2.8c3.1,0,5.5,2.1,5.5,6v9h-1.6v-8.4c0-3.3-1.4-5.1-4-5.1c-2.1,0-3.5,1-4.8,3.1
		v10.3h-1.6v-14.7h1.6V298.1z"/>
	<path d="M239.4,310.6c-4.3,0-7.5-3.3-7.5-7.6c0-4.4,3.2-7.7,7.5-7.7c4.3,0,7.5,3.3,7.5,7.7C246.9,307.3,243.7,310.6,239.4,310.6z
		 M239.4,296.8c-3.3,0-5.8,2.6-5.8,6.1c0,3.5,2.5,6.1,5.8,6.1c3.3,0,5.8-2.6,5.8-6.1C245.2,299.5,242.7,296.8,239.4,296.8z"/>
	<path d="M259.1,289.8c-1.2-0.4-1.8-0.6-2.7-0.6c-2.5,0-3.6,1.4-3.6,4.5v1.8h2.8v1.3h-2.8v13.4h-1.6v-13.4h-2.7v-1.3h2.7v-2.4
		c0-3.8,2.7-5.5,5.1-5.5c0.9,0,1.5,0.2,2.7,0.6V289.8z"/>
	<path d="M290.3,310.3h-4.7L273.3,296v14.3h-5.6V288h5.1l11.9,13.6V288h5.6V310.3z"/>
	<path d="M310.2,309.2c-1.3,0.8-3.2,1.4-4.5,1.4c-1.6,0-2.3-0.5-2.7-1.7c-1.8,1.2-3.3,1.7-5,1.7c-2.4,0-4.2-1.8-4.2-3.7
		c0-3.6,2.7-4.3,9-6.3c0.1-1.4-0.6-2.5-2.6-2.5c-1.9,0-4.1,1-5.6,2.5v-3.9c2-1.2,4.2-1.8,6.5-1.8c3.8,0,6.4,1.3,6.4,4.6v6.9
		c0,0.8,0.3,1,0.8,1c0.3,0,0.7-0.1,1.8-0.9V309.2z M302.9,303c-2.8,1-4.2,1.7-4.2,3.2c0,0.9,0.7,1.6,1.5,1.6c0.9,0,1.8-0.4,2.6-1.1
		V303z"/>
	<path d="M323,298.4h-5.5v6.2c0,1.5,0.9,2.4,2.3,2.4c1,0,1.9-0.2,3.2-0.9v3.4c-1.7,0.7-2.9,0.9-4.4,0.9c-3.1,0-5.9-1.4-5.9-5.7v-6.5
		h-2.2v-0.9l6.3-7.1h0.6v4.7h5.5V298.4z"/>
	<path d="M330.5,290.3c0,1.4-1.2,2.6-2.6,2.6c-1.4,0-2.6-1.2-2.6-2.6s1.2-2.6,2.6-2.6C329.4,287.7,330.5,288.9,330.5,290.3z
		 M330.3,310.3h-4.7v-15.1h4.7V310.3z"/>
	<path d="M342.1,310.6c-4.9,0-8.5-3.1-8.5-7.9c0-5.1,4.1-7.8,8.5-7.8c3.7,0,8.5,2.1,8.5,7.9C350.6,308.8,345.5,310.6,342.1,310.6z
		 M342.1,297.7c-2.1,0-3.5,1.6-3.5,5c0,3.9,1.7,5,3.5,5c2.2,0,3.4-1.8,3.4-5.1C345.5,299.7,344.5,297.7,342.1,297.7z"/>
	<path d="M358.5,297.4c1.5-1.7,3-2.5,4.9-2.5c2.4,0,5.5,1.3,5.5,5.8v9.6h-4.7v-9.2c0-2.1-1-3-2.4-3c-1.2,0-2.1,0.6-3.3,2.5v9.7h-4.7
		v-15.1h4.7V297.4z"/>
	<path d="M383.2,299.4c-2.1-1.3-4.1-1.7-5-1.7c-0.6,0-1.7,0.1-1.7,1.2c0,1.7,7.5,1.7,7.5,6.8c0,3.1-2.2,4.9-6.2,4.9
		c-2.4,0-4.7-0.8-5.4-1.1v-3.3c1.5,0.7,3.1,1.3,4.9,1.3c1.4,0,2.3-0.4,2.3-1.1c0-2.2-7.5-1.8-7.5-6.7c0-2.8,2.5-4.6,6.3-4.6
		c1.9,0,3.3,0.3,4.9,1.1V299.4z"/>
	<path d="M397.7,298.4h-5.5v6.2c0,1.5,0.9,2.4,2.3,2.4c1,0,1.9-0.2,3.2-0.9v3.4c-1.7,0.7-2.9,0.9-4.4,0.9c-3.1,0-5.9-1.4-5.9-5.7
		v-6.5h-2.2v-0.9l6.3-7.1h0.6v4.7h5.5V298.4z"/>
	<path d="M415.5,309.2c-1.3,0.8-3.2,1.4-4.5,1.4c-1.6,0-2.3-0.5-2.7-1.7c-1.8,1.2-3.3,1.7-5,1.7c-2.4,0-4.2-1.8-4.2-3.7
		c0-3.6,2.7-4.3,9-6.3c0.1-1.4-0.6-2.5-2.6-2.5c-1.9,0-4.1,1-5.6,2.5v-3.9c2-1.2,4.2-1.8,6.5-1.8c3.8,0,6.4,1.3,6.4,4.6v6.9
		c0,0.8,0.3,1,0.8,1c0.3,0,0.7-0.1,1.8-0.9V309.2z M408.2,303c-2.8,1-4.2,1.7-4.2,3.2c0,0.9,0.7,1.6,1.5,1.6c0.9,0,1.8-0.4,2.6-1.1
		V303z"/>
	<path d="M422.4,299.5L422.4,299.5c1.5-3.1,3-4.6,4.9-4.6c0.9,0,1.8,0.4,3.1,1.4l-1.3,4.2c-1.2-0.8-2.1-1.1-2.8-1.1
		c-1.7,0-2.8,1.6-3.9,4.4v6.5h-4.7v-15.1h4.7V299.5z"/>
	<path d="M461,288h4.8v22.3h-5.6v-13.9l-6,7h-0.9l-6-7v13.9h-5.6V288h4.8l7.2,8.3L461,288z"/>
	<path d="M478,310.6c-4.9,0-8.5-3.1-8.5-7.9c0-5.1,4.1-7.8,8.5-7.8c3.7,0,8.5,2.1,8.5,7.9C486.5,308.8,481.3,310.6,478,310.6z
		 M478,297.7c-2.1,0-3.5,1.6-3.5,5c0,3.9,1.7,5,3.5,5c2.2,0,3.4-1.8,3.4-5.1C481.4,299.7,480.4,297.7,478,297.7z"/>
	<path d="M494.5,299.5L494.5,299.5c1.5-3.1,3-4.6,4.9-4.6c0.9,0,1.8,0.4,3.1,1.4l-1.3,4.2c-1.2-0.8-2.1-1.1-2.8-1.1
		c-1.7,0-2.8,1.6-3.9,4.4v6.5h-4.7v-15.1h4.7V299.5z"/>
	<path d="M515.8,298.4h-5.5v6.2c0,1.5,0.9,2.4,2.3,2.4c1,0,1.9-0.2,3.2-0.9v3.4c-1.7,0.7-2.9,0.9-4.4,0.9c-3.1,0-5.9-1.4-5.9-5.7
		v-6.5h-2.2v-0.9l6.3-7.1h0.6v4.7h5.5V298.4z"/>
	<path d="M533.6,298.4h-2.2c0.5,0.9,0.8,1.6,0.8,2.5c0,1.3-0.6,2.5-1.4,3.3c-2.7,2.7-7.1,1.1-7.1,2.9c0,1.7,5.8,0.2,8.2,2.8
		c1,1,1.2,2.2,1.2,2.9c0,3.5-3.1,5.1-8,5.1c-6.3,0-8.1-2.4-8.1-4.4c0-1.3,0.7-2.9,4-3.8v-0.1c-1-0.3-1.8-0.9-1.8-2
		c0-1.6,1.9-2,2.7-2.2v-0.1c-1.9-0.3-4.2-1.9-4.2-4.6c0-1.9,1.3-5.5,6.7-5.5h9V298.4z M525.2,311.4c-2.2,0-3.6,0.7-3.6,1.8
		c0,1.1,1.4,1.8,3.9,1.8c2.1,0,3.4-0.9,3.4-1.9C528.9,312,527.5,311.4,525.2,311.4z M525.1,303.5c1.5,0,2.7-1.3,2.7-2.9
		c0-1.4-1.1-2.6-2.7-2.6c-1.6,0-2.8,1.2-2.8,2.7C522.3,302.2,523.6,303.5,525.1,303.5z"/>
	<path d="M551.4,309.2c-1.3,0.8-3.2,1.4-4.5,1.4c-1.6,0-2.3-0.5-2.7-1.7c-1.8,1.2-3.3,1.7-5,1.7c-2.4,0-4.2-1.8-4.2-3.7
		c0-3.6,2.7-4.3,9-6.3c0.1-1.4-0.6-2.5-2.6-2.5c-1.9,0-4.1,1-5.6,2.5v-3.9c2-1.2,4.2-1.8,6.5-1.8c3.8,0,6.4,1.3,6.4,4.6v6.9
		c0,0.8,0.3,1,0.8,1c0.3,0,0.7-0.1,1.8-0.9V309.2z M544.1,303c-2.8,1-4.2,1.7-4.2,3.2c0,0.9,0.7,1.6,1.5,1.6c0.9,0,1.8-0.4,2.6-1.1
		V303z"/>
	<path d="M568.3,298.4h-2.2c0.5,0.9,0.8,1.6,0.8,2.5c0,1.3-0.6,2.5-1.4,3.3c-2.7,2.7-7.1,1.1-7.1,2.9c0,1.7,5.8,0.2,8.2,2.8
		c1,1,1.2,2.2,1.2,2.9c0,3.5-3.1,5.1-8,5.1c-6.3,0-8.1-2.4-8.1-4.4c0-1.3,0.7-2.9,4-3.8v-0.1c-1-0.3-1.8-0.9-1.8-2
		c0-1.6,1.9-2,2.7-2.2v-0.1c-1.9-0.3-4.2-1.9-4.2-4.6c0-1.9,1.3-5.5,6.7-5.5h9V298.4z M559.8,311.4c-2.2,0-3.6,0.7-3.6,1.8
		c0,1.1,1.4,1.8,3.9,1.8c2.1,0,3.4-0.9,3.4-1.9C563.5,312,562.2,311.4,559.8,311.4z M559.7,303.5c1.5,0,2.7-1.3,2.7-2.9
		c0-1.4-1.1-2.6-2.7-2.6c-1.6,0-2.8,1.2-2.8,2.7C557,302.2,558.2,303.5,559.7,303.5z"/>
	<path d="M584.8,308.6c-2.7,2-5.6,2-6.7,2c-5.3,0-8.7-3.1-8.7-7.8c0-4.6,3.3-7.9,8-7.9c4.4,0,8,3.1,7.8,8.6h-10.8
		c0.2,2.7,2,4.3,5,4.3c1.9,0,3.4-0.6,5.6-2.2V308.6z M580.9,301c-0.2-2.1-1.4-3.3-3.3-3.3c-1.9,0-3.1,1.2-3.3,3.3H580.9z"/>
	<path d="M614.8,310.3h-17V288h5.6v18.2h11.5V310.3z"/>
	<path d="M634.9,310.3h-17V288h5.6v18.2h11.5V310.3z"/>
	<path d="M658.9,308.4c-3.1,1.6-5.5,2.2-8.8,2.2c-8.7,0-13-5.6-13-11.4c0-6,4.9-11.5,13.4-11.5c3.1,0,5.9,0.7,8.1,2v5
		c-2.5-1.4-4.9-2.3-7.7-2.3c-4.7,0-8.1,2.8-8.1,6.8c0,4,3.3,6.8,8,6.8c2.9,0,4.9-0.9,8.1-2.5V308.4z"/>
</g>
</svg>
