<?xml version="1.0" encoding="utf-8"?>
<!-- Generator: Adobe Illustrator 17.1.0, SVG Export Plug-In . SVG Version: 6.00 Build 0)  -->
<!DOCTYPE svg PUBLIC "-//W3C//DTD SVG 1.1//EN" "http://www.w3.org/Graphics/SVG/1.1/DTD/svg11.dtd">
<svg version="1.1" id="Layer_1" xmlns="http://www.w3.org/2000/svg" xmlns:xlink="http://www.w3.org/1999/xlink" x="0px" y="0px"
	 viewBox="0 0 691.5 259.5" enable-background="new 0 0 691.5 259.5" xml:space="preserve">
<path fill="#FFFFFF" d="M343.1,25.7c121.8,0,236.6,22.3,337.8,66.4C584.6,36.7,468.4,2.3,343.1,2.3S101.5,36.7,5.3,92.1
	C106.5,48,221.3,25.7,343.1,25.7"/>
<path fill="#FFFFFF" d="M45.9,195.9c-25.2,0-43.2-16.1-43.2-40.7c0-27.8,19.4-46.7,44.3-46.7c11,0,20.4,4.6,25.6,7.7l-0.7,11.2
	c-9-5.8-16-9.2-24.8-9.2c-20.5,0-34,15.8-34,36.9c0,14.6,10,30.9,31.6,30.9c7.3,0,13.6-1.6,21.3-5.4v-20.1H40.6v-9.1h35.7V187
	C71.2,190.5,59.2,195.9,45.9,195.9"/>
<path fill="#FFFFFF" d="M100.5,151.3c1.6,0.1,3.2,0.3,4.8,0.3c10.3,0,29.2-2.1,29.2-17.2c0-9.6-7.4-14.6-20.6-14.6h-13.4V151.3z
	 M90,193.4v-82.5h24.8c18.3,0,30,9.3,30,23.8c0,14.3-11.9,20.9-20.2,23l30.9,35.7h-13.5l-28.8-33.9c-2.3,0.1-4.5,0.3-6.7,0.3
	c-1.9,0-3.9-0.2-5.8-0.3v33.9H90z"/>
<polygon fill="#FFFFFF" points="163.5,193.4 163.5,110.9 211,110.9 211,120.5 174,120.5 174,145.7 206.1,145.7 206.1,155.1 
	174,155.1 174,183.7 211,183.7 211,193.4 "/>
<polygon fill="#FFFFFF" points="222.6,193.4 222.6,110.9 270.1,110.9 270.1,120.5 233.1,120.5 233.1,145.7 265.2,145.7 265.2,155.1 
	233.1,155.1 233.1,183.7 270.1,183.7 270.1,193.4 "/>
<polygon fill="#FFFFFF" points="282.1,193.4 282.1,106.6 341.8,172 341.8,110.9 352.2,110.9 352.2,198.4 292.5,133 292.5,193.4 "/>
<polygon fill="#FFFFFF" points="369.2,193.4 369.2,110.9 379.7,110.9 379.7,183.4 420,183.4 420,193.4 "/>
<rect x="429.7" y="110.9" fill="#FFFFFF" width="10.5" height="82.5"/>
<path fill="#FFFFFF" d="M495.7,195.9c-25.2,0-43.2-16.1-43.2-40.7c0-27.8,19.4-46.7,44.3-46.7c11,0,20.4,4.6,25.6,7.7l-0.7,11.2
	c-9-5.8-16-9.2-24.8-9.2c-20.5,0-34,15.8-34,36.9c0,14.6,10,30.9,31.6,30.9c7.3,0,13.6-1.6,21.3-5.4v-20.1h-25.3v-9.1h35.7V187
	C521,190.5,508.9,195.9,495.7,195.9"/>
<polygon fill="#FFFFFF" points="540,193.4 540,110.9 550.4,110.9 550.4,145.1 598.3,145.1 598.3,110.9 608.7,110.9 608.7,193.4 
	598.3,193.4 598.3,154.7 550.4,154.7 550.4,193.4 "/>
<polygon fill="#FFFFFF" points="618.3,110.9 689.4,110.9 689.4,120.3 659.1,120.3 659.1,193.4 648.6,193.4 648.6,120.3 618.4,120.3 
	"/>
<g>
	<path fill="#FFFFFF" d="M500.2,254.1v-32h5.2v27.3h16.1v4.7H500.2z"/>
	<path fill="#FFFFFF" d="M538.7,255c-9.5,0-16.6-7.5-16.6-17.1c0-8.6,7.2-16.8,16.6-16.8c10,0,16.6,6.9,16.6,16.8
		C555.3,247.5,548.7,255,538.7,255z M527.1,237.9c0,6.9,4.7,12.4,11.6,12.4c6.9,0,11.6-5.5,11.6-12.4c0-6.6-4-12.2-11.6-12.2
		C531.9,225.8,527.1,231.6,527.1,237.9z"/>
	<path fill="#FFFFFF" d="M554.9,254l17.5-34.3L590,254h-5.6l-3.9-7.5h-16l-3.8,7.5H554.9z M572.4,230.8l-5.7,11.2h11.4L572.4,230.8z
		"/>
	<path fill="#FFFFFF" d="M593.5,254.1v-34.3l24,24.6v-22.3h5.1v34.6L598.7,232v22H593.5z"/>
	<path fill="#FFFFFF" d="M637.3,254.9c-5,0-8.4-1.8-9.9-2.6l-0.3-5.4c3.1,1.7,6.7,3.5,10.3,3.5c4.2,0,6.8-2.2,6.8-4.6
		c-0.1-3.3-2.8-4.5-6.7-6.1c-4.6-1.8-9.8-4.3-9.8-10.6c0-4.6,4.3-8,10.4-8c4.2,0,7.2,1.3,8.7,2.3l-0.1,5.5c-2.9-1.7-5.4-3.3-8.4-3.3
		c-3.3,0-5.8,1.4-5.8,4c0,1.9,1.8,3.9,5.6,5.2c6.8,2.4,11,5.5,11,11.2C649.1,251.1,644.8,254.9,637.3,254.9z"/>
</g>
<g>
	<path fill="#FFFFFF" d="M39.5,253.7v-31.4L61.1,246v-22.1h3.8v31.6l-21.6-23.6v21.8H39.5z"/>
	<path fill="#FFFFFF" d="M69,253.7l6.4-31.4l11,24.6l10.9-24.6l6.5,31.4h-3.6l-4.2-20l-9.6,21.9l-10-21.9l-3.9,20H69z"/>
	<path fill="#FFFFFF" d="M108.6,253.7v-29.8h3.8v26.2h14.5v3.6H108.6z"/>
	<path fill="#FFFFFF" d="M138.7,254.6c-4.3,0-7.3-1.7-8.5-2.4l-0.3-4.1c2.6,1.6,5.7,3.1,8.9,3.1c3.6,0,6.4-1.9,6.4-5
		c0-2.9-2.5-4.6-6.4-6.1c-4-1.6-8.4-4-8.4-9.5c0-4.3,3.7-7.4,9-7.4c3.6,0,6,1.2,7.3,2v4.2c-2.5-1.6-4.7-2.9-7.3-2.9
		c-2.8,0-5.5,1.4-5.5,4.2c0,2.8,2.2,4.4,5.4,5.7c5.2,2,9.5,4.8,9.5,10C148.9,251,145.2,254.6,138.7,254.6z"/>
	<path fill="#FFFFFF" d="M163,254.6l2.8-9h-3.2l0.8-2.5h3.2l1.5-5h-3.2l0.8-2.5h3.2l2.8-9.1h2.7l-2.8,9.1h4.8l2.8-9.1h2.7l-2.8,9.1
		h3.3l-0.7,2.5h-3.3l-1.5,5h3.3l-0.7,2.5H176l-2.7,9h-2.7l2.7-9h-4.8l-2.8,9H163z M170.8,238.1l-1.6,5h4.8l1.6-5H170.8z"/>
</g>
<g>
	<path fill="#FFFFFF" d="M184,253.5c11.2-12.4,16.7-16.2,16.7-21.7c0-3.3-2.8-5.7-6.1-5.7c-4.3,0-6,3.7-6.9,5.7l-2.7-1.8
		c1.3-3.1,3.8-7.1,9.8-7.1c5.2,0,9.5,3.6,9.5,9.1c0,4.6-2.1,7.6-12.8,18.1h14.1l-0.4,3.5H184z"/>
	<path fill="#FFFFFF" d="M213.7,253.5v-26.9h-4.1l0.5-2.9h7.1v29.8H213.7z"/>
	<path fill="#FFFFFF" d="M228.4,253.5v-26.9h-4.1l0.5-2.9h7.1v29.8H228.4z"/>
	<path fill="#FFFFFF" d="M241.1,253.5c2.6-2.6,6.7-6.8,10-11.4c-1,0.2-2.1,0.3-3.1,0.3c-5.4,0-9.6-4.4-9.6-9.3
		c0-6.2,4.2-10.3,10.2-10.3c5.7,0,10,4.2,10,10.2c0,6.7-5.6,13.1-12.6,20.5H241.1z M242.1,232.4c0,3.6,2.6,6.5,6.5,6.5
		c3.6,0,6.4-2.4,6.4-6c0-3.7-2.4-6.8-6.5-6.8C244.9,226.1,242.1,228.9,242.1,232.4z"/>
</g>
</svg>
