<?xml version="1.0" encoding="iso-8859-1"?>
<!-- Generator: Adobe Illustrator 16.0.4, SVG Export Plug-In . SVG Version: 6.00 Build 0)  -->
<!DOCTYPE svg PUBLIC "-//W3C//DTD SVG 1.1//EN" "http://www.w3.org/Graphics/SVG/1.1/DTD/svg11.dtd">
<svg version="1.1" id="Layer_1" xmlns="http://www.w3.org/2000/svg" xmlns:xlink="http://www.w3.org/1999/xlink" x="0px" y="0px"
	 width="482.807px" height="171.709px" viewBox="0 0 482.807 171.709" style="enable-background:new 0 0 482.807 171.709;"
	 xml:space="preserve">
<g>
	<g>
		<g>
			<path d="M65.823,44.873h9.027c0.591,0,1.074-0.487,1.074-1.052c0-0.599-0.483-1.081-1.074-1.081h-9.027
				c-0.574,0-1.065,0.482-1.065,1.081C64.757,44.386,65.249,44.873,65.823,44.873z M70.335,123.993
				c-2.584,0-4.691,2.113-4.691,4.706c0,2.587,2.107,4.693,4.691,4.693c2.596,0,4.697-2.106,4.697-4.693
				C75.032,126.106,72.931,123.993,70.335,123.993z M47.302,119.969h46.075V51.824H47.302V119.969z M195.03,97.591
				c-2.183,0-4.155,0.72-5.938,2.169c-1.782,1.469-2.938,3.367-3.488,5.721c-0.269,1.1-0.404,1.996-0.404,2.709v6.638
				c0,2.902,0.872,5.354,2.66,7.351c1.773,1.979,4.088,2.982,6.927,2.982c3.327,0,5.943-1.276,7.798-3.854
				c1.858-2.569,2.78-5.958,2.78-10.181c0-3.871-0.863-7.076-2.616-9.584C200.827,98.928,198.26,97.591,195.03,97.591z
				 M356.614,97.042c-3.543,0-6.253,1.574-8.103,4.74c-1.604,2.607-2.388,5.788-2.388,9.555c0,3.666,0.784,6.795,2.388,9.408
				c1.896,3.16,4.577,4.734,8.039,4.734c3.368,0,6.031-1.595,7.933-4.834c1.654-2.646,2.477-5.817,2.477-9.464
				s-0.791-6.792-2.368-9.399C362.708,98.616,360.065,97.042,356.614,97.042z M238.837,97.591c-2.195,0-4.155,0.72-5.94,2.169
				c-1.776,1.469-2.944,3.367-3.494,5.721c-0.272,1.1-0.401,1.996-0.401,2.709v6.638c0,2.902,0.875,5.354,2.66,7.351
				c1.773,1.979,4.088,2.982,6.918,2.982c3.354,0,5.946-1.276,7.808-3.854c1.864-2.569,2.798-5.958,2.798-10.181
				c0-3.871-0.881-7.076-2.625-9.584C244.631,98.928,242.059,97.591,238.837,97.591z M147.301,83.333h-0.155
				c-0.556,2.35-1.419,5.816-2.634,10.416l-4.594,14.439h14.842l-4.656-14.439C149.601,92.265,148.662,88.792,147.301,83.333z
				 M423.797,96.608c-2.891,0-5.241,1.234-7.053,3.626c-1.475,1.907-2.358,4.208-2.625,6.874h18.454
				c0.047-2.616-0.515-4.875-1.715-6.801C429.32,97.858,426.963,96.608,423.797,96.608z M186.368,57.269
				c0.123-0.379,0.123-0.76,0.123-1.14v-2.822c-3.667-0.042-7.164,0.715-7.164,3.835c0,2.023,1.305,2.953,2.95,2.953
				C184.384,60.094,185.859,58.745,186.368,57.269z M138.03,44.367c-0.55-1.729-1.012-3.668-1.434-5.312h-0.088
				c-0.418,1.643-0.883,3.625-1.349,5.312l-2.189,7h7.292L138.03,44.367z M431.977,42.343c6.66,0,8.854,5.481,8.854,9.993
				c0,0.97-0.085,1.729-0.169,2.192h-13.746c0.126,3.709,2.994,5.312,6.324,5.312c2.402,0,4.091-0.377,5.691-0.928l0.759,3.544
				c-1.771,0.756-4.214,1.305-7.167,1.305c-6.66,0-10.582-4.088-10.582-10.37C421.942,47.697,425.398,42.343,431.977,42.343z
				 M349.688,42.807l0.251,3.078h0.129c0.925-1.604,3.161-3.542,6.575-3.542c3.585,0,7.296,2.317,7.296,8.811v12.185h-5.186V51.744
				c0-2.95-1.098-5.186-3.921-5.186c-2.066,0-3.5,1.476-4.051,3.036c-0.17,0.423-0.251,1.055-0.251,1.645v12.1h-5.186V48.921
				c0-2.363-0.085-4.343-0.17-6.114H349.688z M295.231,42.343c6.66,0,8.855,5.481,8.855,9.993c0,0.97-0.085,1.729-0.17,2.192
				h-13.745c0.126,3.709,2.994,5.312,6.324,5.312c2.402,0,4.088-0.377,5.691-0.928l0.758,3.544
				c-1.771,0.756-4.214,1.305-7.167,1.305c-6.66,0-10.581-4.088-10.581-10.37C285.197,47.697,288.653,42.343,295.231,42.343z
				 M273.977,33.406h5.183v29.934h-5.183V33.406z M232.85,46.01c-2.025,0-4.132,0.635-5.522,1.52l-1.013-3.374
				c1.516-0.928,4.173-1.812,7.418-1.812c6.578,0,8.478,4.174,8.478,8.684v7.38c0,1.855,0.082,3.668,0.334,4.932h-4.68l-0.377-2.275
				h-0.126c-1.223,1.601-3.374,2.741-6.072,2.741c-4.135,0-6.453-2.994-6.453-6.115c0-5.145,4.595-7.8,12.186-7.758v-0.338
				C237.023,48.247,236.473,46.01,232.85,46.01z M202.188,34.247c1.77,0,2.868,1.225,2.908,2.826c0,1.517-1.138,2.783-2.952,2.783
				c-1.729,0-2.865-1.266-2.865-2.783C199.279,35.472,200.458,34.247,202.188,34.247z M204.757,42.807v20.532h-5.183V42.807H204.757
				z M133.433,34.922h6.619l9.233,28.417h-5.607l-2.569-8.053h-8.984l-2.447,8.053h-5.355L133.433,34.922z M98.899,129.152
				c0,5.007-4.082,9.065-9.086,9.065H50.872c-5.01,0-9.092-4.059-9.092-9.065V42.618c0-5.005,4.082-9.076,9.092-9.076h38.941
				c5.004,0,9.086,4.071,9.086,9.076V129.152z M161.494,131.23l-5.162-16.228h-17.968l-4.928,16.228h-9.177l17.784-55.282h11.003
				l17.889,55.282H161.494z M163.507,63.339h-5.104l-7.632-20.532h5.61l3.327,10.415c0.591,1.813,1.013,3.458,1.393,5.145h0.129
				c0.377-1.687,0.843-3.292,1.39-5.145l3.289-10.415h5.44L163.507,63.339z M174.183,57.69c0-5.145,4.594-7.8,12.185-7.758v-0.338
				c0-1.348-0.55-3.585-4.176-3.585c-2.025,0-4.129,0.635-5.522,1.52l-1.013-3.374c1.516-0.928,4.173-1.812,7.421-1.812
				c6.575,0,8.475,4.174,8.475,8.684v7.38c0,1.855,0.082,3.668,0.337,4.932h-4.683l-0.377-2.275h-0.125
				c-1.224,1.601-3.375,2.741-6.072,2.741C176.5,63.805,174.183,60.811,174.183,57.69z M208.866,126.896
				c-3.292,3.485-7.398,5.235-12.285,5.235c-5.291,0-9.077-1.882-11.38-5.669v20.936h-8.852v-42.933
				c0-4.264-0.114-8.624-0.34-13.102h7.793l0.489,6.315h0.155c2.967-4.741,7.445-7.117,13.467-7.117
				c4.703,0,8.615,1.844,11.779,5.571c3.134,3.711,4.711,8.615,4.711,14.68C214.402,117.613,212.562,122.951,208.866,126.896z
				 M218.083,63.339h-5.183V33.406h5.183V63.339z M252.662,126.896c-3.301,3.485-7.39,5.235-12.288,5.235
				c-5.276,0-9.068-1.882-11.372-5.669v20.936h-8.861v-42.933c0-4.264-0.114-8.624-0.328-13.102h7.772l0.512,6.315h0.152
				c2.974-4.741,7.442-7.117,13.456-7.117c4.705,0,8.629,1.844,11.772,5.571c3.151,3.711,4.72,8.615,4.72,14.68
				C258.198,117.613,256.358,122.951,252.662,126.896z M258.746,63.805c-2.657,0-5.019-1.011-6.494-3.542h-0.085l-0.251,3.077
				h-4.428c0.085-1.391,0.17-3.667,0.17-5.776V33.406h5.183v12.225h0.084c1.265-1.981,3.5-3.288,6.579-3.288
				c5.019,0,8.601,4.174,8.56,10.413C268.063,60.137,263.383,63.805,258.746,63.805z M303.334,127.206
				c-3.62,3.23-8.633,4.835-15.065,4.835c-5.961,0-10.728-1.153-14.327-3.438l2.058-7.381c3.88,2.286,8.141,3.444,12.779,3.444
				c3.351,0,5.94-0.761,7.802-2.253c1.849-1.498,2.779-3.506,2.779-6.052c0-2.212-0.767-4.101-2.288-5.64
				c-1.545-1.529-4.067-2.94-7.626-4.264c-9.669-3.6-14.512-8.878-14.512-15.819c0-4.54,1.688-8.266,5.112-11.164
				c3.418-2.89,7.942-4.343,13.581-4.343c5.027,0,9.212,0.881,12.554,2.619l-2.235,7.219c-3.116-1.688-6.657-2.546-10.608-2.546
				c-3.122,0-5.571,0.793-7.333,2.287c-1.472,1.387-2.213,3.056-2.213,5.02c0,2.172,0.85,3.982,2.541,5.426
				c1.48,1.305,4.161,2.721,8.029,4.248c4.773,1.9,8.262,4.156,10.512,6.734c2.235,2.569,3.362,5.762,3.362,9.584
				C308.236,120.428,306.591,124.268,303.334,127.206z M334.561,98h-9.776v19.379c0,4.916,1.735,7.356,5.183,7.356
				c1.586,0,2.885-0.117,3.933-0.386l0.252,6.71c-1.753,0.655-4.044,0.986-6.889,0.986c-3.482,0-6.236-1.051-8.197-3.199
				c-1.986-2.121-2.967-5.709-2.967-10.739V98h-5.817v-6.637h5.817v-7.297l8.686-2.624v9.92h9.776V98z M329.566,63.805
				c-5.776,0-10.289-3.965-10.289-10.583c0-6.747,4.428-10.878,10.626-10.878c6.113,0,10.204,4.302,10.204,10.541
				C340.107,60.432,334.792,63.805,329.566,63.805z M370.904,126.077c-3.676,4.035-8.542,6.055-14.597,6.055
				c-5.861,0-10.538-1.938-14.006-5.821c-3.468-3.874-5.197-8.787-5.197-14.685c0-6.174,1.785-11.236,5.367-15.17
				c3.588-3.95,8.398-5.894,14.468-5.894c5.873,0,10.57,1.923,14.126,5.823c3.38,3.752,5.077,8.633,5.077,14.588
				C376.142,117.116,374.404,122.125,370.904,126.077z M380.057,42.807h2.909v-3.838l5.104-1.434v5.272H393v3.877h-4.931v9.066
				c0,2.531,0.673,3.795,2.654,3.795c0.928,0,1.434-0.044,2.024-0.21l0.085,3.92c-0.761,0.294-2.15,0.55-3.751,0.55
				c-1.94,0-3.503-0.634-4.472-1.688c-1.139-1.181-1.645-3.078-1.645-5.776v-9.657h-2.909V42.807z M402.795,99.154
				c-0.872-0.158-1.812-0.226-2.789-0.226c-3.116,0-5.517,1.177-7.217,3.521c-1.48,2.084-2.215,4.671-2.215,7.866v20.915h-8.858
				v-27.327c0-4.567-0.079-8.752-0.237-12.539h7.709l0.33,7.632h0.243c0.925-2.616,2.394-4.729,4.428-6.304
				c1.969-1.437,4.111-2.127,6.405-2.127c0.813,0,1.557,0.044,2.201,0.149V99.154z M404.138,51.027v12.312h-5.183V33.406h5.183
				V45.59h0.085c0.632-0.969,1.519-1.771,2.572-2.318c1.054-0.592,2.276-0.929,3.585-0.929c3.5,0,7.169,2.317,7.169,8.896v12.1
				h-5.188V51.788c0-2.951-1.098-5.229-3.963-5.229c-2.025,0-3.459,1.35-4.047,2.91C404.182,49.933,404.138,50.48,404.138,51.027z
				 M440.7,113.446h-26.58c0.105,3.934,1.391,6.93,3.86,9.005c2.235,1.864,5.13,2.795,8.688,2.795c3.944,0,7.518-0.627,10.745-1.902
				l1.396,6.16c-3.761,1.653-8.227,2.455-13.38,2.455c-6.166,0-11.021-1.809-14.547-5.443c-3.523-3.635-5.303-8.516-5.303-14.635
				c0-6.025,1.65-11.018,4.923-15.026c3.462-4.262,8.108-6.389,13.949-6.389c5.76,0,10.1,2.127,13.043,6.389
				c2.345,3.4,3.526,7.588,3.526,12.565C441.022,110.994,440.908,112.334,440.7,113.446z M257.607,46.39
				c-2.106,0-4.047,1.519-4.595,3.794c-0.088,0.38-0.172,0.843-0.172,1.351v3.33c0,0.421,0.043,0.844,0.129,1.225
				c0.547,2.105,2.361,3.625,4.594,3.625c3.248,0,5.229-2.572,5.229-6.744C262.792,49.343,261.063,46.39,257.607,46.39z
				 M294.936,45.885c-3.205,0-4.554,2.909-4.765,5.018h9.022C299.235,49.003,298.391,45.885,294.936,45.885z M329.777,46.095
				c-3.67,0-5.145,3.583-5.145,6.999c0,3.965,1.981,6.958,5.104,6.958c2.95,0,5.016-2.868,5.016-7.041
				C334.751,49.805,333.318,46.095,329.777,46.095z M229.982,57.142c0,2.023,1.309,2.953,2.95,2.953c2.11,0,3.584-1.349,4.091-2.825
				c0.126-0.379,0.126-0.76,0.126-1.14v-2.822C233.482,53.264,229.982,54.022,229.982,57.142z M431.681,45.885
				c-3.204,0-4.554,2.909-4.765,5.018h9.022C435.983,49.003,435.137,45.885,431.681,45.885z"/>
		</g>
	</g>
	<g>
		<path d="M459.66,171.709H23.145C10.383,171.709,0,161.338,0,148.591V23.146C0,10.383,10.383,0,23.145,0H459.66
			c12.765,0,23.147,10.383,23.147,23.146v125.445C482.807,161.338,472.424,171.709,459.66,171.709z M23.145,5.993
			c-9.458,0-17.151,7.695-17.151,17.153v125.445c0,9.443,7.693,17.125,17.151,17.125H459.66c9.458,0,17.154-7.682,17.154-17.125
			V23.146c0-9.458-7.696-17.153-17.154-17.153H23.145z"/>
	</g>
</g>
</svg>
