<?xml version="1.0" encoding="iso-8859-1"?>
<!-- Generator: Adobe Illustrator 16.0.4, SVG Export Plug-In . SVG Version: 6.00 Build 0)  -->
<!DOCTYPE svg PUBLIC "-//W3C//DTD SVG 1.1//EN" "http://www.w3.org/Graphics/SVG/1.1/DTD/svg11.dtd">
<svg version="1.1" id="Layer_1" xmlns="http://www.w3.org/2000/svg" xmlns:xlink="http://www.w3.org/1999/xlink" x="0px" y="0px"
	 width="126.271px" height="67.379px" viewBox="0 0 126.271 67.379" style="enable-background:new 0 0 126.271 67.379;"
	 xml:space="preserve">
<g>
	<path style="fill-rule:evenodd;clip-rule:evenodd;fill:#2DA9CD;" d="M33.501,0h92.77v67.379H33.5L10.867,40.056
		c-1.056,0.595-2.273,0.931-3.57,0.931C3.267,40.986,0,37.719,0,33.688c0-4.029,3.267-7.296,7.297-7.296
		c1.259,0,2.444,0.319,3.478,0.879L33.501,0L33.501,0z M7.277,28.343c-2.918,0-5.285,2.368-5.285,5.284
		c0,2.919,2.366,5.287,5.285,5.287c2.919,0,5.287-2.368,5.287-5.287C12.563,30.711,10.196,28.343,7.277,28.343z"/>
	<path style="fill:#2DA9CD;" d="M7.277,27.848c1.598,0,3.042,0.648,4.088,1.693c1.044,1.047,1.694,2.49,1.694,4.087
		c0,1.599-0.65,3.045-1.694,4.088c-1.046,1.045-2.49,1.695-4.088,1.695c-1.598,0-3.043-0.649-4.088-1.695
		c-1.045-1.043-1.694-2.489-1.694-4.088c0-1.595,0.648-3.04,1.694-4.087C4.234,28.496,5.681,27.848,7.277,27.848L7.277,27.848z
		 M10.663,30.241c-0.867-0.865-2.064-1.401-3.386-1.401c-1.322,0-2.521,0.536-3.387,1.401c-0.866,0.867-1.402,2.067-1.402,3.387
		c0,1.323,0.536,2.52,1.402,3.388c0.866,0.865,2.065,1.404,3.387,1.404c1.321,0,2.52-0.539,3.386-1.404
		c0.867-0.868,1.403-2.065,1.403-3.388C12.066,32.308,11.53,31.107,10.663,30.241z"/>
	<g>
		<path style="fill:#FFFFFF;" d="M79.47,26.915c-0.759-0.704-1.492-1.23-2.195-1.583c-0.704-0.352-1.507-0.528-2.405-0.528
			c-1.013,0-1.788,0.211-2.321,0.633c-0.536,0.423-0.803,1.113-0.803,2.069c0,0.675,0.274,1.245,0.823,1.71
			c0.548,0.463,1.236,0.906,2.067,1.33c0.832,0.42,1.723,0.858,2.682,1.308c0.956,0.45,1.851,0.998,2.679,1.645
			c0.832,0.647,1.521,1.43,2.07,2.343c0.547,0.914,0.823,2.045,0.823,3.4c0,2.024-0.548,3.76-1.647,5.212
			c-1.096,1.448-2.743,2.413-4.938,2.89v4.391H72.21v-4.222c-1.238-0.139-2.541-0.484-3.906-1.034
			c-1.362-0.55-2.539-1.272-3.523-2.175l2.701-4.179c1.069,0.816,2.091,1.429,3.062,1.84c0.968,0.405,1.963,0.609,2.973,0.609
			c1.184,0,2.049-0.24,2.599-0.719c0.549-0.479,0.819-1.208,0.819-2.193c0-0.732-0.271-1.351-0.819-1.857
			c-0.55-0.507-1.238-0.993-2.07-1.456c-0.83-0.464-1.723-0.929-2.679-1.393c-0.957-0.465-1.851-1.021-2.68-1.668
			c-0.831-0.646-1.521-1.407-2.069-2.281c-0.55-0.873-0.821-1.94-0.821-3.208c0-2.081,0.567-3.804,1.709-5.169
			c1.137-1.366,2.705-2.244,4.705-2.639v-4.348h4.094v4.264c1.354,0.197,2.533,0.606,3.547,1.223
			c1.011,0.621,1.927,1.366,2.744,2.238L79.47,26.915z"/>
	</g>
</g>
</svg>
