<?xml version="1.0" encoding="iso-8859-1"?>
<!-- Generator: Adobe Illustrator 16.0.4, SVG Export Plug-In . SVG Version: 6.00 Build 0)  -->
<!DOCTYPE svg PUBLIC "-//W3C//DTD SVG 1.1//EN" "http://www.w3.org/Graphics/SVG/1.1/DTD/svg11.dtd">
<svg version="1.1" id="Layer_1" xmlns="http://www.w3.org/2000/svg" xmlns:xlink="http://www.w3.org/1999/xlink" x="0px" y="0px"
	 width="612px" height="350px" viewBox="0 0 612 350" style="enable-background:new 0 0 612 350;" xml:space="preserve">
<path style="fill:#2CA9CD;" d="M612,207.189v55.625c0,13.876-11.25,25.125-25.126,25.125h-26.885
	c-4.857-33.333-33.585-58.961-68.259-58.961c-34.59,0-63.317,25.628-68.175,58.961H195.162
	c-4.857-33.333-33.585-58.961-68.175-58.961s-63.318,25.628-68.175,58.961H25.143c-13.876,0-25.126-11.25-25.126-25.125v-55.625H612
	z M173.067,72.959h-14.313l-5.259,27.154h13.945c9.292,0,16.996-6.363,16.996-17.004C184.436,76.632,180.159,72.959,173.067,72.959z
	 M543.891,297.906c0,28.727-23.367,52.094-52.094,52.094c-28.811,0-52.178-23.368-52.178-52.094
	c0-28.811,23.368-52.177,52.178-52.177C520.524,245.729,543.891,269.096,543.891,297.906z M517.845,297.906
	c0-14.405-11.726-26.046-26.047-26.046c-14.406,0-26.047,11.642-26.047,26.046c0,14.321,11.642,26.047,26.047,26.047
	C506.119,323.954,517.845,312.229,517.845,297.906z M179.063,297.906c0,28.727-23.283,52.094-52.094,52.094
	s-52.094-23.368-52.094-52.094c0-28.811,23.284-52.177,52.094-52.177S179.063,269.096,179.063,297.906z M153.017,297.906
	c0-14.405-11.642-26.046-26.046-26.046c-14.406,0-26.048,11.642-26.048,26.046c0,14.321,11.642,26.047,26.048,26.047
	C141.375,323.954,153.017,312.229,153.017,297.906z M611.982,193.3H0V25.125C0,11.223,11.307,0,25.126,0h379.736
	c13.903,0,25.125,11.223,25.125,25.125v18.677h49.833c8.793,0,17.253,3.518,23.534,9.715l98.745,97.655
	c6.282,6.281,9.883,14.824,9.883,23.785V193.3z M89.184,97.545l4.646-24.586h34.245l2.568-13.577H80.866l-16.881,86.836H79.64
	l6.854-35.104h28.863l2.568-13.569H89.184z M180.772,109.649v-0.246c13.086-4.278,19.81-17.118,19.81-28.986
	c0-8.923-4.4-15.655-11.745-18.836c-3.541-1.586-7.828-2.2-12.473-2.2h-30.696l-16.874,86.836h15.769l6.241-32.413h15.655
	l11.009,32.413h16.874l-11.614-32.168C181.623,110.877,180.772,109.649,180.772,109.649z M277.113,59.382h-51.854l-16.996,86.836
	h53.932l2.568-13.577h-38.155l4.523-23.359h29.231l2.691-13.577h-29.231l4.4-22.746h36.201L277.113,59.382z M347.174,59.382h-51.854
	l-16.996,86.836h53.932l2.568-13.577h-38.155l4.523-23.359h29.231l2.691-13.577h-29.231l4.4-22.746h36.201L347.174,59.382z
	 M561.731,147.654l-77.304-73.786c-0.754-0.669-1.758-1.089-2.764-1.089h-18.174c-2.178,0-3.937,1.759-3.937,3.937v73.786
	c0,2.178,1.759,3.936,3.937,3.936h95.562C562.568,154.438,564.328,150.084,561.731,147.654z"/>
</svg>
