<?xml version="1.0" encoding="iso-8859-1"?>
<!-- Generator: Adobe Illustrator 16.0.4, SVG Export Plug-In . SVG Version: 6.00 Build 0)  -->
<!DOCTYPE svg PUBLIC "-//W3C//DTD SVG 1.1//EN" "http://www.w3.org/Graphics/SVG/1.1/DTD/svg11.dtd">
<svg version="1.1" id="Layer_1" xmlns="http://www.w3.org/2000/svg" xmlns:xlink="http://www.w3.org/1999/xlink" x="0px" y="0px"
	 width="466.292px" height="155.895px" viewBox="0 0 466.292 155.895" style="enable-background:new 0 0 466.292 155.895;"
	 xml:space="preserve">
<path style="fill:none;stroke:#000000;stroke-width:5;stroke-miterlimit:10;" d="M463.792,133.001
	c0,11.261-9.128,20.394-20.388,20.394H22.892c-11.261,0-20.392-9.133-20.392-20.394V22.892C2.5,11.631,11.631,2.5,22.892,2.5
	h420.513c11.26,0,20.388,9.131,20.388,20.392V133.001z"/>
<g id="PLAY_1_">
	<defs>
		<path id="SVGID_1_" d="M102.468,68.92l-20.8-12.009c0,0-37.893-21.88-40.121-23.166c-2.228-1.286-4.447-0.507-4.447,2.181
			c0,4.478,0,46.717,0,46.717s0,45.648,0,47.665c0,2.015,1.587,2.883,3.522,1.767c1.935-1.119,41.046-23.701,41.046-23.701
			l20.799-12.008c0,0,17.647-10.188,19.994-11.542c2.346-1.355,2.12-3.214,0.141-4.279C120.622,79.478,102.468,68.92,102.468,68.92z
			"/>
	</defs>
	<clipPath id="SVGID_2_">
		<use xlink:href="#SVGID_1_"  style="overflow:visible;"/>
	</clipPath>
	<linearGradient id="SVGID_3_" gradientUnits="userSpaceOnUse" x1="62.8643" y1="31.5503" x2="62.8643" y2="133.7363">
		<stop  offset="0" style="stop-color:#2B7EAE"/>
		<stop  offset="0.1789" style="stop-color:#3E8EB1"/>
		<stop  offset="0.7321" style="stop-color:#75BCB9"/>
		<stop  offset="1" style="stop-color:#8BCEBC"/>
	</linearGradient>
	<polygon style="clip-path:url(#SVGID_2_);fill:url(#SVGID_3_);" points="37.1,31.55 37.1,82.643 37.1,133.736 88.628,82.644 	"/>
	<linearGradient id="SVGID_4_" gradientUnits="userSpaceOnUse" x1="37.1001" y1="56.9116" x2="102.4678" y2="56.9116">
		<stop  offset="0" style="stop-color:#56BFAC"/>
		<stop  offset="1" style="stop-color:#DEE79D"/>
	</linearGradient>
	<polygon style="clip-path:url(#SVGID_2_);fill:url(#SVGID_4_);" points="102.468,68.92 81.668,56.911 37.1,31.179 37.1,31.55 
		88.628,82.644 	"/>
	<linearGradient id="SVGID_5_" gradientUnits="userSpaceOnUse" x1="69.7837" y1="82.644" x2="69.7837" y2="134.1069">
		<stop  offset="0" style="stop-color:#E84243"/>
		<stop  offset="0.1789" style="stop-color:#D54454"/>
		<stop  offset="0.7321" style="stop-color:#9E4B86"/>
		<stop  offset="1" style="stop-color:#884D9A"/>
	</linearGradient>
	<polygon style="clip-path:url(#SVGID_2_);fill:url(#SVGID_5_);" points="37.1,133.736 37.1,134.107 81.668,108.374 102.467,96.366 
		88.628,82.644 	"/>
	<linearGradient id="SVGID_6_" gradientUnits="userSpaceOnUse" x1="107.4326" y1="68.9199" x2="107.4326" y2="96.3662">
		<stop  offset="0" style="stop-color:#F2877C"/>
		<stop  offset="0.6121" style="stop-color:#F9B07B"/>
		<stop  offset="1" style="stop-color:#FCC67A"/>
	</linearGradient>
	<polygon style="clip-path:url(#SVGID_2_);fill:url(#SVGID_6_);" points="102.468,68.92 88.628,82.644 102.467,96.366 
		126.238,82.643 	"/>
</g>
<path d="M361.5,102.618c-1.935,0-3.701-0.356-5.3-1.069c-1.6-0.715-2.942-1.812-4.028-3.294h-0.324
	c0.217,1.734,0.324,3.38,0.324,4.934v12.229h-4.498V72.358h3.659l0.623,4.067h0.216c1.158-1.627,2.506-2.802,4.042-3.525
	c1.536-0.723,3.3-1.085,5.286-1.085c3.941,0,6.983,1.348,9.125,4.041s3.214,6.472,3.214,11.333c0,4.881-1.09,8.672-3.266,11.377
	C368.392,101.268,365.37,102.618,361.5,102.618z M360.849,75.639c-3.037,0-5.232,0.841-6.588,2.521
	c-1.355,1.682-2.053,4.357-2.09,8.027v1.002c0,4.177,0.697,7.164,2.09,8.963c1.393,1.798,3.625,2.696,6.696,2.696
	c2.568,0,4.579-1.038,6.035-3.116c1.454-2.078,2.182-4.944,2.182-8.598c0-3.704-0.728-6.548-2.182-8.527
	C365.537,76.628,363.489,75.639,360.849,75.639z"/>
<path d="M384.259,102.076h-4.501v-42.19h4.501V102.076z"/>
<path d="M410.136,102.076l-0.896-4.23h-0.217c-1.482,1.864-2.96,3.125-4.434,3.783c-1.473,0.661-3.312,0.989-5.518,0.989
	c-2.945,0-5.255-0.759-6.928-2.277s-2.508-3.677-2.508-6.479c0-6,4.8-9.146,14.397-9.437l5.045-0.162v-1.844
	c0-2.332-0.502-4.055-1.507-5.165c-1.002-1.113-2.608-1.668-4.812-1.668c-2.479,0-5.28,0.759-8.406,2.278l-1.384-3.444
	c1.466-0.795,3.068-1.419,4.814-1.871c1.743-0.452,3.492-0.678,5.246-0.678c3.543,0,6.168,0.786,7.878,2.358
	c1.707,1.573,2.561,4.095,2.561,7.565v20.281H410.136z M399.969,98.904c2.8,0,5-0.768,6.602-2.304c1.599-1.536,2.4-3.688,2.4-6.455
	v-2.684l-4.504,0.188c-3.578,0.129-6.157,0.683-7.74,1.67c-1.581,0.984-2.372,2.518-2.372,4.596c0,1.626,0.491,2.865,1.478,3.713
	C396.818,98.48,398.195,98.904,399.969,98.904z"/>
<path d="M416.083,72.358h4.825l6.508,16.948c1.428,3.869,2.314,6.66,2.658,8.379h0.217c0.235-0.924,0.729-2.499,1.478-4.734
	c0.75-2.232,3.205-9.095,7.361-20.592h4.828l-12.772,33.839c-1.265,3.344-2.743,5.717-4.435,7.119c-1.689,1.4-3.765,2.1-6.221,2.1
	c-1.375,0-2.73-0.153-4.069-0.46v-3.605c0.993,0.216,2.106,0.325,3.336,0.325c3.092,0,5.296-1.734,6.616-5.207l1.653-4.229
	L416.083,72.358z"/>
<path d="M278.122,75.12c1.429,1.182,4.412,3.667,4.412,8.393c0,4.597-2.61,6.776-5.222,8.825c-0.809,0.807-1.74,1.681-1.74,3.049
	c0,1.364,0.932,2.111,1.617,2.672l2.239,1.736c2.734,2.301,5.218,4.415,5.218,8.706c0,5.842-5.656,11.746-16.346,11.746
	c-9.014,0-13.363-4.288-13.363-8.891c0-2.237,1.114-5.405,4.786-7.583c3.851-2.362,9.076-2.67,11.872-2.86
	c-0.873-1.118-1.866-2.299-1.866-4.223c0-1.056,0.312-1.678,0.622-2.428c-0.686,0.063-1.368,0.125-1.991,0.125
	c-6.586,0-10.316-4.91-10.316-9.757c0-2.859,1.308-6.031,3.977-8.329c3.544-2.921,7.771-3.42,11.13-3.42h12.802l-3.979,2.238
	H278.122z M273.708,102.719c-0.497-0.065-0.81-0.065-1.428-0.065c-0.56,0-3.92,0.127-6.528,1c-1.366,0.493-5.346,1.985-5.346,6.4
	c0,4.411,4.291,7.586,10.942,7.586c5.964,0,9.137-2.865,9.137-6.716C280.485,107.749,278.433,106.077,273.708,102.719z
	 M275.511,90.908c1.428-1.431,1.55-3.418,1.55-4.538c0-4.475-2.671-11.436-7.828-11.436c-1.618,0-3.356,0.807-4.353,2.052
	c-1.055,1.305-1.368,2.981-1.368,4.6c0,4.164,2.425,11.063,7.772,11.063C272.838,92.649,274.512,91.903,275.511,90.908z"/>
<path d="M238.991,101.724c-9.866,0-15.141-7.696-15.141-14.647c0-8.13,6.639-15.078,16.076-15.078
	c9.118,0,14.828,7.134,14.828,14.645C254.753,93.964,249.109,101.724,238.991,101.724z M246.747,96.699
	c1.492-1.988,1.864-4.469,1.864-6.891c0-5.463-2.606-15.887-10.302-15.887c-2.047,0-4.095,0.809-5.584,2.114
	c-2.42,2.169-2.857,4.9-2.857,7.572c0,6.14,3.042,16.252,10.553,16.252C242.839,99.859,245.322,98.682,246.747,96.699z"/>
<path d="M205.355,101.724c-9.868,0-15.143-7.696-15.143-14.647c0-8.13,6.642-15.078,16.075-15.078c9.121,0,14.83,7.134,14.83,14.645
	C221.117,93.964,215.471,101.724,205.355,101.724z M213.113,96.699c1.489-1.988,1.863-4.469,1.863-6.891
	c0-5.463-2.608-15.887-10.304-15.887c-2.046,0-4.096,0.809-5.584,2.114c-2.42,2.169-2.854,4.9-2.854,7.572
	c0,6.14,3.039,16.252,10.551,16.252C209.205,99.859,211.686,98.682,213.113,96.699z"/>
<path d="M185.472,100.751l-8.923,2.06c-3.62,0.562-6.864,1.058-10.293,1.058c-17.222,0-23.771-12.666-23.771-22.587
	c0-12.102,9.294-23.33,25.207-23.33c3.37,0,6.612,0.498,9.544,1.31c4.679,1.311,6.863,2.931,8.236,3.869l-5.18,4.928l-2.183,0.497
	l1.56-2.496c-2.121-2.058-5.992-5.862-13.351-5.862c-9.859,0-17.284,7.49-17.284,18.408c0,11.726,8.486,22.77,22.085,22.77
	c3.997,0,6.052-0.811,7.925-1.561V89.771l-9.419,0.498l4.989-2.686h13.228l-1.621,1.56c-0.44,0.376-0.5,0.502-0.625,0.997
	c-0.064,0.562-0.123,2.373-0.123,2.997V100.751z"/>
<path d="M297.841,98.956c-2.06-0.188-2.49-0.561-2.49-2.997v-0.687V60.646c0.012-0.135,0.021-0.272,0.033-0.402
	c0.252-2.183,0.875-2.557,2.812-3.682h-8.926l-4.681,2.247h4.77v0.028l-0.003-0.023v36.458v2.061c0,1.246-0.247,1.435-1.684,3.305
	h11.045l2.309-1.368C299.966,99.14,298.904,99.08,297.841,98.956z"/>
<path d="M323.229,99.529c-0.679,0.372-1.36,0.809-2.04,1.115c-2.049,0.93-4.154,1.178-6.016,1.178c-1.979,0-5.079-0.128-8.241-2.417
	c-4.396-3.101-6.317-8.429-6.317-13.075c0-9.603,7.808-14.311,14.189-14.311c2.23,0,4.525,0.557,6.385,1.736
	c3.095,2.041,3.901,4.705,4.332,6.131l-14.558,5.889l-4.771,0.372c1.547,7.868,6.875,12.45,12.764,12.45
	c3.159,0,5.453-1.113,7.559-2.165L323.229,99.529z M317.408,81.062c1.175-0.433,1.795-0.805,1.795-1.672
	c0-2.477-2.787-5.328-6.136-5.328c-2.48,0-7.125,1.922-7.125,8.611c0,1.054,0.124,2.169,0.188,3.287L317.408,81.062z"/>
<g>
	<path style="fill:#F9F9F9;" d="M329.21,72.442v4.088h-0.497v-4.088h-1.353v-0.424h3.201v0.424H329.21z"/>
	<path style="fill:#F9F9F9;" d="M334.784,76.531v-4.126h-0.023l-1.259,4.126h-0.389l-1.271-4.126h-0.016v4.126h-0.451v-4.512h0.773
		l1.149,3.647h0.016l1.132-3.647h0.784v4.512H334.784z"/>
</g>
<path d="M154.876,45.803h-3.1c0-0.426-0.294-1.634-0.882-3.623h-4.476c-0.607,1.957-0.911,3.164-0.911,3.623h-2.916
	c0-0.252,0.754-2.319,2.262-6.2c1.508-3.881,2.262-6.02,2.262-6.414h3.662c0,0.368,0.683,2.475,2.049,6.321
	C154.193,43.356,154.876,45.455,154.876,45.803z M150.4,40.33c-1.104-3.333-1.657-5.135-1.657-5.406h-0.155
	c0,0.252-0.572,2.054-1.715,5.406H150.4z"/>
<path d="M167.368,45.803h-2.393c0-0.265-0.888-1.663-2.665-4.195c-1.86-2.668-2.919-4.492-3.178-5.474h-0.155
	c0.161,1.414,0.242,2.693,0.242,3.836c0,1.595,0.045,3.54,0.136,5.832h-2.383c0.097-2.002,0.145-4.201,0.145-6.598
	c0-2.357-0.048-4.363-0.145-6.016h2.877c0,0.342,0.797,1.708,2.393,4.098c1.699,2.538,2.674,4.259,2.926,5.164h0.146
	c-0.155-1.44-0.232-2.732-0.232-3.875c0-1.75-0.045-3.546-0.136-5.387h2.422c-0.09,1.602-0.135,3.607-0.135,6.016
	C167.233,41.634,167.278,43.833,167.368,45.803z"/>
<path d="M181.411,39.061c0,1.834-0.588,3.436-1.764,4.805s-2.823,2.054-4.941,2.054c-0.956,0-2.273-0.039-3.953-0.116
	c0.084-1.951,0.126-4.15,0.126-6.598c0-2.351-0.042-4.356-0.126-6.016h1.695c0.278,0,0.691-0.01,1.24-0.029
	c0.549-0.019,0.907-0.029,1.075-0.029c2.332,0,4.022,0.581,5.072,1.744S181.411,37.433,181.411,39.061z M178.766,39.477
	c0-1.24-0.362-2.285-1.085-3.135c-0.724-0.849-1.828-1.273-3.313-1.273c-0.278,0-0.659,0.029-1.143,0.087
	c0.064,1.292,0.097,2.641,0.097,4.049c0,1.544,0.032,3.075,0.097,4.592c0.42,0.083,0.84,0.126,1.26,0.126
	c1.389,0,2.417-0.432,3.085-1.294S178.766,40.717,178.766,39.477z"/>
<path d="M194.358,45.803h-2.868c-0.75-2.286-1.324-3.697-1.725-4.233c-0.401-0.537-1.046-0.804-1.938-0.804
	c-0.375,0-0.733,0.003-1.076,0.01c0,1.66,0.029,3.336,0.087,5.028h-2.693c0.083-1.951,0.126-4.15,0.126-6.598
	c0-2.351-0.042-4.356-0.126-6.016h1.676c0.194,0,0.599-0.01,1.216-0.029c0.617-0.019,1.187-0.029,1.71-0.029
	c2.965,0,4.447,1.014,4.447,3.042c0,1.608-0.847,2.729-2.539,3.362v0.145c0.652,0.181,1.224,0.69,1.715,1.526
	C192.863,42.042,193.525,43.575,194.358,45.803z M190.725,36.89c0-1.285-0.827-1.928-2.48-1.928c-0.607,0-1.144,0.045-1.608,0.136
	c0.071,1.001,0.106,2.306,0.106,3.914c0.355,0.014,0.655,0.02,0.901,0.02C189.698,39.031,190.725,38.318,190.725,36.89z"/>
<path d="M208.246,39.264c0,1.983-0.607,3.627-1.821,4.932c-1.214,1.304-2.716,1.957-4.505,1.957c-1.705,0-3.133-0.599-4.282-1.797
	c-1.15-1.198-1.725-2.721-1.725-4.567c0-1.983,0.607-3.627,1.821-4.931c1.214-1.305,2.716-1.957,4.505-1.957
	c1.705,0,3.132,0.597,4.282,1.792C207.67,35.886,208.246,37.41,208.246,39.264z M205.572,39.545c0-1.35-0.346-2.445-1.037-3.284
	c-0.691-0.839-1.544-1.26-2.558-1.26c-0.943,0-1.744,0.423-2.403,1.269c-0.659,0.847-0.988,1.915-0.988,3.207
	c0,1.343,0.347,2.436,1.042,3.279s1.545,1.265,2.553,1.265c0.942,0,1.744-0.424,2.402-1.274
	C205.242,41.897,205.572,40.83,205.572,39.545z"/>
<path d="M213.724,45.803h-2.742c0.083-2.002,0.126-4.201,0.126-6.598c0-2.357-0.042-4.363-0.126-6.016h2.742
	c-0.084,1.627-0.126,3.633-0.126,6.016C213.598,41.641,213.639,43.84,213.724,45.803z"/>
<path d="M227.766,39.061c0,1.834-0.588,3.436-1.763,4.805c-1.176,1.37-2.823,2.054-4.941,2.054c-0.956,0-2.274-0.039-3.953-0.116
	c0.084-1.951,0.126-4.15,0.126-6.598c0-2.351-0.042-4.356-0.126-6.016h1.696c0.277,0,0.691-0.01,1.24-0.029
	c0.549-0.019,0.907-0.029,1.076-0.029c2.331,0,4.022,0.581,5.072,1.744C227.241,36.038,227.766,37.433,227.766,39.061z
	 M225.121,39.477c0-1.24-0.362-2.285-1.085-3.135c-0.724-0.849-1.828-1.273-3.313-1.273c-0.278,0-0.659,0.029-1.143,0.087
	c0.064,1.292,0.097,2.641,0.097,4.049c0,1.544,0.032,3.075,0.097,4.592c0.419,0.083,0.839,0.126,1.259,0.126
	c1.389,0,2.417-0.432,3.086-1.294C224.787,41.768,225.121,40.717,225.121,39.477z"/>
<path d="M246.395,45.803h-3.101c0-0.426-0.294-1.634-0.882-3.623h-4.477c-0.606,1.957-0.91,3.164-0.91,3.623h-2.916
	c0-0.252,0.754-2.319,2.262-6.2s2.262-6.02,2.262-6.414h3.662c0,0.368,0.684,2.475,2.049,6.321
	C245.711,43.356,246.395,45.455,246.395,45.803z M241.919,40.33c-1.104-3.333-1.658-5.135-1.658-5.406h-0.154
	c0,0.252-0.571,2.054-1.715,5.406H241.919z"/>
<path d="M257.696,36.493c0,1.544-0.573,2.684-1.72,3.42s-2.553,1.104-4.219,1.104c-0.305,0-0.52-0.006-0.649-0.02
	c0,1.214,0.035,2.816,0.106,4.805h-2.723c0.084-1.866,0.126-4.065,0.126-6.598c0-2.325-0.042-4.331-0.126-6.016h1.687
	c0.238,0,0.697-0.01,1.375-0.029c0.679-0.019,1.266-0.029,1.764-0.029c1.227,0,2.264,0.277,3.109,0.833
	C257.273,34.52,257.696,35.363,257.696,36.493z M255.196,37.026c0-1.382-0.916-2.073-2.751-2.073c-0.459,0-0.943,0.048-1.453,0.146
	c0.071,1.221,0.106,2.603,0.106,4.146c0.161,0.013,0.349,0.019,0.562,0.019C254.018,39.264,255.196,38.518,255.196,37.026z"/>
<path d="M269.315,36.493c0,1.544-0.573,2.684-1.719,3.42c-1.146,0.736-2.554,1.104-4.22,1.104c-0.304,0-0.52-0.006-0.649-0.02
	c0,1.214,0.035,2.816,0.106,4.805h-2.722c0.083-1.866,0.126-4.065,0.126-6.598c0-2.325-0.043-4.331-0.126-6.016h1.686
	c0.238,0,0.697-0.01,1.376-0.029c0.678-0.019,1.266-0.029,1.763-0.029c1.228,0,2.264,0.277,3.11,0.833
	S269.315,35.363,269.315,36.493z M266.816,37.026c0-1.382-0.917-2.073-2.752-2.073c-0.458,0-0.942,0.048-1.453,0.146
	c0.071,1.221,0.106,2.603,0.106,4.146c0.161,0.013,0.35,0.019,0.562,0.019C265.637,39.264,266.816,38.518,266.816,37.026z"/>
<path d="M288.313,39.264c0,1.983-0.606,3.627-1.821,4.932c-1.215,1.304-2.717,1.957-4.505,1.957c-1.705,0-3.133-0.599-4.282-1.797
	c-1.149-1.198-1.725-2.721-1.725-4.567c0-1.983,0.606-3.627,1.821-4.931c1.215-1.305,2.716-1.957,4.505-1.957
	c1.705,0,3.133,0.597,4.282,1.792C287.738,35.886,288.313,37.41,288.313,39.264z M285.639,39.545c0-1.35-0.346-2.445-1.037-3.284
	c-0.691-0.839-1.544-1.26-2.558-1.26c-0.943,0-1.743,0.423-2.402,1.269c-0.659,0.847-0.988,1.915-0.988,3.207
	c0,1.343,0.347,2.436,1.042,3.279c0.694,0.843,1.545,1.265,2.553,1.265c0.943,0,1.743-0.424,2.402-1.274
	C285.31,41.897,285.639,40.83,285.639,39.545z"/>
<path d="M301.445,45.803h-2.393c0-0.265-0.889-1.663-2.665-4.195c-1.859-2.668-2.919-4.492-3.178-5.474h-0.154
	c0.161,1.414,0.242,2.693,0.242,3.836c0,1.595,0.045,3.54,0.136,5.832h-2.384c0.097-2.002,0.146-4.201,0.146-6.598
	c0-2.357-0.049-4.363-0.146-6.016h2.878c0,0.342,0.798,1.708,2.393,4.098c1.699,2.538,2.674,4.259,2.926,5.164h0.146
	c-0.155-1.44-0.232-2.732-0.232-3.875c0-1.75-0.045-3.546-0.136-5.387h2.422c-0.091,1.602-0.136,3.607-0.136,6.016
	C301.309,41.634,301.354,43.833,301.445,45.803z"/>
</svg>
