<?xml version="1.0" encoding="iso-8859-1"?>
<!-- Generator: Adobe Illustrator 16.0.4, SVG Export Plug-In . SVG Version: 6.00 Build 0)  -->
<!DOCTYPE svg PUBLIC "-//W3C//DTD SVG 1.1//EN" "http://www.w3.org/Graphics/SVG/1.1/DTD/svg11.dtd">
<svg version="1.1" id="Layer_1" xmlns="http://www.w3.org/2000/svg" xmlns:xlink="http://www.w3.org/1999/xlink" x="0px" y="0px"
	 width="86px" height="21px" viewBox="0 0 86 21" style="enable-background:new 0 0 86 21;" xml:space="preserve">
<g>
	<g>
		<path style="fill:#FFFFFF;" d="M5.9,19.7v0.9H4.8v-1h-2v-1.3h2v-1.7h1.1v1.7H9c1.4,0,1.6-1,1.6-1.5c0-0.2,0-0.3,0-0.3h1.2
			c0,0,0,0.2,0,0.5c0,0.9-0.3,2.7-2.6,2.7H5.9z"/>
		<path style="fill:#FFFFFF;" d="M5.9,20.6H4.8v-1h-2v-1.4h2v-1.7h1.1v1.7H9c1.4,0,1.6-0.9,1.6-1.5c0-0.2,0-0.3,0-0.3l0,0h1.2l0,0
			c0,0,0,0.2,0,0.5c0,0.5-0.1,1.1-0.4,1.7c-0.4,0.7-1.2,1-2.2,1H5.9V20.6z M4.8,20.6h1v-0.9h3.3c2.3,0,2.6-1.7,2.6-2.7
			c0-0.2,0-0.4,0-0.4h-1.1c0,0,0,0.2,0,0.3c0,0.6-0.2,1.5-1.6,1.5H5.9v-1.7h-1v1.7h-2v1.3h2V20.6z"/>
	</g>
	<g>
		<path style="fill:#FFFFFF;" d="M1.9,15v-1.3h3.6c0.3,0,0.6,0,0.6,0v0c-0.7-0.3-1.6-1.2-1.6-2.6c0-1.7,0.9-2.4,2.7-2.4h4.5V10H7.5
			c-1,0-1.8,0.2-1.8,1.3c0,1.1,0.7,1.9,1.7,2.2c0.3,0.1,0.6,0.1,0.9,0.1h3.3V15H1.9z"/>
		<path style="fill:#FFFFFF;" d="M11.7,15H1.9v-1.4h3.6c0.2,0,0.4,0,0.5,0c-0.6-0.3-1.5-1.1-1.5-2.6c0-1.6,0.9-2.4,2.7-2.4h4.5V10
			H7.5c-0.9,0-1.7,0.2-1.7,1.3c0,1,0.7,1.9,1.7,2.2c0.2,0.1,0.5,0.1,0.9,0.1h3.3V15z M1.9,15h9.7v-1.3H8.4c-0.4,0-0.7,0-0.9-0.1
			c-1-0.3-1.8-1.2-1.8-2.2c0-1.2,0.9-1.4,1.8-1.4h4.2V8.7H7.2c-1.8,0-2.7,0.8-2.7,2.4c0,1.5,1,2.3,1.6,2.6l0,0v0.1l0,0
			c0,0-0.3,0-0.6,0H1.9V15z"/>
	</g>
	<g>
		<path style="fill:#FFFFFF;" d="M4.5,3.6c0-2,1.5-3,3.3-3c0.2,0,0.6,0,0.6,0v5.1c1.5-0.1,2.3-1.2,2.3-2.4c0-1.2-0.8-2.1-0.8-2.1
			l1-0.6c0,0,1,1,1,2.7c0,2.2-1.6,3.7-3.7,3.7C6,7.1,4.5,5.6,4.5,3.6z M7.4,1.9C6.2,2,5.6,2.7,5.6,3.6c0,1,0.6,1.9,1.8,2.1V1.9z"/>
		<path style="fill:#FFFFFF;" d="M8.2,7.1C6,7.1,4.5,5.7,4.5,3.6c0-0.9,0.3-1.7,1-2.3c0.6-0.5,1.4-0.8,2.3-0.8c0.2,0,0.6,0,0.6,0
			l0,0v5.1c1.4-0.1,2.3-1,2.3-2.4c0-1.2-0.8-2.1-0.8-2.1l0,0l1-0.6l0,0c0,0,1,1.1,1,2.7C11.9,5.6,10.4,7.1,8.2,7.1z M7.8,0.6
			c-0.9,0-1.7,0.3-2.3,0.8c-0.6,0.5-1,1.3-1,2.2c0,2.1,1.5,3.5,3.7,3.5c2.1,0,3.7-1.6,3.7-3.7c0-1.5-0.9-2.6-1-2.7L9.9,1.2
			c0.1,0.1,0.8,1,0.8,2.1c0,0.6-0.2,1.2-0.6,1.7c-0.4,0.5-1,0.7-1.8,0.8l0,0V0.6C8.3,0.6,8,0.6,7.8,0.6z M7.4,5.7L7.4,5.7
			c-1.1-0.2-1.8-1-1.8-2.1c0-0.8,0.5-1.7,1.8-1.7l0,0V5.7z M7.4,2C6.1,2,5.6,2.9,5.6,3.6c0,1.1,0.7,1.8,1.7,2V2z"/>
	</g>
	<path style="fill:#FFD428;" d="M21.5,5.7c3.3,0,4.4,2.2,4.4,2.2H26c0,0-0.1-0.4-0.1-1V0.4h2.8v19.7h-2.6v-1.3c0-0.6,0-1,0-1h-0.1
		c0,0-1.2,2.6-4.7,2.6c-3.9,0-6.3-3-6.3-7.4C15,8.6,17.7,5.7,21.5,5.7z M21.9,18.1c2.1,0,4.2-1.5,4.2-5.1c0-2.5-1.3-5-4.1-5
		c-2.3,0-4.2,1.8-4.2,5.1C17.8,16.2,19.5,18.1,21.9,18.1z"/>
	<path style="fill:#FFD428;" d="M31.5,0.4h2.8v7.4c0,0.7-0.1,1.2-0.1,1.2h0.1c0.6-1.4,2.4-3.2,5.3-3.2c3.4,0,5,1.9,5,5.5v9.2h-2.8
		v-8.6c0-2-0.4-3.6-2.7-3.6c-2.2,0-4,1.5-4.6,3.6c-0.2,0.6-0.2,1.2-0.2,1.9v6.7h-2.8V0.4z"/>
	<path style="fill:#FFD428;" d="M64.6,0.4h2.8v6.5c0,0.7-0.1,1.2-0.1,1.2h0.1c0,0,1.2-2.4,4.6-2.4c3.9,0,6.3,3,6.3,7.4
		c0,4.5-2.8,7.4-6.5,7.4c-3.2,0-4.5-2.4-4.5-2.4h-0.1c0,0,0.1,0.4,0.1,1.1v1h-2.6V0.4z M71.3,18.2c2.3,0,4.2-1.8,4.2-5.1
		c0-3.1-1.7-5.1-4.1-5.1c-2.2,0-4.2,1.5-4.2,5.1C67.2,15.7,68.6,18.2,71.3,18.2z"/>
	<g>
		<path style="fill:#FFD428;" d="M81.2,5.7H84v14.4h-2.8V5.7z"/>
		<circle style="fill:#FFD428;" cx="82.6" cy="1.7" r="1.5"/>
	</g>
	<g>
		<path style="fill:#FFFFFF;" d="M54.5,20.1c-4.1,0-7.4-3.3-7.4-7.4c0-4.1,3.3-7.4,7.4-7.4s7.4,3.3,7.4,7.4
			C61.9,16.7,58.6,20.1,54.5,20.1z M54.5,6.6c-3.3,0-6.1,2.7-6.1,6.1c0,3.3,2.7,6.1,6.1,6.1s6.1-2.7,6.1-6.1
			C60.6,9.3,57.9,6.6,54.5,6.6z"/>
	</g>
	<path style="fill:none;" d="M54.5,9.6c1.4,0,2.7,0,4.1,0c0,0,0.1,0,0.1,0.1c0,1.8,0,3.6,0,5.5c0,0,0,0.1-0.1,0.1
		c-2.7,0-5.5,0-8.2,0c0,0-0.1,0-0.1,0c0,0,0.1,0,0.1,0c0.1-0.1,0.2-0.2,0.4-0.3c0.3-0.2,0.6-0.3,1-0.5c0.8-0.5,1.6-0.9,2.4-1.4
		c0.2-0.1,0.5-0.1,0.7,0c0.4,0.2,0.7,0.4,1.1,0.6c0.6,0.4,1.3,0.7,1.9,1.1c0.2,0.1,0.5,0.2,0.7,0.4c0,0,0.1,0,0.1,0
		c0-0.2,0-0.5-0.2-0.7c-0.2-0.2-0.3-0.3-0.6-0.4c-0.5-0.2-0.9-0.4-1.3-0.7c-0.4-0.3-0.8-0.5-1-1c-0.2-0.3-0.5-0.5-0.9-0.6
		c0,0,0,0,0,0c0-0.1,0-0.1,0-0.2c0-0.1,0.1-0.2,0.2-0.3c0.1-0.1,0.2-0.3,0.3-0.5c0.1-0.3,0.1-0.7-0.2-0.9
		C54.9,9.7,54.7,9.6,54.5,9.6z M54.4,14.8c-0.9,0-1.9,0-2.8,0c-0.2,0-0.2,0-0.2,0.2c0,0.1,0,0.1,0.1,0.1c1.9,0,3.9,0,5.8,0
		c0,0,0,0,0.1,0c0,0,0.1,0,0.1-0.1c0-0.1,0-0.1,0-0.2c0-0.1,0-0.1-0.1-0.1C56.3,14.8,55.3,14.8,54.4,14.8z"/>
	<path style="fill-rule:evenodd;clip-rule:evenodd;fill:none;" d="M50.3,14.8c0-1.7,0-3.5,0-5.2c0,0,0-0.1,0.1-0.1
		c1.3,0,2.5,0,3.8,0c0,0-0.1,0-0.1,0c-0.5,0.1-0.7,0.5-0.7,0.9c0,0.1,0,0.1,0.1,0.1c0.1,0,0.2,0,0.3,0c0.1,0,0.1,0,0.1-0.1
		c0-0.1,0-0.2,0.1-0.3c0.1-0.2,0.3-0.3,0.5-0.3c0.2,0,0.4,0.1,0.5,0.3c0.1,0.2,0,0.3-0.1,0.5c-0.1,0.1-0.2,0.2-0.3,0.4
		c-0.1,0.2-0.2,0.4-0.2,0.6c0,0,0,0.1,0,0.1c-0.1,0-0.2,0.1-0.2,0.1c-0.2,0.1-0.4,0.3-0.6,0.5c-0.1,0.2-0.3,0.4-0.5,0.5
		c-0.5,0.4-1,0.7-1.5,0.9c-0.2,0.1-0.3,0.2-0.5,0.2C50.6,14.3,50.4,14.5,50.3,14.8z"/>
	<g>
		<path style="fill-rule:evenodd;clip-rule:evenodd;fill:#FFFFFF;" d="M50.3,14.8c0.1-0.3,0.3-0.5,0.6-0.7c0.2-0.1,0.3-0.2,0.5-0.2
			c0.5-0.3,1.1-0.6,1.5-0.9c0.2-0.2,0.3-0.3,0.5-0.5c0.2-0.2,0.3-0.4,0.6-0.5c0.1,0,0.2-0.1,0.2-0.1c0,0,0,0,0-0.1
			c0-0.2,0-0.4,0.2-0.6c0.1-0.1,0.2-0.2,0.3-0.4c0.1-0.1,0.2-0.3,0.1-0.5c-0.1-0.2-0.3-0.3-0.5-0.3c-0.3,0-0.5,0.1-0.5,0.3
			c0,0.1-0.1,0.2-0.1,0.3c0,0.1,0,0.1-0.1,0.1c-0.1,0-0.2,0-0.3,0c-0.1,0-0.1,0-0.1-0.1c0-0.4,0.2-0.8,0.7-0.9c0,0,0.1,0,0.1,0
			c0.1,0,0.2,0,0.3,0c0.2,0,0.3,0.1,0.5,0.2c0.3,0.2,0.3,0.6,0.2,0.9c-0.1,0.2-0.2,0.3-0.3,0.5c-0.1,0.1-0.2,0.2-0.2,0.3
			c0,0.1,0,0.1,0,0.2c0,0,0,0,0,0c0.4,0.1,0.7,0.3,0.9,0.6c0.3,0.4,0.6,0.7,1,1c0.4,0.3,0.9,0.5,1.3,0.7c0.2,0.1,0.4,0.2,0.6,0.4
			c0.2,0.2,0.2,0.4,0.2,0.7c0,0.1,0,0.1-0.1,0c-0.2-0.2-0.4-0.3-0.7-0.4c-0.7-0.3-1.3-0.7-1.9-1.1c-0.4-0.2-0.7-0.4-1.1-0.6
			c-0.2-0.1-0.5-0.1-0.7,0c-0.8,0.5-1.6,0.9-2.4,1.4c-0.3,0.2-0.6,0.3-1,0.5c-0.1,0.1-0.3,0.2-0.4,0.3c0,0-0.1,0-0.1,0
			C50.3,15,50.3,14.9,50.3,14.8z"/>
		<path style="fill-rule:evenodd;clip-rule:evenodd;fill:#FFFFFF;" d="M54.4,14.8c1,0,1.9,0,2.9,0c0.1,0,0.1,0,0.1,0.1
			c0,0.1,0,0.1,0,0.2c0,0,0,0.1-0.1,0.1c0,0,0,0-0.1,0c-1.9,0-3.9,0-5.8,0c-0.1,0-0.1,0-0.1-0.1c0-0.2,0-0.2,0.2-0.2
			C52.5,14.8,53.4,14.8,54.4,14.8z"/>
	</g>
</g>
</svg>
