<?xml version="1.0" standalone="no"?>
<!DOCTYPE svg PUBLIC "-//W3C//DTD SVG 1.1//EN" "http://www.w3.org/Graphics/SVG/1.1/DTD/svg11.dtd" >
<svg xmlns="http://www.w3.org/2000/svg">
<metadata></metadata>
<defs>
<font id="conqueror_sansthin" horiz-adv-x="1024" >
<font-face units-per-em="2048" ascent="1536" descent="-512" />
<missing-glyph horiz-adv-x="563" />
<glyph unicode="&#xfb01;" horiz-adv-x="786" d="M41 891v76h123v192q0 96 42.5 167t106.5 104.5t138 33.5q121 0 180.5 -55t62.5 -141q0 -27 -20 -47.5t-49 -20.5q-27 0 -47.5 20.5t-20.5 47.5q0 25 15 44t38 23q-24 34 -69.5 52t-87.5 18q-75 0 -144 -54.5t-69 -136.5v-247h426v-967h-76v891h-350v-891h-76v891h-123z " />
<glyph unicode="&#xfb02;" horiz-adv-x="788" d="M41 891v76h123v192q0 158 74 231.5t192 73.5q99 0 236 -30v-1434h-76v891h-350v-891h-76v891h-123zM240 967h350v403q-94 23 -158 23q-74 0 -133 -49.5t-59 -131.5v-245z" />
<glyph horiz-adv-x="0" />
<glyph horiz-adv-x="682" />
<glyph unicode=" "  horiz-adv-x="563" />
<glyph unicode="&#x09;" horiz-adv-x="563" />
<glyph unicode="&#xa0;" horiz-adv-x="563" />
<glyph unicode="!" horiz-adv-x="378" d="M102 76q0 35 26.5 61.5t61.5 26.5t60.5 -26.5t25.5 -61.5t-25.5 -60.5t-60.5 -25.5t-61.5 25.5t-26.5 60.5zM119 1434h143l-49 -1117h-41z" />
<glyph unicode="&#x22;" horiz-adv-x="804" d="M115 1036l149 353q28 69 80 69q28 0 50 -17t22 -52q0 -34 -25 -66l-254 -301zM401 1036l150 353q28 69 80 69q28 0 49.5 -17t21.5 -52t-24 -66l-254 -301z" />
<glyph unicode="#" horiz-adv-x="1388" d="M102 494v51h291l115 344h-303v51h319l174 494h62l-176 -494h381l168 494h59l-172 -494h266v-51h-282l-119 -344h315v-51h-330l-165 -494h-62l166 494h-377l-162 -494h-61l168 494h-275zM451 545h372l123 344h-377z" />
<glyph unicode="$" d="M102 117l43 69q143 -98 267 -125l94 650q-45 22 -72 36t-67.5 38t-64.5 43.5t-52 49.5t-43.5 60t-26 70t-10.5 84q0 75 22.5 139t71 117.5t134.5 84.5t202 31h16l19 127h61l-20 -133q115 -17 223 -65q-4 -10 -35 -80q-103 43 -200 61l-89 -598q47 -24 74.5 -38t69.5 -40 t66.5 -47t54.5 -53t46 -65t27 -76t11 -92q0 -63 -16 -120t-50.5 -107.5t-84.5 -88t-122 -59t-159 -21.5q-23 0 -33 2l-21 -143h-61l22 152q-136 29 -297 137zM254 1108q0 -57 20 -103t61 -83t80.5 -62t102.5 -57l86 577q-10 2 -29 2q-139 0 -230 -71.5t-91 -202.5zM471 51 h31q154 0 243 83.5t89 221.5q0 49 -15 92t-38 74.5t-61.5 62t-72.5 51t-84 46.5z" />
<glyph unicode="%" horiz-adv-x="1189" d="M102 0l918 1434h67l-917 -1434h-68zM117 1128q0 145 64 229.5t186 84.5q121 0 185 -84.5t64 -229.5t-63.5 -229t-185.5 -84t-186 84t-64 229zM184 1128q0 -251 183 -251q182 0 182 251q0 252 -182 252q-183 0 -183 -252zM573 303q0 145 64 229t186 84t186 -84t64 -229 t-64 -229t-186 -84t-186 84t-64 229zM641 303q0 -252 182 -252q183 0 183 252t-183 252q-182 0 -182 -252z" />
<glyph unicode="&#x26;" horiz-adv-x="1306" d="M102 410q0 142 77.5 242.5t264.5 187.5q-57 78 -84.5 119.5t-53 101.5t-25.5 110q0 147 87 220t236 73q136 0 293 -69l-33 -78q-167 67 -268 67q-236 0 -236 -213q0 -45 28 -103t56 -96t80 -104l434 -555q69 114 107.5 255.5t38.5 283.5h82q0 -157 -45.5 -317 t-132.5 -287l196 -248h-112l-138 178q-182 -209 -440 -209q-109 0 -205 63t-151.5 165t-55.5 213zM184 410q0 -162 107.5 -265.5t261.5 -103.5q101 0 192 52.5t162 146.5l-415 542q-150 -57 -229 -159.5t-79 -212.5z" />
<glyph unicode="'" horiz-adv-x="518" d="M115 1036l149 353q28 69 80 69q28 0 50 -17t22 -52q0 -34 -25 -66l-254 -301z" />
<glyph unicode="(" horiz-adv-x="739" d="M102 563q0 306 137 540t425 413l34 -58q-256 -182 -385 -396.5t-129 -498.5t129 -498.5t385 -396.5l-34 -57q-289 179 -425.5 412.5t-136.5 539.5z" />
<glyph unicode=")" horiz-adv-x="739" d="M41 -332q256 182 385 396.5t129 498.5t-129 498.5t-385 396.5l35 58q288 -179 424.5 -412.5t136.5 -540.5t-136.5 -540t-424.5 -412z" />
<glyph unicode="*" horiz-adv-x="847" d="M102 1169l25 78l268 -102l-12 289h82l-14 -289l270 102l24 -78l-276 -75l178 -226l-65 -47l-158 240l-158 -240l-65 47l178 226z" />
<glyph unicode="+" horiz-adv-x="1310" d="M102 571v62h523v522h61v-522h522v-62h-522v-522h-61v522h-523z" />
<glyph unicode="," horiz-adv-x="393" d="M72 -219l112 209q-34 3 -58 27t-24 59q0 34 26.5 61t61.5 27q43 0 72 -30t29 -83q0 -52 -59 -147.5t-107 -153.5z" />
<glyph unicode="-" horiz-adv-x="593" d="M61 489v62h471v-62h-471z" />
<glyph unicode="." horiz-adv-x="378" d="M102 76q0 35 26.5 61.5t61.5 26.5t60.5 -26.5t25.5 -61.5t-25.5 -60.5t-60.5 -25.5t-61.5 25.5t-26.5 60.5z" />
<glyph unicode="/" horiz-adv-x="954" d="M0 -410l870 1889h84l-870 -1889h-84z" />
<glyph unicode="0" d="M70 717q0 162 24.5 294t75.5 235.5t138 160.5t204 57t204 -57t138 -160.5t75.5 -235.5t24.5 -294t-24.5 -294t-75.5 -236t-138 -161t-204 -57t-204 57t-138 161t-75.5 236t-24.5 294zM152 717q0 -331 93.5 -498.5t266.5 -167.5t266.5 167.5t93.5 498.5t-93.5 498 t-266.5 167t-266.5 -167t-93.5 -498z" />
<glyph unicode="1" d="M231 1186l338 248h17v-1352h205v-82h-492v82h205v1200l-223 -164z" />
<glyph unicode="2" d="M129 1286q82 84 185 131t208 47q95 0 168 -30t115 -82t63 -115.5t21 -136.5q0 -124 -51 -235t-142 -238l-391 -545h600v-82h-745v20l471 656q69 97 122.5 210.5t53.5 211.5q0 81 -26 140t-70.5 90.5t-94.5 46t-108 14.5q-79 0 -170.5 -44.5t-155.5 -119.5z" />
<glyph unicode="3" d="M94 92l41 72q69 -53 160.5 -83t173.5 -30q160 0 264.5 99.5t104.5 252.5q0 115 -94 201t-226 86q-66 0 -119 -26l-37 73q429 170 429 404q0 32 -5.5 61.5t-22 63.5t-43.5 58.5t-74.5 41t-110.5 16.5q-175 0 -320 -174l-57 60q36 37 59.5 59t64 51.5t78 45.5t90.5 28 t113 12q71 0 127 -20.5t90 -53t56 -75.5t30 -83.5t8 -82.5q0 -126 -80.5 -226.5t-213.5 -160.5q155 -20 247.5 -120t92.5 -236q0 -85 -27.5 -162t-81.5 -139t-143 -99t-201 -37q-190 0 -373 123z" />
<glyph unicode="4" d="M90 408v20l670 1034h14v-973h178v-81h-178v-408h-82v408h-602zM221 489h471v730z" />
<glyph unicode="5" d="M111 82l47 76q63 -42 92 -58.5t81.5 -32.5t112.5 -16q50 0 100.5 11.5t103 41t92.5 74t65.5 115.5t25.5 160q0 93 -34 173.5t-108 134.5t-175 54q-66 0 -135 -22t-107 -72l-69 43l127 670h569v-82h-502l-98 -518q35 31 100 47t121 16q175 0 284 -120t109 -322 q0 -35 -5 -73.5t-19.5 -87t-37 -93t-59.5 -87.5t-84.5 -74.5t-116 -51t-149.5 -19.5q-96 0 -168.5 27t-162.5 86z" />
<glyph unicode="6" d="M109 633q0 89 4 165t17 163.5t34.5 157t58.5 136t86 111t121 71.5t160 27q80 0 157.5 -22.5t129.5 -63.5l-41 -73q-51 41 -120 59t-130 18q-76 0 -134.5 -20.5t-99.5 -62t-69 -93.5t-45 -127.5t-26.5 -150.5t-14.5 -174q51 44 89 71.5t106 53.5t140 26q99 0 174 -35 t120 -98t67 -143.5t22 -177.5q0 -221 -112 -351.5t-293 -130.5q-96 0 -168 34.5t-116 92t-70.5 145t-36.5 180.5t-10 212zM190 582q0 -531 318 -531q74 0 132 24.5t93.5 63t58 92t31 106.5t8.5 112q0 51 -4.5 93t-16 86.5t-33.5 78t-54.5 60.5t-82 41.5t-112.5 14.5 q-172 0 -338 -161v-80z" />
<glyph unicode="7" d="M135 1352v82h770v-21l-575 -1413h-88l551 1352h-658z" />
<glyph unicode="8" d="M104 375q0 129 68.5 229.5t187.5 138.5q-96 37 -156.5 134t-60.5 194q0 121 54 212.5t137 136t178 44.5t178 -44.5t137 -136t54 -212.5q0 -97 -60.5 -194t-156.5 -134q119 -38 187.5 -138.5t68.5 -229.5q0 -85 -25.5 -155t-67 -115.5t-96 -77t-109.5 -45t-110 -13.5 t-110 13.5t-109.5 45t-96 77t-67 115.5t-25.5 155zM186 375q0 -62 14.5 -112.5t36.5 -83.5t53 -57.5t60.5 -37.5t63 -21t55.5 -10t43 -2t43 2t55.5 10t63 21t60.5 37.5t53 57.5t36.5 83.5t14.5 112.5q0 143 -92.5 236.5t-233.5 93.5t-233.5 -93.5t-92.5 -236.5zM225 1071 q0 -123 84 -204t203 -81t203 81t84 204q0 137 -78 224t-209 87t-209 -87t-78 -224z" />
<glyph unicode="9" d="M109 983q0 221 112 351t293 130q96 0 168 -34.5t116 -92t70.5 -144.5t36.5 -180.5t10 -211.5q0 -89 -4 -165t-17 -163.5t-34.5 -157t-58.5 -136.5t-86 -111.5t-121 -71.5t-160 -27q-73 0 -155.5 24t-131.5 62l41 74q52 -41 121 -59.5t129 -18.5q65 0 117.5 16t91 44 t68 73t48.5 94.5t32 117.5t20 133.5t12 150.5q-37 -33 -65.5 -54t-72 -46.5t-93 -38.5t-104.5 -13q-99 0 -174 35t-120 98t-67 144t-22 178zM193 985q0 -62 6.5 -111t25.5 -100.5t51.5 -85.5t88.5 -56t131 -22q171 0 338 162v80q0 530 -318 530q-74 0 -132 -24t-93.5 -62.5 t-58 -92.5t-31 -106.5t-8.5 -111.5z" />
<glyph unicode=":" horiz-adv-x="378" d="M102 76q0 35 26.5 61.5t61.5 26.5t60.5 -26.5t25.5 -61.5t-25.5 -60.5t-60.5 -25.5t-61.5 25.5t-26.5 60.5zM102 731q0 35 26.5 61.5t61.5 26.5t60.5 -26.5t25.5 -61.5t-25.5 -60.5t-60.5 -25.5t-61.5 25.5t-26.5 60.5z" />
<glyph unicode=";" horiz-adv-x="393" d="M72 -219l112 209q-34 3 -58 27t-24 59q0 34 26.5 61t61.5 27q43 0 72 -30t29 -83q0 -52 -59 -147.5t-107 -153.5zM102 731q0 35 26.5 61.5t61.5 26.5t60.5 -26.5t25.5 -61.5t-25.5 -60.5t-60.5 -25.5t-61.5 25.5t-26.5 60.5z" />
<glyph unicode="&#x3c;" horiz-adv-x="1062" d="M61 606l900 518v-73l-773 -445l773 -444v-74z" />
<glyph unicode="=" horiz-adv-x="1310" d="M102 375v61h1106v-61h-1106zM102 727v61h1106v-61h-1106z" />
<glyph unicode="&#x3e;" horiz-adv-x="1062" d="M102 88v74l772 444l-772 445v73l899 -518z" />
<glyph unicode="?" horiz-adv-x="782" d="M61 1358q95 41 159 58.5t145 17.5q75 0 133.5 -24.5t91.5 -59.5t54.5 -81t28.5 -83t7 -70q0 -63 -21.5 -118t-56 -97t-76 -82.5t-82.5 -81.5t-75.5 -84.5t-56 -102t-21.5 -124.5q0 -52 14 -109h-41q-49 85 -49 170q0 54 21 106.5t54.5 96t74.5 86.5t81.5 83.5t74 80.5 t54.5 85t21 89q0 115 -56.5 176.5t-170.5 61.5q-120 0 -277 -72zM205 76q0 35 26.5 61.5t61.5 26.5t60.5 -26.5t25.5 -61.5t-25.5 -60.5t-60.5 -25.5t-61.5 25.5t-26.5 60.5z" />
<glyph unicode="@" horiz-adv-x="1687" d="M92 289q0 141 48 268t131.5 223t193.5 167t238 108t260 37q294 0 463 -138.5t169 -375.5q0 -110 -32.5 -205t-87 -162.5t-125.5 -115.5t-149.5 -71.5t-158.5 -23.5v426q-59 -199 -178 -317.5t-264 -118.5q-87 0 -144 64t-57 212q0 108 57 211.5t152.5 182t230.5 126.5 t281 48v-750q49 7 98.5 24.5t105.5 56t98 90.5t70 135t28 183t-34.5 178.5t-89.5 127t-129.5 80.5t-149 44.5t-154.5 12.5q-110 0 -221 -29t-214.5 -89t-183.5 -144.5t-128 -205t-48 -259.5q0 -150 45.5 -265.5t125.5 -185t182.5 -104.5t223.5 -35q122 0 275 37t260 100 l25 -76q-128 -65 -283.5 -101t-280.5 -36q-310 0 -479.5 179.5t-169.5 486.5zM475 266q0 -95 38.5 -147.5t88.5 -52.5q85 0 158.5 51.5t122.5 129.5t85 172.5t53 177.5t19 148q-100 0 -192.5 -33t-158.5 -85.5t-115.5 -116.5t-74 -127.5t-24.5 -116.5z" />
<glyph unicode="A" horiz-adv-x="1148" d="M20 0l494 1434h123l491 -1434h-88l-149 436h-631l-151 -436h-89zM289 518h573l-284 836z" />
<glyph unicode="B" horiz-adv-x="1044" d="M143 0v1434h400q162 0 263 -93t101 -254q0 -111 -62 -210t-173 -134q120 -28 200 -130.5t80 -229.5q0 -182 -114.5 -282.5t-294.5 -100.5h-400zM225 82h299q155 0 250.5 74t95.5 219q0 148 -97.5 236.5t-248.5 88.5h-299v-618zM225 782h283q147 0 231 81t84 220 q0 135 -82 202t-233 67h-283v-570z" />
<glyph unicode="C" horiz-adv-x="1198" d="M82 717q0 120 24.5 229.5t76.5 204t127 164t182.5 109.5t236.5 40q110 0 186 -16t164 -53l-35 -84q-97 41 -157 56t-158 15q-135 0 -243 -50t-178 -139t-107 -210.5t-37 -265.5q0 -308 146.5 -487t418.5 -179q54 0 101.5 10.5t98.5 36.5t81 44.5t90 58.5l37 -70 q-215 -162 -408 -162q-130 0 -237 38t-182 106t-127 162t-76.5 205t-24.5 237z" />
<glyph unicode="D" horiz-adv-x="1230" d="M143 0v1434h396q131 0 237 -44.5t174 -116.5t114 -167t65.5 -192t19.5 -197t-19.5 -197t-65.5 -192t-114 -167t-174 -116.5t-237 -44.5h-396zM225 82h283q138 0 245.5 47t175.5 132t103 200t35 256t-35 256t-103 200t-175.5 132t-245.5 47h-283v-1270z" />
<glyph unicode="E" horiz-adv-x="919" d="M143 0v1434h662v-82h-580v-570h531v-82h-531v-618h602v-82h-684z" />
<glyph unicode="F" horiz-adv-x="835" d="M143 0v1434h662v-82h-580v-570h531v-82h-531v-700h-82z" />
<glyph unicode="G" horiz-adv-x="1302" d="M82 717q0 120 24.5 229.5t76.5 204t127 164t182.5 109.5t236.5 40q233 0 401 -65l-34 -84q-188 67 -367 67q-116 0 -220 -50.5t-180 -138t-120.5 -211.5t-44.5 -265q0 -197 76 -350t204.5 -234.5t284.5 -81.5q85 0 196.5 39t194.5 94v486h103v-523q-64 -40 -104.5 -62.5 t-108.5 -54t-138 -46.5t-143 -15q-130 0 -237 38t-182 106t-127 162t-76.5 205t-24.5 237z" />
<glyph unicode="H" horiz-adv-x="1290" d="M143 0v1434h82v-652h840v652h82v-1434h-82v700h-840v-700h-82z" />
<glyph unicode="I" horiz-adv-x="368" d="M143 0v1434h82v-1434h-82z" />
<glyph unicode="J" horiz-adv-x="471" d="M-61 -317q52 3 92 12t82 33t70 62.5t45.5 104.5t17.5 154v1385h82v-1385q0 -215 -91.5 -324.5t-297.5 -121.5v80z" />
<glyph unicode="K" horiz-adv-x="1085" d="M143 0v1434h82v-652h232l506 652h102l-530 -684l497 -750h-96l-465 700h-246v-700h-82z" />
<glyph unicode="L" horiz-adv-x="905" d="M143 0v1434h82v-1352h649v-82h-731z" />
<glyph unicode="M" horiz-adv-x="1628" d="M123 0l80 1434h133l485 -1287l490 1287h133l61 -1434h-82l-51 1368l-522 -1368h-64l-510 1368l-67 -1368h-86z" />
<glyph unicode="N" horiz-adv-x="1351" d="M143 0v1434h66l917 -1268v1268h82v-1434h-65l-918 1266v-1266h-82z" />
<glyph unicode="O" horiz-adv-x="1482" d="M82 717q0 114 27 222.5t82 203.5t132.5 166.5t185 113t232.5 41.5t232.5 -41.5t185 -113t133 -166.5t82.5 -203.5t27 -222.5t-27 -222.5t-82.5 -203.5t-133 -167t-185 -113.5t-232.5 -41.5t-232.5 41.5t-185 113.5t-132.5 167t-82 203.5t-27 222.5zM164 717 q0 -190 77 -343t208.5 -238t291.5 -85q121 0 228 50t184 137.5t121.5 211.5t44.5 267q0 190 -76 342.5t-208 237.5t-294 85t-294 -85t-207.5 -237.5t-75.5 -342.5z" />
<glyph unicode="P" horiz-adv-x="952" d="M143 0v1434h332q109 0 205 -50t158.5 -149t62.5 -227q0 -96 -36.5 -176.5t-97 -132t-136 -79.5t-156.5 -28h-250v-592h-82zM225 674h213q171 0 270 92t99 242q0 151 -99.5 247.5t-269.5 96.5h-213v-678z" />
<glyph unicode="Q" horiz-adv-x="1482" d="M82 717q0 114 27 222.5t82 203.5t132.5 166.5t185 113t232.5 41.5t232.5 -41.5t185 -113t133 -166.5t82.5 -203.5t27 -222.5q0 -131 -37 -254.5t-106 -225.5t-176.5 -171.5t-239.5 -88.5l641 -243l-35 -78l-897 340q-146 55 -253 165.5t-161.5 253.5t-54.5 302zM164 717 q0 -190 77 -343t208.5 -238t291.5 -85q121 0 228 50t184 137.5t121.5 211.5t44.5 267q0 190 -76 342.5t-208 237.5t-294 85t-294 -85t-207.5 -237.5t-75.5 -342.5z" />
<glyph unicode="R" horiz-adv-x="1036" d="M143 0v1434h353q80 0 156.5 -31.5t136.5 -87t96.5 -138.5t36.5 -180q0 -131 -78.5 -225t-208.5 -147l360 -625h-94l-356 612h-320v-612h-82zM225 694h234q175 0 271.5 78t96.5 225q0 152 -99.5 253.5t-268.5 101.5h-234v-658z" />
<glyph unicode="S" horiz-adv-x="964" d="M72 117l47 73q207 -137 352 -137q154 0 243 82.5t89 220.5q0 66 -25 120.5t-73.5 96.5t-99 71t-122.5 61q-56 25 -99.5 49t-91.5 60t-79.5 74.5t-52.5 91.5t-21 112q0 75 22.5 139t71 117.5t134.5 84.5t202 31q137 0 299 -71l-34 -86q-181 69 -289 69q-140 0 -231 -69 t-91 -199q0 -58 25 -108.5t70.5 -90.5t96.5 -69.5t117 -57.5q361 -157 361 -417q0 -63 -16 -120t-50.5 -107.5t-84.5 -88t-122 -59t-159 -21.5q-168 0 -389 148z" />
<glyph unicode="T" horiz-adv-x="1118" d="M41 1352v82h1036v-82h-477v-1352h-82v1352h-477z" />
<glyph unicode="U" horiz-adv-x="1267" d="M133 432v1004h82v-1004q0 -168 106 -274.5t314 -106.5q209 0 313.5 106t104.5 275v1004h82v-1004q0 -224 -134.5 -343.5t-365.5 -119.5t-366.5 119.5t-135.5 343.5z" />
<glyph unicode="V" horiz-adv-x="1282" d="M20 1434h91l528 -1295l535 1295h88l-590 -1434h-62z" />
<glyph unicode="W" horiz-adv-x="1781" d="M20 1434h93l362 -1239l391 1239h49l392 -1239l362 1239h92l-420 -1434h-57l-393 1229l-393 -1229h-58z" />
<glyph unicode="X" horiz-adv-x="1124" d="M61 0l451 717l-451 717h99l401 -639l404 639h98l-453 -717l453 -717h-96l-406 639l-403 -639h-97z" />
<glyph unicode="Y" horiz-adv-x="1064" d="M20 1434h93l419 -807l420 807h92l-471 -899v-535h-81v535z" />
<glyph unicode="Z" horiz-adv-x="1067" d="M51 0v41l840 1311h-787v82h912v-41l-840 -1311h823v-82h-948z" />
<glyph unicode="[" horiz-adv-x="473" d="M102 -369v1885h330v-82h-248v-1721h248v-82h-330z" />
<glyph unicode="\" horiz-adv-x="954" d="M0 1479h84l870 -1807h-84z" />
<glyph unicode="]" horiz-adv-x="473" d="M41 -287h248v1721h-248v82h330v-1885h-330v82z" />
<glyph unicode="^" horiz-adv-x="970" d="M102 1124l375 392h17l374 -392h-86l-297 312l-297 -312h-86z" />
<glyph unicode="_" horiz-adv-x="1089" d="M0 -94h1090v-62h-1090v62z" />
<glyph unicode="`" horiz-adv-x="544" d="M139 1446h113l207 -332h-51z" />
<glyph unicode="a" horiz-adv-x="929" d="M82 236q0 90 48.5 158.5t137.5 112t204 68t259 31.5q0 90 -21.5 154.5t-59.5 99t-82.5 49.5t-98.5 15q-58 0 -143.5 -16t-151.5 -38l-22 74q171 55 323 55q332 0 332 -411v-588h-76v160q-194 -183 -389 -183q-116 0 -188 75t-72 184zM158 240q0 -84 56 -135.5t148 -51.5 q83 0 181 58.5t188 142.5v276q-117 -5 -216.5 -23.5t-181.5 -52.5t-128.5 -88.5t-46.5 -125.5z" />
<glyph unicode="b" d="M123 43v1391h76v-545q145 110 305 110q127 0 228.5 -67t155.5 -177t54 -239q0 -249 -147.5 -398t-374.5 -149q-81 0 -145 17.5t-152 56.5zM199 98q100 -53 215 -53q41 0 79 4t84.5 17t86 33.5t78 57t65 84t43 118t16.5 155.5t-23 155.5t-60.5 116.5t-86.5 78t-99 46 t-99 14q-166 0 -299 -123v-703z" />
<glyph unicode="c" horiz-adv-x="935" d="M82 483q0 231 131.5 373.5t347.5 142.5q120 0 264 -32l-16 -80q-138 37 -258 37q-181 0 -287 -114.5t-106 -326.5q0 -200 100 -319t260 -119q90 0 179 34.5t159 84.5l39 -68q-187 -127 -352 -127q-213 0 -337 131t-124 383z" />
<glyph unicode="d" horiz-adv-x="1038" d="M82 485q0 117 40 216t105 163t145.5 99.5t164.5 35.5q171 0 303 -79v514h75v-1434h-75v137q-77 -82 -157 -125t-181 -43q-82 0 -156 32t-133.5 93.5t-95 162.5t-35.5 228zM158 485q0 -212 99 -326t247 -114q175 0 336 186v594q-79 56 -141 77.5t-154 21.5 q-45 0 -94 -13.5t-102 -46t-95 -81t-69 -126t-27 -172.5z" />
<glyph unicode="e" horiz-adv-x="958" d="M82 463q0 109 26 200t68.5 152t98.5 103.5t114 61.5t117 19q391 0 391 -493h-735q-4 -20 -4 -57q0 -191 105 -297.5t280 -106.5q45 0 83 8t72 25t55 31t54 38l39 -65q-43 -30 -61.5 -42t-60.5 -33t-85.5 -29.5t-95.5 -8.5q-94 0 -176 30.5t-146.5 89.5t-101.5 155 t-37 219zM168 578h641q-4 62 -15 112t-33.5 94.5t-55.5 74.5t-82 47.5t-111 17.5q-45 0 -87 -9.5t-85.5 -34t-77 -62.5t-59 -99.5t-35.5 -140.5z" />
<glyph unicode="f" horiz-adv-x="530" d="M41 891v76h123v233q0 145 56 204.5t169 59.5q81 0 203 -32l-25 -78q-113 35 -176 35q-151 0 -151 -158v-264h239v-76h-239v-891h-76v891h-123z" />
<glyph unicode="g" horiz-adv-x="966" d="M82 -178q0 93 62.5 147t217.5 109l-190 20v82q215 40 383 127l-4 2q-48 -6 -68 -6q-89 0 -157.5 27t-109.5 74.5t-62 107.5t-21 129q0 147 101 252.5t251 105.5q109 0 183 -49l227 88v-73l-178 -66q64 -48 93.5 -119.5t29.5 -138.5q0 -192 -143 -319.5t-390 -167.5v-9 q301 -11 441.5 -74.5t140.5 -195.5q0 -131 -120 -218t-331 -87q-96 0 -168.5 25t-111.5 64.5t-57.5 80.5t-18.5 82zM158 -174q0 -79 73.5 -130.5t206.5 -51.5q171 0 271 59t100 160q0 52 -26.5 86.5t-100 62t-203.5 43.5q-321 -97 -321 -229zM209 641q0 -124 73 -196 t203 -72q132 0 205.5 69t73.5 199q0 116 -73.5 199.5t-205.5 83.5q-125 0 -200.5 -84.5t-75.5 -198.5z" />
<glyph unicode="h" horiz-adv-x="993" d="M123 0v1434h76v-584q78 75 152 110t167 35q72 0 135.5 -25t115.5 -75.5t82 -136t30 -197.5v-561h-76v561q0 172 -87 265.5t-210 93.5q-72 0 -162 -50.5t-147 -119.5v-750h-76z" />
<glyph unicode="i" horiz-adv-x="321" d="M92 1321q0 29 20 49.5t48 20.5q29 0 49 -20.5t20 -49.5q0 -27 -20 -47.5t-49 -20.5q-27 0 -47.5 20.5t-20.5 47.5zM125 0v967h76v-967h-76z" />
<glyph unicode="j" horiz-adv-x="342" d="M-86 -322q125 19 177 90t52 232v967h76v-967q0 -92 -18 -161t-45.5 -110.5t-70 -69t-81.5 -39t-90 -17.5v75zM113 1321q0 29 19.5 49.5t47.5 20.5q29 0 49.5 -20.5t20.5 -49.5q0 -27 -20.5 -47.5t-49.5 -20.5q-27 0 -47 20.5t-20 47.5z" />
<glyph unicode="k" horiz-adv-x="854" d="M123 0v1434h76v-1008l518 541h96l-383 -398l373 -569h-86l-340 514l-178 -186v-328h-76z" />
<glyph unicode="l" horiz-adv-x="321" d="M123 0v1434h76v-1434h-76z" />
<glyph unicode="m" horiz-adv-x="1529" d="M123 0v967h76v-123q107 153 274 153q76 0 130.5 -21t90.5 -55t80 -96q134 172 307 172q138 0 237 -98.5t99 -265.5v-633h-76v633q0 71 -21 127t-51 86.5t-68 50t-67 25.5t-53 6q-162 0 -272 -187v-741h-76v633q0 71 -21 127t-51 86.5t-68 50t-67 25.5t-53 6 q-80 0 -155.5 -53.5t-118.5 -133.5v-741h-76z" />
<glyph unicode="n" horiz-adv-x="993" d="M123 0v967h76v-117q78 75 152 110t167 35q72 0 135.5 -25t115.5 -75.5t82 -136t30 -197.5v-561h-76v561q0 172 -87 265.5t-210 93.5q-78 0 -165.5 -46t-143.5 -124v-750h-76z" />
<glyph unicode="o" horiz-adv-x="1064" d="M82 483q0 246 124 380t326 134q203 0 327 -134.5t124 -379.5t-124 -379.5t-327 -134.5q-202 0 -326 134t-124 380zM158 483q0 -115 30.5 -202t84 -137t118.5 -74.5t141 -24.5t141.5 24.5t119 74.5t84 137t30.5 202q0 93 -20.5 168t-55.5 125t-83 83.5t-102 48t-114 14.5 q-76 0 -141 -24.5t-118.5 -74.5t-84 -137.5t-30.5 -202.5z" />
<glyph unicode="p" horiz-adv-x="1015" d="M123 -399v1366h76v-125q25 30 68.5 63t116 63.5t142.5 30.5q60 0 117 -17t110 -55.5t93 -95t64 -141.5t24 -188q0 -108 -28 -198.5t-73.5 -151t-104.5 -103t-120.5 -61.5t-122.5 -19q-70 0 -150.5 19.5t-135.5 52.5v-440h-76zM199 119q112 -80 272 -80q64 0 128.5 26.5 t124 79.5t97 146t37.5 211q0 211 -97 318.5t-247 107.5q-91 0 -165.5 -40t-149.5 -126v-643z" />
<glyph unicode="q" horiz-adv-x="987" d="M82 481q0 103 32.5 189.5t87 146t126 101.5t148 61.5t155.5 19.5q80 0 157 -22l76 86v-1462h-76v469q-113 -101 -264 -101q-84 0 -162.5 33t-141.5 95.5t-100.5 162t-37.5 221.5zM156 487q0 -98 29 -177.5t71.5 -127t95.5 -80t96.5 -45t77.5 -12.5q86 0 144 26t118 81 v733q-30 18 -76 31.5t-77 13.5q-49 0 -108.5 -14t-126 -48.5t-120 -83.5t-89 -126.5t-35.5 -170.5z" />
<glyph unicode="r" horiz-adv-x="593" d="M123 0v967h76v-303q40 148 122.5 223.5t231.5 111.5l20 -71q-374 -113 -374 -488v-440h-76z" />
<glyph unicode="s" horiz-adv-x="790" d="M61 104l37 68q149 -127 289 -127q260 0 260 209q0 54 -29 93.5t-75.5 63t-103 43.5t-113 41t-103 47.5t-75.5 71t-29 105.5q0 128 82 205t229 77q119 0 275 -67l-27 -72q-85 38 -140.5 53t-121.5 15q-119 0 -171 -56t-52 -143q0 -50 29.5 -86t77 -57.5t104.5 -40t114 -40 t104.5 -50t77 -77t29.5 -114.5q0 -52 -13.5 -96t-35 -74t-51.5 -53.5t-60 -37t-62.5 -22t-57 -11.5t-46.5 -3q-98 0 -176.5 34t-165.5 101z" />
<glyph unicode="t" horiz-adv-x="669" d="M41 895v72h164v163l67 80h9v-243h342v-72h-342v-651q0 -103 23 -138.5t97 -35.5q59 0 199 75l29 -69q-57 -28 -92.5 -43.5t-83 -29t-86.5 -13.5q-33 0 -58.5 9t-42.5 22.5t-29 37.5t-18 45t-9.5 54t-4 55.5t-0.5 58.5v623h-164z" />
<glyph unicode="u" horiz-adv-x="944" d="M113 401v566h75v-566q0 -197 57.5 -273.5t194.5 -76.5q71 0 154.5 51t150.5 136v729h76v-967h-76v156q-65 -74 -148 -126.5t-171 -52.5q-159 0 -236 97.5t-77 326.5z" />
<glyph unicode="v" horiz-adv-x="899" d="M20 967h84l345 -805l342 805h88l-424 -967h-17z" />
<glyph unicode="w" horiz-adv-x="1275" d="M20 967h82l263 -758l264 758h16l264 -756l265 756h81l-335 -967h-17l-266 750l-264 -750h-17z" />
<glyph unicode="x" horiz-adv-x="841" d="M41 0l332 475l-328 492h84l289 -428l297 428h86l-342 -490l323 -477h-92l-276 412l-287 -412h-86z" />
<glyph unicode="y" horiz-adv-x="925" d="M20 967h84l357 -854l360 854h84l-577 -1366h-84l176 413z" />
<glyph unicode="z" horiz-adv-x="956" d="M82 0v16l620 875h-604v76h742v-13l-623 -878h608v-76h-743z" />
<glyph unicode="{" horiz-adv-x="600" d="M61 535v77q26 3 45 8t47.5 22t47 43.5t32 76.5t13.5 117v254q0 205 82 295t231 90v-62q-117 0 -174 -62t-57 -196v-217q0 -52 -1 -86t-5 -76t-11.5 -69.5t-21.5 -58t-34 -50.5t-49 -38t-67 -30q53 -16 89 -44.5t55.5 -60.5t29.5 -85.5t12.5 -98t2.5 -118.5v-217 q0 -133 57 -195.5t174 -62.5v-62q-149 0 -231 90t-82 295v254q0 67 -13.5 117t-32 76.5t-47 43.5t-47.5 22t-45 8z" />
<glyph unicode="|" horiz-adv-x="266" d="M102 -606v2122h62v-2122h-62z" />
<glyph unicode="}" horiz-adv-x="600" d="M41 -309q117 0 174 62.5t57 195.5v217q0 74 2.5 118.5t12.5 98t29.5 85.5t55.5 60.5t89 44.5q-38 12 -67 30t-49 38t-34 50.5t-21.5 58t-11.5 69.5t-5 76t-1 86v217q0 134 -57 196t-174 62v62q149 0 231 -90t82 -295v-254q0 -67 13.5 -117t32 -76.5t47 -43.5t47.5 -22 t45 -8v-77q-26 -3 -45 -8t-47.5 -22t-47 -43.5t-32 -76.5t-13.5 -117v-254q0 -205 -82 -295t-231 -90v62z" />
<glyph unicode="~" horiz-adv-x="1333" d="M92 504v57q116 85 188 117.5t160 32.5q54 0 116.5 -22.5t111 -49.5t111 -49.5t116.5 -22.5q85 0 147.5 26.5t198.5 119.5v-58q-141 -93 -202 -121t-146 -28q-54 0 -117 22.5t-111.5 49t-111 49t-115.5 22.5q-86 0 -148 -26t-198 -119z" />
<glyph unicode="&#xa1;" horiz-adv-x="378" d="M102 1348q0 35 25.5 60.5t60.5 25.5t61.5 -25.5t26.5 -60.5t-26.5 -61.5t-61.5 -26.5t-60.5 26.5t-25.5 61.5zM117 -10l49 1116h41l53 -1116h-143z" />
<glyph unicode="&#xa2;" horiz-adv-x="935" d="M82 483q0 230 130.5 372.5t346.5 143.5l21 140h61l-20 -142q77 -5 204 -30l-16 -80q-108 26 -201 35l-129 -875q12 -2 39 -2q90 0 179 34.5t159 84.5l39 -68q-187 -127 -352 -127q-26 0 -76 4l-21 -145h-61l23 158q-154 36 -240 162t-86 335zM158 483q0 -166 70.5 -279 t189.5 -147l129 867q-179 -2 -284 -116t-105 -325z" />
<glyph unicode="&#xa3;" d="M82 0l121 623h-117v82h133l57 301q21 107 53 188.5t80.5 143.5t118 94t158.5 32q107 0 285 -32l-17 -89q-183 33 -295 33q-52 0 -93.5 -19t-80 -64t-70 -125.5t-55.5 -196.5l-55 -266h385v-82h-401l-103 -527q105 41 275 41q63 0 145 -14l316 -57l-19 -91l-338 68 q-86 12 -196 12q-128 0 -226 -55h-61z" />
<glyph unicode="&#xa4;" horiz-adv-x="983" d="M66 387v82h98v123h-98v82h98v760h332q109 0 205 -50t158.5 -149t62.5 -227q0 -96 -36.5 -176.5t-97 -132t-136 -79.5t-156.5 -28h-250v-123h444v-82h-444v-387h-82v387h-98zM246 674h213q171 0 269.5 92t98.5 242q0 151 -99 247.5t-269 96.5h-213v-678z" />
<glyph unicode="&#xa5;" horiz-adv-x="1064" d="M20 1434h93l419 -807l420 807h92l-423 -807h321v-62h-352l-17 -30v-160h369v-62h-369v-313h-81v313h-369v62h369v160l-17 30h-352v62h319z" />
<glyph unicode="&#xa6;" horiz-adv-x="266" d="M102 379h62v-778h-62v778zM102 737v779h62v-779h-62z" />
<glyph unicode="&#xa7;" horiz-adv-x="962" d="M156 -156l34 62q128 -74 232 -74q111 0 181.5 64.5t70.5 160.5q0 55 -28 106t-73 92.5t-99.5 82.5t-109 83t-99.5 86t-73 99.5t-28 116.5q0 145 153 283q-88 94 -88 192q0 116 72.5 191t220.5 75q100 0 221 -41l-24 -71q-121 43 -201 43q-99 0 -151 -55t-52 -136 q0 -48 27.5 -92t71 -80t96.5 -72.5t106 -76t96.5 -82t71 -100t27.5 -121.5q0 -76 -37 -152t-115 -139q99 -96 99 -207q0 -143 -92.5 -230.5t-257.5 -87.5q-57 0 -131 24.5t-121 55.5zM244 723q0 -32 10.5 -61.5t25 -51t43.5 -48.5t52.5 -44.5t67 -50.5t71.5 -55l84 -68 q68 44 99.5 99.5t31.5 107.5q0 41 -13 79t-31.5 66.5t-56.5 64.5t-69 60.5t-88 67.5l-90 67q-137 -112 -137 -233z" />
<glyph unicode="&#xa8;" horiz-adv-x="958" d="M268 1268q0 29 20 49t48 20q29 0 49.5 -20t20.5 -49q0 -27 -20.5 -47.5t-49.5 -20.5q-27 0 -47.5 20.5t-20.5 47.5zM637 1268q0 29 20 49t48 20q29 0 49 -20t20 -49q0 -27 -20 -47.5t-49 -20.5q-27 0 -47.5 20.5t-20.5 47.5z" />
<glyph unicode="&#xa9;" horiz-adv-x="1685" d="M102 719q0 202 99.5 372.5t270 269.5t372.5 99q150 0 287 -58.5t236 -157.5t157.5 -236.5t58.5 -288.5q0 -150 -58.5 -287t-157.5 -236t-236 -157.5t-287 -58.5q-151 0 -288.5 58.5t-237 157.5t-158 236t-58.5 287zM164 719q0 -182 91.5 -338.5t248.5 -248t340 -91.5 q137 0 262.5 54t216.5 145.5t145 216.5t54 262q0 138 -54 264.5t-145 218t-216.5 145.5t-262.5 54t-263 -54.5t-217.5 -145.5t-145.5 -217.5t-54 -264.5zM412 719q0 135 48.5 238t151 165t246.5 62q145 0 270 -56l-30 -73q-73 28 -124.5 41.5t-115.5 13.5q-56 0 -107 -12 t-99.5 -40.5t-84 -72t-57 -112t-21.5 -154.5q0 -91 21.5 -161t56.5 -112.5t84.5 -69t99.5 -36.5t107 -10q120 0 281 108l37 -63q-6 -5 -17.5 -13t-46.5 -28.5t-70.5 -36t-86.5 -28.5t-97 -13q-217 0 -331.5 125.5t-114.5 337.5z" />
<glyph unicode="&#xaa;" horiz-adv-x="837" d="M137 872q0 91 65.5 152.5t171.5 90t253 34.5q-5 215 -189 215q-72 0 -229 -45l-21 72q151 43 254 43q126 0 192 -67t66 -228v-453h-73v115q-143 -131 -285 -131q-90 0 -147.5 58.5t-57.5 143.5zM211 874q0 -59 40 -97t105 -38q61 0 135 41t136 101v204q-85 -3 -158 -17 t-132 -38.5t-92.5 -64.5t-33.5 -91z" />
<glyph unicode="&#xab;" horiz-adv-x="770" d="M102 471l441 473l39 -35l-383 -438l383 -438l-39 -35zM387 471l287 307l35 -33l-240 -274l240 -274l-35 -33z" />
<glyph unicode="&#xac;" horiz-adv-x="1308" d="M102 510v61h1104v-389h-61v328h-1043z" />
<glyph unicode="&#xad;" horiz-adv-x="593" d="M61 489v62h471v-62h-471z" />
<glyph unicode="&#xae;" horiz-adv-x="978" d="M82 1065q0 169 119 288.5t288 119.5t288.5 -119.5t119.5 -288.5t-119.5 -288.5t-288.5 -119.5t-288 119.5t-119 288.5zM139 1065q0 -148 101 -250t249 -102t249.5 102t101.5 250t-101.5 249t-249.5 101t-249 -101t-101 -249zM367 819v506h112q73 0 120.5 -37t47.5 -112 q0 -53 -28.5 -91.5t-73.5 -54.5l131 -211h-62l-122 199h-70v-199h-55zM422 1071h57q53 0 83 30t30 75q0 46 -29 71t-84 25h-57v-201z" />
<glyph unicode="&#xaf;" horiz-adv-x="737" d="M102 1225v71h533v-71h-533z" />
<glyph unicode="&#xb0;" horiz-adv-x="606" d="M82 1294q0 92 64.5 157t156.5 65t156.5 -65t64.5 -157t-64.5 -156.5t-156.5 -64.5t-156.5 64.5t-64.5 156.5zM135 1294q0 -67 49 -114t117 -47q65 0 113.5 47t48.5 114t-48.5 116.5t-113.5 49.5q-67 0 -116.5 -49t-49.5 -117z" />
<glyph unicode="&#xb1;" horiz-adv-x="1310" d="M102 86v61h1106v-61h-1106zM102 676v61h523v398h61v-398h522v-61h-522v-400h-61v400h-523z" />
<glyph unicode="&#xb2;" horiz-adv-x="724" d="M156 1337q97 97 211 97q98 0 146 -56t48 -139q0 -62 -26 -117.5t-74 -120.5l-191 -258h299v-57h-395v21l242 327q88 123 88 205q0 75 -42 107t-104 32q-38 0 -84.5 -24t-80.5 -64z" />
<glyph unicode="&#xb3;" horiz-adv-x="712" d="M137 739l29 52q36 -29 84 -45.5t90 -16.5q77 0 127.5 46t50.5 120q0 56 -44.5 94.5t-108.5 38.5q-33 0 -66 -16l-27 53q222 89 222 195q0 45 -26 79.5t-95 34.5q-84 0 -164 -92l-39 45q25 25 41.5 39t44 32.5t60 27t71.5 8.5q47 0 81.5 -16t52 -42.5t25 -54t7.5 -57.5 q0 -116 -129 -187q70 -15 110.5 -64.5t40.5 -115.5q0 -95 -60.5 -161t-176.5 -66q-95 0 -201 69z" />
<glyph unicode="&#xb4;" horiz-adv-x="544" d="M115 1114l207 332h112l-268 -332h-51z" />
<glyph unicode="&#xb5;" horiz-adv-x="983" d="M66 387v82h98v123h-98v82h98v760h332q109 0 205 -50t158.5 -149t62.5 -227q0 -96 -36.5 -176.5t-97 -132t-136 -79.5t-156.5 -28h-250v-123h444v-82h-444v-387h-82v387h-98zM246 674h213q171 0 269.5 92t98.5 242q0 151 -99 247.5t-269 96.5h-213v-678z" />
<glyph unicode="&#xb6;" horiz-adv-x="788" d="M102 1135q0 67 25.5 120.5t64.5 86t91 54t101 30t97 8.5h205v-1733h-61v1657h-82v-1657h-62v1124q-174 0 -276.5 76t-102.5 234z" />
<glyph unicode="&#xb7;" horiz-adv-x="378" d="M102 547q0 35 26.5 61.5t61.5 26.5t60.5 -26.5t25.5 -61.5t-25.5 -60.5t-60.5 -25.5t-61.5 25.5t-26.5 60.5z" />
<glyph unicode="&#xb8;" horiz-adv-x="481" d="M92 -328q43 -12 94 -12t81 19.5t30 58.5q0 34 -24 53t-85 29l-49 8l64 172h69l-51 -119q79 -10 120.5 -46.5t41.5 -86.5q0 -59 -53.5 -103t-126.5 -44q-48 0 -111 18v53z" />
<glyph unicode="&#xb9;" horiz-adv-x="737" d="M217 1307l180 131h19v-695h104v-57h-266v57h104v596l-108 -79z" />
<glyph unicode="&#xba;" horiz-adv-x="962" d="M133 1049q0 188 95 286.5t253 98.5q157 0 252.5 -99t95.5 -286q0 -188 -95.5 -286.5t-252.5 -98.5q-158 0 -253 98t-95 287zM207 1049q0 -165 77.5 -241.5t196.5 -76.5q55 0 102.5 17t87.5 53t62.5 99.5t22.5 148.5q0 84 -22.5 147t-62.5 99t-87.5 53.5t-102.5 17.5 q-119 0 -196.5 -77t-77.5 -240z" />
<glyph unicode="&#xbb;" horiz-adv-x="770" d="M61 197l240 274l-240 274l35 33l287 -307l-287 -307zM188 33l383 438l-383 438l39 35l441 -473l-441 -473z" />
<glyph unicode="&#xbc;" horiz-adv-x="1460" d="M123 0l1147 1434h67l-1147 -1434h-67zM217 1307l180 131h19v-695h104v-57h-266v57h104v596l-108 -79zM834 201v18l344 526h20v-491h90v-53h-90v-201h-57v201h-307zM920 254h221v344z" />
<glyph unicode="&#xbd;" horiz-adv-x="1460" d="M123 0l1147 1434h67l-1147 -1434h-67zM217 1307l180 131h19v-695h104v-57h-266v57h104v596l-108 -79zM897 651q97 97 211 97q98 0 146.5 -56t48.5 -139q0 -62 -26.5 -117t-74.5 -121l-190 -258h299v-57h-396v20l242 328q88 123 88 205q0 75 -42 107t-103 32 q-38 0 -85 -24t-81 -64z" />
<glyph unicode="&#xbe;" horiz-adv-x="1460" d="M123 0l1147 1434h67l-1147 -1434h-67zM137 739l29 52q36 -29 84 -45.5t90 -16.5q77 0 127.5 46t50.5 120q0 56 -44.5 94.5t-108.5 38.5q-33 0 -66 -16l-27 53q222 89 222 195q0 45 -26 79.5t-95 34.5q-84 0 -164 -92l-39 45q25 25 41.5 39t44 32.5t60 27t71.5 8.5 q47 0 81.5 -16t52 -42.5t25 -54t7.5 -57.5q0 -116 -129 -187q70 -15 110.5 -64.5t40.5 -115.5q0 -95 -60.5 -161t-176.5 -66q-95 0 -201 69zM834 201v18l344 526h20v-491h90v-53h-90v-201h-57v201h-307zM920 254h221v344z" />
<glyph unicode="&#xbf;" horiz-adv-x="782" d="M82 307q0 63 21.5 118t56 97t76 82.5t82.5 81.5t75.5 84.5t56 102t21.5 124.5q0 52 -14 109h41q49 -85 49 -170q0 -54 -21 -106.5t-54.5 -96t-74.5 -86.5t-81.5 -83.5t-74 -80.5t-54.5 -85t-21 -89q0 -115 56.5 -176t170.5 -61q122 0 277 71l30 -77q-96 -42 -159 -59 t-144 -17q-75 0 -133.5 24t-91.5 59.5t-54.5 81t-28.5 82.5t-7 70zM383 1348q0 35 25.5 60.5t60.5 25.5t61.5 -25.5t26.5 -60.5t-26.5 -61.5t-61.5 -26.5t-60.5 26.5t-25.5 61.5z" />
<glyph unicode="&#xc0;" horiz-adv-x="1148" d="M20 0l494 1434h123l491 -1434h-88l-149 436h-631l-151 -436h-89zM289 518h573l-284 836zM414 1913h112l207 -332h-51z" />
<glyph unicode="&#xc1;" horiz-adv-x="1148" d="M20 0l494 1434h123l491 -1434h-88l-149 436h-631l-151 -436h-89zM289 518h573l-284 836zM414 1581l207 332h112l-268 -332h-51z" />
<glyph unicode="&#xc2;" horiz-adv-x="1148" d="M20 0l494 1434h123l491 -1434h-88l-149 436h-631l-151 -436h-89zM289 518h573l-284 836zM293 1581l221 332h119l221 -332h-51l-230 262l-229 -262h-51z" />
<glyph unicode="&#xc3;" horiz-adv-x="1148" d="M20 0l494 1434h123l491 -1434h-88l-149 436h-631l-151 -436h-89zM250 1718q43 56 86 82.5t110 26.5q43 0 80.5 -16t60 -35.5t53 -35.5t62.5 -16q52 0 86.5 18.5t73.5 69.5l35 -45q-42 -55 -86 -81.5t-111 -26.5q-43 0 -80.5 16t-60 35t-53 35t-62.5 16q-52 0 -86 -18.5 t-73 -69.5zM289 518h573l-284 836z" />
<glyph unicode="&#xc4;" horiz-adv-x="1148" d="M20 0l494 1434h123l491 -1434h-88l-149 436h-631l-151 -436h-89zM289 518h573l-284 836zM322 1735q0 29 19.5 49t47.5 20q29 0 49.5 -20t20.5 -49q0 -27 -20.5 -47.5t-49.5 -20.5q-27 0 -47 20.5t-20 47.5zM690 1735q0 29 20 49t48 20q29 0 49 -20t20 -49 q0 -27 -20 -47.5t-49 -20.5q-27 0 -47.5 20.5t-20.5 47.5z" />
<glyph unicode="&#xc5;" horiz-adv-x="1148" d="M20 0l494 1434h123l491 -1434h-88l-149 436h-631l-151 -436h-89zM289 518h573l-284 836zM410 1741q0 69 48 116.5t117 47.5t116.5 -47.5t47.5 -116.5t-47.5 -117.5t-116.5 -48.5t-117 48.5t-48 117.5zM475 1741q0 -40 28.5 -68t69.5 -28q40 0 67.5 28t27.5 68 q0 41 -27.5 68.5t-67.5 27.5q-41 0 -69.5 -27.5t-28.5 -68.5z" />
<glyph unicode="&#xc6;" horiz-adv-x="1673" d="M20 0l699 1434h840v-82h-701l113 -570h538v-82h-522l125 -618h469v-82h-541l-88 436h-630l-213 -436h-89zM362 518h574l-164 836z" />
<glyph unicode="&#xc7;" horiz-adv-x="1198" d="M82 717q0 120 24.5 229.5t76.5 204t127 164t182.5 109.5t236.5 40q110 0 186 -16t164 -53l-35 -84q-97 41 -157 56t-158 15q-135 0 -243 -50t-178 -139t-107 -210.5t-37 -265.5q0 -308 146.5 -487t418.5 -179q54 0 101.5 10.5t98.5 36.5t81 44.5t90 58.5l37 -70 q-215 -162 -408 -162q-40 0 -106 8l-41 -96q79 -10 120 -46.5t41 -86.5q0 -59 -53.5 -103t-126.5 -44q-47 0 -110 18v53q43 -12 94 -12t80.5 19.5t29.5 58.5q0 34 -23.5 53t-84.5 29l-49 8l59 160q-158 37 -267.5 144t-159.5 255t-50 330z" />
<glyph unicode="&#xc8;" horiz-adv-x="919" d="M143 0v1434h662v-82h-580v-570h531v-82h-531v-618h602v-82h-684zM299 1913h113l206 -332h-51z" />
<glyph unicode="&#xc9;" horiz-adv-x="919" d="M143 0v1434h662v-82h-580v-570h531v-82h-531v-618h602v-82h-684zM299 1581l207 332h112l-268 -332h-51z" />
<glyph unicode="&#xca;" horiz-adv-x="919" d="M143 0v1434h662v-82h-580v-570h531v-82h-531v-618h602v-82h-684zM178 1581l221 332h119l221 -332h-51l-229 262l-230 -262h-51z" />
<glyph unicode="&#xcb;" horiz-adv-x="919" d="M143 0v1434h662v-82h-580v-570h531v-82h-531v-618h602v-82h-684zM207 1735q0 29 19.5 49t47.5 20q29 0 49.5 -20t20.5 -49q0 -27 -20.5 -47.5t-49.5 -20.5q-27 0 -47 20.5t-20 47.5zM575 1735q0 29 20 49t48 20q29 0 49.5 -20t20.5 -49q0 -27 -20.5 -47.5t-49.5 -20.5 q-27 0 -47.5 20.5t-20.5 47.5z" />
<glyph unicode="&#xcc;" horiz-adv-x="368" d="M25 1913h112l207 -332h-51zM143 0v1434h82v-1434h-82z" />
<glyph unicode="&#xcd;" horiz-adv-x="368" d="M25 1581l206 332h113l-268 -332h-51zM143 0v1434h82v-1434h-82z" />
<glyph unicode="&#xce;" horiz-adv-x="368" d="M-96 1581l221 332h119l221 -332h-51l-230 262l-229 -262h-51zM143 0v1434h82v-1434h-82z" />
<glyph unicode="&#xcf;" horiz-adv-x="409" d="M57 1690q0 24 18 41.5t40 17.5q26 0 42.5 -17t16.5 -42q0 -24 -16.5 -41t-42.5 -17q-22 0 -40 17.5t-18 40.5zM164 0v1434h82v-1434h-82zM242 1690q0 24 17.5 41.5t39.5 17.5q26 0 42.5 -17t16.5 -42q0 -24 -16.5 -41t-42.5 -17q-22 0 -39.5 17.5t-17.5 40.5z" />
<glyph unicode="&#xd0;" horiz-adv-x="1230" d="M20 686v62h123v686h396q131 0 237 -44.5t174 -116.5t114 -167t65.5 -192t19.5 -197t-19.5 -197t-65.5 -192t-114 -167t-174 -116.5t-237 -44.5h-396v686h-123zM225 82h283q138 0 245.5 47t175.5 132t103 200t35 256t-35 256t-103 200t-175.5 132t-245.5 47h-283v-604h369 v-62h-369v-604z" />
<glyph unicode="&#xd1;" horiz-adv-x="1351" d="M143 0v1434h66l917 -1268v1268h82v-1434h-65l-918 1266v-1266h-82zM362 1718q43 55 86.5 82t110.5 27q43 0 80.5 -16t60 -35.5t53 -35.5t62.5 -16q52 0 86.5 18.5t73.5 69.5l35 -45q-42 -55 -86 -81.5t-111 -26.5q-43 0 -80.5 16t-60 35t-53 35t-62.5 16 q-52 0 -86.5 -18.5t-73.5 -69.5z" />
<glyph unicode="&#xd2;" horiz-adv-x="1482" d="M82 717q0 114 27 222.5t82 203.5t132.5 166.5t185 113t232.5 41.5t232.5 -41.5t185 -113t133 -166.5t82.5 -203.5t27 -222.5t-27 -222.5t-82.5 -203.5t-133 -167t-185 -113.5t-232.5 -41.5t-232.5 41.5t-185 113.5t-132.5 167t-82 203.5t-27 222.5zM164 717 q0 -190 77 -343t208.5 -238t291.5 -85q121 0 228 50t184 137.5t121.5 211.5t44.5 267q0 190 -76 342.5t-208 237.5t-294 85t-294 -85t-207.5 -237.5t-75.5 -342.5zM582 1913h112l207 -332h-51z" />
<glyph unicode="&#xd3;" horiz-adv-x="1482" d="M82 717q0 114 27 222.5t82 203.5t132.5 166.5t185 113t232.5 41.5t232.5 -41.5t185 -113t133 -166.5t82.5 -203.5t27 -222.5t-27 -222.5t-82.5 -203.5t-133 -167t-185 -113.5t-232.5 -41.5t-232.5 41.5t-185 113.5t-132.5 167t-82 203.5t-27 222.5zM164 717 q0 -190 77 -343t208.5 -238t291.5 -85q121 0 228 50t184 137.5t121.5 211.5t44.5 267q0 190 -76 342.5t-208 237.5t-294 85t-294 -85t-207.5 -237.5t-75.5 -342.5zM582 1581l206 332h113l-268 -332h-51z" />
<glyph unicode="&#xd4;" horiz-adv-x="1482" d="M82 717q0 114 27 222.5t82 203.5t132.5 166.5t185 113t232.5 41.5t232.5 -41.5t185 -113t133 -166.5t82.5 -203.5t27 -222.5t-27 -222.5t-82.5 -203.5t-133 -167t-185 -113.5t-232.5 -41.5t-232.5 41.5t-185 113.5t-132.5 167t-82 203.5t-27 222.5zM164 717 q0 -190 77 -343t208.5 -238t291.5 -85q121 0 228 50t184 137.5t121.5 211.5t44.5 267q0 190 -76 342.5t-208 237.5t-294 85t-294 -85t-207.5 -237.5t-75.5 -342.5zM461 1581l221 332h119l221 -332h-51l-230 262l-229 -262h-51z" />
<glyph unicode="&#xd5;" horiz-adv-x="1482" d="M82 717q0 114 27 222.5t82 203.5t132.5 166.5t185 113t232.5 41.5t232.5 -41.5t185 -113t133 -166.5t82.5 -203.5t27 -222.5t-27 -222.5t-82.5 -203.5t-133 -167t-185 -113.5t-232.5 -41.5t-232.5 41.5t-185 113.5t-132.5 167t-82 203.5t-27 222.5zM164 717 q0 -190 77 -343t208.5 -238t291.5 -85q121 0 228 50t184 137.5t121.5 211.5t44.5 267q0 190 -76 342.5t-208 237.5t-294 85t-294 -85t-207.5 -237.5t-75.5 -342.5zM418 1718q43 56 86 82.5t110 26.5q43 0 80.5 -16t60 -35.5t53 -35.5t62.5 -16q52 0 86.5 18.5t73.5 69.5 l35 -45q-42 -55 -86 -81.5t-111 -26.5q-43 0 -80.5 16t-60 35t-53 35t-62.5 16q-52 0 -86 -18.5t-73 -69.5z" />
<glyph unicode="&#xd6;" horiz-adv-x="1482" d="M82 717q0 114 27 222.5t82 203.5t132.5 166.5t185 113t232.5 41.5t232.5 -41.5t185 -113t133 -166.5t82.5 -203.5t27 -222.5t-27 -222.5t-82.5 -203.5t-133 -167t-185 -113.5t-232.5 -41.5t-232.5 41.5t-185 113.5t-132.5 167t-82 203.5t-27 222.5zM164 717 q0 -190 77 -343t208.5 -238t291.5 -85q121 0 228 50t184 137.5t121.5 211.5t44.5 267q0 190 -76 342.5t-208 237.5t-294 85t-294 -85t-207.5 -237.5t-75.5 -342.5zM487 1735q0 29 20 49t48 20q29 0 49.5 -20t20.5 -49q0 -27 -20.5 -47.5t-49.5 -20.5q-27 0 -47.5 20.5 t-20.5 47.5zM856 1735q0 29 20 49t48 20q29 0 49 -20t20 -49q0 -27 -20 -47.5t-49 -20.5q-27 0 -47.5 20.5t-20.5 47.5z" />
<glyph unicode="&#xd7;" horiz-adv-x="1310" d="M180 172l432 430l-432 430l45 45l430 -432l430 432l45 -45l-432 -430l432 -430l-45 -45l-430 432l-430 -432z" />
<glyph unicode="&#xd8;" horiz-adv-x="1482" d="M82 717q0 114 27 222.5t82 203.5t132.5 166.5t185 113t232.5 41.5q221 0 385 -129l68 99h84l-100 -144q107 -106 165 -257.5t58 -315.5q0 -114 -27 -222.5t-82.5 -203.5t-133 -167t-185 -113.5t-232.5 -41.5q-226 0 -385 127l-67 -96h-84l98 143q-107 105 -164 256.5 t-57 317.5zM164 717q0 -152 50 -281.5t140 -220.5l723 1051q-147 116 -336 116q-162 0 -294 -85t-207.5 -237.5t-75.5 -342.5zM406 168q149 -117 335 -117q121 0 228 50t184 137.5t121.5 211.5t44.5 267q0 152 -50 281.5t-139 220.5z" />
<glyph unicode="&#xd9;" horiz-adv-x="1267" d="M133 432v1004h82v-1004q0 -168 106 -274.5t314 -106.5q209 0 313.5 106t104.5 275v1004h82v-1004q0 -224 -134.5 -343.5t-365.5 -119.5t-366.5 119.5t-135.5 343.5zM473 1913h113l207 -332h-52z" />
<glyph unicode="&#xda;" horiz-adv-x="1267" d="M133 432v1004h82v-1004q0 -168 106 -274.5t314 -106.5q209 0 313.5 106t104.5 275v1004h82v-1004q0 -224 -134.5 -343.5t-365.5 -119.5t-366.5 119.5t-135.5 343.5zM473 1581l207 332h113l-269 -332h-51z" />
<glyph unicode="&#xdb;" horiz-adv-x="1267" d="M133 432v1004h82v-1004q0 -168 106 -274.5t314 -106.5q209 0 313.5 106t104.5 275v1004h82v-1004q0 -224 -134.5 -343.5t-365.5 -119.5t-366.5 119.5t-135.5 343.5zM352 1581l221 332h119l221 -332h-51l-229 262l-230 -262h-51z" />
<glyph unicode="&#xdc;" horiz-adv-x="1267" d="M133 432v1004h82v-1004q0 -168 106 -274.5t314 -106.5q209 0 313.5 106t104.5 275v1004h82v-1004q0 -224 -134.5 -343.5t-365.5 -119.5t-366.5 119.5t-135.5 343.5zM381 1735q0 29 20 49t48 20q29 0 49 -20t20 -49q0 -27 -20 -47.5t-49 -20.5q-27 0 -47.5 20.5 t-20.5 47.5zM750 1735q0 29 19.5 49t47.5 20q29 0 49.5 -20t20.5 -49q0 -27 -20.5 -47.5t-49.5 -20.5q-27 0 -47 20.5t-20 47.5z" />
<glyph unicode="&#xdd;" horiz-adv-x="1064" d="M20 1434h93l419 -807l420 807h92l-471 -899v-535h-81v535zM434 1581l207 332h113l-269 -332h-51z" />
<glyph unicode="&#xde;" horiz-adv-x="952" d="M143 0v1464h82v-290h250q109 0 205 -50t158.5 -149t62.5 -227q0 -96 -36.5 -176.5t-97 -132t-136 -79.5t-156.5 -28h-250v-332h-82zM225 414h213q171 0 270 92t99 242q0 151 -99.5 247.5t-269.5 96.5h-213v-678z" />
<glyph unicode="&#xdf;" horiz-adv-x="1038" d="M164 0v967q0 90 14 164t37 124.5t56 89t66.5 60.5t73 36t72 18.5t66.5 4.5q154 0 232.5 -82.5t78.5 -201.5q0 -56 -20 -98.5t-51.5 -69.5t-70 -49t-77 -43t-70 -44.5t-51.5 -60t-20 -84.5q0 -50 26.5 -86t68.5 -57.5t92.5 -40t101.5 -40t93 -50t68.5 -77t26.5 -114.5 q0 -72 -23.5 -128t-57.5 -87t-78 -50.5t-79 -25.5t-67 -6q-67 0 -125 20t-91.5 42.5t-97.5 72.5l41 64q74 -63 129.5 -93t126.5 -30q133 0 186.5 53.5t53.5 155.5q0 54 -26 93.5t-67 63t-91 43.5t-100.5 41t-91.5 47.5t-67 71t-26 105.5t20 108t51.5 76.5t70 53.5t77 45 t70 43.5t51.5 56.5t20 78q0 93 -61 151t-174 58q-23 0 -46 -3t-55 -14t-59.5 -29t-56 -50.5t-49 -75t-33 -107t-12.5 -143.5v-967h-76z" />
<glyph unicode="&#xe0;" horiz-adv-x="929" d="M82 236q0 90 48.5 158.5t137.5 112t204 68t259 31.5q0 90 -21.5 154.5t-59.5 99t-82.5 49.5t-98.5 15q-58 0 -143.5 -16t-151.5 -38l-22 74q171 55 323 55q332 0 332 -411v-588h-76v160q-194 -183 -389 -183q-116 0 -188 75t-72 184zM158 240q0 -84 56 -135.5t148 -51.5 q83 0 181 58.5t188 142.5v276q-117 -5 -216.5 -23.5t-181.5 -52.5t-128.5 -88.5t-46.5 -125.5zM305 1446h113l207 -332h-52z" />
<glyph unicode="&#xe1;" horiz-adv-x="929" d="M82 236q0 90 48.5 158.5t137.5 112t204 68t259 31.5q0 90 -21.5 154.5t-59.5 99t-82.5 49.5t-98.5 15q-58 0 -143.5 -16t-151.5 -38l-22 74q171 55 323 55q332 0 332 -411v-588h-76v160q-194 -183 -389 -183q-116 0 -188 75t-72 184zM158 240q0 -84 56 -135.5t148 -51.5 q83 0 181 58.5t188 142.5v276q-117 -5 -216.5 -23.5t-181.5 -52.5t-128.5 -88.5t-46.5 -125.5zM301 1114l207 332h113l-269 -332h-51z" />
<glyph unicode="&#xe2;" horiz-adv-x="929" d="M82 236q0 90 48.5 158.5t137.5 112t204 68t259 31.5q0 90 -21.5 154.5t-59.5 99t-82.5 49.5t-98.5 15q-58 0 -143.5 -16t-151.5 -38l-22 74q171 55 323 55q332 0 332 -411v-588h-76v160q-194 -183 -389 -183q-116 0 -188 75t-72 184zM158 240q0 -84 56 -135.5t148 -51.5 q83 0 181 58.5t188 142.5v276q-117 -5 -216.5 -23.5t-181.5 -52.5t-128.5 -88.5t-46.5 -125.5zM205 1114l221 332h119l221 -332h-51l-230 262l-229 -262h-51z" />
<glyph unicode="&#xe3;" horiz-adv-x="929" d="M82 236q0 90 48.5 158.5t137.5 112t204 68t259 31.5q0 90 -21.5 154.5t-59.5 99t-82.5 49.5t-98.5 15q-58 0 -143.5 -16t-151.5 -38l-22 74q171 55 323 55q332 0 332 -411v-588h-76v160q-194 -183 -389 -183q-116 0 -188 75t-72 184zM141 1251q43 55 86.5 82t110.5 27 q43 0 80.5 -16t60 -35.5t53 -35.5t62.5 -16q52 0 86.5 18.5t73.5 70.5l34 -46q-43 -55 -86 -81.5t-110 -26.5q-43 0 -80.5 16t-60 35t-53 35t-62.5 16q-52 0 -86.5 -18.5t-73.5 -69.5zM158 240q0 -84 56 -135.5t148 -51.5q83 0 181 58.5t188 142.5v276q-117 -5 -216.5 -23.5 t-181.5 -52.5t-128.5 -88.5t-46.5 -125.5z" />
<glyph unicode="&#xe4;" horiz-adv-x="929" d="M82 236q0 90 48.5 158.5t137.5 112t204 68t259 31.5q0 90 -21.5 154.5t-59.5 99t-82.5 49.5t-98.5 15q-58 0 -143.5 -16t-151.5 -38l-22 74q171 55 323 55q332 0 332 -411v-588h-76v160q-194 -183 -389 -183q-116 0 -188 75t-72 184zM158 240q0 -84 56 -135.5t148 -51.5 q83 0 181 58.5t188 142.5v276q-117 -5 -216.5 -23.5t-181.5 -52.5t-128.5 -88.5t-46.5 -125.5zM213 1268q0 29 20 49t48 20q29 0 49 -20t20 -49q0 -27 -20 -47.5t-49 -20.5q-27 0 -47.5 20.5t-20.5 47.5zM582 1268q0 29 19.5 49t47.5 20q29 0 49.5 -20t20.5 -49 q0 -27 -20.5 -47.5t-49.5 -20.5q-27 0 -47 20.5t-20 47.5z" />
<glyph unicode="&#xe5;" horiz-adv-x="929" d="M82 236q0 90 48.5 158.5t137.5 112t204 68t259 31.5q0 90 -21.5 154.5t-59.5 99t-82.5 49.5t-98.5 15q-58 0 -143.5 -16t-151.5 -38l-22 74q171 55 323 55q332 0 332 -411v-588h-76v160q-194 -183 -389 -183q-116 0 -188 75t-72 184zM158 240q0 -84 56 -135.5t148 -51.5 q83 0 181 58.5t188 142.5v276q-117 -5 -216.5 -23.5t-181.5 -52.5t-128.5 -88.5t-46.5 -125.5zM319 1274q0 69 48.5 116.5t117.5 47.5t116.5 -47.5t47.5 -116.5t-47.5 -117.5t-116.5 -48.5t-117.5 48.5t-48.5 117.5zM385 1274q0 -40 28.5 -68t69.5 -28q40 0 67.5 28t27.5 68 q0 41 -27.5 68.5t-67.5 27.5q-41 0 -69.5 -27.5t-28.5 -68.5z" />
<glyph unicode="&#xe6;" horiz-adv-x="1607" d="M82 236q0 90 48.5 158.5t137.5 112t204 68t259 31.5q0 90 -21.5 154.5t-59.5 99t-82.5 49.5t-98.5 15q-58 0 -143.5 -16t-151.5 -38l-22 74q171 55 323 55q255 0 313 -247q58 121 159 184t208 63q391 0 391 -493h-735q-4 -20 -4 -78q4 -182 109 -282.5t276 -100.5 q45 0 83 8t72 25t55 31t54 38l39 -65q-43 -30 -61.5 -42t-60.5 -33t-85.5 -29.5t-95.5 -8.5q-134 0 -241 59t-165 175q-145 -130 -250.5 -178t-193.5 -48q-116 0 -188 75t-72 184zM158 240q0 -84 56 -135.5t148 -51.5q83 0 196 66.5t202 150.5q-29 88 -29 260 q-117 -5 -216.5 -23.5t-181.5 -52.5t-128.5 -88.5t-46.5 -125.5zM817 578h641q-4 62 -15 112t-33.5 94.5t-55.5 74.5t-82 47.5t-111 17.5q-45 0 -87 -9.5t-85.5 -34t-77 -62.5t-59 -99.5t-35.5 -140.5z" />
<glyph unicode="&#xe7;" horiz-adv-x="935" d="M82 483q0 231 131.5 373.5t347.5 142.5q120 0 264 -32l-16 -80q-138 37 -258 37q-181 0 -287 -114.5t-106 -326.5q0 -200 100 -319t260 -119q90 0 179 34.5t159 84.5l39 -68q-184 -125 -348 -127l-47 -108q79 -10 120.5 -46.5t41.5 -86.5q0 -59 -54 -103.5t-127 -44.5 q-43 0 -110 19v53q43 -12 94 -12q110 0 110 77q0 34 -23.5 53t-84.5 29l-49 8l61 166q-186 19 -291.5 148.5t-105.5 361.5z" />
<glyph unicode="&#xe8;" horiz-adv-x="958" d="M82 463q0 109 26 200t68.5 152t98.5 103.5t114 61.5t117 19q391 0 391 -493h-735q-4 -20 -4 -57q0 -191 105 -297.5t280 -106.5q45 0 83 8t72 25t55 31t54 38l39 -65q-43 -30 -61.5 -42t-60.5 -33t-85.5 -29.5t-95.5 -8.5q-94 0 -176 30.5t-146.5 89.5t-101.5 155 t-37 219zM168 578h641q-4 62 -15 112t-33.5 94.5t-55.5 74.5t-82 47.5t-111 17.5q-45 0 -87 -9.5t-85.5 -34t-77 -62.5t-59 -99.5t-35.5 -140.5zM340 1446h113l206 -332h-51z" />
<glyph unicode="&#xe9;" horiz-adv-x="958" d="M82 463q0 109 26 200t68.5 152t98.5 103.5t114 61.5t117 19q391 0 391 -493h-735q-4 -20 -4 -57q0 -191 105 -297.5t280 -106.5q45 0 83 8t72 25t55 31t54 38l39 -65q-43 -30 -61.5 -42t-60.5 -33t-85.5 -29.5t-95.5 -8.5q-94 0 -176 30.5t-146.5 89.5t-101.5 155 t-37 219zM168 578h641q-4 62 -15 112t-33.5 94.5t-55.5 74.5t-82 47.5t-111 17.5q-45 0 -87 -9.5t-85.5 -34t-77 -62.5t-59 -99.5t-35.5 -140.5zM360 1114l207 332h113l-268 -332h-52z" />
<glyph unicode="&#xea;" horiz-adv-x="958" d="M82 463q0 109 26 200t68.5 152t98.5 103.5t114 61.5t117 19q391 0 391 -493h-735q-4 -20 -4 -57q0 -191 105 -297.5t280 -106.5q45 0 83 8t72 25t55 31t54 38l39 -65q-43 -30 -61.5 -42t-60.5 -33t-85.5 -29.5t-95.5 -8.5q-94 0 -176 30.5t-146.5 89.5t-101.5 155 t-37 219zM168 578h641q-4 62 -15 112t-33.5 94.5t-55.5 74.5t-82 47.5t-111 17.5q-45 0 -87 -9.5t-85.5 -34t-77 -62.5t-59 -99.5t-35.5 -140.5zM229 1114l222 332h118l222 -332h-52l-229 262l-229 -262h-52z" />
<glyph unicode="&#xeb;" horiz-adv-x="958" d="M82 463q0 109 26 200t68.5 152t98.5 103.5t114 61.5t117 19q391 0 391 -493h-735q-4 -20 -4 -57q0 -191 105 -297.5t280 -106.5q45 0 83 8t72 25t55 31t54 38l39 -65q-43 -30 -61.5 -42t-60.5 -33t-85.5 -29.5t-95.5 -8.5q-94 0 -176 30.5t-146.5 89.5t-101.5 155 t-37 219zM168 578h641q-4 62 -15 112t-33.5 94.5t-55.5 74.5t-82 47.5t-111 17.5q-45 0 -87 -9.5t-85.5 -34t-77 -62.5t-59 -99.5t-35.5 -140.5zM227 1268q0 29 20 49t48 20q29 0 49.5 -20t20.5 -49q0 -27 -20.5 -47.5t-49.5 -20.5q-27 0 -47.5 20.5t-20.5 47.5zM596 1268 q0 29 20 49t48 20q29 0 49 -20t20 -49q0 -27 -20 -47.5t-49 -20.5q-27 0 -47.5 20.5t-20.5 47.5z" />
<glyph unicode="&#xec;" horiz-adv-x="321" d="M2 1446h113l207 -332h-52zM125 0v967h76v-967h-76z" />
<glyph unicode="&#xed;" horiz-adv-x="321" d="M2 1114l207 332h113l-269 -332h-51zM125 0v967h76v-967h-76z" />
<glyph unicode="&#xee;" horiz-adv-x="321" d="M-119 1114l221 332h119l221 -332h-51l-229 262l-230 -262h-51zM125 0v967h76v-967h-76z" />
<glyph unicode="&#xef;" horiz-adv-x="362" d="M39 1284q0 24 17.5 41.5t39.5 17.5q26 0 43 -17t17 -42q0 -24 -17 -40.5t-43 -16.5q-22 0 -39.5 17t-17.5 40zM143 0v967h76v-967h-76zM207 1284q0 24 17.5 41.5t39.5 17.5q26 0 43 -17t17 -42q0 -24 -17 -40.5t-43 -16.5q-22 0 -39.5 17t-17.5 40z" />
<glyph unicode="&#xf0;" horiz-adv-x="1026" d="M82 455q0 268 131 406t350 138q137 0 250 -65q-95 330 -358 428l-54 -160l-67 23l51 157q-80 21 -176 27v74q105 -6 201 -31l41 125l67 -21l-41 -124q233 -86 350 -303.5t117 -530.5q0 -281 -128 -455t-335 -174q-79 0 -150.5 32t-127 92t-88.5 153.5t-33 208.5zM158 455 q0 -183 98.5 -297.5t232.5 -114.5q113 0 199 74.5t131 201t45 285.5q0 128 -28 246q-148 76 -265 76q-112 0 -194 -36t-129 -101.5t-68.5 -148t-21.5 -185.5z" />
<glyph unicode="&#xf1;" horiz-adv-x="993" d="M123 0v967h76v-117q78 75 152 110t167 35q72 0 135.5 -25t115.5 -75.5t82 -136t30 -197.5v-561h-76v561q0 172 -87 265.5t-210 93.5q-78 0 -165.5 -46t-143.5 -124v-750h-76zM186 1251q43 55 86.5 82t110.5 27q43 0 80.5 -16t60 -35.5t53 -35.5t62.5 -16q52 0 86.5 18.5 t73.5 70.5l35 -46q-42 -55 -86 -81.5t-111 -26.5q-43 0 -80.5 16t-60 35t-53 35t-62.5 16q-52 0 -86.5 -18.5t-73.5 -69.5z" />
<glyph unicode="&#xf2;" horiz-adv-x="1064" d="M82 483q0 246 124 380t326 134q203 0 327 -134.5t124 -379.5t-124 -379.5t-327 -134.5q-202 0 -326 134t-124 380zM158 483q0 -115 30.5 -202t84 -137t118.5 -74.5t141 -24.5t141.5 24.5t119 74.5t84 137t30.5 202q0 93 -20.5 168t-55.5 125t-83 83.5t-102 48t-114 14.5 q-76 0 -141 -24.5t-118.5 -74.5t-84 -137.5t-30.5 -202.5zM393 1446h113l207 -332h-51z" />
<glyph unicode="&#xf3;" horiz-adv-x="1064" d="M82 483q0 246 124 380t326 134q203 0 327 -134.5t124 -379.5t-124 -379.5t-327 -134.5q-202 0 -326 134t-124 380zM158 483q0 -115 30.5 -202t84 -137t118.5 -74.5t141 -24.5t141.5 24.5t119 74.5t84 137t30.5 202q0 93 -20.5 168t-55.5 125t-83 83.5t-102 48t-114 14.5 q-76 0 -141 -24.5t-118.5 -74.5t-84 -137.5t-30.5 -202.5zM414 1114l207 332h112l-268 -332h-51z" />
<glyph unicode="&#xf4;" horiz-adv-x="1064" d="M82 483q0 246 124 380t326 134q203 0 327 -134.5t124 -379.5t-124 -379.5t-327 -134.5q-202 0 -326 134t-124 380zM158 483q0 -115 30.5 -202t84 -137t118.5 -74.5t141 -24.5t141.5 24.5t119 74.5t84 137t30.5 202q0 93 -20.5 168t-55.5 125t-83 83.5t-102 48t-114 14.5 q-76 0 -141 -24.5t-118.5 -74.5t-84 -137.5t-30.5 -202.5zM252 1114l221 332h119l221 -332h-51l-230 262l-229 -262h-51z" />
<glyph unicode="&#xf5;" horiz-adv-x="1064" d="M82 483q0 246 124 380t326 134q203 0 327 -134.5t124 -379.5t-124 -379.5t-327 -134.5q-202 0 -326 134t-124 380zM158 483q0 -115 30.5 -202t84 -137t118.5 -74.5t141 -24.5t141.5 24.5t119 74.5t84 137t30.5 202q0 93 -20.5 168t-55.5 125t-83 83.5t-102 48t-114 14.5 q-76 0 -141 -24.5t-118.5 -74.5t-84 -137.5t-30.5 -202.5zM209 1251q43 55 86.5 82t110.5 27q43 0 80.5 -16t60 -35.5t53 -35.5t62.5 -16q52 0 86 18.5t73 70.5l35 -46q-42 -55 -86 -81.5t-111 -26.5q-43 0 -80.5 16t-60 35t-53 35t-62.5 16q-52 0 -86 -18.5t-73 -69.5z" />
<glyph unicode="&#xf6;" horiz-adv-x="1064" d="M82 483q0 246 124 380t326 134q203 0 327 -134.5t124 -379.5t-124 -379.5t-327 -134.5q-202 0 -326 134t-124 380zM158 483q0 -115 30.5 -202t84 -137t118.5 -74.5t141 -24.5t141.5 24.5t119 74.5t84 137t30.5 202q0 93 -20.5 168t-55.5 125t-83 83.5t-102 48t-114 14.5 q-76 0 -141 -24.5t-118.5 -74.5t-84 -137.5t-30.5 -202.5zM279 1268q0 29 19.5 49t47.5 20q29 0 49.5 -20t20.5 -49q0 -27 -20.5 -47.5t-49.5 -20.5q-27 0 -47 20.5t-20 47.5zM647 1268q0 29 20 49t48 20q29 0 49 -20t20 -49q0 -27 -20 -47.5t-49 -20.5q-27 0 -47.5 20.5 t-20.5 47.5z" />
<glyph unicode="&#xf7;" horiz-adv-x="1310" d="M102 551v61h1106v-61h-1106zM580 262q0 31 23 53.5t54 22.5t53.5 -22.5t22.5 -53.5t-22.5 -54.5t-53.5 -23.5t-54 23.5t-23 54.5zM580 901q0 31 23 53.5t54 22.5t53.5 -22.5t22.5 -53.5t-22.5 -54.5t-53.5 -23.5t-54 23.5t-23 54.5z" />
<glyph unicode="&#xf8;" horiz-adv-x="1064" d="M61 0l119 135q-98 135 -98 348q0 246 124 380t326 134q192 0 310 -118l78 88h84l-121 -136q100 -137 100 -348q0 -245 -124 -379.5t-327 -134.5q-191 0 -311 117l-76 -86h-84zM158 483q0 -180 73 -290l560 630q-102 99 -259 99q-76 0 -141 -24.5t-118.5 -74.5t-84 -137.5 t-30.5 -202.5zM272 143q98 -98 260 -98q76 0 141.5 24.5t119 74.5t84 137t30.5 202q0 178 -76 291z" />
<glyph unicode="&#xf9;" horiz-adv-x="944" d="M113 401v566h75v-566q0 -197 57.5 -273.5t194.5 -76.5q71 0 154.5 51t150.5 136v729h76v-967h-76v156q-65 -74 -148 -126.5t-171 -52.5q-159 0 -236 97.5t-77 326.5zM352 1446h113l207 -332h-51z" />
<glyph unicode="&#xfa;" horiz-adv-x="944" d="M113 401v566h75v-566q0 -197 57.5 -273.5t194.5 -76.5q71 0 154.5 51t150.5 136v729h76v-967h-76v156q-65 -74 -148 -126.5t-171 -52.5q-159 0 -236 97.5t-77 326.5zM352 1114l207 332h113l-269 -332h-51z" />
<glyph unicode="&#xfb;" horiz-adv-x="944" d="M113 401v566h75v-566q0 -197 57.5 -273.5t194.5 -76.5q71 0 154.5 51t150.5 136v729h76v-967h-76v156q-65 -74 -148 -126.5t-171 -52.5q-159 0 -236 97.5t-77 326.5zM190 1114l222 332h118l222 -332h-52l-229 262l-229 -262h-52z" />
<glyph unicode="&#xfc;" horiz-adv-x="944" d="M113 401v566h75v-566q0 -197 57.5 -273.5t194.5 -76.5q71 0 154.5 51t150.5 136v729h76v-967h-76v156q-65 -74 -148 -126.5t-171 -52.5q-159 0 -236 97.5t-77 326.5zM219 1268q0 29 20 49t48 20q29 0 49 -20t20 -49q0 -27 -20 -47.5t-49 -20.5q-27 0 -47.5 20.5 t-20.5 47.5zM588 1268q0 29 19.5 49t47.5 20q29 0 49.5 -20t20.5 -49q0 -27 -20.5 -47.5t-49.5 -20.5q-27 0 -47 20.5t-20 47.5z" />
<glyph unicode="&#xfd;" horiz-adv-x="925" d="M20 967h84l357 -854l360 854h84l-577 -1366h-84l176 413zM344 1114l207 332h113l-269 -332h-51z" />
<glyph unicode="&#xfe;" horiz-adv-x="1015" d="M123 -399v1833h76v-592q25 30 68.5 63t116 63.5t142.5 30.5q60 0 117 -17t110 -55.5t93 -95t64 -141.5t24 -188q0 -108 -28 -198.5t-73.5 -151t-104.5 -103t-120.5 -61.5t-122.5 -19q-70 0 -150.5 19.5t-135.5 52.5v-440h-76zM199 119q112 -80 272 -80q64 0 128.5 26.5 t124 79.5t97 146t37.5 211q0 211 -97 318.5t-247 107.5q-91 0 -165.5 -40t-149.5 -126v-643z" />
<glyph unicode="&#xff;" horiz-adv-x="925" d="M20 967h84l357 -854l360 854h84l-577 -1366h-84l176 413zM211 1268q0 29 20 49t48 20q29 0 49 -20t20 -49q0 -27 -20 -47.5t-49 -20.5q-27 0 -47.5 20.5t-20.5 47.5zM580 1268q0 29 19.5 49t47.5 20q29 0 49.5 -20t20.5 -49q0 -27 -20.5 -47.5t-49.5 -20.5 q-27 0 -47 20.5t-20 47.5z" />
<glyph unicode="&#x152;" horiz-adv-x="2095" d="M82 717q0 114 27 222.5t82 203.5t132.5 166.5t185 113t232.5 41.5q201 0 349 -102t229 -272v344h661v-82h-579v-570h530v-82h-530v-618h602v-82h-684v342q-81 -170 -229 -271.5t-349 -101.5q-125 0 -232.5 41.5t-185 113.5t-132.5 167t-82 203.5t-27 222.5zM164 717 q0 -190 77 -343t208.5 -238t291.5 -85q121 0 228 50t184 137.5t121.5 211.5t44.5 267q0 190 -76 342.5t-208 237.5t-294 85t-294 -85t-207.5 -237.5t-75.5 -342.5z" />
<glyph unicode="&#x153;" horiz-adv-x="1783" d="M82 483q0 246 124 380t326 134q148 0 257.5 -74.5t158.5 -213.5q35 96 100 163.5t136.5 97t146.5 29.5q391 0 391 -493h-735q-4 -28 -4 -57q0 -191 105 -297.5t280 -106.5q45 0 83 8t72 25t55 31t54 38l39 -65q-43 -30 -61.5 -42t-60.5 -33t-85.5 -29.5t-95.5 -8.5 q-145 0 -258.5 70.5t-165.5 206.5q-52 -135 -160 -206t-252 -71q-202 0 -326 134t-124 380zM158 483q0 -115 30.5 -202t84 -137t118.5 -74.5t141 -24.5t141.5 24.5t119 74.5t84 137t30.5 202q0 93 -20.5 168t-55.5 125t-83 83.5t-102 48t-114 14.5q-76 0 -141 -24.5 t-118.5 -74.5t-84 -137.5t-30.5 -202.5zM993 578h641q-4 62 -15 112t-33.5 94.5t-55.5 74.5t-82 47.5t-111 17.5q-45 0 -87 -9.5t-85.5 -34t-77 -62.5t-59 -99.5t-35.5 -140.5z" />
<glyph unicode="&#x178;" horiz-adv-x="1064" d="M20 1434h93l419 -807l420 807h92l-471 -899v-535h-81v535zM279 1735q0 29 19.5 49t47.5 20q29 0 49.5 -20t20.5 -49q0 -27 -20.5 -47.5t-49.5 -20.5q-27 0 -47 20.5t-20 47.5zM647 1735q0 29 20 49t48 20q29 0 49 -20t20 -49q0 -27 -20 -47.5t-49 -20.5q-27 0 -47.5 20.5 t-20.5 47.5z" />
<glyph unicode="&#x2c6;" horiz-adv-x="888" d="M143 1114l222 332h118l222 -332h-52l-229 262l-229 -262h-52z" />
<glyph unicode="&#x2dc;" horiz-adv-x="892" d="M123 1251q43 56 86 82.5t110 26.5q43 0 80.5 -16t60 -35.5t53 -35.5t62.5 -16q52 0 86.5 18.5t73.5 70.5l35 -46q-42 -55 -86 -81.5t-111 -26.5q-43 0 -80.5 16t-60 35t-53 35t-62.5 16q-52 0 -86 -18.5t-73 -69.5z" />
<glyph unicode="&#x2000;" horiz-adv-x="956" />
<glyph unicode="&#x2001;" horiz-adv-x="1913" />
<glyph unicode="&#x2002;" horiz-adv-x="956" />
<glyph unicode="&#x2003;" horiz-adv-x="1913" />
<glyph unicode="&#x2004;" horiz-adv-x="637" />
<glyph unicode="&#x2005;" horiz-adv-x="478" />
<glyph unicode="&#x2006;" horiz-adv-x="318" />
<glyph unicode="&#x2007;" horiz-adv-x="318" />
<glyph unicode="&#x2008;" horiz-adv-x="239" />
<glyph unicode="&#x2009;" horiz-adv-x="382" />
<glyph unicode="&#x200a;" horiz-adv-x="106" />
<glyph unicode="&#x2010;" horiz-adv-x="593" d="M61 489v62h471v-62h-471z" />
<glyph unicode="&#x2011;" horiz-adv-x="593" d="M61 489v62h471v-62h-471z" />
<glyph unicode="&#x2012;" horiz-adv-x="593" d="M61 489v62h471v-62h-471z" />
<glyph unicode="&#x2013;" horiz-adv-x="1105" d="M61 498v61h983v-61h-983z" />
<glyph unicode="&#x2014;" horiz-adv-x="1605" d="M61 498v61h1483v-61h-1483z" />
<glyph unicode="&#x2018;" horiz-adv-x="393" d="M102 1133q0 52 59 147.5t107 153.5l54 -31l-113 -209q34 -3 58 -27t24 -59q0 -34 -26.5 -61t-61.5 -27q-43 0 -72 30t-29 83z" />
<glyph unicode="&#x2019;" horiz-adv-x="393" d="M72 1051l112 209q-34 3 -58 27t-24 59q0 34 26.5 61t61.5 27q43 0 72 -30t29 -83q0 -52 -59 -147.5t-107 -153.5z" />
<glyph unicode="&#x201a;" horiz-adv-x="393" d="M72 -219l112 209q-34 3 -58 27t-24 59q0 34 26.5 61t61.5 27q43 0 72 -30t29 -83q0 -52 -59 -147.5t-107 -153.5z" />
<glyph unicode="&#x201c;" horiz-adv-x="659" d="M102 1133q0 52 59 147.5t107 153.5l54 -31l-113 -209q34 -3 58 -27t24 -59q0 -34 -26.5 -61t-61.5 -27q-43 0 -72 30t-29 83zM369 1133q0 52 59 147.5t107 153.5l53 -31l-113 -209q34 -3 58 -27t24 -59q0 -34 -26.5 -61t-61.5 -27q-43 0 -71.5 30t-28.5 83z" />
<glyph unicode="&#x201d;" horiz-adv-x="659" d="M72 1051l112 209q-34 3 -58 27t-24 59q0 34 26.5 61t61.5 27q43 0 72 -30t29 -83q0 -52 -59 -147.5t-107 -153.5zM338 1051l113 209q-34 3 -58 27t-24 59q0 34 26.5 61t61.5 27q43 0 71.5 -30t28.5 -83q0 -52 -59 -147.5t-107 -153.5z" />
<glyph unicode="&#x201e;" horiz-adv-x="659" d="M72 -219l112 209q-34 3 -58 27t-24 59q0 34 26.5 61t61.5 27q43 0 72 -30t29 -83q0 -52 -59 -147.5t-107 -153.5zM338 -219l113 209q-34 3 -58 27t-24 59q0 34 26.5 61t61.5 27q43 0 71.5 -30t28.5 -83q0 -52 -59 -147.5t-107 -153.5z" />
<glyph unicode="&#x2022;" horiz-adv-x="483" d="M102 662q0 58 41.5 98.5t100.5 40.5q57 0 97 -40.5t40 -98.5q0 -57 -40 -98.5t-97 -41.5q-58 0 -100 41.5t-42 98.5z" />
<glyph unicode="&#x2026;" horiz-adv-x="1521" d="M102 76q0 35 26.5 61.5t61.5 26.5t60.5 -26.5t25.5 -61.5t-25.5 -60.5t-60.5 -25.5t-61.5 25.5t-26.5 60.5zM674 76q0 35 26.5 61.5t61.5 26.5t60.5 -26.5t25.5 -61.5t-25.5 -60.5t-60.5 -25.5t-61.5 25.5t-26.5 60.5zM1245 76q0 35 26.5 61.5t61.5 26.5t60.5 -26.5 t25.5 -61.5t-25.5 -60.5t-60.5 -25.5t-61.5 25.5t-26.5 60.5z" />
<glyph unicode="&#x202f;" horiz-adv-x="382" />
<glyph unicode="&#x2039;" horiz-adv-x="643" d="M102 471l441 473l39 -35l-383 -438l383 -438l-39 -35z" />
<glyph unicode="&#x203a;" horiz-adv-x="643" d="M61 33l383 438l-383 438l39 35l441 -473l-441 -473z" />
<glyph unicode="&#x205f;" horiz-adv-x="478" />
<glyph unicode="&#x20ac;" d="M33 571v62h73v84q0 45 3 88h-76v61h80q9 102 31 189t62 163.5t96 130t136.5 84.5t179.5 31q178 0 328 -69l-35 -84q-90 38 -155 54.5t-138 16.5q-100 0 -176.5 -37t-126.5 -107t-79.5 -162t-40.5 -210h663l-22 -61h-646q-2 -29 -2 -88v-84h580l-20 -62h-555 q6 -90 21 -163.5t46 -141.5t77 -114t117.5 -73.5t163.5 -27.5q93 0 168.5 36t161.5 114l43 -70q-88 -80 -172.5 -121t-200.5 -41q-94 0 -170 21.5t-129.5 62.5t-92 94t-62 123.5t-36 142.5t-17.5 158h-78z" />
<glyph unicode="&#x2122;" horiz-adv-x="1529" d="M102 1378v56h525v-56h-232v-702h-59v702h-234zM674 676l26 758h103l248 -654l247 654h101l28 -758h-59l-27 698l-264 -698h-53l-266 698l-25 -698h-59z" />
<glyph unicode="&#x25fc;" horiz-adv-x="965" d="M0 0v965h965v-965h-965z" />
</font>
</defs>
</svg>
